<svg width="24" height="24" viewBox="0 0 24 24" fill="none" xmlns="http://www.w3.org/2000/svg">
<path d="M12 6C13.1046 6 14 5.10457 14 4C14 2.89543 13.1046 2 12 2C10.8954 2 10 2.89543 10 4C10 5.10457 10.8954 6 12 6Z" fill="black"/>
<path d="M19.0001 12.9999V10.9999C17.4601 11.0199 15.9101 10.2499 14.9301 9.16992L13.6401 7.73992C13.4701 7.54992 13.2601 7.39992 13.0301 7.28992C13.0201 7.28992 13.0201 7.27992 13.0101 7.27992H13.0001C12.6501 7.07992 12.2501 6.97992 11.8101 7.01992C10.7601 7.10992 10.0001 8.03992 10.0001 9.08992V14.9999C10.0001 16.0999 10.9001 16.9999 12.0001 16.9999H17.0001V21.9999H19.0001V16.4999C19.0001 15.3999 18.1001 14.4999 17.0001 14.4999H14.0001V11.0499C15.2901 12.1199 17.2501 12.9899 19.0001 12.9999ZM12.8301 17.9999C12.4201 19.1599 11.3101 19.9999 10.0001 19.9999C8.34006 19.9999 7.00006 18.6599 7.00006 16.9999C7.00006 15.6899 7.84006 14.5899 9.00006 14.1699V12.0999C8.11515 12.2808 7.29576 12.698 6.62893 13.3072C5.9621 13.9164 5.47274 14.6948 5.21283 15.5598C4.95293 16.4248 4.93218 17.3441 5.15279 18.2199C5.37341 19.0958 5.82715 19.8955 6.46581 20.5342C7.10447 21.1728 7.9042 21.6266 8.78005 21.8472C9.6559 22.0678 10.5752 22.0471 11.4402 21.7871C12.3052 21.5272 13.0836 21.0379 13.6928 20.3711C14.302 19.7042 14.7192 18.8848 14.9001 17.9999H12.8301Z" fill="black"/>
</svg>
