<svg width="24" height="24" viewBox="0 0 24 24" fill="none" xmlns="http://www.w3.org/2000/svg">
<path d="M5.35 5.63987C4.45 4.99987 4.23 3.75987 4.86 2.84987C5.49 1.94987 6.74 1.72987 7.65 2.35987C8.55 2.99987 8.77 4.23987 8.14 5.14987C7.5 6.04987 6.26 6.26987 5.35 5.63987ZM16 18.9999H8.93C7.45 18.9999 6.19 17.9199 5.97 16.4599L4 6.99987H2L3.99 16.7599C4.17369 17.9409 4.77355 19.0173 5.68128 19.7948C6.589 20.5724 7.74479 20.9998 8.94 20.9999H16V18.9999ZM16.23 14.9999H11.35L10.32 10.8999C11.9 11.7899 13.6 12.4399 15.47 12.1199V9.98987C13.84 10.2999 12.03 9.71987 10.78 8.73987L9.14 7.46987C8.91 7.28987 8.65 7.16987 8.38 7.08987C8.05881 6.99512 7.72028 6.9746 7.39 7.02987H7.37C6.78113 7.13441 6.2574 7.46733 5.91279 7.95614C5.56818 8.44496 5.43061 9.05011 5.53 9.63987L6.88 15.5599C7.01191 16.2458 7.37845 16.8645 7.91673 17.3097C8.455 17.755 9.13146 17.999 9.83 17.9999H16.68L20.5 20.9999L22 19.4999L16.23 14.9999Z" fill="black"/>
</svg>
