<svg width="24" height="24" viewBox="0 0 24 24" fill="none" xmlns="http://www.w3.org/2000/svg">
<path d="M22 11V13H9V7H18C20.21 7 22 8.79 22 11ZM2 14V16H8V18H16V16H22V14H2ZM7.14 12.1C7.69653 11.5322 8.00492 10.7667 7.99742 9.97172C7.98992 9.17671 7.66714 8.41718 7.1 7.86C6.53222 7.30347 5.76674 6.99508 4.97172 7.00258C4.17671 7.01008 3.41718 7.33286 2.86 7.9C2.30347 8.46778 1.99508 9.23326 2.00258 10.0283C2.01008 10.8233 2.33286 11.5828 2.9 12.14C3.46778 12.6965 4.23326 13.0049 5.02828 12.9974C5.82329 12.9899 6.58282 12.6671 7.14 12.1Z" fill="black"/>
</svg>
