<svg width="24" height="24" viewBox="0 0 24 24" fill="none" xmlns="http://www.w3.org/2000/svg">
<path d="M22.25 14.2902L21.56 16.1802L9.2 11.7102L11.28 6.05023L19.84 9.14023C20.338 9.31783 20.7959 9.59242 21.1872 9.94811C21.5784 10.3038 21.8953 10.7335 22.1194 11.2124C22.3435 11.6914 22.4705 12.21 22.4929 12.7383C22.5153 13.2666 22.4327 13.794 22.25 14.2902ZM1.5 12.1402L8 14.4802V19.0002H16V17.3702L20.52 19.0002L21.21 17.1102L2.19 10.2502L1.5 12.1402ZM7.3 10.2002C8.01536 9.85454 8.56503 9.24005 8.82916 8.49074C9.09329 7.74143 9.05046 6.91808 8.71 6.20023C8.36355 5.48313 7.74662 4.93288 6.99472 4.67038C6.24283 4.40787 5.41748 4.45457 4.7 4.80023C4.34483 4.97026 4.02674 5.20878 3.764 5.50208C3.50126 5.79538 3.29904 6.13769 3.16896 6.50936C3.03887 6.88103 2.98349 7.27473 3.00597 7.66787C3.02846 8.061 3.12838 8.44582 3.3 8.80023C3.47003 9.1554 3.70855 9.47349 4.00185 9.73623C4.29515 9.99897 4.63747 10.2012 5.00914 10.3313C5.3808 10.4614 5.77451 10.5167 6.16764 10.4943C6.56077 10.4718 6.94559 10.3718 7.3 10.2002Z" fill="black"/>
</svg>
