<svg width="24" height="24" viewBox="0 0 24 24" fill="none" xmlns="http://www.w3.org/2000/svg">
<path d="M21.81 12.74L20.99 12.11V11.89L21.79 11.26C21.95 11.14 21.99 10.92 21.89 10.75L21.04 9.27C21.005 9.20831 20.954 9.15718 20.8924 9.12199C20.8308 9.0868 20.7609 9.06884 20.69 9.07C20.64 9.07 20.59 9.08 20.54 9.1L19.59 9.48C19.51 9.43 19.48 9.41 19.4 9.37L19.25 8.36C19.2384 8.26167 19.1914 8.17094 19.1178 8.1047C19.0442 8.03847 18.949 8.00125 18.85 8H17.14C16.94 8 16.77 8.15 16.74 8.34L16.6 9.35C16.57 9.37 16.53 9.38 16.5 9.4L16.41 9.46L15.46 9.08C15.3702 9.04298 15.27 9.0398 15.1781 9.07107C15.0861 9.10233 15.0086 9.16592 14.96 9.25L14.11 10.73C14.01 10.9 14.05 11.12 14.21 11.24L15.01 11.87V12.1L14.21 12.73C14.1336 12.7879 14.0811 12.8718 14.0627 12.9659C14.0442 13.06 14.0611 13.1576 14.11 13.24L14.96 14.72C15.03 14.85 15.17 14.92 15.31 14.92C15.36 14.92 15.41 14.91 15.46 14.89L16.41 14.52C16.49 14.57 16.53 14.59 16.61 14.63L16.76 15.64C16.79 15.84 16.96 15.98 17.16 15.98H18.87C19.07 15.98 19.24 15.83 19.27 15.64L19.42 14.63C19.45 14.61 19.49 14.6 19.52 14.58L19.61 14.52L20.56 14.9C20.6498 14.937 20.75 14.9402 20.8419 14.9089C20.9339 14.8777 21.0114 14.8141 21.06 14.73L21.91 13.25C21.9589 13.1676 21.9758 13.07 21.9573 12.9759C21.9389 12.8818 21.8864 12.7979 21.81 12.74ZM18 13.5C17.17 13.5 16.5 12.83 16.5 12C16.5 11.17 17.17 10.5 18 10.5C18.83 10.5 19.5 11.17 19.5 12C19.5 12.83 18.83 13.5 18 13.5ZM17 17H19V21C19 22.1 18.1 23 17 23H7C5.9 23 5 22.1 5 21V3C5 1.9 5.9 1 7 1H17C18.1 1 19 1.9 19 3V7H17V6H7V18H17V17Z" fill="black"/>
</svg>
