<svg width="24" height="24" viewBox="0 0 24 24" fill="none" xmlns="http://www.w3.org/2000/svg">
<path d="M23 1L20.5 2.4L18 1L19.4 3.5L18 6L20.5 4.6L23 6L21.6 3.5L23 1ZM14.66 7.22L16.78 9.34L14.34 11.78L15.15 12.59L17.7 10.04C17.7927 9.94749 17.8663 9.8376 17.9164 9.71662C17.9666 9.59565 17.9924 9.46597 17.9924 9.335C17.9924 9.20403 17.9666 9.07435 17.9164 8.95338C17.8663 8.8324 17.7927 8.72251 17.7 8.63L15.36 6.29C15.2675 6.1973 15.1576 6.12375 15.0366 6.07357C14.9157 6.02339 14.786 5.99756 14.655 5.99756C14.524 5.99756 14.3944 6.02339 14.2734 6.07357C14.1524 6.12375 14.0425 6.1973 13.95 6.29L11.4 8.84L12.21 9.65L14.66 7.22ZM13.88 13.87L10.13 10.12L3.27 3.26L2 4.53L8.86 11.39L2.29 17.96C2.1973 18.0525 2.12375 18.1624 2.07357 18.2834C2.02339 18.4043 1.99756 18.534 1.99756 18.665C1.99756 18.796 2.02339 18.9257 2.07357 19.0466C2.12375 19.1676 2.1973 19.2775 2.29 19.37L4.63 21.71C5.02 22.1 5.65 22.1 6.04 21.71L12.61 15.14L19.47 22L20.74 20.73L13.88 13.87Z" fill="black"/>
</svg>
