<svg width="24" height="24" viewBox="0 0 24 24" fill="none" xmlns="http://www.w3.org/2000/svg">
<path d="M15 2H11.5L10.5 1H5.5L4.5 2H1V4H15V2ZM16 9C15.3 9 14.63 9.1 14 9.29V5H2V17C2 18.1 2.9 19 4 19H9.68C10.3619 20.4343 11.5113 21.594 12.9394 22.2887C14.3676 22.9834 15.9895 23.1718 17.5388 22.8228C19.0882 22.4739 20.4727 21.6084 21.4652 20.3685C22.4576 19.1287 22.9988 17.5881 23 16C23 12.13 19.87 9 16 9ZM16 21C13.24 21 11 18.76 11 16C11 13.24 13.24 11 16 11C18.76 11 21 13.24 21 16C21 18.76 18.76 21 16 21Z" fill="black"/>
<path d="M16.5 12H15V17L18.6 19.1L19.4 17.9L16.5 16.2V12Z" fill="black"/>
</svg>
