<svg width="24" height="24" viewBox="0 0 24 24" fill="none" xmlns="http://www.w3.org/2000/svg">
<path fill-rule="evenodd" clip-rule="evenodd" d="M19.28 16.34L17.46 15C17.46 15 17.78 14.41 18.42 13.22C18.5049 13.0845 18.6229 12.9727 18.7628 12.8952C18.9027 12.8178 19.0601 12.7771 19.22 12.7771C19.3799 12.7771 19.5373 12.8178 19.6772 12.8952C19.8171 12.9727 19.9351 13.0845 20.02 13.22L20.83 14.48C21.02 14.78 21.04 15.16 20.89 15.48L20.67 15.95C20.6136 16.0757 20.5303 16.1874 20.426 16.2773C20.3217 16.3672 20.1989 16.4331 20.0663 16.4703C19.9337 16.5075 19.7945 16.5151 19.6586 16.4926C19.5228 16.4701 19.3935 16.418 19.28 16.34ZM4.72 16.34C4.60681 16.4173 4.47818 16.469 4.34302 16.4917C4.20786 16.5143 4.06938 16.5073 3.93719 16.4712C3.80499 16.4351 3.68223 16.3706 3.57739 16.2824C3.47255 16.1941 3.38814 16.0841 3.33 15.96L3.1 15.49C2.95 15.17 2.97 14.79 3.16 14.49L3.97 13.23C4.05491 13.0945 4.17286 12.9827 4.3128 12.9052C4.45273 12.8278 4.61005 12.7871 4.77 12.7871C4.92994 12.7871 5.08726 12.8278 5.2272 12.9052C5.36713 12.9827 5.48509 13.0945 5.57 13.23C6.22 14.41 6.54 15 6.54 15L4.72 16.34ZM15.36 9.37C15.45 8.69 16.09 8.31 16.63 8.62L18.22 9.52C18.68 9.78 18.85 10.43 18.58 10.93L16.5 15H14.7L15.36 9.37ZM8.63 9.37L9.3 15H7.5L5.41 10.92C5.14 10.42 5.31 9.77 5.77 9.51L7.36 8.61C7.89 8.31 8.54 8.69 8.63 9.37ZM13.8 15H10.2L9.46 8.12C9.39 7.53 9.81 7 10.34 7H13.64C14.17 7 14.58 7.53 14.52 8.12L13.8 15Z" fill="black"/>
</svg>
