<svg width="24" height="24" viewBox="0 0 24 24" fill="none" xmlns="http://www.w3.org/2000/svg">
<path d="M13 24C9.74004 24 6.81004 22.01 5.60004 18.98L2.57004 11.37C2.49982 11.1934 2.48137 11.0005 2.51686 10.8138C2.55234 10.627 2.6403 10.4543 2.77042 10.3158C2.90054 10.1773 3.06744 10.0787 3.25156 10.0316C3.43568 9.98457 3.62941 9.99094 3.81004 10.05L4.60004 10.31C5.16004 10.49 5.62004 10.92 5.84004 11.47L7.25004 15H8.00004V3.25C8.00004 2.91848 8.13174 2.60054 8.36616 2.36612C8.60058 2.1317 8.91852 2 9.25004 2C9.58156 2 9.89951 2.1317 10.1339 2.36612C10.3683 2.60054 10.5 2.91848 10.5 3.25V12H11.5V1.25C11.5 0.918479 11.6317 0.600537 11.8662 0.366117C12.1006 0.131696 12.4185 0 12.75 0C13.0816 0 13.3995 0.131696 13.6339 0.366117C13.8683 0.600537 14 0.918479 14 1.25V12H15V2.75C15 2.41848 15.1317 2.10054 15.3662 1.86612C15.6006 1.6317 15.9185 1.5 16.25 1.5C16.5816 1.5 16.8995 1.6317 17.1339 1.86612C17.3683 2.10054 17.5 2.41848 17.5 2.75V12H18.5V5.75C18.5 5.41848 18.6317 5.10054 18.8662 4.86612C19.1006 4.6317 19.4185 4.5 19.75 4.5C20.0816 4.5 20.3995 4.6317 20.6339 4.86612C20.8683 5.10054 21 5.41848 21 5.75V16C21 20.42 17.42 24 13 24Z" fill="black"/>
</svg>
