<svg width="24" height="24" viewBox="0 0 24 24" fill="none" xmlns="http://www.w3.org/2000/svg">
<path d="M20 2H4C2.9 2 2 2.9 2 4V20C2 21.1 2.9 22 4 22H20C21.1 22 22 21.1 22 20V4C22 2.9 21.1 2 20 2ZM12 18C9.36 18 6.87 16.97 5 15.1L6.06 14.04C6.4 14.38 6.77 14.69 7.16 14.96L8 13.5V9.51L6.45 10.5L5.5 9.5L7 7.76L6 7H9.65L11.38 10H17V11H16V13.5L16.84 14.96C17.23 14.68 17.6 14.38 17.94 14.04L19 15.1C18.0827 16.0219 16.9918 16.7529 15.7903 17.2506C14.5888 17.7484 13.3005 18.0031 12 18Z" fill="black"/>
<path d="M14.69 14.2402C12.9486 14.8903 11.0313 14.8903 9.28995 14.2402L8.47995 15.6502L8.44995 15.7102C9.54995 16.2302 10.73 16.5002 11.98 16.5002C13.23 16.5002 14.43 16.2202 15.53 15.7102L15.5 15.6502L14.69 14.2402Z" fill="black"/>
</svg>
