<svg width="24" height="24" viewBox="0 0 24 24" fill="none" xmlns="http://www.w3.org/2000/svg">
<path d="M7 13.9995C5.34 13.9995 4 15.3395 4 16.9995C4 18.3095 2.84 18.9995 2 18.9995C2.92 20.2195 4.49 20.9995 6 20.9995C8.21 20.9995 10 19.2095 10 16.9995C10 15.3395 8.66 13.9995 7 13.9995ZM20.71 4.62951L19.37 3.28951C19.2775 3.19681 19.1676 3.12326 19.0466 3.07308C18.9257 3.0229 18.796 2.99707 18.665 2.99707C18.534 2.99707 18.4043 3.0229 18.2834 3.07308C18.1624 3.12326 18.0525 3.19681 17.96 3.28951L9 12.2495L11.75 14.9995L20.71 6.03951C20.8027 5.947 20.8763 5.83711 20.9264 5.71614C20.9766 5.59517 21.0024 5.46548 21.0024 5.33451C21.0024 5.20355 20.9766 5.07386 20.9264 4.95289C20.8763 4.83192 20.8027 4.72203 20.71 4.62951Z" fill="black"/>
</svg>
