<svg width="24" height="24" viewBox="0 0 24 24" fill="none" xmlns="http://www.w3.org/2000/svg">
<path d="M16 7H15L14 6H10L9 7H8C6.9 7 6 7.9 6 9V15C6 16.1 6.9 17 8 17H16C17.1 17 18 16.1 18 15V9C18 7.9 17.1 7 16 7ZM12 14C10.9 14 10 13.1 10 12C10 10.9 10.9 10 12 10C13.1 10 14 10.9 14 12C14 13.1 13.1 14 12 14Z" fill="black"/>
<path d="M8.57 0.510481L13.05 4.99048V2.04048C17.77 2.51048 21.53 6.27048 22 10.9905H24C23.34 3.02048 15.49 -1.58952 8.57 0.510481ZM10.95 21.9605C6.23 21.4905 2.47 17.7305 2 13.0105H0C0.66 20.9805 8.51 25.5905 15.43 23.4905L10.95 19.0105V21.9605Z" fill="black"/>
</svg>
