<svg width="24" height="24" viewBox="0 0 24 24" fill="none" xmlns="http://www.w3.org/2000/svg">
<path d="M12 9C10.4 9 8.84998 9.25 7.39998 9.72V12.82C7.39998 13.21 7.16998 13.56 6.83998 13.72C5.85998 14.21 4.96998 14.84 4.17998 15.57C3.99998 15.75 3.74998 15.85 3.47998 15.85C3.19998 15.85 2.94998 15.74 2.76998 15.56L0.289981 13.08C0.196492 12.9892 0.122541 12.8803 0.0726716 12.76C0.0228019 12.6396 -0.0019346 12.5103 -1.87074e-05 12.38C-1.87074e-05 12.1 0.109981 11.85 0.289981 11.67C3.33998 8.78 7.45998 7 12 7C16.54 7 20.66 8.78 23.71 11.67C23.89 11.85 24 12.1 24 12.38C24 12.66 23.89 12.91 23.71 13.09L21.23 15.57C21.05 15.75 20.8 15.86 20.52 15.86C20.25 15.86 20 15.75 19.82 15.58C19.024 14.8376 18.1246 14.2145 17.15 13.73C16.9814 13.6479 16.8394 13.5199 16.7403 13.3607C16.6412 13.2015 16.5891 13.0175 16.59 12.83V9.73C15.15 9.25 13.6 9 12 9Z" fill="black"/>
</svg>
