<svg width="24" height="24" viewBox="0 0 24 24" fill="none" xmlns="http://www.w3.org/2000/svg">
<path d="M2 22L16 17L7 7.99996L2 22ZM14.53 12.53L20.12 6.93996C20.2361 6.82355 20.3741 6.7312 20.5259 6.66818C20.6778 6.60516 20.8406 6.57273 21.005 6.57273C21.1694 6.57273 21.3322 6.60516 21.4841 6.66818C21.6359 6.7312 21.7739 6.82355 21.89 6.93996L22.48 7.52996L23.54 6.46996L22.95 5.87996C22.4332 5.36591 21.7339 5.07735 21.005 5.07735C20.2761 5.07735 19.5768 5.36591 19.06 5.87996L13.47 11.47L14.53 12.53ZM10.06 6.87996L9.47 7.46996L10.53 8.52996L11.12 7.93996C11.6341 7.42316 11.9226 6.72388 11.9226 5.99496C11.9226 5.26604 11.6341 4.56676 11.12 4.04996L10.53 3.45996L9.47 4.52996L10.06 5.11996C10.54 5.59996 10.54 6.39996 10.06 6.87996ZM17.06 11.88L15.47 13.47L16.53 14.53L18.12 12.94C18.2361 12.8236 18.3741 12.7312 18.5259 12.6682C18.6778 12.6052 18.8406 12.5727 19.005 12.5727C19.1694 12.5727 19.3322 12.6052 19.4841 12.6682C19.6359 12.7312 19.7739 12.8236 19.89 12.94L21.5 14.55L22.56 13.49L20.95 11.88C20.4332 11.3659 19.7339 11.0773 19.005 11.0773C18.2761 11.0773 17.5768 11.3659 17.06 11.88ZM15.06 5.87996L11.47 9.46996L12.53 10.53L16.12 6.93996C16.6341 6.42316 16.9226 5.72388 16.9226 4.99496C16.9226 4.26604 16.6341 3.56676 16.12 3.04996L14.53 1.45996L13.47 2.51996L15.06 4.10996C15.54 4.59996 15.54 5.39996 15.06 5.87996Z" fill="black"/>
</svg>
