<svg width="24" height="24" viewBox="0 0 24 24" fill="none" xmlns="http://www.w3.org/2000/svg">
<path d="M18.0001 9.97957L6.00005 21.9996H22.0001V5.96957L18.0001 9.97957ZM20.0001 19.9996H18.0001V12.7796L20.0001 10.7796V19.9996ZM5.22005 7.21957L3.93005 5.92957C7.83005 2.01957 14.1701 2.01957 18.0801 5.92957L16.7901 7.21957C13.6001 4.02957 8.41005 4.02957 5.22005 7.21957ZM12.9301 11.0696L11.0001 12.9996L9.07005 11.0696C9.58328 10.5603 10.277 10.2745 11.0001 10.2745C11.7231 10.2745 12.4168 10.5603 12.9301 11.0696ZM14.2201 9.78957C12.4401 8.01957 9.56005 8.01957 7.79005 9.78957L6.50005 8.49957C7.69483 7.30855 9.31304 6.63976 11.0001 6.63976C12.6871 6.63976 14.3053 7.30855 15.5001 8.49957L14.2201 9.78957Z" fill="black"/>
</svg>
