<svg width="24" height="24" viewBox="0 0 24 24" fill="none" xmlns="http://www.w3.org/2000/svg">
<path d="M21.6 18.2008L13 11.7508V10.8408C13.7372 10.6215 14.3815 10.1651 14.8331 9.5425C15.2846 8.91987 15.5182 8.1657 15.4977 7.39683C15.4772 6.62796 15.2038 5.88731 14.7197 5.28963C14.2356 4.69194 13.5679 4.27059 12.82 4.09083C12.3049 3.96867 11.7689 3.9646 11.252 4.07892C10.7351 4.19324 10.2508 4.423 9.83527 4.75099C9.41975 5.07898 9.08379 5.49672 8.85256 5.97292C8.62133 6.44912 8.50081 6.97146 8.50002 7.50083H10.5C10.5 6.67083 11.17 6.00083 12 6.00083C12.83 6.00083 13.5 6.67083 13.5 7.50083C13.5 8.34083 12.81 9.02083 11.97 9.00083C11.43 8.99083 11 9.45083 11 9.99083V11.7508L2.40002 18.2008C1.63002 18.7808 2.04002 20.0008 3.00002 20.0008H21C21.96 20.0008 22.37 18.7808 21.6 18.2008ZM6.00002 18.0008L12 13.5008L18 18.0008H6.00002Z" fill="black"/>
</svg>
