<svg width="24" height="24" viewBox="0 0 24 24" fill="none" xmlns="http://www.w3.org/2000/svg">
<path d="M6.83001 4.00055H19C20.1 4.00055 21 4.90055 21 6.00055V18.0005C21 18.0505 20.99 18.1005 20.98 18.1605L17.6 14.7805C17.84 14.5905 18 14.3205 18 14.0005V13.0005H16.5V13.5005H16.33L14.5 11.6705V10.5005H16.5V11.0005H18V10.0005C18 9.45055 17.55 9.00055 17 9.00055H14C13.45 9.00055 13 9.45055 13 10.0005V10.1705L6.83001 4.00055ZM19.78 22.6105L17.17 20.0005H5.00001C4.46958 20.0005 3.96087 19.7898 3.5858 19.4148C3.21073 19.0397 3.00001 18.531 3.00001 18.0005V6.00055C3.00001 5.95055 3.02001 5.90055 3.02001 5.85055L1.39001 4.22055L2.80001 2.81055L21.18 21.1905L19.78 22.6105ZM11 13.8305L10.17 13.0005H9.50001V13.5005H7.50001V10.5005H7.67001L6.40001 9.22055C6.16001 9.41055 6.00001 9.68055 6.00001 10.0005V14.0005C6.00001 14.5505 6.45001 15.0005 7.00001 15.0005H10C10.55 15.0005 11 14.5505 11 14.0005V13.8305Z" fill="black"/>
</svg>
