<svg width="24" height="24" viewBox="0 0 24 24" fill="none" xmlns="http://www.w3.org/2000/svg">
<path d="M12 2C6.48 2 2 6.48 2 12C2 17.52 6.48 22 12 22C17.52 22 22 17.52 22 12C22 6.48 17.52 2 12 2ZM16.5 16H8C6.34 16 5 14.66 5 13C5 11.34 6.34 10 8 10L8.14 10.01C8.35612 9.14997 8.85327 8.38675 9.55256 7.84145C10.2519 7.29614 11.1132 7 12 7C14.21 7 16 8.79 16 11H16.5C17.163 11 17.7989 11.2634 18.2678 11.7322C18.7366 12.2011 19 12.837 19 13.5C19 14.163 18.7366 14.7989 18.2678 15.2678C17.7989 15.7366 17.163 16 16.5 16Z" fill="black"/>
</svg>
