<svg width="24" height="24" viewBox="0 0 24 24" fill="none" xmlns="http://www.w3.org/2000/svg">
<path d="M19.35 10.04C19.0141 8.33772 18.0976 6.80486 16.7571 5.70325C15.4165 4.60163 13.7351 3.99961 12 4C10.52 4 9.15 4.43 7.99 5.17L9.45 6.63C10.2879 6.19057 11.2251 5.97486 12.1708 6.00374C13.1165 6.03263 14.0388 6.30513 14.8483 6.79489C15.6579 7.28464 16.3273 7.97506 16.7919 8.79933C17.2564 9.62361 17.5003 10.5538 17.5 11.5V12H19C20.66 12 22 13.34 22 15C22 16.13 21.36 17.11 20.44 17.62L21.89 19.07C23.16 18.16 24 16.68 24 15C24 12.36 21.95 10.22 19.35 10.04ZM3 5.27L5.75 8.01C2.56 8.15 0 10.77 0 14C0 17.31 2.69 20 6 20H17.73L19.73 22L21 20.73L4.27 4L3 5.27ZM7.73 10L15.73 18H6C3.79 18 2 16.21 2 14C2 11.79 3.79 10 6 10H7.73Z" fill="black"/>
</svg>
