<svg width="24" height="24" viewBox="0 0 24 24" fill="none" xmlns="http://www.w3.org/2000/svg">
<path d="M20.71 5.63049L18.37 3.29049C18.2775 3.19779 18.1676 3.12424 18.0466 3.07406C17.9257 3.02388 17.796 2.99805 17.665 2.99805C17.534 2.99805 17.4043 3.02388 17.2834 3.07406C17.1624 3.12424 17.0525 3.19779 16.96 3.29049L13.84 6.41049L11.91 4.50049L10.5 5.91049L11.92 7.33049L3 16.2505V21.0005H7.75L16.67 12.0805L18.09 13.5005L19.5 12.0905L17.58 10.1705L20.7 7.05049C21.1 6.65049 21.1 6.02049 20.71 5.63049ZM6.92 19.0005L5 17.0805L13.06 9.02049L14.98 10.9405L6.92 19.0005Z" fill="black"/>
</svg>
