<svg width="24" height="24" viewBox="0 0 24 24" fill="none" xmlns="http://www.w3.org/2000/svg">
<path d="M13.783 15.1726L15.904 13.0516L21.9 19.0476L19.779 21.1686L13.783 15.1726ZM17.5 10.0006C19.43 10.0006 21 8.43064 21 6.50064C21 5.92064 20.84 5.38064 20.59 4.90064L17.89 7.60064L16.4 6.11064L19.1 3.41064C18.62 3.16064 18.08 3.00064 17.5 3.00064C15.57 3.00064 14 4.57064 14 6.50064C14 6.91064 14.08 7.30064 14.21 7.66064L12.36 9.51064L10.58 7.73064L11.29 7.02064L9.87998 5.61064L12 3.49064C11.4375 2.92884 10.675 2.61328 9.87998 2.61328C9.08497 2.61328 8.32248 2.92884 7.75998 3.49064L4.21998 7.03064L5.62998 8.44064H2.80998L2.09998 9.15064L5.63998 12.6906L6.34998 11.9806V9.15064L7.75998 10.5606L8.46998 9.85064L10.25 11.6306L2.83998 19.0406L4.95998 21.1606L16.34 9.79064C16.7 9.92064 17.09 10.0006 17.5 10.0006Z" fill="black"/>
</svg>
