<svg width="24" height="24" viewBox="0 0 24 24" fill="none" xmlns="http://www.w3.org/2000/svg">
<path d="M12 2C6.48 2 2 6.48 2 12C2 13.33 2.26 14.61 2.74 15.77L8 10.5L11.3 13.28L14.58 10H13V8H18V13H16V11.42L11.41 16L8.12 13.21L3.72 17.61C4.63628 18.9627 5.87016 20.0702 7.31364 20.8355C8.75712 21.6008 10.3662 22.0006 12 22H20C21.1 22 22 21.1 22 20V12C22 6.48 17.52 2 12 2ZM19.5 20.5C18.95 20.5 18.5 20.05 18.5 19.5C18.5 18.95 18.95 18.5 19.5 18.5C20.05 18.5 20.5 18.95 20.5 19.5C20.5 20.05 20.05 20.5 19.5 20.5Z" fill="black"/>
</svg>
