<svg width="24" height="24" viewBox="0 0 24 24" fill="none" xmlns="http://www.w3.org/2000/svg">
<path d="M16.24 11.5108L17.81 9.94084L14.06 6.19084L12.49 7.76084L8.35 3.63084C7.57 2.85084 6.3 2.85084 5.52 3.63084L3.62 5.53084C2.84 6.31084 2.84 7.58084 3.62 8.36084L7.75 12.4908L3 17.2508V21.0008H6.75L11.51 16.2408L15.64 20.3708C16.59 21.3208 17.87 20.9708 18.47 20.3708L20.37 18.4708C21.15 17.6908 21.15 16.4208 20.37 15.6408L16.24 11.5108ZM9.18 11.0708L5.04 6.94084L6.93 5.04084L8.2 6.31084L7.02 7.50084L8.43 8.91084L9.62 7.72084L11.07 9.17084L9.18 11.0708ZM17.06 18.9608L12.93 14.8308L14.83 12.9308L16.28 14.3808L15.09 15.5708L16.5 16.9808L17.69 15.7908L18.96 17.0608L17.06 18.9608ZM20.71 7.04084C20.8027 6.94833 20.8763 6.83844 20.9264 6.71747C20.9766 6.5965 21.0024 6.46681 21.0024 6.33584C21.0024 6.20488 20.9766 6.07519 20.9264 5.95422C20.8763 5.83325 20.8027 5.72336 20.71 5.63084L18.37 3.29084C17.9 2.82084 17.25 3.00084 16.96 3.29084L15.13 5.12084L18.88 8.87084L20.71 7.04084Z" fill="black"/>
</svg>
