<svg width="24" height="24" viewBox="0 0 24 24" fill="none" xmlns="http://www.w3.org/2000/svg">
<path d="M21.71 11.2905L12.71 2.29049C12.6175 2.19779 12.5076 2.12424 12.3866 2.07406C12.2657 2.02388 12.136 1.99805 12.005 1.99805C11.874 1.99805 11.7444 2.02388 11.6234 2.07406C11.5024 2.12424 11.3925 2.19779 11.3 2.29049L2.30001 11.2905C2.20731 11.383 2.13376 11.4929 2.08358 11.6139C2.0334 11.7348 2.00757 11.8645 2.00757 11.9955C2.00757 12.1265 2.0334 12.2561 2.08358 12.3771C2.13376 12.4981 2.20731 12.608 2.30001 12.7005L11.3 21.7005C11.69 22.0905 12.32 22.0905 12.71 21.7005L21.71 12.7005C21.8027 12.608 21.8763 12.4981 21.9264 12.3771C21.9766 12.2561 22.0025 12.1265 22.0025 11.9955C22.0025 11.8645 21.9766 11.7348 21.9264 11.6139C21.8763 11.4929 21.8027 11.383 21.71 11.2905ZM14 14.5005V12.0005H10V15.0005H8.00001V11.0005C8.00001 10.4505 8.45001 10.0005 9.00001 10.0005H14V7.50049L17.5 11.0005L14 14.5005Z" fill="black"/>
</svg>
