<svg width="24" height="24" viewBox="0 0 24 24" fill="none" xmlns="http://www.w3.org/2000/svg">
<path d="M9.41001 6.57914L12 3.99914L20 11.9991L17.42 14.5891L18.83 15.9991L21.41 13.4091C22.19 12.6291 22.19 11.3591 21.41 10.5791L13.41 2.57914C12.63 1.79914 11.36 1.79914 10.58 2.57914L8.00001 5.16914L9.41001 6.57914ZM2.81001 2.80914L1.39001 4.21914L5.17001 7.99914L2.59001 10.5891C1.81001 11.3691 1.81001 12.6391 2.59001 13.4191L10.59 21.4191C11.37 22.1991 12.64 22.1991 13.42 21.4191L16 18.8291L19.78 22.6091L21.19 21.1991L2.81001 2.80914ZM12 19.9991L4.00001 11.9991L6.58001 9.40914L8.17001 10.9991H7.00001V12.9991H10.17L11.67 14.4991L10.59 15.5891L12 16.9991L13.09 15.9091L14.59 17.4091L12 19.9991Z" fill="black"/>
<path d="M10.916 8.08705L12.006 6.99805L17.005 11.998L15.915 13.086L10.916 8.08705Z" fill="black"/>
</svg>
