<svg width="24" height="24" viewBox="0 0 24 24" fill="none" xmlns="http://www.w3.org/2000/svg">
<path d="M20 21C18.61 21 17.22 20.53 16 19.68C13.56 21.39 10.44 21.39 7.99998 19.68C6.77998 20.53 5.38998 21 3.99998 21H1.99998V23H3.99998C5.37998 23 6.73998 22.65 7.99998 22.01C9.23746 22.6459 10.6087 22.9776 12 22.9776C13.3913 22.9776 14.7625 22.6459 16 22.01C17.26 22.66 18.62 23 20 23H22V21H20ZM3.94998 19H3.99998C5.59998 19 7.01998 18.12 7.99998 17C8.97998 18.12 10.4 19 12 19C13.6 19 15.02 18.12 16 17C16.98 18.12 18.4 19 20 19H20.05L21.94 12.32C22.02 12.06 22 11.78 21.88 11.54C21.76 11.3 21.54 11.12 21.28 11.04L20 10.62V6C20 4.9 19.1 4 18 4H15V1H8.99998V4H5.99998C4.89998 4 3.99998 4.9 3.99998 6V10.62L2.70998 11.04C2.58174 11.0794 2.46265 11.144 2.35973 11.2301C2.25681 11.3161 2.17212 11.4219 2.11063 11.5411C2.04915 11.6604 2.01211 11.7907 2.0017 11.9244C1.99128 12.0582 2.0077 12.1927 2.04998 12.32L3.94998 19ZM5.99998 6H18V9.97L12 8L5.99998 9.97V6Z" fill="black"/>
</svg>
