<svg width="24" height="24" viewBox="0 0 24 24" fill="none" xmlns="http://www.w3.org/2000/svg">
<path d="M17 3H16V8H17V3ZM15 5H13V4H15V3H12V6H14V7H12V8H15V5ZM18 3V8H19V6H21V3H18ZM20 5H19V4H20V5ZM20 15.5C18.75 15.5 17.55 15.3 16.43 14.93C16.2558 14.8735 16.0695 14.866 15.8913 14.9083C15.7132 14.9507 15.5501 15.0412 15.42 15.17L13.22 17.37C10.3812 15.9262 8.07378 13.6188 6.63 10.78L8.83 8.57C9.1 8.31 9.18 7.92 9.07 7.57C8.69065 6.41806 8.49821 5.2128 8.5 4C8.5 3.45 8.05 3 7.5 3H4C3.45 3 3 3.45 3 4C3 13.39 10.61 21 20 21C20.55 21 21 20.55 21 20V16.5C21 15.95 20.55 15.5 20 15.5Z" fill="black"/>
</svg>
