<svg width="24" height="24" viewBox="0 0 24 24" fill="none" xmlns="http://www.w3.org/2000/svg">
<path d="M1.39 4.22L9.29 12.12C9.47 12.32 9.47 12.62 9.28 12.82C9.23473 12.8672 9.1804 12.9047 9.12025 12.9304C9.0601 12.956 8.99539 12.9693 8.93 12.9693C8.86461 12.9693 8.7999 12.956 8.73975 12.9304C8.6796 12.9047 8.62527 12.8672 8.58 12.82L6.87 11.1C6.76 11.5 6.61 11.88 6.42 12.22L7.82 13.62C8.02 13.82 8.02 14.13 7.82 14.33C7.77473 14.3772 7.7204 14.4147 7.66025 14.4404C7.6001 14.466 7.53539 14.4793 7.47 14.4793C7.40461 14.4793 7.3399 14.466 7.27975 14.4404C7.21961 14.4147 7.16527 14.3772 7.12 14.33L5.85 13.06C5.61 13.35 5.35 13.62 5.08 13.86L6.36 15.14C6.56 15.34 6.56 15.65 6.36 15.85C6.26 15.95 6.13 16 6 16C5.87 16 5.74 15.95 5.65 15.85L4.27 14.47C3.58 14.93 2.88 15.26 2.3 15.49C1.52 15.8 1 16.53 1 17.37V20H10.5L13.83 16.67L19.77 22.61L21.18 21.2L2.81 2.81L1.39 4.22ZM18.51 15.68L17.1 14.27L21.58 9.79L23 11.2L18.51 15.68ZM20.88 9.08L16.4 13.56L9.3 6.47L13.8 2L20.88 9.08Z" fill="black"/>
</svg>
