<svg width="24" height="24" viewBox="0 0 24 24" fill="none" xmlns="http://www.w3.org/2000/svg">
<path d="M18.32 4.26078C16.8034 3.01559 14.9525 2.24669 13 2.05078V4.07078C14.46 4.25078 15.79 4.83078 16.9 5.69078L18.32 4.26078ZM19.93 11.0008H21.95C21.75 8.99078 20.95 7.16078 19.74 5.68078L18.31 7.10078C19.1921 8.23073 19.7519 9.57839 19.93 11.0008ZM18.31 16.9008L19.74 18.3308C20.9835 16.8132 21.7522 14.9628 21.95 13.0108H19.93C19.75 14.4296 19.1903 15.7736 18.31 16.9008ZM13 19.9308V21.9508C15.01 21.7508 16.84 20.9508 18.32 19.7408L16.89 18.3108C15.79 19.1708 14.46 19.7508 13 19.9308ZM13 12.0008V7.00078H11V12.0008H7L12 17.0008L17 12.0008H13ZM11 19.9308V21.9508C5.95 21.4508 2 17.1908 2 12.0008C2 6.81078 5.95 2.55078 11 2.05078V4.07078C7.05 4.56078 4 7.92078 4 12.0008C4 16.0808 7.05 19.4408 11 19.9308Z" fill="black"/>
</svg>
