<svg width="24" height="24" viewBox="0 0 24 24" fill="none" xmlns="http://www.w3.org/2000/svg">
<path d="M7.99998 5.00078H9.99998V7.00078H9.09998L12 9.90078V9.00078H20V17.9008L22 19.9008V7.00078H12V3.00078H5.09998L7.99998 5.90078V5.00078ZM16 11.0008H18V13.0008H16V11.0008ZM1.29998 1.80078L0.0999756 3.10078L1.99998 5.00078V21.0008H18L21 24.0008L22.3 22.7008L1.29998 1.80078ZM5.99998 19.0008H3.99998V17.0008H5.99998V19.0008ZM5.99998 15.0008H3.99998V13.0008H5.99998V15.0008ZM5.99998 11.0008H3.99998V9.00078H5.99998V11.0008ZM9.99998 19.0008H7.99998V17.0008H9.99998V19.0008ZM9.99998 15.0008H7.99998V13.0008H9.99998V15.0008ZM12 19.0008V17.0008H14L16 19.0008H12Z" fill="black"/>
</svg>
