<svg width="24" height="24" viewBox="0 0 24 24" fill="none" xmlns="http://www.w3.org/2000/svg">
<path d="M13.95 13H9V8.05L14.61 2.44C13.7697 2.15244 12.8881 2.00383 12 2C7.8 2 4 5.22 4 10.2C4 13.52 6.67 17.45 12 22C17.33 17.45 20 13.52 20 10.2C20 9.19 19.84 8.26 19.55 7.4L13.95 13Z" fill="black"/>
<path d="M11 11H13.12L19.28 4.84L17.16 2.72L11 8.88V11ZM20.71 2L20 1.29C19.8 1.1 19.55 1 19.29 1C19.16 1 18.81 1.07 18.58 1.29L17.86 2.01L19.98 4.13L20.7 3.41C21.1 3.02 21.1 2.39 20.71 2Z" fill="black"/>
</svg>
