<svg width="24" height="24" viewBox="0 0 24 24" fill="none" xmlns="http://www.w3.org/2000/svg">
<path d="M12 2C8.14 2 5 5.14 5 9C5 14.25 12 22 12 22C12 22 19 14.25 19 9C19 5.14 15.86 2 12 2ZM10.44 12H9V10.56L12.35 7.22L13.78 8.65L10.44 12ZM14.89 7.55L14.19 8.25L12.75 6.81L13.45 6.11C13.4853 6.07432 13.5274 6.046 13.5737 6.02667C13.6201 6.00735 13.6698 5.9974 13.72 5.9974C13.7702 5.9974 13.8199 6.00735 13.8663 6.02667C13.9126 6.046 13.9547 6.07432 13.99 6.11L14.89 7.01C15.04 7.16 15.04 7.4 14.89 7.55Z" fill="black"/>
</svg>
