<svg width="24" height="24" viewBox="0 0 24 24" fill="none" xmlns="http://www.w3.org/2000/svg">
<path d="M18 4H16V11.9L18 9.9V4ZM4 4H6V20H4V4ZM10 4H12V8H10V4ZM10 10H12V14H10V10ZM10 16H12V20H10V16ZM22.56 12.59L21.41 11.44C21.2714 11.2997 21.1064 11.1883 20.9244 11.1123C20.7424 11.0363 20.5472 10.9971 20.35 10.9971C20.1528 10.9971 19.9576 11.0363 19.7756 11.1123C19.5936 11.1883 19.4286 11.2997 19.29 11.44L14 16.73V20H17.27L22.56 14.71C23.15 14.12 23.15 13.17 22.56 12.59ZM16.58 18.45H15.55V17.42L19 13.97L20.03 15L16.58 18.45Z" fill="black"/>
</svg>
