<svg width="24" height="24" viewBox="0 0 24 24" fill="none" xmlns="http://www.w3.org/2000/svg">
<path d="M12 22H5C4.46957 22 3.96086 21.7893 3.58579 21.4142C3.21071 21.0391 3 20.5304 3 20L3.01 6C3.01 4.9 3.89 4 5 4H6V2H8V4H16V2H18V4H19C20.1 4 21 4.9 21 6V12H19V10H5V20H12V22ZM22.13 16.99L22.84 16.28C22.9327 16.1875 23.0063 16.0776 23.0564 15.9566C23.1066 15.8357 23.1324 15.706 23.1324 15.575C23.1324 15.444 23.1066 15.3143 23.0564 15.1934C23.0063 15.0724 22.9327 14.9625 22.84 14.87L22.13 14.16C22.0375 14.0673 21.9276 13.9937 21.8066 13.9436C21.6857 13.8934 21.556 13.8676 21.425 13.8676C21.294 13.8676 21.1643 13.8934 21.0434 13.9436C20.9224 13.9937 20.8125 14.0673 20.72 14.16L20.01 14.87L22.13 16.99ZM21.42 17.7L16.12 23H14V20.88L19.3 15.58L21.42 17.7Z" fill="black"/>
</svg>
