<svg width="24" height="24" viewBox="0 0 24 24" fill="none" xmlns="http://www.w3.org/2000/svg">
<path d="M7.82 16H15V15C15 12.79 16.79 11 19 11H19.74L17.84 2.56C17.7387 2.11809 17.4909 1.72344 17.1368 1.44022C16.7828 1.15699 16.3434 1.00185 15.89 1H12V3H15.89L17.29 9.25H17.28C16.2085 9.57295 15.2485 10.1888 14.5082 11.028C13.7679 11.8672 13.2767 12.8966 13.09 14H7.82C7.57969 13.3186 7.10123 12.747 6.47276 12.3905C5.8443 12.034 5.10817 11.9166 4.4 12.06C3.22 12.29 2.27 13.26 2.05 14.44C1.96792 14.8738 1.98257 15.3204 2.09287 15.748C2.20318 16.1755 2.40644 16.5735 2.68817 16.9134C2.96989 17.2534 3.32314 17.5271 3.72275 17.7149C4.12235 17.9027 4.55846 18 5 18C6.3 18 7.4 17.16 7.82 16ZM5 16C4.45 16 4 15.55 4 15C4 14.45 4.45 14 5 14C5.55 14 6 14.45 6 15C6 15.55 5.55 16 5 16Z" fill="black"/>
<path d="M19 12C17.34 12 16 13.34 16 15C16 16.66 17.34 18 19 18C20.66 18 22 16.66 22 15C22 13.34 20.66 12 19 12ZM19 16C18.45 16 18 15.55 18 15C18 14.45 18.45 14 19 14C19.55 14 20 14.45 20 15C20 15.55 19.55 16 19 16ZM11 20H7L13 23V21H17L11 18V20Z" fill="black"/>
</svg>
