<svg width="24" height="24" viewBox="0 0 24 24" fill="none" xmlns="http://www.w3.org/2000/svg">
<path d="M21.94 4.88C21.8482 4.62013 21.6773 4.39554 21.4513 4.23772C21.2253 4.0799 20.9556 3.99677 20.68 4H19.6L19.29 3.03C19.15 2.43 18.61 2 18 2C17.39 2 16.85 2.43 16.71 3.04L16.4 4H15.33C14.76 4 14.25 4.35 14.07 4.88C13.88 5.44 14.11 6.05 14.63 6.36L15.5 6.88L15.1 8.12C14.87 8.7 15.06 9.37 15.55 9.74C15.78 9.91 16.06 10 16.33 10C16.64 10 16.94 9.89 17.19 9.68L18 8.98L18.81 9.68C19.06 9.89 19.36 10 19.67 10C19.94 10 20.22 9.91 20.45 9.74C20.95 9.37 21.13 8.7 20.9 8.12L20.51 6.88L21.38 6.36C21.89 6.05 22.12 5.44 21.94 4.88ZM18 7C17.45 7 17 6.55 17 6C17 5.45 17.45 5 18 5C18.55 5 19 5.45 19 6C19 6.55 18.55 7 18 7ZM13.49 10.51C13.06 10.08 12.55 9.78 12 9.58V8H11V9.38C10.89 9.37 10.77 9.35 10.66 9.35C9.64002 9.35 8.61002 9.74 7.83002 10.52C7.67002 10.68 7.53002 10.86 7.40002 11.05L6.00002 10.52C5.25065 10.2566 4.42755 10.3002 3.71013 10.6411C2.99271 10.982 2.43912 11.5927 2.17002 12.34C1.90002 13.09 1.94002 13.91 2.29002 14.63C2.52002 15.11 2.87002 15.5 3.29002 15.79C2.91002 17.14 3.23002 18.64 4.29002 19.7C4.79349 20.2 5.42146 20.5564 6.10891 20.7322C6.79636 20.908 7.51831 20.8969 8.20002 20.7C8.49002 21.12 8.88002 21.47 9.36002 21.7C9.78002 21.9 10.21 22 10.65 22C10.99 22 11.33 21.94 11.66 21.83C12.0327 21.6972 12.3754 21.4921 12.6687 21.2266C12.9619 20.9611 13.1999 20.6403 13.369 20.2827C13.538 19.925 13.6349 19.5375 13.6539 19.1424C13.673 18.7473 13.6139 18.3523 13.48 17.98L12.96 16.61C13.14 16.48 13.32 16.34 13.49 16.18C14.36 15.31 14.73 14.14 14.63 13.01H16V12.01H14.41C14.22 11.46 13.92 10.95 13.49 10.51ZM4.67002 14.29C4.42002 14.2 4.22002 14.02 4.10002 13.78C3.98002 13.54 3.97002 13.27 4.06002 13.02C4.25002 12.5 4.82002 12.23 5.32002 12.41L8.48002 13.6C7.33002 14.2 5.85002 14.71 4.67002 14.29ZM10.99 19.94C10.74 20.03 10.47 20.02 10.23 19.9C10.1114 19.8436 10.0053 19.7642 9.91769 19.6663C9.83013 19.5684 9.76293 19.4541 9.72002 19.33C9.30002 18.15 9.81002 16.68 10.42 15.53L11.6 18.66C11.78 19.18 11.51 19.76 10.99 19.94ZM12.2 14.6L11.59 12.99C11.59 12.98 11.58 12.97 11.57 12.96L11.51 12.84C11.4903 12.8012 11.4669 12.7643 11.44 12.73L11.35 12.64L11.26 12.55C11.23 12.52 11.19 12.5 11.15 12.48C11.11 12.46 11.08 12.43 11.03 12.42C11.02 12.42 11.01 12.41 11 12.4L9.40002 11.8C9.77949 11.4811 10.2654 11.3173 10.7605 11.3414C11.2556 11.3655 11.7233 11.5757 12.07 11.93C12.8 12.66 12.84 13.81 12.2 14.6Z" fill="black"/>
</svg>
