<svg width="24" height="24" viewBox="0 0 24 24" fill="none" xmlns="http://www.w3.org/2000/svg">
<path d="M11.9999 3C11.5399 3 11.0699 3.04 10.5999 3.14C7.83995 3.67 5.63995 5.9 5.11995 8.66C4.63995 11.27 5.59995 13.67 7.33995 15.22C7.76995 15.6 7.99995 16.13 7.99995 16.69V19C7.99995 20.1 8.89995 21 9.99995 21H10.2799C10.453 21.3035 10.7033 21.5558 11.0054 21.7313C11.3075 21.9067 11.6506 21.9992 11.9999 21.9992C12.3493 21.9992 12.6924 21.9067 12.9945 21.7313C13.2966 21.5558 13.5469 21.3035 13.7199 21H13.9999C15.0999 21 15.9999 20.1 15.9999 19V16.69C15.9999 16.14 16.2199 15.6 16.6399 15.23C17.3827 14.5762 17.9774 13.7716 18.3843 12.8697C18.7913 11.9678 19.0012 10.9895 18.9999 10C18.9999 6.13 15.8699 3 11.9999 3ZM13.9999 19H9.99995V18H13.9999V19ZM13.9999 17H9.99995V16H13.9999V17ZM12.4999 11.41V14H11.4999V11.41L9.66995 9.59L10.3799 8.88L11.9999 10.5L13.6199 8.88L14.3299 9.59L12.4999 11.41Z" fill="black"/>
</svg>
