<svg width="24" height="24" viewBox="0 0 24 24" fill="none" xmlns="http://www.w3.org/2000/svg">
<path d="M3 2H11V4H3V2ZM6 11H8V7H11V5H3V7H6V11ZM12.404 20.182L20.182 12.404L21.596 13.818L13.818 21.596L12.404 20.182Z" fill="black"/>
<path d="M14.5 16C15.3284 16 16 15.3284 16 14.5C16 13.6716 15.3284 13 14.5 13C13.6716 13 13 13.6716 13 14.5C13 15.3284 13.6716 16 14.5 16Z" fill="black"/>
<path d="M19.5 21C20.3284 21 21 20.3284 21 19.5C21 18.6716 20.3284 18 19.5 18C18.6716 18 18 18.6716 18 19.5C18 20.3284 18.6716 21 19.5 21Z" fill="black"/>
<path d="M15.5 11C16.163 11 16.7989 10.7366 17.2678 10.2678C17.7366 9.79893 18 9.16304 18 8.5V4H21V2H17V6.51C16.58 6.19 16.07 6 15.5 6C14.8369 6 14.2011 6.26339 13.7322 6.73223C13.2634 7.20107 13 7.83696 13 8.5C13 9.16304 13.2634 9.79893 13.7322 10.2678C14.2011 10.7366 14.8369 11 15.5 11ZM9.73998 15.96L8.32999 17.37L7.61999 16.66L7.96999 16.31C8.32101 15.9605 8.56027 15.5146 8.65738 15.0289C8.7545 14.5432 8.70508 14.0396 8.51541 13.5821C8.32574 13.1245 8.00437 12.7336 7.59211 12.4591C7.17985 12.1845 6.6953 12.0386 6.19999 12.04C5.70467 12.0386 5.22012 12.1845 4.80786 12.4591C4.3956 12.7336 4.07423 13.1245 3.88456 13.5821C3.69489 14.0396 3.64548 14.5432 3.74259 15.0289C3.8397 15.5146 4.07896 15.9605 4.42999 16.31L4.77999 16.66L3.71999 17.72C2.73999 18.7 2.73999 20.28 3.71999 21.26C4.21999 21.76 4.85999 22 5.49999 22C6.13999 22 6.77999 21.76 7.26999 21.27L8.32999 20.21L9.73998 21.62L11.15 20.21L9.73998 18.8L11.15 17.39L9.73998 15.96ZM5.84999 14.2C5.96999 14.08 6.10999 14.05 6.19999 14.05C6.28999 14.05 6.42999 14.08 6.54999 14.2C6.73999 14.4 6.73999 14.71 6.54999 14.91L6.19999 15.26L5.84999 14.9C5.75861 14.8064 5.70746 14.6808 5.70746 14.55C5.70746 14.4192 5.75861 14.2936 5.84999 14.2ZM5.84999 19.85C5.72999 19.97 5.58999 20 5.49999 20C5.40999 20 5.26999 19.97 5.14999 19.85C5.05843 19.7545 5.00731 19.6273 5.00731 19.495C5.00731 19.3627 5.05843 19.2355 5.14999 19.14L6.20999 18.08L6.91999 18.79L5.84999 19.85Z" fill="black"/>
</svg>
