<svg width="24" height="24" viewBox="0 0 24 24" fill="none" xmlns="http://www.w3.org/2000/svg">
<path d="M19.78 22.61L18.15 20.98C18.1 20.98 18.05 21 18 21H14.2C14.2 18.29 12.04 18 11.5 18C10.96 18 8.80001 18.29 8.80001 21H5.00001C3.90001 21 3.00001 20.1 3.00001 19V15.2C5.71001 15.2 6.00001 13.04 6.00001 12.5C6.00001 11.96 5.70001 9.8 3.01001 9.8V6C3.01001 5.95 3.03001 5.91 3.03001 5.86L1.39001 4.22L2.80001 2.81L21.18 21.19L19.78 22.61ZM20 17.17V15C20.6631 15 21.2989 14.7366 21.7678 14.2678C22.2366 13.7989 22.5 13.163 22.5 12.5C22.5 11.837 22.2366 11.2011 21.7678 10.7322C21.2989 10.2634 20.6631 10 20 10V6C20 4.9 19.1 4 18 4H14C14 3.33696 13.7366 2.70107 13.2678 2.23223C12.7989 1.76339 12.1631 1.5 11.5 1.5C10.837 1.5 10.2011 1.76339 9.73225 2.23223C9.26341 2.70107 9.00001 3.33696 9.00001 4H6.83001L20 17.17Z" fill="black"/>
</svg>
