<svg width="24" height="24" viewBox="0 0 24 24" fill="none" xmlns="http://www.w3.org/2000/svg">
<path d="M15.05 16.2905L17.91 13.2205C18.29 12.8305 18.63 12.4305 18.95 12.0405C19.27 11.6505 19.54 11.2605 19.77 10.8705C20 10.4805 20.18 10.0905 20.31 9.70054C20.44 9.31054 20.5 8.91054 20.5 8.52054C20.5 7.99054 20.41 7.50054 20.23 7.06054C20.05 6.62054 19.79 6.25054 19.45 5.95054C19.11 5.64054 18.68 5.41054 18.19 5.24054C17.6322 5.07346 17.0522 4.99253 16.47 5.00054C15.78 5.00054 15.16 5.11054 14.62 5.32054C14.08 5.53054 13.62 5.83054 13.26 6.20054C12.89 6.57054 12.61 7.00054 12.42 7.50054C12.24 7.97054 12.15 8.47054 12.14 9.00054H14.28C14.29 8.69054 14.33 8.40054 14.41 8.13054C14.5 7.84054 14.64 7.59054 14.81 7.38054C14.99 7.17054 15.22 7.01054 15.49 6.89054C15.76 6.77054 16.09 6.71054 16.45 6.71054C16.76 6.71054 17.03 6.76054 17.26 6.86054C17.49 6.96054 17.69 7.11054 17.85 7.29054C18.01 7.47054 18.13 7.69054 18.22 7.94054C18.3 8.19054 18.35 8.46054 18.35 8.75054C18.35 8.97054 18.32 9.18054 18.27 9.40054C18.21 9.62054 18.12 9.85054 17.98 10.1005C17.84 10.3505 17.66 10.6305 17.42 10.9305C17.19 11.2305 16.9 11.5805 16.54 11.9605L12.37 16.5105V18.0005H21V16.2905H15.05ZM2 11.0005V13.0005H10V11.0005H2Z" fill="black"/>
</svg>
