<svg width="24" height="24" viewBox="0 0 24 24" fill="none" xmlns="http://www.w3.org/2000/svg">
<path d="M20.5 11H19V7C19 5.9 18.1 5 17 5H13V3.5C13 2.83696 12.7366 2.20107 12.2678 1.73223C11.7989 1.26339 11.163 1 10.5 1C9.83696 1 9.20107 1.26339 8.73223 1.73223C8.26339 2.20107 8 2.83696 8 3.5V5H4C2.9 5 2.01 5.9 2.01 7V10.8H3.5C4.99 10.8 6.2 12.01 6.2 13.5C6.2 14.99 4.99 16.2 3.5 16.2H2V20C2 21.1 2.9 22 4 22H7.8V20.5C7.8 19.01 9.01 17.8 10.5 17.8C11.99 17.8 13.2 19.01 13.2 20.5V22H17C18.1 22 19 21.1 19 20V16H20.5C21.163 16 21.7989 15.7366 22.2678 15.2678C22.7366 14.7989 23 14.163 23 13.5C23 12.837 22.7366 12.2011 22.2678 11.7322C21.7989 11.2634 21.163 11 20.5 11Z" fill="black"/>
</svg>
