<svg width="24" height="24" viewBox="0 0 24 24" fill="none" xmlns="http://www.w3.org/2000/svg">
<path d="M16.05 16.2905L18.91 13.2205C19.29 12.8305 19.63 12.4305 19.95 12.0405C20.27 11.6505 20.54 11.2605 20.77 10.8705C21 10.4805 21.18 10.0905 21.31 9.70054C21.44 9.31054 21.5 8.91054 21.5 8.52054C21.5 7.99054 21.41 7.50054 21.23 7.06054C21.05 6.62054 20.79 6.25054 20.45 5.95054C20.11 5.64054 19.68 5.41054 19.19 5.24054C18.6322 5.07346 18.0522 4.99253 17.47 5.00054C16.78 5.00054 16.16 5.11054 15.62 5.32054C15.08 5.53054 14.62 5.83054 14.26 6.20054C13.89 6.57054 13.61 7.00054 13.42 7.50054C13.24 7.97054 13.15 8.47054 13.14 9.00054H15.28C15.29 8.69054 15.33 8.40054 15.41 8.13054C15.5 7.84054 15.64 7.59054 15.81 7.38054C15.99 7.17054 16.22 7.01054 16.49 6.89054C16.76 6.77054 17.09 6.71054 17.45 6.71054C17.76 6.71054 18.03 6.76054 18.26 6.86054C18.49 6.96054 18.69 7.11054 18.85 7.29054C19.01 7.47054 19.13 7.69054 19.22 7.94054C19.3 8.19054 19.35 8.46054 19.35 8.75054C19.35 8.97054 19.32 9.18054 19.27 9.40054C19.21 9.62054 19.12 9.85054 18.98 10.1005C18.84 10.3505 18.66 10.6305 18.42 10.9305C18.19 11.2305 17.9 11.5805 17.54 11.9605L13.37 16.5105V18.0005H22V16.2905H16.05ZM8 7.00054H6V11.0005H2V13.0005H6V17.0005H8V13.0005H12V11.0005H8V7.00054Z" fill="black"/>
</svg>
