<svg width="24" height="24" viewBox="0 0 24 24" fill="none" xmlns="http://www.w3.org/2000/svg">
<path d="M9 11.75C8.66848 11.75 8.35054 11.8817 8.11612 12.1161C7.8817 12.3505 7.75 12.6685 7.75 13C7.75 13.3315 7.8817 13.6495 8.11612 13.8839C8.35054 14.1183 8.66848 14.25 9 14.25C9.33152 14.25 9.64946 14.1183 9.88388 13.8839C10.1183 13.6495 10.25 13.3315 10.25 13C10.25 12.6685 10.1183 12.3505 9.88388 12.1161C9.64946 11.8817 9.33152 11.75 9 11.75ZM15 11.75C14.6685 11.75 14.3505 11.8817 14.1161 12.1161C13.8817 12.3505 13.75 12.6685 13.75 13C13.75 13.3315 13.8817 13.6495 14.1161 13.8839C14.3505 14.1183 14.6685 14.25 15 14.25C15.3315 14.25 15.6495 14.1183 15.8839 13.8839C16.1183 13.6495 16.25 13.3315 16.25 13C16.25 12.6685 16.1183 12.3505 15.8839 12.1161C15.6495 11.8817 15.3315 11.75 15 11.75ZM12 2C6.48 2 2 6.48 2 12C2 17.52 6.48 22 12 22C17.52 22 22 17.52 22 12C22 6.48 17.52 2 12 2ZM12 20C7.59 20 4 16.41 4 12C4 11.71 4.02 11.42 4.05 11.14C6.41 10.09 8.28 8.16 9.26 5.77C10.4033 7.39238 12.0046 8.63679 13.859 9.34401C15.7135 10.0512 17.7367 10.1891 19.67 9.74C19.88 10.45 20 11.21 20 12C20 16.41 16.41 20 12 20Z" fill="black"/>
</svg>
