<svg width="24" height="24" viewBox="0 0 24 24" fill="none" xmlns="http://www.w3.org/2000/svg">
<path d="M11 4.07078V2.05078C8.99005 2.25078 7.16005 3.05078 5.68005 4.26078L7.10005 5.69078C8.23 4.80867 9.57766 4.24887 11 4.07078ZM18.32 4.26078C16.8035 3.01559 14.9525 2.24669 13 2.05078V4.07078C14.46 4.25078 15.79 4.83078 16.9 5.69078L18.32 4.26078ZM19.93 11.0008H21.9501C21.7501 8.99078 20.95 7.16078 19.74 5.68078L18.31 7.10078C19.1922 8.23073 19.752 9.57839 19.93 11.0008ZM5.69005 7.10078L4.26005 5.68078C3.01486 7.19737 2.24595 9.04831 2.05005 11.0008H4.07005C4.25005 9.54078 4.83005 8.21078 5.69005 7.10078ZM4.07005 13.0008H2.05005C2.25005 15.0108 3.05005 16.8408 4.26005 18.3208L5.69005 16.8908C4.80641 15.7655 4.24632 14.4206 4.07005 13.0008ZM15 12.0008C15 10.3408 13.66 9.00078 12 9.00078C10.34 9.00078 9.00005 10.3408 9.00005 12.0008C9.00005 13.6608 10.34 15.0008 12 15.0008C13.66 15.0008 15 13.6608 15 12.0008ZM18.31 16.9008L19.74 18.3308C20.9836 16.8132 21.7523 14.9628 21.9501 13.0108H19.93C19.75 14.4296 19.1903 15.7736 18.31 16.9008ZM13 19.9308V21.9508C15.01 21.7508 16.84 20.9508 18.32 19.7408L16.89 18.3108C15.79 19.1708 14.46 19.7508 13 19.9308ZM5.68005 19.7408C7.19762 20.9843 9.04805 21.753 11 21.9508V19.9308C9.57766 19.7527 8.23 19.1929 7.10005 18.3108L5.68005 19.7408Z" fill="black"/>
</svg>
