<svg width="24" height="24" viewBox="0 0 24 24" fill="none" xmlns="http://www.w3.org/2000/svg">
<path d="M18.7001 12.4005C18.4243 12.2449 18.1367 12.1112 17.8401 12.0005C18.1301 11.8905 18.4201 11.7605 18.7001 11.6005C19.6105 11.0735 20.3666 10.3169 20.8931 9.40613C21.4195 8.4954 21.6978 7.46248 21.7001 6.41055C20.7877 5.88462 19.7531 5.60778 18.7001 5.60778C17.647 5.60778 16.6124 5.88462 15.7001 6.41055C15.4201 6.57055 15.1601 6.76055 14.9201 6.95055C14.9701 6.64055 15.0001 6.32055 15.0001 6.00055C15.0001 3.78055 13.7901 1.85055 12.0001 0.810547C10.2101 1.85055 9.00006 3.78055 9.00006 6.00055C9.00006 6.32055 9.03006 6.64055 9.08006 6.95055C8.84006 6.75055 8.58006 6.56055 8.30006 6.40055C7.38768 5.87472 6.35312 5.59793 5.30006 5.59793C4.247 5.59793 3.21244 5.87472 2.30006 6.40055C2.29809 7.45333 2.57455 8.48792 3.10141 9.39939C3.62827 10.3109 4.3868 11.0668 5.30006 11.5905C5.58006 11.7505 5.87006 11.8805 6.16006 11.9905C5.87006 12.1005 5.58006 12.2305 5.30006 12.3905C4.38966 12.9176 3.63348 13.6742 3.10704 14.585C2.58061 15.4957 2.30235 16.5286 2.30006 17.5805C3.21241 18.1065 4.24698 18.3833 5.30006 18.3833C6.35314 18.3833 7.38771 18.1065 8.30006 17.5805C8.58006 17.4205 8.84006 17.2305 9.08006 17.0405C9.03006 17.3605 9.00006 17.6805 9.00006 18.0005C9.00006 20.2205 10.2101 22.1505 12.0001 23.1905C13.7901 22.1505 15.0001 20.2205 15.0001 18.0005C15.0001 17.6805 14.9701 17.3605 14.9201 17.0505C15.1601 17.2505 15.4201 17.4305 15.7001 17.5905C16.6124 18.1164 17.647 18.3932 18.7001 18.3932C19.7531 18.3932 20.7877 18.1164 21.7001 17.5905C21.6978 16.5386 21.4195 15.5057 20.8931 14.595C20.3666 13.6842 19.6105 12.9276 18.7001 12.4005ZM12.0001 16.0005C9.79006 16.0005 8.00006 14.2105 8.00006 12.0005C8.00006 9.79055 9.79006 8.00055 12.0001 8.00055C14.2101 8.00055 16.0001 9.79055 16.0001 12.0005C16.0001 14.2105 14.2101 16.0005 12.0001 16.0005Z" fill="black"/>
</svg>
