<svg width="24" height="24" viewBox="0 0 24 24" fill="none" xmlns="http://www.w3.org/2000/svg">
<path d="M9 20C13.4183 20 17 16.4183 17 12C17 7.58172 13.4183 4 9 4C4.58172 4 1 7.58172 1 12C1 16.4183 4.58172 20 9 20Z" fill="black"/>
<path d="M17 4.25977V6.34977C18.1696 6.76159 19.1826 7.52627 19.8992 8.53828C20.6158 9.55029 21.0006 10.7597 21.0006 11.9998C21.0006 13.2398 20.6158 14.4492 19.8992 15.4613C19.1826 16.4733 18.1696 17.2379 17 17.6498V19.7398C20.45 18.8498 23 15.7298 23 11.9998C23 8.26977 20.45 5.14977 17 4.25977Z" fill="black"/>
</svg>
