<svg width="24" height="24" viewBox="0 0 24 24" fill="none" xmlns="http://www.w3.org/2000/svg">
<path d="M3 5H1V21C1 22.1 1.9 23 3 23H19V21H3V5ZM14 12V8C14 7.46957 13.7893 6.96086 13.4142 6.58579C13.0391 6.21071 12.5304 6 12 6H11C10.4696 6 9.96086 6.21071 9.58579 6.58579C9.21071 6.96086 9 7.46957 9 8V9C9 9.53043 9.21071 10.0391 9.58579 10.4142C9.96086 10.7893 10.4696 11 11 11H12V12H9V14H12C12.5304 14 13.0391 13.7893 13.4142 13.4142C13.7893 13.0391 14 12.5304 14 12ZM11 9V8H12V9H11ZM21 1H7C5.9 1 5 1.9 5 3V17C5 18.1 5.9 19 7 19H21C22.1 19 23 18.1 23 17V3C23 1.9 22.1 1 21 1ZM21 9H19V7H17V9H15V11H17V13H19V11H21V17H7V3H21V9Z" fill="black"/>
</svg>
