<svg width="24" height="24" viewBox="0 0 24 24" fill="none" xmlns="http://www.w3.org/2000/svg">
<path d="M9 7H7V9H9V7ZM9 11H7V13H9V11ZM9 3C8.46957 3 7.96086 3.21071 7.58579 3.58579C7.21071 3.96086 7 4.46957 7 5H9V3ZM13 15H11V17H13V15ZM19 3V5H21C21 3.9 20.1 3 19 3ZM13 3H11V5H13V3ZM9 17V15H7C7 15.5304 7.21071 16.0391 7.58579 16.4142C7.96086 16.7893 8.46957 17 9 17ZM19 13H21V11H19V13ZM19 9H21V7H19V9ZM19 17C20.1 17 21 16.1 21 15H19V17ZM5 7H3V19C3 19.5304 3.21071 20.0391 3.58579 20.4142C3.96086 20.7893 4.46957 21 5 21H17V19H5V7ZM15 5H17V3H15V5ZM15 17H17V15H15V17Z" fill="black"/>
</svg>
