<svg width="24" height="24" viewBox="0 0 24 24" fill="none" xmlns="http://www.w3.org/2000/svg">
<path d="M18 13C18 16.31 15.31 19 12 19C8.69 19 6 16.31 6 13C6 9.69 8.69 7 12 7V11L17 6L12 1V5C7.58 5 4 8.58 4 13C4 17.42 7.58 21 12 21C16.42 21 20 17.42 20 13H18Z" fill="black"/>
<path d="M10.86 15.9418V11.6718H10.77L9 12.3018V12.9918L10.01 12.6818V15.9418H10.86ZM12.25 13.4418V14.1818C12.25 16.0818 13.56 16.0018 13.69 16.0018C13.83 16.0018 15.13 16.0918 15.13 14.1818V13.4418C15.13 11.5418 13.82 11.6218 13.69 11.6218C13.55 11.6218 12.25 11.5318 12.25 13.4418ZM14.29 13.3218V14.2918C14.29 15.0618 14.08 15.3218 13.7 15.3218C13.32 15.3218 13.1 15.0618 13.1 14.2918V13.3218C13.1 12.5718 13.32 12.3118 13.69 12.3118C14.07 12.3018 14.29 12.5718 14.29 13.3218Z" fill="black"/>
</svg>
