<svg width="24" height="24" viewBox="0 0 24 24" fill="none" xmlns="http://www.w3.org/2000/svg">
<path d="M18 13C18 16.31 15.31 19 12 19C8.69 19 6 16.31 6 13C6 9.69 8.69 7 12 7V11L17 6L12 1V5C7.58 5 4 8.58 4 13C4 17.42 7.58 21 12 21C16.42 21 20 17.42 20 13H18Z" fill="black"/>
<path d="M10.06 15.3804C9.76997 15.3804 9.43997 15.2104 9.43997 14.8404H8.58997C8.58997 15.8104 9.48997 16.0704 10.04 16.0704C10.91 16.0704 11.55 15.6104 11.55 14.8204C11.55 14.1604 11.1 13.9204 10.84 13.8204C10.95 13.7704 11.49 13.5004 11.49 12.9004C11.49 12.6904 11.44 11.6804 10.05 11.6804C9.42997 11.6804 8.64997 12.0304 8.64997 12.8404H9.49997C9.49997 12.5004 9.80997 12.3604 10.07 12.3604C10.66 12.3604 10.65 12.8604 10.65 12.9004C10.65 13.4204 10.24 13.4904 10.02 13.4904H9.55997V14.1504H10.01C10.66 14.1504 10.71 14.5704 10.71 14.7904C10.71 15.1104 10.5 15.3804 10.06 15.3804ZM13.85 11.6804C13.71 11.6804 12.41 11.6004 12.41 13.5004V14.2404C12.41 16.1404 13.72 16.0604 13.85 16.0604C13.99 16.0604 15.29 16.1504 15.29 14.2404V13.5004C15.3 11.5904 13.99 11.6804 13.85 11.6804ZM14.45 14.3504C14.45 15.1204 14.24 15.3804 13.86 15.3804C13.48 15.3804 13.26 15.1204 13.26 14.3504V13.3804C13.26 12.6304 13.48 12.3704 13.85 12.3704C14.23 12.3704 14.45 12.6304 14.45 13.3804V14.3504Z" fill="black"/>
</svg>
