<svg width="24" height="24" viewBox="0 0 24 24" fill="none" xmlns="http://www.w3.org/2000/svg">
<path d="M19.75 8C19.06 8 18.5 8.56 18.5 9.25V15H18C16.35 15 15 16.35 15 18H14C14 15.96 15.53 14.28 17.5 14.03V3.25C17.5 2.91848 17.3683 2.60054 17.1339 2.36612C16.8995 2.1317 16.5815 2 16.25 2C15.9185 2 15.6005 2.1317 15.3661 2.36612C15.1317 2.60054 15 2.91848 15 3.25V11H14V1.25C14 0.918479 13.8683 0.600537 13.6339 0.366117C13.3995 0.131696 13.0815 0 12.75 0C12.4185 0 12.1005 0.131696 11.8661 0.366117C11.6317 0.600537 11.5 0.918479 11.5 1.25V11H10.5V2.75C10.5 2.41848 10.3683 2.10054 10.1339 1.86612C9.89946 1.6317 9.58152 1.5 9.25 1.5C8.91848 1.5 8.60054 1.6317 8.36612 1.86612C8.1317 2.10054 8 2.41848 8 2.75V12H7V5.75C7 5.41848 6.8683 5.10054 6.63388 4.86612C6.39946 4.6317 6.08152 4.5 5.75 4.5C5.41848 4.5 5.10054 4.6317 4.86612 4.86612C4.6317 5.10054 4.5 5.41848 4.5 5.75V15.75C4.5 20.31 8.19 24 12.75 24C17.31 24 21 20.31 21 15.75V9.25C21 8.56 20.44 8 19.75 8Z" fill="black"/>
</svg>
