<svg width="24" height="24" viewBox="0 0 24 24" fill="none" xmlns="http://www.w3.org/2000/svg">
<path d="M12 2C6.48 2 2 6.48 2 12C2 17.52 6.48 22 12 22C17.52 22 22 17.52 22 12C22 6.48 17.52 2 12 2ZM8 17.5C7.33696 17.5 6.70107 17.2366 6.23223 16.7678C5.76339 16.2989 5.5 15.663 5.5 15C5.5 14.337 5.76339 13.7011 6.23223 13.2322C6.70107 12.7634 7.33696 12.5 8 12.5C8.66304 12.5 9.29893 12.7634 9.76777 13.2322C10.2366 13.7011 10.5 14.337 10.5 15C10.5 15.663 10.2366 16.2989 9.76777 16.7678C9.29893 17.2366 8.66304 17.5 8 17.5ZM9.5 8C9.5 7.33696 9.76339 6.70107 10.2322 6.23223C10.7011 5.76339 11.337 5.5 12 5.5C12.663 5.5 13.2989 5.76339 13.7678 6.23223C14.2366 6.70107 14.5 7.33696 14.5 8C14.5 8.66304 14.2366 9.29893 13.7678 9.76777C13.2989 10.2366 12.663 10.5 12 10.5C11.337 10.5 10.7011 10.2366 10.2322 9.76777C9.76339 9.29893 9.5 8.66304 9.5 8ZM16 17.5C15.337 17.5 14.7011 17.2366 14.2322 16.7678C13.7634 16.2989 13.5 15.663 13.5 15C13.5 14.337 13.7634 13.7011 14.2322 13.2322C14.7011 12.7634 15.337 12.5 16 12.5C16.663 12.5 17.2989 12.7634 17.7678 13.2322C18.2366 13.7011 18.5 14.337 18.5 15C18.5 15.663 18.2366 16.2989 17.7678 16.7678C17.2989 17.2366 16.663 17.5 16 17.5Z" fill="black"/>
</svg>
