<svg width="24" height="24" viewBox="0 0 24 24" fill="none" xmlns="http://www.w3.org/2000/svg">
<path d="M14.9999 8.00156C14.9999 6.58156 14.4999 5.27156 13.6699 4.24156C14.0899 4.10156 14.5299 4.00156 14.9999 4.00156C17.2099 4.00156 18.9999 5.79156 18.9999 8.00156C18.9999 10.2116 17.2099 12.0016 14.9999 12.0016H14.8199L14.0499 11.2316C14.6499 10.2916 14.9999 9.18156 14.9999 8.00156ZM22.8299 20.0016H22.9999V17.0016C22.9999 14.8216 19.4199 13.5316 16.6599 13.1316C17.7599 13.8816 18.6099 14.8416 18.8899 16.0716L22.8299 20.0016ZM7.23994 4.41156C7.9886 4.04302 8.83385 3.9181 9.65711 4.05432C10.4804 4.19054 11.2403 4.58107 11.8304 5.17112C12.4204 5.76117 12.811 6.52113 12.9472 7.34439C13.0834 8.16765 12.9585 9.0129 12.5899 9.76156L7.23994 4.41156ZM9.16994 12.0016H8.99994C6.78994 12.0016 4.99994 10.2116 4.99994 8.00156V7.83156L0.689941 3.51156L2.09994 2.10156L21.8999 21.9016L20.4899 23.3116L16.9999 19.8316V20.0016H0.999941V17.0016C0.999941 14.3416 6.32994 13.0016 8.99994 13.0016C9.36994 13.0016 9.79994 13.0316 10.2499 13.0816L9.16994 12.0016Z" fill="black"/>
</svg>
