<svg width="24" height="24" viewBox="0 0 24 24" fill="none" xmlns="http://www.w3.org/2000/svg">
<path d="M18 18.5014V17.5014C18 16.7014 17.3 16.0014 16.5 16.0014H13V22.0014H14.5V20.0014H15.6L16.5 22.0014H18L17.1 19.9014C17.6 19.6014 18 19.1014 18 18.5014ZM16.5 18.5014H14.5V17.5014H16.5V18.5014ZM3.5 18.0014H1.5V16.0014H0V22.0014H1.5V19.5014H3.5V22.0014H5V16.0014H3.5V18.0014ZM10 16.0014H6.5V22.0014H10C10.8 22.0014 11.5 21.3014 11.5 20.5014V17.5014C11.5 16.7014 10.8 16.0014 10 16.0014ZM10 20.5014H8V17.5014H10V20.5014ZM24 20.0014H22V22.0014H20.5V20.0014H18.5V18.5014H20.5V16.5014H22V18.5014H24V20.0014ZM10.98 4.15135L9.42 2.59135C14.52 0.171353 19.83 5.48135 17.41 10.5814L15.85 9.02135C16.66 6.06135 13.94 3.34135 10.98 4.15135ZM6.34 2.34135L4.93 3.76135L6.59 5.42135C4.17 10.5214 9.48 15.8314 14.58 13.4114L16.24 15.0714L17.65 13.6614L6.34 2.34135ZM8.15 6.98135L13.02 11.8514C10.06 12.6614 7.34 9.94135 8.15 6.98135Z" fill="black"/>
</svg>
