<svg width="24" height="24" viewBox="0 0 24 24" fill="none" xmlns="http://www.w3.org/2000/svg">
<path d="M10 16.0008H6.5V22.0008H10C10.8 22.0008 11.5 21.3008 11.5 20.5008V17.5008C11.5 16.7008 10.8 16.0008 10 16.0008ZM10 20.5008H8V17.5008H10V20.5008ZM16.5 16.0008H13V22.0008H14.5V20.0008H15.6L16.5 22.0008H18L17.1 19.9008C17.6 19.6008 18 19.1008 18 18.5008V17.5008C18 16.7008 17.3 16.0008 16.5 16.0008ZM16.5 18.5008H14.5V17.5008H16.5V18.5008ZM3.5 18.0008H1.5V16.0008H0V22.0008H1.5V19.5008H3.5V22.0008H5V16.0008H3.5V18.0008ZM22 18.5008V16.5008H20.5V18.5008H18.5V20.0008H20.5V22.0008H22V20.0008H24V18.5008H22ZM11.97 5.30078L10.95 8.19078H13.05L12.03 5.30078H11.97Z" fill="black"/>
<path d="M12 2C8.69 2 6 4.69 6 8C6 11.31 8.69 14 12 14C15.31 14 18 11.31 18 8C18 4.69 15.31 2 12 2ZM14.04 11L13.41 9.21H10.58L9.96 11H8.74L11.37 4H12.62L15.25 11H14.04Z" fill="black"/>
</svg>
