<svg width="24" height="24" viewBox="0 0 24 24" fill="none" xmlns="http://www.w3.org/2000/svg">
<path d="M12 3.99875C15.87 3.99875 19 7.12875 19 10.9987V12.9987H16.08L21 17.9188V10.9987C21 8.6118 20.0518 6.32262 18.364 4.63479C16.6761 2.94696 14.3869 1.99875 12 1.99875C10.05 1.99875 8.24 2.61875 6.77 3.67875L8.21 5.11875C9.33745 4.38462 10.6546 3.99538 12 3.99875ZM2.27 1.71875L1 2.99875L4.33 6.31875C3.46055 7.72492 3 9.34549 3 10.9987V17.9988C3 19.6588 4.34 20.9988 6 20.9988H9V12.9987H5V10.9987C5 9.82875 5.29 8.73875 5.79 7.77875L15 16.9987V20.9988H18C18.3 20.9988 18.59 20.9388 18.86 20.8588L21 22.9988L22.27 21.7288L2.27 1.71875Z" fill="black"/>
</svg>
