<svg width="24" height="24" viewBox="0 0 24 24" fill="none" xmlns="http://www.w3.org/2000/svg">
<path d="M17.73 12.0185L21.71 8.03854C21.8027 7.94602 21.8762 7.83614 21.9264 7.71516C21.9766 7.59419 22.0024 7.46451 22.0024 7.33354C22.0024 7.20257 21.9766 7.07289 21.9264 6.95191C21.8762 6.83094 21.8027 6.72105 21.71 6.62854L17.37 2.28854C17.2775 2.19583 17.1676 2.12229 17.0466 2.07211C16.9256 2.02192 16.7959 1.99609 16.665 1.99609C16.534 1.99609 16.4043 2.02192 16.2833 2.07211C16.1624 2.12229 16.0525 2.19583 15.96 2.28854L11.98 6.26854L7.99996 2.28854C7.81247 2.10253 7.55907 1.99815 7.29496 1.99815C7.03086 1.99815 6.77745 2.10253 6.58996 2.28854L2.24996 6.62854C2.15726 6.72105 2.08371 6.83094 2.03353 6.95191C1.98335 7.07289 1.95752 7.20257 1.95752 7.33354C1.95752 7.46451 1.98335 7.59419 2.03353 7.71516C2.08371 7.83614 2.15726 7.94602 2.24996 8.03854L6.22996 12.0185L2.24996 15.9985C2.15726 16.0911 2.08371 16.2009 2.03353 16.3219C1.98335 16.4429 1.95752 16.5726 1.95752 16.7035C1.95752 16.8345 1.98335 16.9642 2.03353 17.0852C2.08371 17.2061 2.15726 17.316 2.24996 17.4085L6.58996 21.7485C6.97996 22.1385 7.60996 22.1385 7.99996 21.7485L11.98 17.7685L15.96 21.7485C16.16 21.9485 16.41 22.0385 16.67 22.0385C16.93 22.0385 17.18 21.9385 17.38 21.7485L21.72 17.4085C21.8127 17.316 21.8862 17.2061 21.9364 17.0852C21.9866 16.9642 22.0124 16.8345 22.0124 16.7035C22.0124 16.5726 21.9866 16.4429 21.9364 16.3219C21.8862 16.2009 21.8127 16.0911 21.72 15.9985L17.73 12.0185ZM12 8.99854C12.55 8.99854 13 9.44854 13 9.99854C13 10.5485 12.55 10.9985 12 10.9985C11.45 10.9985 11 10.5485 11 9.99854C11 9.44854 11.45 8.99854 12 8.99854ZM7.28996 10.9585L3.65996 7.33854L7.28996 3.70854L10.91 7.32854L7.28996 10.9585ZM9.99996 12.9985C9.44996 12.9985 8.99996 12.5485 8.99996 11.9985C8.99996 11.4485 9.44996 10.9985 9.99996 10.9985C10.55 10.9985 11 11.4485 11 11.9985C11 12.5485 10.55 12.9985 9.99996 12.9985ZM12 14.9985C11.45 14.9985 11 14.5485 11 13.9985C11 13.4485 11.45 12.9985 12 12.9985C12.55 12.9985 13 13.4485 13 13.9985C13 14.5485 12.55 14.9985 12 14.9985ZM14 10.9985C14.55 10.9985 15 11.4485 15 11.9985C15 12.5485 14.55 12.9985 14 12.9985C13.45 12.9985 13 12.5485 13 11.9985C13 11.4485 13.45 10.9985 14 10.9985ZM16.66 20.3385L13.03 16.7185L16.66 13.0885L20.28 16.7085L16.66 20.3385Z" fill="black"/>
</svg>
