<svg width="24" height="24" viewBox="0 0 24 24" fill="none" xmlns="http://www.w3.org/2000/svg">
<path d="M17 19.9988C16.71 19.9988 16.44 19.9388 16.24 19.8488C15.53 19.4788 15.03 18.9688 14.53 17.4688C14.02 15.9088 13.06 15.1787 12.14 14.4688C11.35 13.8587 10.53 13.2287 9.82 11.9387C9.29 10.9787 9 9.92875 9 8.99875C9 6.19875 11.2 3.99875 14 3.99875C16.8 3.99875 19 6.19875 19 8.99875H21C21 5.06875 17.93 1.99875 14 1.99875C10.07 1.99875 7 5.06875 7 8.99875C7 10.2587 7.38 11.6487 8.07 12.8987C8.98 14.5487 10.05 15.3787 10.92 16.0487C11.73 16.6687 12.31 17.1188 12.63 18.0988C13.23 19.9188 14 20.9388 15.36 21.6488C15.9693 21.9229 16.6375 22.0401 17.3037 21.9895C17.9699 21.9389 18.6128 21.7222 19.1737 21.3592C19.7346 20.9962 20.1956 20.4985 20.5146 19.9115C20.8337 19.3245 21.0005 18.6669 21 17.9988H19C19 19.0988 18.1 19.9988 17 19.9988ZM7.64 2.63875L6.22 1.21875C4.23 3.20875 3 5.95875 3 8.99875C3 12.0387 4.23 14.7888 6.22 16.7788L7.63 15.3687C6.01 13.7387 5 11.4887 5 8.99875C5 6.50875 6.01 4.25875 7.64 2.63875ZM11.5 8.99875C11.5 9.66179 11.7634 10.2977 12.2322 10.7665C12.7011 11.2354 13.337 11.4987 14 11.4987C14.663 11.4987 15.2989 11.2354 15.7678 10.7665C16.2366 10.2977 16.5 9.66179 16.5 8.99875C16.5 8.33571 16.2366 7.69982 15.7678 7.23098C15.2989 6.76214 14.663 6.49875 14 6.49875C13.337 6.49875 12.7011 6.76214 12.2322 7.23098C11.7634 7.69982 11.5 8.33571 11.5 8.99875Z" fill="black"/>
</svg>
