<svg width="24" height="24" viewBox="0 0 24 24" fill="none" xmlns="http://www.w3.org/2000/svg">
<path d="M19 4H5C4.46957 4 3.96086 4.21071 3.58579 4.58579C3.21071 4.96086 3 5.46957 3 6V18C3 18.5304 3.21071 19.0391 3.58579 19.4142C3.96086 19.7893 4.46957 20 5 20H19C20.1 20 21 19.1 21 18V6C21 4.9 20.1 4 19 4ZM11 15H9.5V13H7.5V15H6V9H7.5V11.5H9.5V9H11V15ZM18 14C18 14.55 17.55 15 17 15H16.25V16.5H14.75V15H14C13.45 15 13 14.55 13 14V10C13 9.45 13.45 9 14 9H17C17.55 9 18 9.45 18 10V14ZM14.5 13.5H16.5V10.5H14.5V13.5Z" fill="black"/>
</svg>
