<svg width="24" height="24" viewBox="0 0 24 24" fill="none" xmlns="http://www.w3.org/2000/svg">
<path d="M18 13.0013H17.32L15.32 15.0013H17.23L19 17.0013H5L6.78 15.0013H8.83L6.83 13.0013H6L3 16.0013V20.0013C3 21.1013 3.89 22.0013 4.99 22.0013H19C19.5304 22.0013 20.0391 21.7906 20.4142 21.4156C20.7893 21.0405 21 20.5318 21 20.0013V16.0013L18 13.0013ZM17 7.95134L12.05 12.9013L8.51 9.36134L13.46 4.41134L17 7.95134ZM12.76 2.29134L6.39 8.66134C6.2973 8.75386 6.22375 8.86374 6.17357 8.98472C6.12339 9.10569 6.09756 9.23537 6.09756 9.36634C6.09756 9.49731 6.12339 9.62699 6.17357 9.74797C6.22375 9.86894 6.2973 9.97883 6.39 10.0713L11.34 15.0213C11.73 15.4113 12.36 15.4113 12.75 15.0213L19.11 8.66134C19.2027 8.56883 19.2763 8.45894 19.3264 8.33797C19.3766 8.21699 19.4024 8.08731 19.4024 7.95634C19.4024 7.82537 19.3766 7.69569 19.3264 7.57472C19.2763 7.45374 19.2027 7.34386 19.11 7.25134L14.16 2.30134C14.0698 2.20694 13.9615 2.13163 13.8416 2.07987C13.7218 2.02811 13.5927 2.00096 13.4621 2.00002C13.3315 1.99909 13.2021 2.0244 13.0815 2.07444C12.9609 2.12448 12.8516 2.19824 12.76 2.29134Z" fill="black"/>
</svg>
