<svg width="24" height="24" viewBox="0 0 24 24" fill="none" xmlns="http://www.w3.org/2000/svg">
<path fill-rule="evenodd" clip-rule="evenodd" d="M8.79 12.4L12.05 18.62L15.22 12.41C15.11 12.33 15.01 12.25 14.92 12.16C14.08 12.69 13.07 13 12 13C10.93 13 9.92 12.69 9.08 12.16C8.99 12.25 8.89 12.33 8.79 12.4ZM6.83 12.99C6.06548 12.9478 5.34615 12.6144 4.81982 12.0583C4.29348 11.5022 4.00012 10.7657 4 10C4.00032 9.28779 4.25402 8.59892 4.71571 8.05661C5.1774 7.51431 5.81696 7.15395 6.52 7.04C6.75 4.22 9.12 2 12 2C14.88 2 17.25 4.22 17.48 7.04C18.183 7.15395 18.8226 7.51431 19.2843 8.05661C19.746 8.59892 19.9997 9.28779 20 10C20 11.59 18.76 12.9 17.19 12.99L12.07 23L6.83 12.99Z" fill="black"/>
</svg>
