<svg width="24" height="24" viewBox="0 0 24 24" fill="none" xmlns="http://www.w3.org/2000/svg">
<path d="M21.41 11.58L12.41 2.58C12.05 2.22 11.55 2 11 2H4C2.9 2 2 2.9 2 4V11C2 11.55 2.22 12.05 2.59 12.42L11.59 21.42C11.95 21.78 12.45 22 13 22C13.55 22 14.05 21.78 14.41 21.41L21.41 14.41C21.78 14.05 22 13.55 22 13C22 12.45 21.77 11.94 21.41 11.58ZM5.5 7C4.67 7 4 6.33 4 5.5C4 4.67 4.67 4 5.5 4C6.33 4 7 4.67 7 5.5C7 6.33 6.33 7 5.5 7ZM17.27 15.27L13 19.54L8.73 15.27C8.37947 14.9204 8.14064 14.4745 8.04381 13.989C7.94698 13.5034 7.99649 13.0001 8.18608 12.5427C8.37567 12.0853 8.69679 11.6945 9.10873 11.4199C9.52068 11.1453 10.0049 10.9991 10.5 11C11.19 11 11.82 11.28 12.27 11.74L13 12.46L13.73 11.73C14.1994 11.2606 14.8361 10.9968 15.5 10.9968C16.1639 10.9968 16.8006 11.2606 17.27 11.73C17.7394 12.1994 18.0032 12.8361 18.0032 13.5C18.0032 14.1639 17.7394 14.8006 17.27 15.27Z" fill="black"/>
</svg>
