<svg width="24" height="24" viewBox="0 0 24 24" fill="none" xmlns="http://www.w3.org/2000/svg">
<path d="M17 5.00078C17.83 5.00078 18.5 4.33078 18.5 3.50078C18.5 2.50078 17 0.800781 17 0.800781C17 0.800781 15.5 2.50078 15.5 3.50078C15.5 4.33078 16.17 5.00078 17 5.00078ZM12 5.00078C12.83 5.00078 13.5 4.33078 13.5 3.50078C13.5 2.50078 12 0.800781 12 0.800781C12 0.800781 10.5 2.50078 10.5 3.50078C10.5 4.33078 11.17 5.00078 12 5.00078ZM7 5.00078C7.83 5.00078 8.5 4.33078 8.5 3.50078C8.5 2.50078 7 0.800781 7 0.800781C7 0.800781 5.5 2.50078 5.5 3.50078C5.5 4.33078 6.17 5.00078 7 5.00078ZM18.92 8.01078C18.72 7.42078 18.16 7.00078 17.5 7.00078H6.5C5.84 7.00078 5.29 7.42078 5.08 8.01078L3 14.0008V22.0008C3 22.5508 3.45 23.0008 4 23.0008H5C5.55 23.0008 6 22.5508 6 22.0008V21.0008H18V22.0008C18 22.5508 18.45 23.0008 19 23.0008H20C20.55 23.0008 21 22.5508 21 22.0008V14.0008L18.92 8.01078ZM6.5 18.0008C5.67 18.0008 5 17.3308 5 16.5008C5 15.6708 5.67 15.0008 6.5 15.0008C7.33 15.0008 8 15.6708 8 16.5008C8 17.3308 7.33 18.0008 6.5 18.0008ZM17.5 18.0008C16.67 18.0008 16 17.3308 16 16.5008C16 15.6708 16.67 15.0008 17.5 15.0008C18.33 15.0008 19 15.6708 19 16.5008C19 17.3308 18.33 18.0008 17.5 18.0008ZM5 13.0008L6.5 8.50078H17.5L19 13.0008H5Z" fill="black"/>
</svg>
