<svg width="24" height="24" viewBox="0 0 24 24" fill="none" xmlns="http://www.w3.org/2000/svg">
<path d="M12 6.5C12.663 6.5 13.2989 6.76339 13.7678 7.23223C14.2366 7.70107 14.5 8.33696 14.5 9C14.5 9.74 14.17 10.39 13.67 10.85L17.3 14.48C18.28 12.62 19 10.68 19 9C19 5.13 15.87 2 12 2C11.0585 2.00101 10.1269 2.19194 9.26089 2.56136C8.3949 2.93079 7.61232 3.47111 6.96 4.15L10.15 7.34C10.61 6.82 11.26 6.5 12 6.5ZM16.37 16.1L11.74 11.47L11.63 11.36L3.27 3L2 4.27L5.18 7.45C5.07 7.95 5 8.47 5 9C5 14.25 12 22 12 22C12 22 13.67 20.15 15.38 17.65L18.73 21L20 19.73L16.37 16.1Z" fill="black"/>
</svg>
