<svg width="24" height="24" viewBox="0 0 24 24" fill="none" xmlns="http://www.w3.org/2000/svg">
<path d="M19.01 3H5.01001C3.91001 3 3.01001 3.9 3.01001 5V19C3.01001 20.1 3.91001 21 5.01001 21H19.01C20.11 21 21.01 20.1 21.01 19V5C21.01 3.9 20.11 3 19.01 3ZM15.01 10.5C15.01 11.33 14.34 12 13.51 12C14.34 12 15.01 12.67 15.01 13.5V15C15.01 15.5304 14.7993 16.0391 14.4242 16.4142C14.0492 16.7893 13.5404 17 13.01 17H9.01001V15H13.01V13H11.01V11H13.01V9H9.01001V7H13.01C13.5404 7 14.0492 7.21071 14.4242 7.58579C14.7993 7.96086 15.01 8.46957 15.01 9V10.5Z" fill="black"/>
</svg>
