<svg width="24" height="24" viewBox="0 0 24 24" fill="none" xmlns="http://www.w3.org/2000/svg">
<path d="M12 22C14.3869 22 16.6761 21.0518 18.364 19.364C20.0518 17.6761 21 15.3869 21 13C18.6131 13 16.3239 13.9482 14.636 15.636C12.9482 17.3239 12 19.6131 12 22ZM5.6 10.25C5.59956 10.7061 5.7239 11.1537 5.95958 11.5442C6.19525 11.9347 6.53327 12.2533 6.93703 12.4655C7.34079 12.6776 7.7949 12.7753 8.25019 12.7479C8.70548 12.7205 9.1446 12.5691 9.52 12.31L9.5 12.5C9.5 13.163 9.76339 13.7989 10.2322 14.2678C10.7011 14.7366 11.337 15 12 15C12.663 15 13.2989 14.7366 13.7678 14.2678C14.2366 13.7989 14.5 13.163 14.5 12.5L14.48 12.31C14.88 12.59 15.37 12.75 15.9 12.75C16.563 12.75 17.1989 12.4866 17.6678 12.0178C18.1366 11.5489 18.4 10.913 18.4 10.25C18.4 9.25 17.81 8.4 16.97 8C17.81 7.6 18.4 6.75 18.4 5.75C18.4004 5.29388 18.2761 4.84634 18.0404 4.45583C17.8047 4.06532 17.4667 3.74672 17.063 3.53454C16.6592 3.32236 16.2051 3.22468 15.7498 3.25209C15.2945 3.27949 14.8554 3.43093 14.48 3.69L14.5 3.5C14.5 2.83696 14.2366 2.20107 13.7678 1.73223C13.2989 1.26339 12.663 1 12 1C11.337 1 10.7011 1.26339 10.2322 1.73223C9.76339 2.20107 9.5 2.83696 9.5 3.5L9.52 3.69C9.12 3.41 8.63 3.25 8.1 3.25C7.43696 3.25 6.80107 3.51339 6.33223 3.98223C5.86339 4.45107 5.6 5.08696 5.6 5.75C5.6 6.75 6.19 7.6 7.03 8C6.19 8.4 5.6 9.25 5.6 10.25ZM12 5.5C12.663 5.5 13.2989 5.76339 13.7678 6.23223C14.2366 6.70107 14.5 7.33696 14.5 8C14.5 8.66304 14.2366 9.29893 13.7678 9.76777C13.2989 10.2366 12.663 10.5 12 10.5C11.337 10.5 10.7011 10.2366 10.2322 9.76777C9.76339 9.29893 9.5 8.66304 9.5 8C9.5 7.33696 9.76339 6.70107 10.2322 6.23223C10.7011 5.76339 11.337 5.5 12 5.5ZM3 13C3 15.3869 3.94821 17.6761 5.63604 19.364C7.32387 21.0518 9.61305 22 12 22C12 19.6131 11.0518 17.3239 9.36396 15.636C7.67613 13.9482 5.38695 13 3 13Z" fill="black"/>
</svg>
