<svg width="24" height="24" viewBox="0 0 24 24" fill="none" xmlns="http://www.w3.org/2000/svg">
<path d="M9.00001 6.16859V2.99859H15V6.99859H11V8.16859L9.00001 6.16859ZM19.42 14.9986L22 17.5686L21.2 18.3686L14.42 11.5886L15.22 10.7886L17.97 13.5386V8.99859H18.57L22 12.4286L19.42 14.9986ZM19.17 13.5486L20.3 12.4186L19.17 11.2886V13.5486ZM21.19 21.1886L19.78 22.5986L15.8 18.6186L15.22 19.1986L14.37 18.3486L14.95 17.7686L11 13.8286V16.9986C11 19.2086 9.22002 20.9986 7.01002 20.9986C4.80001 20.9986 3.00001 19.2086 3.00001 16.9986C3.00001 14.7886 4.79001 12.9986 7.01002 12.9986C7.74002 12.9986 8.42002 13.2086 9.01002 13.5486V11.8286L1.39001 4.21859L2.80001 2.80859L21.19 21.1886Z" fill="black"/>
</svg>
