<svg width="24" height="24" viewBox="0 0 24 24" fill="none" xmlns="http://www.w3.org/2000/svg">
<path d="M22 12L18 16L16.59 14.59L18.17 13H12.94C12.7734 14.495 12.2337 15.9241 11.3705 17.156C10.5073 18.3879 9.3483 19.3831 8 20.05C7.9856 20.8365 7.66334 21.5861 7.10243 22.1376C6.54151 22.6892 5.78667 22.9988 5 23C3.34 23 2 21.66 2 20C2 18.34 3.34 17 5 17C5.95 17 6.78 17.45 7.33 18.14C8.28645 17.6221 9.10838 16.8874 9.73003 15.9949C10.3517 15.1023 10.7558 14.0767 10.91 13H7.81C7.4 14.16 6.3 15 5 15C3.34 15 2 13.66 2 12C2 10.34 3.34 9 5 9C6.3 9 7.4 9.84 7.82 11H10.92C10.6 8.77 9.23 6.9 7.33 5.86C6.78 6.55 5.95 7 5 7C3.34 7 2 5.66 2 4C2 2.34 3.34 1 5 1C5.78612 0.99993 6.54063 1.30945 7.10023 1.86156C7.65983 2.41367 7.97948 3.16396 7.99 3.95C9.3383 4.61693 10.4973 5.61209 11.3605 6.84399C12.2237 8.07589 12.7634 9.50502 12.93 11H18.16L16.58 9.41L18 8L22 12Z" fill="black"/>
</svg>
