<svg width="24" height="24" viewBox="0 0 24 24" fill="none" xmlns="http://www.w3.org/2000/svg">
<path d="M21.19 21.1913L2.81001 2.8113L1.39001 4.2213L5.17001 8.0013H4.00001L5.00001 18.0013H6.00001C6.00001 20.2113 7.79001 22.0013 10 22.0013C12.21 22.0013 14 20.2113 14 18.0013V16.8313L19.78 22.6113L21.19 21.1913ZM12 18.0013C12 19.1013 11.1 20.0013 10 20.0013C8.90001 20.0013 8.00001 19.1013 8.00001 18.0013H9.00001L9.56001 12.3913L12 14.8313V18.0013ZM14 6.0013V11.1713L12 9.1713V6.0013C12 3.7913 13.79 2.0013 16 2.0013C18.21 2.0013 20 3.7913 20 6.0013V17.1713L18 15.1713V6.0013C18 4.9013 17.1 4.0013 16 4.0013C14.9 4.0013 14 4.9013 14 6.0013ZM10 5.0013C10 5.6213 9.80001 6.1813 9.48001 6.6613L5.33001 2.5113C5.78114 2.20736 6.30651 2.03198 6.84975 2.00398C7.39299 1.97597 7.93361 2.09639 8.41361 2.35231C8.8936 2.60824 9.29487 2.99003 9.57435 3.4567C9.85383 3.92338 10.001 4.45734 10 5.0013Z" fill="black"/>
</svg>
