<svg width="24" height="24" viewBox="0 0 24 24" fill="none" xmlns="http://www.w3.org/2000/svg">
<path d="M10.53 7.42859C10.95 7.11859 11.46 6.95859 12.07 6.95859C12.68 6.95859 13.18 7.11859 13.57 7.44859C13.96 7.76859 14.22 8.14859 14.36 8.56859L16.25 7.76859C16.01 7.05859 15.54 6.41859 14.85 5.84859C14.35 5.44859 13.73 5.19859 13 5.07859V2.99859H11V5.10859C10.59 5.18859 10.21 5.31859 9.86001 5.49859C9.51001 5.67859 9.22001 5.88859 8.96001 6.12859L10.39 7.55859C10.43 7.51859 10.48 7.46859 10.53 7.42859ZM2.81001 2.80859L1.39001 4.21859L13.74 16.5686C13.31 16.8486 12.79 16.9986 12.19 16.9986C11.48 16.9986 10.87 16.7686 10.36 16.2986C9.86001 15.8286 9.50001 15.2286 9.30001 14.4886L7.32001 15.2886C7.66001 16.4586 8.27001 17.3686 9.15001 18.0186C9.72001 18.4386 10.34 18.6986 11 18.8486V20.9986H13V18.9186C13.44 18.8486 13.87 18.7486 14.29 18.5686C14.63 18.4286 14.93 18.2486 15.21 18.0386L19.78 22.6086L21.19 21.1986L2.81001 2.80859Z" fill="black"/>
</svg>
