<svg width="24" height="24" viewBox="0 0 24 24" fill="none" xmlns="http://www.w3.org/2000/svg">
<path d="M22.17 9.17188C22.17 5.30188 19.04 2.17188 15.17 2.17188C11.3 2.17188 8.17 5.30188 8.17 9.17188C8.16872 10.8246 8.75397 12.4242 9.82156 13.6859C10.8892 14.9476 12.3698 15.7896 14 16.0619V20.0019H6V17.0019H7V13.0019C7 12.4519 6.55 12.0019 6 12.0019H3C2.45 12.0019 2 12.4519 2 13.0019V17.0019H3V22.0019H19V20.0019H16V16.1219C17.7006 15.9188 19.2677 15.0993 20.4048 13.8185C21.5418 12.5377 22.1698 10.8846 22.17 9.17188ZM4.5 11.0019C5.33 11.0019 6 10.3319 6 9.50187C6 8.67187 5.33 8.00187 4.5 8.00187C3.67 8.00187 3 8.67187 3 9.50187C3 10.3319 3.67 11.0019 4.5 11.0019Z" fill="black"/>
</svg>
