<svg width="24" height="24" viewBox="0 0 24 24" fill="none" xmlns="http://www.w3.org/2000/svg">
<path d="M12 7.57109L16.42 11.9911L12 16.4111L7.58 11.9911L12 7.57109ZM12 19.1911L4.8 11.9911L12 4.79109L18 10.7911V7.16109L13.42 2.58109C12.64 1.80109 11.37 1.80109 10.59 2.58109L2.58 10.5811C1.8 11.3611 1.8 12.6311 2.58 13.4111L10.59 21.4111C11.37 22.1911 12.64 22.1911 13.42 21.4111L18 16.8211V13.1911L12 19.1911ZM20 20.0011H22V22.0011H20V20.0011ZM22 10.0011H20V18.0011H22V10.0011Z" fill="black"/>
</svg>
