<svg width="24" height="24" viewBox="0 0 24 24" fill="none" xmlns="http://www.w3.org/2000/svg">
<path d="M21.41 13.4189L18.83 15.9989L17.02 14.1889L19.2 11.9989L12 4.79891L9.81001 6.98891L8.00001 5.16891L10.58 2.58891C11.36 1.80891 12.63 1.80891 13.41 2.58891L21.41 10.5889C22.2 11.3689 22.2 12.6289 21.41 13.4189ZM21.19 21.1889L19.78 22.5989L16 18.8289L13.42 21.4089C12.64 22.1889 11.37 22.1889 10.59 21.4089L2.59001 13.4089C1.81001 12.6289 1.81001 11.3589 2.59001 10.5789L5.17001 7.99891L1.39001 4.21891L2.80001 2.80891L21.19 21.1889ZM14.19 17.0189L12.8 15.6289L12 16.4289L7.58001 11.9989L8.38001 11.1989L6.98001 9.80891L4.80001 11.9989L12 19.1989L14.19 17.0189ZM16.42 11.9989L12 7.57891L11.2 8.37891L15.62 12.7989L16.42 11.9989Z" fill="black"/>
</svg>
