<svg width="24" height="24" viewBox="0 0 24 24" fill="none" xmlns="http://www.w3.org/2000/svg">
<path d="M12 3L4 9V21H20V9L12 3ZM9.75 12.5C10.0815 12.5 10.3995 12.6317 10.6339 12.8661C10.8683 13.1005 11 13.4185 11 13.75C11 14.0815 10.8683 14.3995 10.6339 14.6339C10.3995 14.8683 10.0815 15 9.75 15C9.41848 15 9.10054 14.8683 8.86612 14.6339C8.6317 14.3995 8.5 14.0815 8.5 13.75C8.5 13.4185 8.6317 13.1005 8.86612 12.8661C9.10054 12.6317 9.41848 12.5 9.75 12.5ZM17 18H16V16.5H8V18H7V11H8V15.5H11.5V12H15C16.1 12 17 12.9 17 14V18Z" fill="black"/>
</svg>
