<svg width="24" height="24" viewBox="0 0 24 24" fill="none" xmlns="http://www.w3.org/2000/svg">
<path d="M11.1 12.0817C8.76998 7.57172 10.6 3.60172 11.63 2.01172C6.26998 2.20172 1.97998 6.59172 1.97998 12.0017C1.97998 12.1417 1.99998 12.2817 1.99998 12.4217C2.61998 12.1517 3.28998 12.0017 3.99998 12.0017C5.65998 12.0017 7.17998 12.8317 8.09998 14.1517C8.93537 14.3924 9.66993 14.898 10.193 15.5924C10.716 16.2868 10.9993 17.1324 11 18.0017C11 19.5217 10.13 20.8317 8.87998 21.5117C9.85998 21.8317 10.91 22.0117 11.99 22.0117C15.49 22.0117 18.57 20.2117 20.36 17.4917C18 17.7217 13.38 16.5217 11.1 12.0817Z" fill="black"/>
<path d="M7 16H6.82C6.4 14.84 5.3 14 4 14C2.34 14 1 15.34 1 17C1 18.66 2.34 20 4 20H7C8.1 20 9 19.1 9 18C9 16.9 8.1 16 7 16Z" fill="black"/>
</svg>
