<svg width="24" height="24" viewBox="0 0 24 24" fill="none" xmlns="http://www.w3.org/2000/svg">
<path d="M6.00001 17.9986C7.10001 17.9986 8.00001 18.8986 8.00001 19.9986C8.00001 21.0986 7.10001 21.9986 6.00001 21.9986C4.90001 21.9986 4.00001 21.0986 4.00001 19.9986C4.00001 18.8986 4.90001 17.9986 6.00001 17.9986ZM18.65 2.99859C16.99 2.99859 16.11 4.26859 15.47 5.02859L11.97 9.13859L17 14.1686V6.26859C17.58 5.58859 17.97 4.99859 18.65 4.99859C19.42 4.99859 20 5.65859 20 6.47859V6.99859H22V6.47859C22 4.55859 20.52 2.99859 18.65 2.99859ZM10.67 10.6686L2.81001 2.80859L1.39001 4.21859L9.36001 12.1886L6.70001 15.3086C6.15001 15.9586 6.61001 16.9586 7.46001 16.9586H14.12L15.29 18.1286C14.54 18.4186 14 19.1386 14 19.9986C14 21.0986 14.9 21.9986 16 21.9986C16.86 21.9986 17.58 21.4586 17.87 20.6986L19.78 22.6086L21.19 21.1986L16.39 16.3986L10.67 10.6686ZM13.47 5.02859C13.74 4.70859 14.05 4.30859 14.45 3.93859C13.2346 3.35492 11.9073 3.0411 10.5592 3.01866C9.21115 2.99622 7.87416 3.26569 6.64001 3.80859L10.89 8.05859L13.47 5.02859Z" fill="black"/>
</svg>
