<svg width="24" height="24" viewBox="0 0 24 24" fill="none" xmlns="http://www.w3.org/2000/svg">
<path d="M10.9401 8.12156L7.48005 4.66156L9.00005 3.00156H15.0001L16.8301 5.00156H20.0001C21.1001 5.00156 22.0001 5.90156 22.0001 7.00156V19.0016C22.0001 19.0516 21.9901 19.1016 21.9801 19.1616L16.8801 14.0616C16.9601 13.7116 17.0001 13.3616 17.0001 13.0016C17.0001 10.2416 14.7601 8.00156 12.0001 8.00156C11.6401 8.00156 11.2901 8.04156 10.9401 8.12156ZM20.4901 23.3116L18.1701 21.0016H4.00005C2.90005 21.0016 2.00005 20.1016 2.00005 19.0016V7.00156C2.00005 6.41156 2.27005 5.88156 2.68005 5.51156L0.680054 3.51156L2.10005 2.10156L21.9001 21.9016L20.4901 23.3116ZM14.4901 17.3216L12.9901 15.8216C12.6701 15.9216 12.3501 16.0016 12.0001 16.0016C10.3401 16.0016 9.00005 14.6616 9.00005 13.0016C9.00005 12.6516 9.08005 12.3316 9.19005 12.0216L7.69005 10.5216C7.23569 11.2688 6.99688 12.1271 7.00005 13.0016C7.00005 15.7616 9.24005 18.0016 12.0001 18.0016C12.9101 18.0016 13.7601 17.7516 14.4901 17.3216Z" fill="black"/>
</svg>
