<svg width="24" height="24" viewBox="0 0 24 24" fill="none" xmlns="http://www.w3.org/2000/svg">
<path d="M8.89994 6C8.89994 4.29 10.2899 2.9 11.9999 2.9C13.7099 2.9 15.0999 4.29 15.0999 6V8H10.8299L19.9999 17.17V10C19.9999 8.9 19.0999 8 17.9999 8H16.9999V6C16.9999 3.24 14.7599 1 11.9999 1C9.78994 1 7.92994 2.45 7.26994 4.44L8.89994 6.07V6ZM2.09994 2.1L0.689941 3.51L5.29994 8.13C4.54994 8.42 3.99994 9.15 3.99994 10V20C3.99994 21.1 4.89994 22 5.99994 22H17.9999C18.3399 22 18.6499 21.91 18.9299 21.76L20.4899 23.32L21.8999 21.91L2.09994 2.1ZM11.9999 17C10.8999 17 9.99994 16.1 9.99994 15C9.99994 14.41 10.2699 13.88 10.6799 13.51L13.4899 16.32C13.1199 16.73 12.5899 17 11.9999 17Z" fill="black"/>
</svg>
