<svg width="24" height="24" viewBox="0 0 24 24" fill="none" xmlns="http://www.w3.org/2000/svg">
<path d="M14 11.05L10.58 7.63C10.9 7.29 11.32 7.06 11.81 7.02C12.29 6.98 12.65 7.09 13.01 7.28C13.2 7.38 13.4 7.5 13.64 7.74L14.93 9.17C15.91 10.25 17.46 11.02 19 11V13C17.25 12.99 15.29 12.12 14 11.05ZM12 6C13.1 6 14 5.1 14 4C14 2.9 13.1 2 12 2C10.9 2 10 2.9 10 4C10 5.1 10.9 6 12 6ZM2.81001 2.81L1.39001 4.22L10 12.83V15C10 16.1 10.9 17 12 17H14.17L19.78 22.61L21.19 21.2L2.81001 2.81ZM10 20C8.34001 20 7.00001 18.66 7.00001 17C7.00001 15.69 7.84001 14.59 9.00001 14.17V12.1C8.11511 12.2809 7.29571 12.6981 6.62889 13.3073C5.96206 13.9165 5.4727 14.6949 5.21279 15.5599C4.95288 16.4249 4.93213 17.3442 5.15275 18.22C5.37336 19.0959 5.8271 19.8956 6.46576 20.5343C7.10443 21.1729 7.90416 21.6267 8.78001 21.8473C9.65585 22.0679 10.5751 22.0471 11.4401 21.7872C12.3051 21.5273 13.0836 21.038 13.6928 20.3711C14.3019 19.7043 14.7191 18.8849 14.9 18H12.83C12.42 19.16 11.31 20 10 20Z" fill="black"/>
</svg>
