<svg width="24" height="24" viewBox="0 0 24 24" fill="none" xmlns="http://www.w3.org/2000/svg">
<path d="M13.93 13.93L2.45004 2.45L1.04004 3.87L6.34004 9.17L6.14004 9.4H3.60004C2.72004 9.4 2.00004 10.12 2.00004 11V20.4C2.00004 21.28 2.72004 22 3.60004 22H16.4C17.15 22 17.78 21.48 17.95 20.78L20.13 22.96L21.54 21.55L18 18L13.93 13.93ZM10 20C7.79004 20 6.00004 18.21 6.00004 16C6.00004 14.05 7.40004 12.43 9.25004 12.08L10.82 13.65C10.56 13.56 10.29 13.5 10 13.5C9.337 13.5 8.70111 13.7634 8.23227 14.2322C7.76343 14.7011 7.50004 15.337 7.50004 16C7.50004 16.663 7.76343 17.2989 8.23227 17.7678C8.70111 18.2366 9.337 18.5 10 18.5C10.6631 18.5 11.299 18.2366 11.7678 17.7678C12.2366 17.2989 12.5 16.663 12.5 16C12.5 15.71 12.44 15.44 12.35 15.18L13.92 16.75C13.7471 17.6633 13.2609 18.4876 12.5453 19.0809C11.8297 19.6742 10.9296 19.9992 10 20ZM18 15.17L10.83 8H12.58L13.86 9.4H16.4C17.28 9.4 18 10.12 18 11V15.17ZM20.4 5.6H22L19 11V7H18V2H22L20.4 5.6Z" fill="black"/>
</svg>
