<svg width="24" height="24" viewBox="0 0 24 24" fill="none" xmlns="http://www.w3.org/2000/svg">
<path d="M16.79 5.79859L14 2.99859H21V9.99859L18.21 7.19859L14.12 11.2886L12.71 9.87859L16.79 5.79859ZM19 11.9986V16.1686L21 18.1686V11.9986H19ZM19.78 22.6086L18.17 20.9986H5.00001C4.46958 20.9986 3.96087 20.7879 3.5858 20.4128C3.21073 20.0377 3.00001 19.529 3.00001 18.9986V5.82859L1.39001 4.21859L2.80001 2.80859L21.18 21.1886L19.78 22.6086ZM16.17 18.9986L11.29 14.1186L9.70001 15.7086L8.29001 14.2986L9.88001 12.7086L5.00001 7.82859V18.9986H16.17ZM7.83001 4.99859H12V2.99859H5.83001L7.83001 4.99859Z" fill="black"/>
</svg>
