<svg width="24" height="24" viewBox="0 0 24 24" fill="none" xmlns="http://www.w3.org/2000/svg">
<path d="M17.66 8.00156L12 2.35156L6.34 8.00156C4.84683 9.49947 4.0058 11.5266 4 13.6416C4 15.6416 4.78 17.7516 6.34 19.3116C7.08231 20.0566 7.96441 20.6477 8.93568 21.051C9.90696 21.4544 10.9483 21.662 12 21.662C13.0517 21.662 14.093 21.4544 15.0643 21.051C16.0356 20.6477 16.9177 20.0566 17.66 19.3116C19.22 17.7516 20 15.6416 20 13.6416C20 11.6416 19.22 9.56156 17.66 8.00156ZM6 14.0016C6.01 12.0016 6.62 10.7316 7.76 9.60156L12 5.27156L16.24 9.65156C17.38 10.7716 17.99 12.0016 18 14.0016H6Z" fill="black"/>
</svg>
