<svg width="24" height="24" viewBox="0 0 24 24" fill="none" xmlns="http://www.w3.org/2000/svg">
<path d="M11.9999 4C15.8699 4 18.9999 7.13 18.9999 11V12H14.9999V12.17L16.8299 14H18.9999V16.17L20.9999 18.17V11C20.9999 8.61305 20.0517 6.32387 18.3639 4.63604C16.6761 2.94821 14.3869 2 11.9999 2C9.97994 2 8.11994 2.67 6.61994 3.8L8.04994 5.23C9.20918 4.42435 10.5882 3.99492 11.9999 4ZM2.09994 2.1L0.689941 3.51L4.01994 6.84C3.34938 8.1241 2.99942 9.55136 2.99994 11V18C2.99994 19.1 3.89994 20 4.99994 20H8.99994V12H4.99994V11C4.99994 10.06 5.18994 9.17 5.51994 8.35L14.9999 17.83V20H17.1699L18.1699 21H11.9999V23H18.9999C19.3399 23 19.6499 22.91 19.9299 22.76L20.4799 23.31L21.8899 21.9L2.09994 2.1ZM6.99994 14V18H4.99994V14H6.99994Z" fill="black"/>
</svg>
