<svg width="24" height="24" viewBox="0 0 24 24" fill="none" xmlns="http://www.w3.org/2000/svg">
<path d="M12 7.56719L16.42 11.9872L12 16.4072L7.58 11.9872L12 7.56719ZM12 19.1872L4.8 11.9872L12 4.78719L18 10.7872V7.15719L13.42 2.57719C12.64 1.79719 11.37 1.79719 10.59 2.57719L2.58 10.5772C1.8 11.3572 1.8 12.6272 2.58 13.4072L10.59 21.4072C11.37 22.1872 12.64 22.1872 13.42 21.4072L18 16.8172V13.1872L12 19.1872ZM20 19.9972H22V21.9972H20V19.9972ZM22 9.99719H20V17.9972H22V9.99719Z" fill="black"/>
</svg>
