<svg width="24" height="24" viewBox="0 0 24 24" fill="none" xmlns="http://www.w3.org/2000/svg">
<path d="M9.00001 6.1725V3.0025H15V7.0025H11V8.1725L9.00001 6.1725ZM19.42 15.0025L22 17.5725L21.2 18.3725L14.42 11.5925L15.22 10.7925L17.97 13.5425V9.0025H18.57L22 12.4325L19.42 15.0025ZM19.17 13.5525L20.3 12.4225L19.17 11.2925V13.5525ZM21.19 21.1925L19.78 22.6025L15.8 18.6225L15.22 19.2025L14.37 18.3525L14.95 17.7725L11 13.8325V17.0025C11 19.2125 9.22002 21.0025 7.01002 21.0025C4.80001 21.0025 3.00001 19.2125 3.00001 17.0025C3.00001 14.7925 4.79001 13.0025 7.01002 13.0025C7.74002 13.0025 8.42002 13.2125 9.01002 13.5525V11.8325L1.39001 4.2225L2.80001 2.8125L21.19 21.1925Z" fill="black"/>
</svg>
