<svg width="24" height="24" viewBox="0 0 24 24" fill="none" xmlns="http://www.w3.org/2000/svg">
<path d="M8.66 13.07C8.81 13.07 8.95 13.06 9.09 13.04C9.56 14.19 10.69 15 12 15C13.31 15 14.44 14.19 14.91 13.04C15.3543 13.1006 15.8064 13.0655 16.236 12.937C16.6656 12.8086 17.0627 12.5898 17.4008 12.2952C17.7389 12.0007 18.0101 11.6373 18.1962 11.2293C18.3824 10.8214 18.4791 10.3784 18.48 9.93C18.48 9.22 18.23 8.54 17.81 8C18.24 7.46 18.48 6.78 18.48 6.07C18.4791 5.62161 18.3824 5.17859 18.1962 4.77066C18.0101 4.36272 17.7389 3.99931 17.4008 3.70478C17.0627 3.41025 16.6656 3.19142 16.236 3.06297C15.8064 2.93451 15.3543 2.89941 14.91 2.96C14.44 1.81 13.31 1 12 1C10.69 1 9.56 1.81 9.09 2.96C8.64572 2.89941 8.19363 2.93451 7.76403 3.06297C7.33443 3.19142 6.93727 3.41025 6.59917 3.70478C6.26108 3.99931 5.98988 4.36272 5.80375 4.77066C5.61762 5.17859 5.52088 5.62161 5.52 6.07C5.52 6.78 5.77 7.46 6.19 8C5.76 8.54 5.51 9.22 5.51 9.93C5.51 11.66 6.92 13.07 8.66 13.07ZM12 13C11.38 13 10.88 12.51 10.86 11.9L10.98 10.81C11.3 10.93 11.64 11 12 11C12.36 11 12.71 10.93 13.03 10.81L13.14 11.9C13.12 12.51 12.62 13 12 13ZM15.34 11.07C15.1 11.07 14.88 11 14.7 10.87L13.89 10.3C14.44 9.85 14.83 9.21 14.95 8.47L15.83 8.89C16.23 9.08 16.49 9.48 16.49 9.92C16.49 10.56 15.97 11.07 15.34 11.07ZM14.69 5.13C14.89 5 15.11 4.93 15.34 4.93C15.97 4.93 16.48 5.44 16.48 6.07C16.48 6.51 16.23 6.9 15.82 7.1L14.94 7.52C14.82 6.78 14.43 6.14 13.87 5.69L14.69 5.13ZM12 3C12.62 3 13.12 3.49 13.14 4.1L13.03 5.19C12.71 5.07 12.36 5 12 5C11.64 5 11.3 5.07 10.98 5.19L10.86 4.1C10.88 3.49 11.38 3 12 3ZM8.66 4.93C8.9 4.93 9.12 5 9.3 5.13L10.11 5.69C9.56 6.14 9.17 6.78 9.05 7.52L8.17 7.1C7.77 6.9 7.51 6.51 7.51 6.07C7.51 5.44 8.03 4.93 8.66 4.93ZM8.17 8.9L9.05 8.48C9.17 9.22 9.56 9.86 10.12 10.31L9.31 10.86C9.11 10.99 8.89 11.06 8.66 11.06C8.03 11.06 7.52 10.55 7.52 9.92C7.51 9.49 7.77 9.1 8.17 8.9ZM12 22C14.3869 22 16.6761 21.0518 18.364 19.364C20.0518 17.6761 21 15.3869 21 13C18.6131 13 16.3239 13.9482 14.636 15.636C12.9482 17.3239 12 19.6131 12 22ZM14.44 19.56C15.15 17.66 16.66 16.14 18.56 15.44C18.2071 16.381 17.6569 17.2356 16.9462 17.9462C16.2356 18.6569 15.381 19.2071 14.44 19.56ZM3 13C3 15.3869 3.94821 17.6761 5.63604 19.364C7.32387 21.0518 9.61305 22 12 22C12 19.6131 11.0518 17.3239 9.36396 15.636C7.67613 13.9482 5.38695 13 3 13ZM5.44 15.44C7.34 16.15 8.86 17.66 9.56 19.56C8.61898 19.2071 7.76441 18.6569 7.05377 17.9462C6.34312 17.2356 5.79287 16.381 5.44 15.44Z" fill="black"/>
</svg>
