<svg width="24" height="24" viewBox="0 0 24 24" fill="none" xmlns="http://www.w3.org/2000/svg">
<path d="M18.17 4.91067L17.1 3.84067L11.55 9.39067V10.4707H12.63L18.17 4.91067ZM16 2.74067L17.29 1.45067C17.4286 1.31038 17.5936 1.199 17.7756 1.12298C17.9576 1.04696 18.1528 1.00781 18.35 1.00781C18.5472 1.00781 18.7424 1.04696 18.9244 1.12298C19.1064 1.199 19.2714 1.31038 19.41 1.45067L20.56 2.60067C21.15 3.19067 21.15 4.14067 20.56 4.72067L19.88 5.40067L19.86 5.42067L19.28 6.00067L13.28 12.0007H10V8.74067L16 2.74067ZM13.72 2.19067L13.17 2.74067L11.9 4.01067C8.6 4.06067 6 6.61067 6 10.2107C6 12.5507 7.95 15.6507 12 19.3507C16.05 15.6507 18 12.5607 18 10.2107V10.1107L19.8 8.31067C19.93 8.91067 20 9.55067 20 10.2107C20 13.5307 17.33 17.4607 12 22.0107C6.67 17.4607 4 13.5307 4 10.2107C4 5.23067 7.8 2.01067 12 2.01067C12.58 2.01067 13.16 2.07067 13.72 2.19067Z" fill="black"/>
</svg>
