<svg width="24" height="24" viewBox="0 0 24 24" fill="none" xmlns="http://www.w3.org/2000/svg">
<path d="M9 4C4.58 4 1 7.58 1 12C1 16.42 4.58 20 9 20C13.42 20 17 16.42 17 12C17 7.58 13.42 4 9 4ZM9 18C5.69 18 3 15.31 3 12C3 8.69 5.69 6 9 6C12.31 6 15 8.69 15 12C15 15.31 12.31 18 9 18ZM17 4.26V6.35C18.1696 6.76183 19.1826 7.5265 19.8992 8.53851C20.6158 9.55052 21.0006 10.76 21.0006 12C21.0006 13.24 20.6158 14.4495 19.8992 15.4615C19.1826 16.4735 18.1696 17.2382 17 17.65V19.74C20.45 18.85 23 15.73 23 12C23 8.27 20.45 5.15 17 4.26Z" fill="black"/>
</svg>
