<svg width="24" height="24" viewBox="0 0 24 24" fill="none" xmlns="http://www.w3.org/2000/svg">
<path d="M2 22.0009L16 17.0009L7 8.00094L2 22.0009ZM12.35 16.1809L5.3 18.7009L7.82 11.6509L12.35 16.1809ZM14.53 12.5309L20.12 6.94094C20.2361 6.82453 20.3741 6.73217 20.5259 6.66916C20.6778 6.60614 20.8406 6.5737 21.005 6.5737C21.1694 6.5737 21.3322 6.60614 21.4841 6.66916C21.6359 6.73217 21.7739 6.82453 21.89 6.94094L22.48 7.53094L23.54 6.47094L22.95 5.88094C22.4332 5.36689 21.7339 5.07832 21.005 5.07832C20.2761 5.07832 19.5768 5.36689 19.06 5.88094L13.47 11.4709L14.53 12.5309ZM10.06 6.88094L9.47 7.47094L10.53 8.53094L11.12 7.94094C11.6341 7.42414 11.9226 6.72486 11.9226 5.99594C11.9226 5.26702 11.6341 4.56773 11.12 4.05094L10.53 3.46094L9.47 4.53094L10.06 5.12094C10.54 5.60094 10.54 6.40094 10.06 6.88094ZM17.06 11.8809L15.47 13.4709L16.53 14.5309L18.12 12.9409C18.2361 12.8245 18.3741 12.7322 18.5259 12.6692C18.6778 12.6061 18.8406 12.5737 19.005 12.5737C19.1694 12.5737 19.3322 12.6061 19.4841 12.6692C19.6359 12.7322 19.7739 12.8245 19.89 12.9409L21.5 14.5509L22.56 13.4909L20.95 11.8809C20.4332 11.3669 19.7339 11.0783 19.005 11.0783C18.2761 11.0783 17.5768 11.3669 17.06 11.8809ZM15.06 5.88094L11.47 9.47094L12.53 10.5309L16.12 6.94094C16.6341 6.42414 16.9226 5.72486 16.9226 4.99594C16.9226 4.26702 16.6341 3.56773 16.12 3.05094L14.53 1.46094L13.47 2.52094L15.06 4.11094C15.54 4.60094 15.54 5.40094 15.06 5.88094Z" fill="black"/>
</svg>
