<svg width="24" height="24" viewBox="0 0 24 24" fill="none" xmlns="http://www.w3.org/2000/svg">
<path d="M4.34005 2.9375L2.93005 4.3475L7.29005 8.7075L7.00005 9.0075H3.00005V15.0075H7.00005L12.0001 20.0075V13.4175L16.1801 17.5975C15.5301 18.0875 14.8001 18.4775 14.0001 18.7075V20.7675C15.3204 20.4652 16.5548 19.8668 17.6101 19.0175L19.6601 21.0675L21.0701 19.6575L4.34005 2.9375ZM10.0001 15.1775L7.83005 13.0075H5.00005V11.0075H7.83005L8.71005 10.1275L10.0001 11.4175V15.1775ZM19.0001 12.0075C19.0001 12.8275 18.8501 13.6175 18.5901 14.3475L20.1201 15.8775C20.6801 14.7075 21.0001 13.3975 21.0001 12.0075C21.0001 7.7275 18.0101 4.1475 14.0001 3.2375V5.2975C16.8901 6.1575 19.0001 8.8375 19.0001 12.0075ZM12.0001 4.0075L10.1201 5.8875L12.0001 7.7675V4.0075ZM16.5001 12.0075C16.4998 11.1696 16.2657 10.3484 15.824 9.63644C15.3823 8.92444 14.7506 8.34989 14.0001 7.9775V9.7675L16.4801 12.2475C16.4901 12.1675 16.5001 12.0875 16.5001 12.0075Z" fill="black"/>
</svg>
