<svg width="24" height="24" viewBox="0 0 24 24" fill="none" xmlns="http://www.w3.org/2000/svg">
<path d="M13.5 5.5C14.6 5.5 15.5 4.6 15.5 3.5C15.5 2.4 14.6 1.5 13.5 1.5C12.4 1.5 11.5 2.4 11.5 3.5C11.5 4.6 12.4 5.5 13.5 5.5ZM17.5 10.78C16.27 10.41 15.28 9.61 14.7 8.6L13.7 7C13.29 6.35 12.59 6 11.86 6C11.08 6 10.27 6.5 10.08 7.44C9.88995 8.38 6.99995 23 6.99995 23H9.09996L10.9 15L13 17V23H15V15.5L12.9 13.5L13.5 10.5C14.5 11.65 15.91 12.51 17.5 12.84V23H19V9H17.5V10.78ZM7.42995 13.13L5.30995 12.72C5.05014 12.6694 4.82102 12.5178 4.6729 12.2984C4.52478 12.0791 4.46977 11.8099 4.51995 11.55L5.27995 7.62C5.38159 7.10063 5.68494 6.64272 6.12354 6.34657C6.56214 6.05042 7.10023 5.94018 7.61995 6.04L8.77995 6.27L7.42995 13.13Z" fill="black"/>
</svg>
