<svg width="24" height="24" viewBox="0 0 24 24" fill="none" xmlns="http://www.w3.org/2000/svg">
<path d="M15 2C12.29 2 9.95 3.54 8.78 5.78C7.49615 6.44888 6.44888 7.49615 5.78 8.78C4.64119 9.37174 3.68655 10.2646 3.02005 11.3613C2.35354 12.458 2.00072 13.7166 2 15C2 18.87 5.13 22 9 22C11.71 22 14.05 20.46 15.22 18.22C16.5038 17.5511 17.5511 16.5038 18.22 15.22C19.3588 14.6283 20.3135 13.7354 20.98 12.6387C21.6465 11.542 21.9993 10.2834 22 9C22 5.13 18.87 2 15 2ZM9 20C8.07175 19.9993 7.16201 19.7402 6.37259 19.2519C5.58317 18.7636 4.9452 18.0652 4.53007 17.235C4.11495 16.4047 3.93904 15.4753 4.02203 14.5508C4.10502 13.6262 4.44364 12.743 5 12C5 15.87 8.13 19 12 19C11.16 19.63 10.12 20 9 20ZM12 17C11.0717 16.9993 10.162 16.7402 9.37259 16.2519C8.58317 15.7636 7.9452 15.0652 7.53007 14.235C7.11495 13.4047 6.93904 12.4753 7.02203 11.5508C7.10502 10.6262 7.44364 9.74305 8 9C8 12.86 11.13 15.99 15 16C14.16 16.63 13.12 17 12 17ZM16.7 13.7C16.17 13.89 15.6 14 15 14C12.24 14 10 11.76 10 9C10 8.4 10.11 7.83 10.3 7.3C10.83 7.11 11.4 7 12 7C14.76 7 17 9.24 17 12C17 12.6 16.89 13.17 16.7 13.7ZM19 12C19 8.14 15.87 5.01 12 5C12.9633 4.28166 14.1531 3.93414 15.3516 4.02098C16.5501 4.10783 17.6773 4.62325 18.527 5.47296C19.3768 6.32267 19.8922 7.44987 19.979 8.6484C20.0659 9.84693 19.7183 11.0367 19 12Z" fill="black"/>
</svg>
