<svg width="24" height="24" viewBox="0 0 24 24" fill="none" xmlns="http://www.w3.org/2000/svg">
<path d="M1.41 1.6875L0 3.0975L2 5.0975V20.9975H17.9L20.9 23.9975L22.31 22.5875L1.41 1.6875ZM6 18.9975H4V16.9975H6V18.9975ZM6 14.9975H4V12.9975H6V14.9975ZM4 10.9975V8.9975H6V10.9975H4ZM10 18.9975H8V16.9975H10V18.9975ZM8 14.9975V12.9975H10V14.9975H8ZM12 18.9975V16.9975H13.9L15.9 18.9975H12ZM8 4.9975H10V6.9975H9.55L12 9.4475V8.9975H20V17.4475L22 19.4475V6.9975H12V2.9975H5.55L8 5.4475V4.9975ZM16 10.9975H18V12.9975H16V10.9975Z" fill="black"/>
</svg>
