<svg width="24" height="24" viewBox="0 0 24 24" fill="none" xmlns="http://www.w3.org/2000/svg">
<path d="M19.9999 9V6H17.9999V9H14.9999V11H17.9999V14H19.9999V11H22.9999V9H19.9999ZM8.99994 12C11.2099 12 12.9999 10.21 12.9999 8C12.9999 5.79 11.2099 4 8.99994 4C6.78994 4 4.99994 5.79 4.99994 8C4.99994 10.21 6.78994 12 8.99994 12ZM8.99994 6C10.0999 6 10.9999 6.9 10.9999 8C10.9999 9.1 10.0999 10 8.99994 10C7.89994 10 6.99994 9.1 6.99994 8C6.99994 6.9 7.89994 6 8.99994 6ZM15.3899 14.56C13.7099 13.7 11.5299 13 8.99994 13C6.46994 13 4.28994 13.7 2.60994 14.56C2.122 14.8113 1.71324 15.1929 1.42904 15.6625C1.14484 16.132 0.996313 16.6712 0.999943 17.22V20H16.9999V17.22C16.9999 16.1 16.3899 15.07 15.3899 14.56ZM14.9999 18H2.99994V17.22C2.99994 16.84 3.19994 16.5 3.51994 16.34C4.70994 15.73 6.62994 15 8.99994 15C11.3699 15 13.2899 15.73 14.4799 16.34C14.7999 16.5 14.9999 16.84 14.9999 17.22V18Z" fill="black"/>
</svg>
