<svg width="24" height="24" viewBox="0 0 24 24" fill="none" xmlns="http://www.w3.org/2000/svg">
<path d="M20 4.00375V16.0037H18.66L20.57 17.9137C20.9811 17.7899 21.3417 17.5376 21.5991 17.1939C21.8564 16.8502 21.9969 16.4331 22 16.0037V4.00375C22 2.90375 21.1 2.00375 20 2.00375H4.66L6.66 4.00375H20ZM6 12.0037H8V14.0037H6V12.0037ZM18 9.00375H11.66L13.66 11.0037H18V9.00375ZM18 6.00375H10V7.34375L10.66 8.00375H18V6.00375ZM1.41 1.59375L0 3.00375L2.01 5.01375L2 22.0037L6 18.0037H15L20.73 23.7337L22.14 22.3237L1.41 1.59375ZM5.17 16.0037L4 17.1737V7.00375L6 9.00375V11.0037H8L13 16.0037H5.17Z" fill="black"/>
</svg>
