<svg width="24" height="24" viewBox="0 0 24 24" fill="none" xmlns="http://www.w3.org/2000/svg">
<path d="M8.09995 13.3395L10.93 10.5095L3.90995 3.49947C3.1608 4.25078 2.74011 5.26848 2.74011 6.32947C2.74011 7.39046 3.1608 8.40816 3.90995 9.15947L8.09995 13.3395ZM14.88 11.5295C16.41 12.2395 18.5599 11.7395 20.15 10.1495C22.0599 8.23947 22.4299 5.49947 20.9599 4.02947C19.4999 2.56947 16.76 2.92947 14.84 4.83947C13.25 6.42947 12.75 8.57947 13.46 10.1095L3.69995 19.8695L5.10995 21.2795L12 14.4095L18.8799 21.2895L20.29 19.8795L13.41 12.9995L14.88 11.5295Z" fill="black"/>
</svg>
