<svg width="24" height="24" viewBox="0 0 24 24" fill="none" xmlns="http://www.w3.org/2000/svg">
<path d="M19.48 12.3462C17.91 8.26623 12.32 8.04623 13.67 2.11623C13.77 1.67623 13.3 1.33623 12.92 1.56623C9.29 3.70623 6.68 7.99623 8.87 13.6162C9.05 14.0762 8.51 14.5062 8.12 14.2062C6.31 12.8362 6.12 10.8662 6.28 9.45623C6.34 8.93623 5.66 8.68623 5.37 9.11623C4.69 10.1562 4 11.8362 4 14.3662C4.38 19.9662 9.11 21.6862 10.81 21.9062C13.24 22.2162 15.87 21.7662 17.76 20.0362C19.84 18.1062 20.6 15.0262 19.48 12.3462ZM10.2 17.3762C11.64 17.0262 12.38 15.9862 12.58 15.0662C12.91 13.6362 11.62 12.2362 12.49 9.97623C12.82 11.8462 15.76 13.0162 15.76 15.0562C15.84 17.5862 13.1 19.7562 10.2 17.3762Z" fill="black"/>
</svg>
