<svg width="24" height="24" viewBox="0 0 24 24" fill="none" xmlns="http://www.w3.org/2000/svg">
<path d="M12 1C5.9 1 1 5.9 1 12C1 18.1 5.9 23 12 23C18.1 23 23 18.1 23 12C23 5.9 18.1 1 12 1ZM12 21C7.01 21 3 16.99 3 12C3 7.01 7.01 3 12 3C16.99 3 21 7.01 21 12C21 16.99 16.99 21 12 21Z" fill="black"/>
<path d="M19.7301 11.4186L12.5401 4.19859C12.1801 3.92859 11.7401 3.92859 11.3901 4.19859L4.20006 11.4186C3.93006 11.7786 3.93006 12.2186 4.20006 12.5786L11.3901 19.7986C11.7501 20.0686 12.1901 20.0686 12.5401 19.7986L19.7301 12.5786C20.0901 12.2186 20.0901 11.6886 19.7301 11.4186ZM13.5001 14.4986L12.0901 13.0886L13.1701 11.9986H10.0001V14.9986H8.00006V10.9986C8.00006 10.3986 8.40006 9.99859 9.00006 9.99859H13.1701L12.0801 8.90859L13.5001 7.49859L17.0001 10.9986L13.5001 14.4986Z" fill="black"/>
</svg>
