<svg width="24" height="24" viewBox="0 0 24 24" fill="none" xmlns="http://www.w3.org/2000/svg">
<path d="M2.81001 2.81L1.39001 4.22L7.00001 9.83V14.13L4.40001 12.65C4.23001 12.56 4.06001 12.51 3.86001 12.51C3.60001 12.51 3.36001 12.6 3.16001 12.77L2.00001 13.88L8.80001 21.06C9.37001 21.66 10.15 22 10.98 22H17C17.62 22 18.18 21.81 18.66 21.48L19.78 22.6L21.19 21.19L2.81001 2.81ZM17 20H11C10.61 20 10.36 19.77 10.25 19.64L6.87001 16H9.00001V11.83L17.14 19.97C17.09 19.98 17.05 20 17 20ZM13.83 11H14V3.25C14 2.91848 14.1317 2.60054 14.3661 2.36612C14.6006 2.1317 14.9185 2 15.25 2C15.5815 2 15.8995 2.1317 16.1339 2.36612C16.3683 2.60054 16.5 2.91848 16.5 3.25V11H17.5V5.25C17.5 4.91848 17.6317 4.60054 17.8661 4.36612C18.1006 4.1317 18.4185 4 18.75 4C19.0815 4 19.3995 4.1317 19.6339 4.36612C19.8683 4.60054 20 4.91848 20 5.25V17.17L18 15.17V13H15.83L13.83 11ZM13 10.17V2.25C13 1.91848 12.8683 1.60054 12.6339 1.36612C12.3995 1.1317 12.0815 1 11.75 1C11.4185 1 11.1006 1.1317 10.8661 1.36612C10.6317 1.60054 10.5 1.91848 10.5 2.25V7.67L13 10.17ZM9.50001 6.67V4.25C9.50001 3.56 8.94001 3 8.25001 3C7.58001 3 7.05002 3.53 7.01002 4.18L9.50001 6.67Z" fill="black"/>
</svg>
