<svg width="24" height="24" viewBox="0 0 24 24" fill="none" xmlns="http://www.w3.org/2000/svg">
<path d="M13.783 15.1687L15.904 13.0477L21.9 19.0437L19.779 21.1647L13.783 15.1687ZM17.5 9.99674C19.43 9.99674 21 8.42674 21 6.49674C21 5.91674 20.84 5.37674 20.59 4.89674L17.89 7.59674L16.4 6.10674L19.1 3.40674C18.62 3.15674 18.08 2.99674 17.5 2.99674C15.57 2.99674 14 4.56674 14 6.49674C14 6.90674 14.08 7.29673 14.21 7.65673L12.36 9.50674L10.58 7.72674L11.29 7.01674L9.87998 5.60674L12 3.48674C11.4375 2.92493 10.675 2.60938 9.87998 2.60938C9.08497 2.60938 8.32248 2.92493 7.75998 3.48674L4.21998 7.02674L5.62998 8.43673H2.80998L2.09998 9.14673L5.63998 12.6867L6.34998 11.9767V9.14673L7.75998 10.5567L8.46998 9.84674L10.25 11.6267L2.83998 19.0367L4.95998 21.1567L16.34 9.78674C16.7 9.91674 17.09 9.99674 17.5 9.99674Z" fill="black"/>
</svg>
