<svg width="24" height="24" viewBox="0 0 24 24" fill="none" xmlns="http://www.w3.org/2000/svg">
<path d="M20.9999 19.57L19.5729 20.998L13.1309 14.556L14.5609 13.128L20.9999 19.57ZM13.1199 3.00001C10.5399 3.00001 7.95995 3.98001 5.97995 5.95001L5.96995 5.96001C2.01995 9.91001 2.01995 16.32 5.96995 20.27L20.2699 5.96001C19.3317 5.02021 18.2171 4.27496 16.9901 3.767C15.7631 3.25905 14.4479 2.9984 13.1199 3.00001ZM6.13995 17.27C5.53257 16.253 5.15676 15.1146 5.03923 13.9359C4.9217 12.7571 5.06535 11.5669 5.45995 10.45C5.64995 12.36 6.34995 14.24 7.52995 15.89L6.13995 17.27ZM8.97995 14.43C7.62995 12.38 7.11995 9.93001 7.59995 7.60001C8.17995 7.48001 8.75995 7.42001 9.34995 7.42001C11.1499 7.42001 12.8999 7.97001 14.4299 8.98001L8.97995 14.43ZM10.4499 5.46001C11.5669 5.06541 12.757 4.92176 13.9358 5.03929C15.1145 5.15682 16.2529 5.53263 17.2699 6.14001L15.8799 7.53001C14.2825 6.37637 12.41 5.66256 10.4499 5.46001Z" fill="black"/>
</svg>
