<svg width="24" height="24" viewBox="0 0 24 24" fill="none" xmlns="http://www.w3.org/2000/svg">
<path d="M17.6 9.48104L19.44 6.30104C19.6 5.99104 19.48 5.61104 19.18 5.45104C19.0391 5.37761 18.8759 5.35947 18.7224 5.40017C18.5688 5.44087 18.436 5.53748 18.35 5.67104L16.47 8.91104C15.0558 8.31217 13.5357 8.00358 12 8.00358C10.4643 8.00358 8.94417 8.31217 7.53 8.91104L5.65 5.67104C5.55909 5.53155 5.41763 5.43276 5.25536 5.39546C5.0931 5.35816 4.92269 5.38525 4.78 5.47104C4.5 5.65104 4.41 6.01104 4.56 6.30104L6.4 9.48104C4.87336 10.3531 3.5832 11.5854 2.64198 13.0705C1.70076 14.5555 1.13706 16.2482 1 18.001H23C22.8629 16.2482 22.2992 14.5555 21.358 13.0705C20.4168 11.5854 19.1266 10.3531 17.6 9.48104ZM7 15.251C6.66848 15.251 6.35054 15.1193 6.11612 14.8849C5.8817 14.6505 5.75 14.3326 5.75 14.001C5.75 13.6695 5.8817 13.3516 6.11612 13.1172C6.35054 12.8827 6.66848 12.751 7 12.751C7.33152 12.751 7.64946 12.8827 7.88388 13.1172C8.1183 13.3516 8.25 13.6695 8.25 14.001C8.25 14.3326 8.1183 14.6505 7.88388 14.8849C7.64946 15.1193 7.33152 15.251 7 15.251ZM17 15.251C16.6685 15.251 16.3505 15.1193 16.1161 14.8849C15.8817 14.6505 15.75 14.3326 15.75 14.001C15.75 13.6695 15.8817 13.3516 16.1161 13.1172C16.3505 12.8827 16.6685 12.751 17 12.751C17.3315 12.751 17.6495 12.8827 17.8839 13.1172C18.1183 13.3516 18.25 13.6695 18.25 14.001C18.25 14.3326 18.1183 14.6505 17.8839 14.8849C17.6495 15.1193 17.3315 15.251 17 15.251Z" fill="black"/>
</svg>
