<svg width="24" height="24" viewBox="0 0 24 24" fill="none" xmlns="http://www.w3.org/2000/svg">
<path d="M9 3L9.01 13.55C8.41 13.21 7.73 13 7.01 13C6.47719 12.9881 5.94737 13.0827 5.45164 13.2784C4.95591 13.4741 4.50426 13.7668 4.12322 14.1394C3.74219 14.512 3.43943 14.957 3.23273 15.4482C3.02603 15.9395 2.91956 16.4671 2.91956 17C2.91956 17.5329 3.02603 18.0605 3.23273 18.5518C3.43943 19.043 3.74219 19.488 4.12322 19.8606C4.50426 20.2332 4.95591 20.5259 5.45164 20.7216C5.94737 20.9173 6.47719 21.0119 7.01 21C9.23 21 11 19.21 11 17V7H15V3H9ZM21 12.43L17.57 9H16.97V13.55L14.22 10.8L13.37 11.65L16.73 15L13.38 18.35L14.23 19.2L16.98 16.45V21H17.58L21 17.57L18.42 15L21 12.43ZM18.17 11.3L19.3 12.43L18.17 13.56V11.3ZM19.3 17.57L18.17 18.7V16.44L19.3 17.57Z" fill="black"/>
</svg>
