<svg width="24" height="24" viewBox="0 0 24 24" fill="none" xmlns="http://www.w3.org/2000/svg">
<path d="M6.82994 4.00156H19.9999C21.1099 4.00156 21.9999 4.89156 21.9999 6.00156V18.0016C21.9999 18.3416 21.9199 18.6616 21.7699 18.9416L19.9999 17.1716V12.0016H14.8299L10.8299 8.00156H19.9999V6.00156H8.82994L6.82994 4.00156ZM20.4899 23.3116L17.1699 20.0016H3.99994C2.88994 20.0016 1.99994 19.1116 1.99994 18.0016L2.00994 6.00156C2.00994 5.66156 2.08994 5.34156 2.23994 5.07156L0.689941 3.51156L2.09994 2.10156L21.8999 21.9016L20.4899 23.3116ZM3.99994 6.83156V8.00156H5.16994L3.99994 6.83156ZM15.1699 18.0016L9.16994 12.0016H3.99994V18.0016H15.1699Z" fill="black"/>
</svg>
