<svg width="24" height="24" viewBox="0 0 24 24" fill="none" xmlns="http://www.w3.org/2000/svg">
<path d="M7 24H9V22H7V24ZM11 24H13V22H11V24ZM13 2H11V12H13V2ZM16.56 4.44L15.11 5.89C15.9912 6.42057 16.7203 7.16984 17.2266 8.06515C17.733 8.96046 17.9994 9.97142 18 11C18 14.31 15.31 17 12 17C8.69 17 6 14.31 6 11C6 8.83 7.16 6.94 8.88 5.88L7.44 4.44C6.3779 5.17279 5.50984 6.15277 4.91058 7.29555C4.31132 8.43832 3.99882 9.70963 4 11C4 15.42 7.58 19 12 19C16.42 19 20 15.42 20 11C20 8.28 18.64 5.88 16.56 4.44ZM15 24H17V22H15V24Z" fill="black"/>
</svg>
