<svg width="24" height="24" viewBox="0 0 24 24" fill="none" xmlns="http://www.w3.org/2000/svg">
<path d="M15 6.00094C16.1 6.00094 17 6.90094 17 8.00094C16.9994 8.47371 16.8313 8.93099 16.5256 9.29162C16.2199 9.65226 15.7963 9.89293 15.33 9.97094L13.02 7.66094C13.19 6.72094 14.01 6.00094 15 6.00094ZM15 4.00094C12.79 4.00094 11 5.79094 11 8.00094C11 8.18094 11.03 8.35094 11.05 8.52094L14.48 11.9509C14.65 11.9709 14.82 12.0009 15 12.0009C17.21 12.0009 19 10.2109 19 8.00094C19 5.79094 17.21 4.00094 15 4.00094ZM16.69 14.1609L22.53 20.0009H23V18.0009C23 15.8609 19.44 14.5009 16.69 14.1609ZM13.01 16.1309L14.88 18.0009H9C9.08 17.7609 9.88 16.9909 11.91 16.4309L13.01 16.1309ZM1.41 1.71094L0 3.12094L4 7.12094V10.0009H1V12.0009H4V15.0009H6V12.0009H8.88L11.39 14.5109C9.19 15.1109 7 16.3009 7 18.0009V20.0009H16.88L20.88 24.0009L22.29 22.5909L1.41 1.71094ZM6 10.0009V9.12094L6.88 10.0009H6Z" fill="black"/>
</svg>
