<svg width="24" height="24" viewBox="0 0 24 24" fill="none" xmlns="http://www.w3.org/2000/svg">
<path d="M14.82 10.9969H21.95C21.48 6.27688 17.72 2.51687 13 2.04688V9.17688C13.85 9.48688 14.51 10.1469 14.82 10.9969ZM15 4.57687C17 5.39687 18.6 6.99687 19.42 8.99687H15.99C15.71 8.62687 15.37 8.28688 15 8.00688V4.57687ZM2 11.9969C2 17.1869 5.95 21.4469 11 21.9469V14.8169C9.84 14.3969 9 13.2969 9 11.9969C9 10.6969 9.84 9.59688 11 9.17688V2.04688C5.95 2.54688 2 6.80687 2 11.9969ZM9 4.57687V8.01688C7.77 8.93688 7 10.4069 7 11.9969C7 13.5869 7.77 15.0569 9 15.9869V19.4269C6.04 18.2369 4 15.3469 4 11.9969C4 8.64687 6.04 5.75687 9 4.57687ZM13 14.8169V21.9469C17.72 21.4769 21.48 17.7169 21.95 12.9969H14.82C14.51 13.8469 13.85 14.5069 13 14.8169ZM15 15.9869C15.37 15.7069 15.71 15.3769 15.99 14.9969H19.42C18.6 16.9969 17 18.5969 15 19.4169V15.9869Z" fill="black"/>
</svg>
