<svg width="24" height="24" viewBox="0 0 24 24" fill="none" xmlns="http://www.w3.org/2000/svg">
<path fill-rule="evenodd" clip-rule="evenodd" d="M12 2C6.48 2 2 6.48 2 12C2 17.52 6.48 22 12 22C17.52 22 22 17.52 22 12C22 6.48 17.52 2 12 2ZM12 20C7.59 20 4 16.41 4 12C4 7.59 7.59 4 12 4C16.41 4 20 7.59 20 12C20 16.41 16.41 20 12 20Z" fill="black"/>
<path fill-rule="evenodd" clip-rule="evenodd" d="M13.49 11.3797C13.92 10.1597 13.66 8.73973 12.68 7.75973C12.151 7.23336 11.4664 6.89165 10.7277 6.78536C9.9891 6.67907 9.23588 6.81387 8.57996 7.16973L10.93 9.51973L9.51996 10.9297L7.16996 8.57973C6.45996 9.89973 6.64996 11.5697 7.75996 12.6797C8.73996 13.6597 10.16 13.9197 11.38 13.4897L14.79 16.8997C14.99 17.0997 15.3 17.0997 15.5 16.8997L16.9 15.4997C17.1 15.2997 17.1 14.9897 16.9 14.7897L13.49 11.3797Z" fill="black"/>
</svg>
