<svg width="24" height="24" viewBox="0 0 24 24" fill="none" xmlns="http://www.w3.org/2000/svg">
<path d="M20.97 7.26682C21.0627 7.17431 21.1363 7.06442 21.1864 6.94344C21.2366 6.82247 21.2624 6.69279 21.2624 6.56182C21.2624 6.43085 21.2366 6.30117 21.1864 6.18019C21.1363 6.05922 21.0627 5.94933 20.97 5.85682L18.14 3.02682C18.0475 2.93412 17.9376 2.86057 17.8166 2.81039C17.6957 2.7602 17.566 2.73438 17.435 2.73438C17.304 2.73438 17.1743 2.7602 17.0534 2.81039C16.9324 2.86057 16.8225 2.93412 16.73 3.02682L12.24 7.51682L8.35 3.62682C7.57 2.84682 6.3 2.84682 5.52 3.62682L3.62 5.52682C2.84 6.30682 2.84 7.57682 3.62 8.35682L7.51 12.2468L3 16.7568V20.9968H7.24L11.76 16.4768L15.65 20.3668C16.6 21.3168 17.88 20.9668 18.48 20.3668L20.38 18.4668C21.16 17.6868 21.16 16.4168 20.38 15.6368L16.49 11.7468L20.97 7.26682ZM5.04 6.93682L6.93 5.03682L8.2 6.30682L7.02 7.49682L8.43 8.90682L9.62 7.71682L10.82 8.91682L8.92 10.8168L5.04 6.93682ZM16.27 14.3768L15.08 15.5668L16.49 16.9768L17.68 15.7868L18.95 17.0568L17.05 18.9568L13.16 15.0668L15.06 13.1668L16.27 14.3768ZM6.41 18.9968H5V17.5868L14.61 7.97682L15.91 9.27682L16.02 9.38682L6.41 18.9968ZM16.02 6.55682L17.43 5.14682L18.84 6.55682L17.43 7.96682L16.02 6.55682Z" fill="black"/>
</svg>
