<svg width="24" height="24" viewBox="0 0 24 24" fill="none" xmlns="http://www.w3.org/2000/svg">
<path d="M14 2H6C4.9 2 4 2.9 4 4V20C4 21.1 4.9 22 6 22H18C19.1 22 20 21.1 20 20V8L14 2ZM18 20H6V4H14V8H18V20ZM12 17C10.9 17 10 16.1 10 15V9.5C10 9.22 10.22 9 10.5 9C10.78 9 11 9.22 11 9.5V15H13V9.5C13 8.83696 12.7366 8.20107 12.2678 7.73223C11.7989 7.26339 11.163 7 10.5 7C9.83696 7 9.20107 7.26339 8.73223 7.73223C8.26339 8.20107 8 8.83696 8 9.5V15C8 17.21 9.79 19 12 19C14.21 19 16 17.21 16 15V11H14V15C14 16.1 13.1 17 12 17Z" fill="black"/>
</svg>
