<svg width="24" height="24" viewBox="0 0 24 24" fill="none" xmlns="http://www.w3.org/2000/svg">
<path d="M3.55 19.0869L4.96 20.4969L6.75 18.6969L5.34 17.2869L3.55 19.0869ZM11 19.9969H13V22.9969H11V19.9969ZM1 10.9969H4V12.9969H1V10.9969ZM13 4.04688V8.00688L14 8.58687C15.24 9.30687 16 10.6269 16 12.0469C16 14.2569 14.21 16.0469 12 16.0469C9.79 16.0469 8 14.2569 8 12.0469C8 10.6269 8.77 9.30687 10 8.58687L11 8.00688V4.04688H13ZM15 2.04688H9V6.85688C7.21 7.89688 6 9.82687 6 12.0469C6 15.3569 8.69 18.0469 12 18.0469C15.31 18.0469 18 15.3569 18 12.0469C18 9.82687 16.79 7.89688 15 6.85688V2.04688ZM20 10.9969H23V12.9969H20V10.9969ZM17.24 18.7069L19.03 20.5069L20.44 19.0969L18.64 17.3069L17.24 18.7069Z" fill="black"/>
</svg>
