<svg width="24" height="24" viewBox="0 0 24 24" fill="none" xmlns="http://www.w3.org/2000/svg">
<path d="M21.6 18.1969L13 11.7469V10.8369C13.7372 10.6176 14.3815 10.1612 14.8331 9.5386C15.2846 8.91596 15.5182 8.16179 15.4977 7.39292C15.4772 6.62405 15.2038 5.88341 14.7197 5.28572C14.2356 4.68804 13.5679 4.26668 12.82 4.08693C12.3049 3.96476 11.7689 3.96069 11.252 4.07501C10.7351 4.18934 10.2508 4.41909 9.83527 4.74709C9.41975 5.07508 9.08379 5.49281 8.85256 5.96901C8.62133 6.44522 8.50081 6.96755 8.50002 7.49693H10.5C10.5 6.66693 11.17 5.99693 12 5.99693C12.83 5.99693 13.5 6.66693 13.5 7.49693C13.5 8.33693 12.81 9.01693 11.97 8.99693C11.43 8.98693 11 9.44693 11 9.98693V11.7469L2.40002 18.1969C1.63002 18.7769 2.04002 19.9969 3.00002 19.9969H21C21.96 19.9969 22.37 18.7769 21.6 18.1969ZM6.00002 17.9969L12 13.4969L18 17.9969H6.00002Z" fill="black"/>
</svg>
