<svg width="24" height="24" viewBox="0 0 24 24" fill="none" xmlns="http://www.w3.org/2000/svg">
<path d="M21 5H23V19H21V5ZM17 5H19V19H17V5ZM14 5H2C1.45 5 1 5.45 1 6V18C1 18.55 1.45 19 2 19H14C14.55 19 15 18.55 15 18V6C15 5.45 14.55 5 14 5ZM13 17H3V7H13V17Z" fill="black"/>
<path d="M8.00005 11.8922C9.077 11.8922 9.95005 11.0191 9.95005 9.94219C9.95005 8.86523 9.077 7.99219 8.00005 7.99219C6.92309 7.99219 6.05005 8.86523 6.05005 9.94219C6.05005 11.0191 6.92309 11.8922 8.00005 11.8922Z" fill="black"/>
<path d="M11.89 15.3484C11.89 14.0484 9.29999 13.3984 7.99999 13.3984C6.69999 13.3984 4.10999 14.0484 4.10999 15.3484V15.9984H11.89V15.3484Z" fill="black"/>
</svg>
