<svg width="24" height="24" viewBox="0 0 24 24" fill="none" xmlns="http://www.w3.org/2000/svg">
<path d="M17 4.99687C17.83 4.99687 18.5 4.32688 18.5 3.49688C18.5 2.49688 17 0.796875 17 0.796875C17 0.796875 15.5 2.49688 15.5 3.49688C15.5 4.32688 16.17 4.99687 17 4.99687ZM12 4.99687C12.83 4.99687 13.5 4.32688 13.5 3.49688C13.5 2.49688 12 0.796875 12 0.796875C12 0.796875 10.5 2.49688 10.5 3.49688C10.5 4.32688 11.17 4.99687 12 4.99687ZM7 4.99687C7.83 4.99687 8.5 4.32688 8.5 3.49688C8.5 2.49688 7 0.796875 7 0.796875C7 0.796875 5.5 2.49688 5.5 3.49688C5.5 4.32688 6.17 4.99687 7 4.99687ZM18.92 8.00688C18.72 7.41688 18.16 6.99687 17.5 6.99687H6.5C5.84 6.99687 5.29 7.41688 5.08 8.00688L3 13.9969V21.9969C3 22.5469 3.45 22.9969 4 22.9969H5C5.55 22.9969 6 22.5469 6 21.9969V20.9969H18V21.9969C18 22.5469 18.45 22.9969 19 22.9969H20C20.55 22.9969 21 22.5469 21 21.9969V13.9969L18.92 8.00688ZM6.85 8.99687H17.14L18.18 11.9969H5.81L6.85 8.99687ZM19 18.9969H5V14.3369L5.12 13.9969H18.89L19 14.3369V18.9969Z" fill="black"/>
<path d="M7.5 18C8.32843 18 9 17.3284 9 16.5C9 15.6716 8.32843 15 7.5 15C6.67157 15 6 15.6716 6 16.5C6 17.3284 6.67157 18 7.5 18Z" fill="black"/>
<path d="M16.5 18C17.3284 18 18 17.3284 18 16.5C18 15.6716 17.3284 15 16.5 15C15.6716 15 15 15.6716 15 16.5C15 17.3284 15.6716 18 16.5 18Z" fill="black"/>
</svg>
