<svg width="24" height="24" viewBox="0 0 24 24" fill="none" xmlns="http://www.w3.org/2000/svg">
<path d="M17.337 1.80859L21.944 5.65359L20.664 7.18859L16.054 3.34559L17.337 1.80859ZM6.66301 1.80859L7.94501 3.34459L3.33701 7.18859L2.05701 5.65259L6.66301 1.80859ZM12 3.99859C9.61293 3.99873 7.32367 4.94712 5.63584 6.63513C3.94801 8.32315 2.99987 10.6125 3.00001 12.9996C3.00014 15.3867 3.94853 17.6759 5.63655 19.3638C7.32456 21.0516 9.61393 21.9997 12.001 21.9996C13.183 21.9995 14.3533 21.7667 15.4453 21.3143C16.5373 20.8619 17.5294 20.1989 18.3652 19.3631C19.2009 18.5272 19.8638 17.535 20.3161 16.443C20.7683 15.351 21.0011 14.1806 21.001 12.9986C21.0009 11.8166 20.7681 10.6463 20.3157 9.55429C19.8633 8.46232 19.2003 7.47015 18.3645 6.63443C17.5286 5.7987 16.5364 5.13578 15.4444 4.68352C14.3524 4.23127 13.182 3.99853 12 3.99859ZM12 19.9986C8.14001 19.9986 5.00001 16.8586 5.00001 12.9986C5.00001 9.13859 8.14001 5.99859 12 5.99859C15.86 5.99859 19 9.13859 19 12.9986C19 16.8586 15.86 19.9986 12 19.9986ZM13 8.99859H11V11.9986H8.00001V13.9986H11V16.9986H13V13.9986H16V11.9986H13V8.99859Z" fill="black"/>
</svg>
