<svg width="24" height="24" viewBox="0 0 24 24" fill="none" xmlns="http://www.w3.org/2000/svg">
<path d="M7.88 3.38938L6.6 1.85938L2 5.70937L3.29 7.23937L7.88 3.38938ZM22 5.71937L17.4 1.85938L16.11 3.38938L20.71 7.24937L22 5.71937ZM12 3.99937C7.03 3.99937 3 8.02938 3 12.9994C3 17.9694 7.02 21.9994 12 21.9994C14.3869 21.9994 16.6761 21.0512 18.364 19.3633C20.0518 17.6755 21 15.3863 21 12.9994C21 10.6124 20.0518 8.32324 18.364 6.63541C16.6761 4.94759 14.3869 3.99937 12 3.99937ZM12 19.9994C8.13 19.9994 5 16.8694 5 12.9994C5 9.12938 8.13 5.99937 12 5.99937C15.87 5.99937 19 9.12938 19 12.9994C19 16.8694 15.87 19.9994 12 19.9994ZM13 8.99937H11V11.9994H8V13.9994H11V16.9994H13V13.9994H16V11.9994H13V8.99937Z" fill="black"/>
</svg>
