<svg width="24" height="24" viewBox="0 0 24 24" fill="none" xmlns="http://www.w3.org/2000/svg">
<path d="M7.82994 5.00156H17.9999V15.1716L19.8299 17.0016H21.9999V15.0016H19.9999V13.0016H21.9999V11.0016H19.9999V9.00156H21.9999V7.00156H19.9999V5.00156C19.9999 3.90156 19.0999 3.00156 17.9999 3.00156H5.82994L7.82994 5.00156ZM11.9999 9.17156V7.00156H15.9999V10.0016H12.8299L11.9999 9.17156ZM9.82994 7.00156H10.9999V8.17156L9.82994 7.00156ZM13.8299 11.0016H15.9999V13.1716L13.8299 11.0016ZM17.9999 21.0016C18.0599 21.0016 18.1099 21.0016 18.1599 20.9916L20.4799 23.3116L21.8899 21.9016L2.09994 2.10156L0.689941 3.51156L2.00994 4.83156C1.99994 4.89156 1.99994 4.94156 1.99994 5.00156V19.0016C1.99994 20.1016 2.89994 21.0016 3.99994 21.0016H17.9999ZM3.99994 19.0016V6.83156L5.99994 8.83156V12.0016H9.16994L10.1699 13.0016H5.99994V17.0016H10.9999V13.8316L11.9999 14.8316V17.0016H14.1699L16.1699 19.0016H3.99994Z" fill="black"/>
</svg>
