<svg width="24" height="24" viewBox="0 0 24 24" fill="none" xmlns="http://www.w3.org/2000/svg">
<path d="M1.39001 4.22L3.01001 5.84C3.01001 5.89 3.00001 5.94 3.00001 6V9.8C5.70001 9.8 6.00001 11.96 6.00001 12.5C6.00001 13.04 5.71001 15.2 3.00001 15.2V19C3.00001 20.1 3.90001 21 5.00001 21H8.80001C8.80001 18.29 10.96 18 11.5 18C12.04 18 14.2 18.29 14.2 21H18C18.06 21 18.11 21 18.16 20.99L19.77 22.6L21.18 21.19L2.81001 2.81L1.39001 4.22ZM11.5 16C10 16 7.93001 16.83 7.13001 19H5.00001V16.87C7.17001 16.07 8.00001 14 8.00001 12.5C8.00001 11.81 7.82001 11 7.42001 10.25L13.75 16.58C13.0575 16.2087 12.2857 16.0098 11.5 16ZM8.83001 6L6.83001 4H9.00001C9.00001 3.33696 9.26341 2.70107 9.73225 2.23223C10.2011 1.76339 10.837 1.5 11.5 1.5C12.1631 1.5 12.7989 1.76339 13.2678 2.23223C13.7366 2.70107 14 3.33696 14 4H18C19.1 4 20 4.9 20 6V10C20.6631 10 21.2989 10.2634 21.7678 10.7322C22.2366 11.2011 22.5 11.837 22.5 12.5C22.5 13.163 22.2366 13.7989 21.7678 14.2678C21.2989 14.7366 20.6631 15 20 15V17.17L18 15.17V13H20C20.28 13 20.5 12.78 20.5 12.5C20.5 12.22 20.28 12 20 12H18V6H12V4C12 3.72 11.78 3.5 11.5 3.5C11.22 3.5 11 3.72 11 4V6H8.83001Z" fill="black"/>
</svg>
