<svg width="24" height="24" viewBox="0 0 24 24" fill="none" xmlns="http://www.w3.org/2000/svg">
<path d="M19.78 17.5078C17.31 17.5078 13.21 16.1778 11.1 12.0778C8.76998 7.56781 10.6 3.59781 11.63 2.00781C6.26998 2.19781 1.97998 6.58781 1.97998 11.9978C1.97998 12.1378 1.99998 12.2778 1.99998 12.4178C2.60998 12.1578 3.27998 11.9978 3.97998 11.9978C3.97998 8.90781 5.70998 6.22781 8.27998 4.89781C7.77998 7.08781 7.73998 9.93781 9.31998 12.9978C10.89 16.0378 13.5 17.9478 16.12 18.8578C14.4374 19.8719 12.4406 20.2314 10.51 19.8678C10.14 20.5678 9.56998 21.1378 8.86998 21.5078C9.84998 21.8278 10.9 22.0078 11.98 22.0078C15.48 22.0078 18.56 20.2078 20.35 17.4878C20.18 17.4978 19.98 17.5078 19.78 17.5078Z" fill="black"/>
<path d="M7 16H6.82C6.4 14.84 5.3 14 4 14C2.34 14 1 15.34 1 17C1 18.66 2.34 20 4 20H7C8.1 20 9 19.1 9 18C9 16.9 8.1 16 7 16Z" fill="black"/>
</svg>
