<svg width="24" height="24" viewBox="0 0 24 24" fill="none" xmlns="http://www.w3.org/2000/svg">
<path d="M17 16.9862C15.65 16.9862 14.8 17.4063 14.05 17.7863C13.4 18.1163 12.87 18.3862 12 18.3862C11.1 18.3862 10.6 18.1363 9.95 17.7863C9.2 17.4063 8.38 16.9862 7 16.9862C5.62 16.9862 4.8 17.4063 4.05 17.7863C3.4 18.1163 2.88 18.3862 2 18.3862V20.3363C3.35 20.3363 4.2 19.9163 4.95 19.5363C5.6 19.2063 6.12 18.9363 7 18.9363C7.88 18.9363 8.4 19.1863 9.05 19.5363C9.8 19.9163 10.62 20.3363 12 20.3363C13.38 20.3363 14.2 19.9163 14.95 19.5363C15.6 19.2063 16.13 18.9363 17 18.9363C17.9 18.9363 18.4 19.1863 19.05 19.5363C19.8 19.9163 20.63 20.3363 22 20.3363V18.3862C21.1 18.3862 20.6 18.1363 19.95 17.7863C19.2 17.4063 18.35 16.9862 17 16.9862ZM17 12.5363C15.65 12.5363 14.8 12.9663 14.05 13.3363C13.4 13.6563 12.87 13.9362 12 13.9362C11.1 13.9362 10.6 13.6863 9.95 13.3363C9.2 12.9563 8.38 12.5363 7 12.5363C5.62 12.5363 4.8 12.9663 4.05 13.3363C3.4 13.6563 2.88 13.9362 2 13.9362V15.8863C3.35 15.8863 4.2 15.4563 4.95 15.0863C5.6 14.7363 6.1 14.4862 7 14.4862C7.9 14.4862 8.4 14.7363 9.05 15.0863C9.8 15.4663 10.62 15.8863 12 15.8863C13.38 15.8863 14.2 15.4563 14.95 15.0863C15.6 14.7363 16.1 14.4862 17 14.4862C17.9 14.4862 18.4 14.7363 19.05 15.0863C19.8 15.4663 20.63 15.8863 22 15.8863V13.9362C21.1 13.9362 20.6 13.6863 19.95 13.3363C19.2 12.9563 18.35 12.5363 17 12.5363ZM19.95 4.45625C19.2 4.07625 18.37 3.65625 17 3.65625C15.63 3.65625 14.8 4.07625 14.05 4.45625C13.4 4.77625 12.87 5.05625 12 5.05625C11.1 5.05625 10.6 4.80625 9.95 4.45625C9.2 4.08625 8.38 3.65625 7 3.65625C5.62 3.65625 4.8 4.07625 4.05 4.45625C3.4 4.78625 2.88 5.05625 2 5.05625V6.98625C3.35 6.98625 4.2 6.55625 4.95 6.18625C5.6 5.85625 6.12 5.58625 7 5.58625C7.88 5.58625 8.4 5.83625 9.05 6.18625C9.8 6.56625 10.62 6.98625 12 6.98625C13.38 6.98625 14.2 6.55625 14.95 6.18625C15.6 5.86625 16.13 5.58625 17 5.58625C17.9 5.58625 18.4 5.83625 19.05 6.18625C19.8 6.56625 20.63 6.98625 22 6.98625V5.03625C21.1 5.03625 20.6 4.78625 19.95 4.45625ZM17 8.08625C15.65 8.08625 14.8 8.51625 14.05 8.88625C13.4 9.23625 12.9 9.48625 12 9.48625C11.1 9.48625 10.6 9.23625 9.95 8.88625C9.2 8.50625 8.38 8.08625 7 8.08625C5.62 8.08625 4.8 8.51625 4.05 8.88625C3.4 9.23625 2.9 9.48625 2 9.48625V11.4362C3.35 11.4362 4.2 11.0063 4.95 10.6363C5.6 10.3163 6.13 10.0363 7 10.0363C7.87 10.0363 8.4 10.2863 9.05 10.6363C9.8 11.0163 10.62 11.4362 12 11.4362C13.38 11.4362 14.2 11.0063 14.95 10.6363C15.6 10.3163 16.13 10.0363 17 10.0363C17.9 10.0363 18.4 10.2863 19.05 10.6363C19.8 11.0163 20.63 11.4362 22 11.4362V9.48625C21.1 9.48625 20.6 9.23625 19.95 8.88625C19.2 8.50625 18.35 8.08625 17 8.08625Z" fill="black"/>
</svg>
