<svg width="24" height="24" viewBox="0 0 24 24" fill="none" xmlns="http://www.w3.org/2000/svg">
<path d="M20 15.4492C18.75 15.4492 17.55 15.2492 16.43 14.8792C16.33 14.8492 16.22 14.8292 16.12 14.8292C15.86 14.8292 15.61 14.9292 15.41 15.1192L13.21 17.3192C10.3712 15.8754 8.06378 13.568 6.62 10.7292L8.82 8.51922C8.95245 8.39356 9.04632 8.23274 9.0906 8.05562C9.13488 7.8785 9.12773 7.69242 9.07 7.51922C8.69065 6.36727 8.49821 5.16202 8.5 3.94922C8.5 3.39922 8.05 2.94922 7.5 2.94922H4C3.45 2.94922 3 3.39922 3 3.94922C3 13.3392 10.61 20.9492 20 20.9492C20.55 20.9492 21 20.4992 21 19.9492V16.4492C21 15.8992 20.55 15.4492 20 15.4492ZM5.03 4.94922H6.53C6.6 5.82922 6.75 6.69922 6.98 7.52922L5.78 8.73922C5.38 7.52922 5.12 6.26922 5.03 4.94922ZM19 18.9192C17.68 18.8292 16.4 18.5692 15.2 18.1592L16.4 16.9592C17.25 17.1992 18.12 17.3492 19 17.4092V18.9192ZM18 5.94922V2.94922H16V5.94922H13V7.94922H16V10.9492H18V7.94922H21V5.94922H18Z" fill="black"/>
</svg>
