<svg width="24" height="24" viewBox="0 0 24 24" fill="none" xmlns="http://www.w3.org/2000/svg">
<path d="M20 4H6.82996L8.82996 6H20V17.17L21.76 18.93C21.91 18.65 22 18.34 22 18V6C22 4.9 21.1 4 20 4Z" fill="black"/>
<path d="M18 10.0031H12.83L14.83 12.0031H18V10.0031ZM1.04004 3.87312L2.24004 5.07313C2.09004 5.35313 2.00004 5.66312 2.00004 6.00312V18.0031C2.00004 19.1031 2.90004 20.0031 4.00004 20.0031H17.17L20.13 22.9631L21.54 21.5531L2.45004 2.45312L1.04004 3.87312ZM4.00004 6.83313L7.17004 10.0031H6.00004V12.0031H8.00004V10.8331L11.17 14.0031H6.00004V16.0031H13.17L15.17 18.0031H4.00004V6.83313Z" fill="black"/>
</svg>
