<svg width="24" height="24" viewBox="0 0 24 24" fill="none" xmlns="http://www.w3.org/2000/svg">
<path d="M12 5C8.13 5 5 8.13 5 12H7C7 9.24 9.24 7 12 7C14.76 7 17 9.24 17 12H19C19 8.13 15.87 5 12 5ZM13 14.29C13.88 13.9 14.5 13.03 14.5 12C14.5 11.337 14.2366 10.7011 13.7678 10.2322C13.2989 9.76339 12.663 9.5 12 9.5C11.337 9.5 10.7011 9.76339 10.2322 10.2322C9.76339 10.7011 9.5 11.337 9.5 12C9.5 13.02 10.12 13.9 11 14.29V17.59L7.59 21L9 22.41L12 19.41L15 22.41L16.41 21L13 17.59V14.29ZM12 1C5.93 1 1 5.93 1 12H3C3 9.61305 3.94821 7.32387 5.63604 5.63604C7.32387 3.94821 9.61305 3 12 3C14.3869 3 16.6761 3.94821 18.364 5.63604C20.0518 7.32387 21 9.61305 21 12H23C23 5.93 18.07 1 12 1Z" fill="black"/>
</svg>
