<svg width="24" height="24" viewBox="0 0 24 24" fill="none" xmlns="http://www.w3.org/2000/svg">
<path d="M16 6.99719L19.55 11.9972L17.92 14.2872L19.35 15.7172L22 11.9972L17.63 5.83719C17.27 5.32719 16.67 4.99719 16 4.99719L8.63 5.00719L10.63 6.99719H16ZM2 4.02719L3.58 5.60719C3.22 5.95719 3 6.45719 3 6.99719V16.9972C3 18.0972 3.9 18.9872 5 18.9872L16 18.9972C16.28 18.9972 16.55 18.9272 16.79 18.8172L18.97 20.9972L20.38 19.5872L3.41 2.61719L2 4.02719ZM14.97 16.9972H5V7.02719L14.97 16.9972Z" fill="black"/>
</svg>
