<svg width="24" height="24" viewBox="0 0 24 24" fill="none" xmlns="http://www.w3.org/2000/svg">
<path d="M15.5 17H9C6.79 17 5 15.21 5 13C4.99692 12.0741 5.31679 11.176 5.90453 10.4605C6.49226 9.745 7.31109 9.25681 8.22 9.08C8.62635 8.44532 9.18514 7.92247 9.84541 7.55915C10.5057 7.19583 11.2464 7.0036 12 7C13.95 7 15.66 8.28 16.26 10.09C17.84 10.45 19 11.84 19 13.5C19 15.43 17.43 17 15.5 17ZM8.74 11.02C7.74 11.15 7 11.99 7 13C7 14.1 7.9 15 9 15H15.5C16.33 15 17 14.33 17 13.5C17 12.67 16.33 12 15.5 12H14.63L14.46 11.14C14.3746 10.5476 14.0793 10.0056 13.6277 9.61281C13.1762 9.22 12.5985 9.00251 12 9C11.04 9 10.16 9.57 9.74 10.45L9.47 11.02H8.74ZM21 3H3C1.9 3 1 3.9 1 5V19C1 20.1 1.9 21 3 21H21C22.1 21 23 20.1 23 19V5C23 3.9 22.1 3 21 3ZM21 19.01H3V4.99H21V19.01Z" fill="black"/>
</svg>
