<svg width="24" height="24" viewBox="0 0 24 24" fill="none" xmlns="http://www.w3.org/2000/svg">
<path d="M6.76 4.83687L4.96 3.04688L3.55 4.45688L5.34 6.24687L6.76 4.83687ZM1 10.4969H4V12.4969H1V10.4969ZM11 0.546875H13V3.49688H11V0.546875ZM19.04 3.04188L20.448 4.44888L18.658 6.23887L17.251 4.83087L19.04 3.04188ZM17.24 18.1569L19.03 19.9569L20.44 18.5469L18.64 16.7569L17.24 18.1569ZM20 10.4969H23V12.4969H20V10.4969ZM12 5.49687C8.69 5.49687 6 8.18687 6 11.4969C6 14.8069 8.69 17.4969 12 17.4969C15.31 17.4969 18 14.8069 18 11.4969C18 8.18687 15.31 5.49687 12 5.49687ZM12 15.4969C9.79 15.4969 8 13.7069 8 11.4969C8 9.28687 9.79 7.49687 12 7.49687C14.21 7.49687 16 9.28687 16 11.4969C16 13.7069 14.21 15.4969 12 15.4969ZM11 19.4969H13V22.4469H11V19.4969ZM3.55 18.5369L4.96 19.9469L6.75 18.1469L5.34 16.7369L3.55 18.5369Z" fill="black"/>
</svg>
