<svg width="24" height="24" viewBox="0 0 24 24" fill="none" xmlns="http://www.w3.org/2000/svg">
<path d="M16.24 7.74438C15.6842 7.18591 15.0235 6.74289 14.2958 6.44084C13.5681 6.13878 12.7879 5.98365 12 5.98437V11.9844L7.76 16.2244C10.1 18.5644 13.9 18.5644 16.25 16.2244C16.8069 15.6673 17.2485 15.0059 17.5494 14.278C17.8504 13.5501 18.0048 12.77 18.0039 11.9823C18.0029 11.1946 17.8467 10.4149 17.544 9.68767C17.2413 8.96047 16.7982 8.3001 16.24 7.74438ZM12 1.98438C6.48 1.98438 2 6.46438 2 11.9844C2 17.5044 6.48 21.9844 12 21.9844C17.52 21.9844 22 17.5044 22 11.9844C22 6.46438 17.52 1.98438 12 1.98438ZM12 19.9844C7.58 19.9844 4 16.4044 4 11.9844C4 7.56437 7.58 3.98438 12 3.98438C16.42 3.98438 20 7.56437 20 11.9844C20 16.4044 16.42 19.9844 12 19.9844Z" fill="black"/>
</svg>
