<svg width="24" height="24" viewBox="0 0 24 24" fill="none" xmlns="http://www.w3.org/2000/svg">
<path d="M22.43 10.5919L13.42 1.58188C12.67 0.831881 11.35 0.821881 10.59 1.58188L1.59 10.5819C0.810005 11.3619 0.810005 12.6219 1.59 13.4019L10.59 22.4019C10.98 22.7919 11.49 22.9819 12 22.9819C12.51 22.9819 13.02 22.7919 13.41 22.4019L22.4 13.4119C23.19 12.6519 23.2 11.3919 22.43 10.5919ZM12.01 20.9919L3.01 11.9919L12.01 2.99188L21.01 11.9919L12.01 20.9919ZM8 11.0019V15.0019H10V12.0019H14V14.5019L17.5 11.0019L14 7.50188V10.0019H9C8.45 10.0019 8 10.4519 8 11.0019Z" fill="black"/>
</svg>
