<svg width="24" height="24" viewBox="0 0 24 24" fill="none" xmlns="http://www.w3.org/2000/svg">
<path d="M6.03001 3.19875C7.15001 2.43875 8.51001 1.99875 10 1.99875C13.93 1.99875 17 5.06875 17 8.99875C17 10.2587 16.62 11.6487 15.93 12.8987C15.91 12.9387 15.88 12.9787 15.85 13.0287L14.37 11.5487C14.77 10.6887 15 9.79875 15 8.99875C15 6.19875 12.8 3.99875 10 3.99875C9.08001 3.99875 8.24001 4.25875 7.50001 4.66875L6.03001 3.19875ZM17.21 14.3787L18.64 15.8088C20.11 13.9288 21 11.5687 21 8.99875C21 5.95875 19.77 3.20875 17.78 1.21875L16.36 2.63875C17.1988 3.4716 17.864 4.46256 18.3172 5.55427C18.7703 6.64598 19.0024 7.81673 19 8.99875C19 11.0187 18.33 12.8787 17.21 14.3787ZM10 6.49875C9.79001 6.49875 9.60001 6.52875 9.41001 6.57875L12.42 9.58875C12.47 9.39875 12.5 9.20875 12.5 8.99875C12.5 8.33571 12.2366 7.69982 11.7678 7.23098C11.2989 6.76214 10.6631 6.49875 10 6.49875ZM21.19 21.1888L2.81001 2.80875L1.39001 4.21875L3.52001 6.34875C3.19001 7.15875 3.00001 8.04875 3.00001 8.99875H5.00001C5.00001 8.63875 5.05001 8.28875 5.12001 7.94875L11.73 14.5588C10.85 15.2388 9.95001 15.9687 9.46001 17.4587C8.96001 18.9587 8.46001 19.4688 7.75001 19.8388C7.56001 19.9388 7.29001 19.9988 7.00001 19.9988C5.90001 19.9988 5.00001 19.0988 5.00001 17.9988H3.00001C2.99948 18.6669 3.16634 19.3245 3.48537 19.9115C3.80439 20.4985 4.26541 20.9962 4.8263 21.3592C5.3872 21.7222 6.03011 21.9389 6.6963 21.9895C7.3625 22.0401 8.03075 21.9229 8.64002 21.6488C10 20.9388 10.77 19.9188 11.37 18.0988C11.69 17.1188 12.27 16.6687 13.08 16.0487C13.11 16.0287 13.13 16.0087 13.16 15.9887L19.78 22.6088L21.19 21.1888Z" fill="black"/>
</svg>
