<svg width="24" height="24" viewBox="0 0 24 24" fill="none" xmlns="http://www.w3.org/2000/svg">
<path d="M19.9999 8.6875V3.9975H15.3099L11.9999 0.6875L8.68994 3.9975H3.99994V8.6875L0.689941 11.9975L3.99994 15.3075V19.9975H8.68994L11.9999 23.3075L15.3099 19.9975H19.9999V15.3075L23.3099 11.9975L19.9999 8.6875ZM17.9999 14.4775V17.9975H14.4799L11.9999 20.4775L9.51994 17.9975H5.99994V14.4775L3.51994 11.9975L5.99994 9.5175V5.9975H9.51994L11.9999 3.5175L14.4799 5.9975H17.9999V9.5175L20.4799 11.9975L17.9999 14.4775ZM11.9999 5.9975V17.9975C15.3099 17.9975 17.9999 15.3075 17.9999 11.9975C17.9999 8.6875 15.3099 5.9975 11.9999 5.9975Z" fill="black"/>
</svg>
