<svg width="24" height="24" viewBox="0 0 24 24" fill="none" xmlns="http://www.w3.org/2000/svg">
<path d="M9.99999 4.00375H14V6.00375H10.4L12.4 8.00375H20V15.6038L22 17.6038V8.00375C22 6.89375 21.11 6.00375 20 6.00375H16V4.00375C16 2.89375 15.11 2.00375 14 2.00375H9.99999C9.00999 2.00375 8.19999 2.70375 8.03999 3.64375L9.99999 5.60375V4.00375ZM3.39999 1.84375L1.98999 3.25375L4.73999 6.00375H3.99999C2.88999 6.00375 2.00999 6.89375 2.00999 8.00375L1.99999 19.0037C1.99999 20.1137 2.88999 21.0037 3.99999 21.0037H19.74L21.74 23.0037L23.15 21.5938L3.39999 1.84375ZM3.99999 19.0037V8.00375H6.73999L17.74 19.0037H3.99999Z" fill="black"/>
</svg>
