<svg width="24" height="24" viewBox="0 0 24 24" fill="none" xmlns="http://www.w3.org/2000/svg">
<path d="M20.38 8.5711L19.15 10.4211C19.7432 11.6042 20.0336 12.9159 19.9952 14.2388C19.9568 15.5617 19.5908 16.8544 18.93 18.0011H5.07005C4.21122 16.5112 3.85535 14.7842 4.05519 13.0762C4.25504 11.3681 4.99996 9.76992 6.17953 8.51853C7.3591 7.26713 8.91052 6.42914 10.6038 6.12879C12.2971 5.82845 14.042 6.08173 15.5801 6.8511L17.4301 5.6211C15.5465 4.41331 13.3124 3.8721 11.0849 4.08403C8.8575 4.29597 6.76549 5.24879 5.14354 6.79011C3.52159 8.33142 2.46341 10.3722 2.13827 12.5859C1.81312 14.7997 2.2398 17.0585 3.35005 19.0011C3.52456 19.3034 3.77514 19.5547 4.07688 19.7301C4.37862 19.9056 4.72102 19.999 5.07005 20.0011H18.92C19.2725 20.0025 19.619 19.9107 19.9246 19.7351C20.2301 19.5595 20.4838 19.3063 20.66 19.0011C21.5814 17.405 22.0438 15.5854 21.9962 13.7431C21.9485 11.9007 21.3927 10.1074 20.39 8.5611L20.38 8.5711Z" fill="black"/>
<path d="M10.59 15.4119C10.7757 15.5978 10.9963 15.7453 11.2391 15.846C11.4819 15.9466 11.7422 15.9984 12.005 15.9984C12.2678 15.9984 12.5281 15.9466 12.7709 15.846C13.0137 15.7453 13.2342 15.5978 13.42 15.4119L19.08 6.92188L10.59 12.5819C10.404 12.7676 10.2565 12.9882 10.1559 13.231C10.0552 13.4738 10.0034 13.734 10.0034 13.9969C10.0034 14.2597 10.0552 14.52 10.1559 14.7628C10.2565 15.0056 10.404 15.2261 10.59 15.4119Z" fill="black"/>
</svg>
