<svg width="24" height="24" viewBox="0 0 24 24" fill="none" xmlns="http://www.w3.org/2000/svg">
<path d="M19.9999 8.6875V3.9975H15.3099L11.9999 0.6875L8.68994 3.9975H3.99994V8.6875L0.689941 11.9975L3.99994 15.3075V19.9975H8.68994L11.9999 23.3075L15.3099 19.9975H19.9999V15.3075L23.3099 11.9975L19.9999 8.6875ZM17.9999 14.4775V17.9975H14.4799L11.9999 20.4775L9.51994 17.9975H5.99994V14.4775L3.51994 11.9975L5.99994 9.5175V5.9975H9.51994L11.9999 3.5175L14.4799 5.9975H17.9999V9.5175L20.4799 11.9975L17.9999 14.4775ZM12.2899 6.9975C11.5499 6.9975 10.8399 7.1675 10.2099 7.4575C11.9299 8.2475 13.1299 9.9875 13.1299 11.9975C13.1299 14.0075 11.9299 15.7475 10.2099 16.5375C10.8399 16.8275 11.5499 16.9975 12.2899 16.9975C15.0499 16.9975 17.2899 14.7575 17.2899 11.9975C17.2899 9.2375 15.0499 6.9975 12.2899 6.9975Z" fill="black"/>
</svg>
