<svg width="24" height="24" viewBox="0 0 24 24" fill="none" xmlns="http://www.w3.org/2000/svg">
<path d="M18 10.48V6C18 4.9 17.1 4 16 4H4C2.9 4 2 4.9 2 6V18C2 19.1 2.9 20 4 20H16C17.1 20 18 19.1 18 18V13.52L22 17.5V6.5L18 10.48ZM16 9.69V18H4V6H16V9.69Z" fill="black"/>
<path d="M10 12C11.1046 12 12 11.1046 12 10C12 8.89543 11.1046 8 10 8C8.89543 8 8 8.89543 8 10C8 11.1046 8.89543 12 10 12Z" fill="black"/>
<path d="M14 15.4302C14 14.6202 13.52 13.9002 12.78 13.5802C11.9031 13.1975 10.9567 13 10 13C9.04328 13 8.09685 13.1975 7.22 13.5802C6.85771 13.7351 6.54892 13.993 6.33202 14.3219C6.11511 14.6508 5.99966 15.0362 6 15.4302V16.0002H14V15.4302Z" fill="black"/>
</svg>
