<svg width="24" height="24" viewBox="0 0 24 24" fill="none" xmlns="http://www.w3.org/2000/svg">
<path d="M15.0699 1.01562H9.06995V3.01562H15.0699V1.01562ZM11.0699 14.0156H13.0699V8.01562H11.0699V14.0156ZM19.0999 7.39563L20.5199 5.97563C20.0899 5.46563 19.6199 4.98562 19.1099 4.56562L17.6899 5.98563C16.0973 4.70395 14.1143 4.00531 12.0699 4.00563C7.09995 4.00563 3.06995 8.03562 3.06995 13.0056C3.06995 17.9756 7.08995 22.0056 12.0699 22.0056C17.0499 22.0056 21.0699 17.9756 21.0699 13.0056C21.0699 10.8956 20.3299 8.94563 19.0999 7.39563ZM12.0699 20.0156C8.19995 20.0156 5.06995 16.8856 5.06995 13.0156C5.06995 9.14563 8.19995 6.01562 12.0699 6.01562C15.9399 6.01562 19.0699 9.14563 19.0699 13.0156C19.0699 16.8856 15.9399 20.0156 12.0699 20.0156Z" fill="black"/>
</svg>
