<svg width="24" height="24" viewBox="0 0 24 24" fill="none" xmlns="http://www.w3.org/2000/svg">
<path d="M18.5 4.5C18.5 5.6 17.6 6.5 16.5 6.5C15.4 6.5 14.5 5.6 14.5 4.5C14.5 3.4 15.4 2.5 16.5 2.5C17.6 2.5 18.5 3.4 18.5 4.5ZM15.78 20.9L16.54 21.17C17.9562 21.6639 19.5068 21.6032 20.88 21L22 22.13C20.95 22.68 19.76 23 18.5 23C17.64 23 16.82 22.86 16.05 22.59L2 17.47L2.5 16.06L9.4 18.57L11.12 14.13L7.55 10.4C6.66 9.46 6.88 7.93 8 7.28L11.48 5.27C12.58 4.63 14 5.17 14.39 6.38L14.72 7.46C14.9348 8.15778 15.2994 8.80027 15.7882 9.3426C16.2769 9.88494 16.8782 10.3141 17.55 10.6L18.07 9L19.5 9.46L18.38 12.91C17.1875 12.7132 16.0659 12.2123 15.1235 11.4555C14.181 10.6988 13.4497 9.71186 13 8.59L10.47 10.04L13.5 13.5L11.28 19.26L14.37 20.38L16.47 13.94C16.93 14.12 17.41 14.25 17.91 14.35L15.78 20.9Z" fill="black"/>
</svg>
