<svg width="24" height="24" viewBox="0 0 24 24" fill="none" xmlns="http://www.w3.org/2000/svg">
<path d="M9.00003 11.0025H12.63L9.00003 15.2025V17.0025H15V15.0025H11.37L15 10.8025V9.0025H9.00003V11.0025ZM16.056 3.3485L17.338 1.8135L21.945 5.6635L20.665 7.2035L16.056 3.3485ZM3.33603 7.1925L2.05603 5.6565L6.66203 1.8125L7.94203 3.3485L3.33603 7.1925ZM12 6.0025C15.86 6.0025 19 9.1425 19 13.0025C19 16.8625 15.86 20.0025 12 20.0025C8.14003 20.0025 5.00003 16.8625 5.00003 13.0025C5.00003 9.1425 8.14003 6.0025 12 6.0025ZM12 4.0025C9.61295 4.00263 7.32369 4.95102 5.63586 6.63904C3.94803 8.32705 2.9999 10.6164 3.00003 13.0035C3.00016 15.3906 3.94855 17.6798 5.63657 19.3677C7.32458 21.0555 9.61395 22.0036 12.001 22.0035C13.183 22.0034 14.3534 21.7706 15.4453 21.3182C16.5373 20.8658 17.5295 20.2028 18.3652 19.367C19.2009 18.5311 19.8638 17.5389 20.3161 16.4469C20.7684 15.3549 21.0011 14.1845 21.001 13.0025C21.001 11.8205 20.7681 10.6502 20.3157 9.5582C19.8633 8.46623 19.2003 7.47406 18.3645 6.63833C17.5287 5.8026 16.5364 5.13969 15.4444 4.68743C14.3524 4.23517 13.182 4.00243 12 4.0025Z" fill="black"/>
</svg>
