<svg width="24" height="24" viewBox="0 0 24 24" fill="none" xmlns="http://www.w3.org/2000/svg">
<path d="M12 4.00001C16.41 4.00001 20 7.59001 20 12C20 13.41 19.63 14.73 18.99 15.88L20.45 17.34C21.4631 15.7432 22.0007 13.8911 22 12C22 6.48001 17.52 2.00001 12 2.00001C10.1119 1.99783 8.26251 2.53564 6.67 3.55001L8.13 5.01001C9.31172 4.34624 10.6446 3.99838 12 4.00001ZM17 11H14.12L16.12 13H17V11ZM2.41 2.13001L1 3.54001L3.78 6.32001C2.61923 7.98649 1.99792 9.9691 2 12C2 17.52 6.48 22 12 22C14.11 22 16.07 21.34 17.68 20.22L20.46 23L21.87 21.59L2.41 2.13001ZM12 20C7.59 20 4 16.41 4 12C4 10.44 4.45 9.00001 5.23 7.77001L8.46 11H7V13H10.46L16.23 18.77C14.9664 19.5755 13.4985 20.0024 12 20Z" fill="black"/>
</svg>
