<svg width="24" height="24" viewBox="0 0 24 24" fill="none" xmlns="http://www.w3.org/2000/svg">
<path d="M11 7.99687V10.9969H8V12.9969H11V15.9969H13V12.9969H16V10.9969H13V7.99687H11ZM13 2.04688V5.07687C16.39 5.56687 19 8.46687 19 11.9969C19 12.8969 18.82 13.7469 18.52 14.5369L21.12 16.0669C21.68 14.8269 22 13.4469 22 11.9969C22 6.81687 18.05 2.54688 13 2.04688ZM12 18.9969C8.13 18.9969 5 15.8669 5 11.9969C5 8.46687 7.61 5.56687 11 5.07687V2.04688C5.94 2.54688 2 6.80687 2 11.9969C2 17.5169 6.47 21.9969 11.99 21.9969C15.3 21.9969 18.23 20.3869 20.05 17.9069L17.45 16.3769C16.7976 17.1959 15.9686 17.857 15.0249 18.3107C14.0812 18.7644 13.0471 18.9989 12 18.9969Z" fill="black"/>
</svg>
