<svg width="24" height="24" viewBox="0 0 24 24" fill="none" xmlns="http://www.w3.org/2000/svg">
<path d="M14 2H6C4.9 2 4.01 2.9 4.01 4L4 20C4 21.1 4.89 22 5.99 22H18C19.1 22 20 21.1 20 20V8L14 2ZM6 4H13L18 9V17.58L16.16 15.74C16.7931 14.7797 17.0753 13.6303 16.9586 12.486C16.842 11.3417 16.3338 10.2728 15.52 9.46C15.0585 8.99659 14.5099 8.62903 13.9058 8.37846C13.3017 8.12789 12.654 7.99927 12 8C10.6765 8.00028 9.40706 8.52531 8.47 9.46C8.00648 9.92257 7.63874 10.472 7.38784 11.0769C7.13693 11.6817 7.00778 12.3302 7.00778 12.985C7.00778 13.6398 7.13693 14.2883 7.38784 14.8931C7.63874 15.498 8.00648 16.0474 8.47 16.51C9.28306 17.324 10.3528 17.8315 11.4975 17.9463C12.6423 18.0611 13.7915 17.7763 14.75 17.14L17.6 20H6V4ZM14.11 15.1C13.55 15.66 12.8 15.98 12 15.98C11.2 15.98 10.45 15.67 9.89 15.1C9.33 14.54 9.01 13.79 9.01 12.99C9.01 12.19 9.32 11.44 9.89 10.88C10.45 10.31 11.2 10 12 10C12.8 10 13.55 10.31 14.11 10.88C14.67 11.44 14.99 12.19 14.99 12.99C14.99 13.79 14.68 14.54 14.11 15.1Z" fill="black"/>
</svg>
