<svg width="24" height="24" viewBox="0 0 24 24" fill="none" xmlns="http://www.w3.org/2000/svg">
<path d="M4 6C4 4.9 4.9 4 6 4C7.1 4 8 4.9 8 6C8 7.1 7.1 8 6 8C4.9 8 4 7.1 4 6ZM6 14C7.1 14 8 13.1 8 12C8 10.9 7.1 10 6 10C4.9 10 4 10.9 4 12C4 13.1 4.9 14 6 14ZM12 8C13.1 8 14 7.1 14 6C14 4.9 13.1 4 12 4C10.9 4 10 4.9 10 6C10 7.1 10.9 8 12 8ZM18 10C16.9 10 16 10.9 16 12C16 13.1 16.9 14 18 14C19.1 14 20 13.1 20 12C20 10.9 19.1 10 18 10ZM17.98 16C17.24 16 16.61 16.4 16.26 17H13.72C13.5469 16.6965 13.2967 16.4442 12.9946 16.2687C12.6925 16.0933 12.3494 16.0008 12 16.0008C11.6506 16.0008 11.3075 16.0933 11.0054 16.2687C10.7033 16.4442 10.4531 16.6965 10.28 17H8.41L11.48 13.93C11.65 13.97 11.82 14 12 14C13.1 14 14 13.1 14 12C14 11.82 13.97 11.65 13.93 11.49L17.49 7.93C17.65 7.97 17.82 8 18 8C19.1 8 20 7.1 20 6C20 4.9 19.1 4 18 4C16.9 4 16 4.9 16 6C16 6.18 16.03 6.35 16.07 6.51L12.51 10.07C12.35 10.03 12.18 10 12 10C10.9 10 10 10.9 10 12C10 12.18 10.03 12.35 10.07 12.51L6.51 16.07C6.35 16.03 6.18 16 6 16C4.9 16 4 16.9 4 18C4 19.1 4.9 20 6 20C6.74 20 7.37 19.6 7.72 19H10.29C10.4631 19.3035 10.7133 19.5558 11.0154 19.7313C11.3175 19.9067 11.6606 19.9992 12.01 19.9992C12.3594 19.9992 12.7025 19.9067 13.0046 19.7313C13.3067 19.5558 13.5569 19.3035 13.73 19H16.28C16.62 19.6 17.26 20 18 20C19.1 20 20 19.1 20 18C19.98 16.9 19.08 16 17.98 16Z" fill="black"/>
</svg>
