<svg width="24" height="24" viewBox="0 0 24 24" fill="none" xmlns="http://www.w3.org/2000/svg">
<path d="M12 5.50325C8.11004 5.50325 5.05004 4.66325 3.31004 4.07325C3.15996 4.02268 2.99996 4.00875 2.8434 4.03261C2.68683 4.05647 2.53825 4.11743 2.41004 4.2104C2.28183 4.30338 2.17772 4.42567 2.1064 4.56707C2.03508 4.70847 1.99861 4.86488 2.00004 5.02325V19.0032C2.00004 19.6832 2.66004 20.1732 3.31004 19.9532C5.36004 19.2632 8.10004 18.5032 12 18.5032C15.87 18.5032 18.66 19.2632 20.69 19.9532C20.8401 20.0024 20.9997 20.0153 21.1557 19.9908C21.3117 19.9664 21.4597 19.9053 21.5875 19.8126C21.7154 19.7199 21.8194 19.5982 21.8911 19.4575C21.9628 19.3168 22.0001 19.1612 22 19.0032V5.00325C22 4.32325 21.34 3.83325 20.69 4.05325C18.66 4.73325 15.86 5.50325 12 5.50325Z" fill="black"/>
</svg>
