<svg width="24" height="24" viewBox="0 0 24 24" fill="none" xmlns="http://www.w3.org/2000/svg">
<path d="M1.41 1.13281L0 2.54281L4.39 6.93281L6.6 11.5928L5.25 14.0428C5.09 14.3228 5 14.6528 5 15.0028C5 16.1028 5.9 17.0028 7 17.0028H14.46L15.84 18.3828C15.4966 18.629 15.2402 18.9777 15.1075 19.3789C14.9749 19.78 14.9729 20.2129 15.1018 20.6152C15.2307 21.0176 15.484 21.3687 15.825 21.618C16.1661 21.8673 16.5775 22.0021 17 22.0028C17.67 22.0028 18.26 21.6728 18.62 21.1628L21.46 24.0028L22.87 22.5928L1.41 1.13281ZM7 15.0028L8.1 13.0028H10.46L12.46 15.0028H7ZM20 4.00281H7.12L9.12 6.00281H18.31L15.55 11.0028H14.11L16.05 12.9428C16.59 12.8028 17.04 12.4528 17.3 11.9728L20.88 5.48281C21.25 4.82281 20.76 4.00281 20 4.00281ZM7 18.0028C5.9 18.0028 5.01 18.9028 5.01 20.0028C5.01 21.1028 5.9 22.0028 7 22.0028C8.1 22.0028 9 21.1028 9 20.0028C9 18.9028 8.1 18.0028 7 18.0028Z" fill="black"/>
</svg>
