<svg width="24" height="24" viewBox="0 0 24 24" fill="none" xmlns="http://www.w3.org/2000/svg">
<path d="M8 4.00063V4.89062L10 6.89062V4.00063H14V8.00063H11.11L13.11 10.0006H14V10.8906L16 12.8906V10.0006H20V14.0006H17.11L19.11 16.0006H20V16.8906L22 18.8906V4.00063C22 2.90063 21.1 2.00063 20 2.00063H5.11L7.11 4.00063H8ZM16 4.00063H20V8.00063H16V4.00063ZM1.41 1.14062L0 2.55062L2 4.55063V20.0006C2 21.1006 2.9 22.0006 4 22.0006H19.45L21.46 24.0106L22.87 22.6006L1.41 1.14062ZM10 12.5506L11.45 14.0006H10V12.5506ZM4 6.55063L5.45 8.00063H4V6.55063ZM8 20.0006H4V16.0006H8V20.0006ZM8 14.0006H4V10.0006H7.45L8 10.5506V14.0006ZM14 20.0006H10V16.0006H13.45L14 16.5506V20.0006ZM16 20.0006V18.5506L17.45 20.0006H16Z" fill="black"/>
</svg>
