<svg width="24" height="24" viewBox="0 0 24 24" fill="none" xmlns="http://www.w3.org/2000/svg">
<path d="M18.32 4.25688C16.8034 3.01169 14.9525 2.24278 13 2.04688V4.06688C14.46 4.24688 15.79 4.82688 16.9 5.68688L18.32 4.25688ZM19.93 10.9969H21.95C21.75 8.98687 20.95 7.15687 19.74 5.67687L18.31 7.09688C19.1921 8.22683 19.7519 9.57448 19.93 10.9969ZM18.31 16.8969L19.74 18.3269C20.9835 16.8093 21.7522 14.9589 21.95 13.0069H19.93C19.75 14.4257 19.1903 15.7697 18.31 16.8969ZM13 19.9269V21.9469C15.01 21.7469 16.84 20.9469 18.32 19.7369L16.89 18.3069C15.79 19.1669 14.46 19.7469 13 19.9269ZM15.59 10.5869L13 13.1669V6.99687H11V13.1669L8.41 10.5769L7 11.9969L12 16.9969L17 11.9969L15.59 10.5869ZM11 19.9269V21.9469C5.95 21.4469 2 17.1869 2 11.9969C2 6.80687 5.95 2.54688 11 2.04688V4.06688C7.05 4.55688 4 7.91687 4 11.9969C4 16.0769 7.05 19.4369 11 19.9269Z" fill="black"/>
</svg>
