<svg width="24" height="24" viewBox="0 0 24 24" fill="none" xmlns="http://www.w3.org/2000/svg">
<path d="M15 1H9V3H15V1ZM19.03 7.39L20.45 5.97C20.02 5.46 19.55 4.98 19.04 4.56L17.62 5.98C16.0273 4.69833 14.0443 3.99969 12 4C7.03 4 3 8.03 3 13C3 17.97 7.02 22 12 22C13.6943 22.0009 15.3544 21.5232 16.7891 20.622C18.2238 19.7207 19.3748 18.4325 20.1094 16.9057C20.8441 15.379 21.1325 13.6758 20.9415 11.9923C20.7506 10.3087 20.088 8.71341 19.03 7.39ZM12 20C8.13 20 5 16.87 5 13C5 9.13 8.13 6 12 6C15.87 6 19 9.13 19 13C19 16.87 15.87 20 12 20ZM11.68 15H6.35C6.63339 15.8013 7.08401 16.5331 7.67194 17.1469C8.25986 17.7607 8.97164 18.2424 9.76 18.56L9.65 18.5L11.68 15ZM17.65 11C17.3708 10.2097 16.9294 9.48654 16.3542 8.87691C15.779 8.26727 15.0827 7.78464 14.31 7.46L12.26 11H17.65ZM10.61 18.83C11.06 18.94 11.52 19 12 19C13.34 19 14.57 18.55 15.57 17.81L13.46 13.91L10.61 18.83ZM7.55 8.99C6.55286 10.0875 6.00028 11.5171 6 13C6 13.34 6.04 13.67 6.09 14H10.81L7.55 8.99ZM16.34 17.13C17.4077 16.0205 18.0029 14.5398 18 13C18 12.66 17.96 12.33 17.91 12H13.57L16.34 17.13ZM13.33 7.15C12.9 7.06 12.46 7 12 7C10.6 7 9.31 7.49 8.29 8.29L10.61 11.85L13.33 7.15Z" fill="black"/>
</svg>
