<svg width="24" height="24" viewBox="0 0 24 24" fill="none" xmlns="http://www.w3.org/2000/svg">
<path d="M2 21.5C2 21.78 2.22 22 2.49 22H15.51C15.78 22 16 21.78 16 21.5V20H2V21.5ZM15.5 16H11V14H7V16H2.5C2.22 16 2 16.22 2 16.5V18H16V16.5C16 16.22 15.78 16 15.5 16ZM20.47 15.45C21.4578 14.3761 22.0041 12.9691 22 11.51V2H16V11.47C16 12.95 16.58 14.39 17.6 15.47L18 15.89V22H22V20H20V15.97L20.47 15.45ZM18 4H20V8H18V4ZM19.03 14.07C18.3765 13.3608 18.0094 12.4343 18 11.47V10H20V11.51C20 12.46 19.66 13.36 19.03 14.07Z" fill="black"/>
</svg>
