<svg width="24" height="24" viewBox="0 0 24 24" fill="none" xmlns="http://www.w3.org/2000/svg">
<path d="M22 5.99781V3.99781H7.39L9.39 5.99781H22ZM24 18.9978V8.99781C24 8.44781 23.55 7.99781 23 7.99781H17C16.45 7.99781 16 8.44781 16 8.99781V12.6078L18 14.6078V9.99781H22V16.9978H20.39L23.32 19.9278C23.71 19.7978 24 19.4378 24 18.9978ZM2.06 1.50781L0.65 2.91781L2.47 4.73781C2.18 5.07781 2 5.51781 2 5.99781V16.9978H0V19.9978H17.73L20.08 22.3478L21.49 20.9378L2.06 1.50781ZM4 16.9978V6.26781L14.73 16.9978H4Z" fill="black"/>
</svg>
