<svg width="24" height="24" viewBox="0 0 24 24" fill="none" xmlns="http://www.w3.org/2000/svg">
<path d="M15.9 5.0031C15.73 5.0031 15.58 5.0931 15.49 5.2331L15.42 5.3831L10.24 17.0331C10.08 17.3231 9.98 17.6431 9.98 17.9931C9.98 19.1031 10.88 20.0031 11.99 20.0031C12.95 20.0031 13.76 19.3231 13.95 18.4131L13.96 18.3831L16.4 5.5031C16.4 5.2231 16.18 5.0031 15.9 5.0031ZM1 9.0031L3 11.0031C5.88 8.1231 9.79 6.9231 13.53 7.3831L14.72 4.7031C9.89 3.8431 4.74 5.2731 1 9.0031ZM21 11.0031L23 9.0031C21.4188 7.42037 19.511 6.20199 17.41 5.4331L16.88 8.2531C18.38 8.8731 19.78 9.7831 21 11.0031ZM17 15.0031L19 13.0031C18.2 12.2031 17.3 11.5831 16.34 11.1131L15.79 14.0331C16.21 14.3031 16.62 14.6231 17 15.0031ZM5 13.0031L7 15.0031C8.09101 13.9172 9.50538 13.2153 11.03 13.0031L12.31 10.1231C9.68 10.0431 7.01 10.9931 5 13.0031Z" fill="black"/>
</svg>
