<svg width="24" height="24" viewBox="0 0 24 24" fill="none" xmlns="http://www.w3.org/2000/svg">
<path d="M10 15.9969H6.5V21.9969H10C10.8 21.9969 11.5 21.2969 11.5 20.4969V17.4969C11.5 16.6969 10.8 15.9969 10 15.9969ZM10 20.4969H8V17.4969H10V20.4969ZM3.5 17.9969H1.5V15.9969H0V21.9969H1.5V19.4969H3.5V21.9969H5V15.9969H3.5V17.9969ZM22 18.4969V16.4969H20.5V18.4969H18.5V19.9969H20.5V21.9969H22V19.9969H24V18.4969H22ZM16.5 15.9969H13V21.9969H14.5V19.9969H15.6L16.5 21.9969H18L17.1 19.8969C17.6 19.5969 18 19.0969 18 18.4969V17.4969C18 16.6969 17.3 15.9969 16.5 15.9969ZM16.5 18.4969H14.5V17.4969H16.5V18.4969ZM11.97 5.29688L10.95 8.18687H13.05L12.03 5.29688H11.97Z" fill="black"/>
<path d="M12 2C8.69 2 6 4.69 6 8C6 11.31 8.69 14 12 14C15.31 14 18 11.31 18 8C18 4.69 15.31 2 12 2ZM14.04 11L13.41 9.21H10.58L9.96 11H8.74L11.37 4H12.62L15.25 11H14.04Z" fill="black"/>
</svg>
