<svg width="24" height="24" viewBox="0 0 24 24" fill="none" xmlns="http://www.w3.org/2000/svg">
<path d="M19 4H5C4.46957 4 3.96086 4.21071 3.58579 4.58579C3.21071 4.96086 3 5.46957 3 6V18C3 18.5304 3.21071 19.0391 3.58579 19.4142C3.96086 19.7893 4.46957 20 5 20H19C20.1 20 21 19.1 21 18V6C21 4.9 20.1 4 19 4ZM19 18H5V6H19V18Z" fill="black"/>
<path d="M7 15H10C10.55 15 11 14.55 11 14V13H9.5V13.5H7.5V10.5H9.5V11H11V10C11 9.45 10.55 9 10 9H7C6.45 9 6 9.45 6 10V14C6 14.55 6.45 15 7 15ZM14 15H17C17.55 15 18 14.55 18 14V13H16.5V13.5H14.5V10.5H16.5V11H18V10C18 9.45 17.55 9 17 9H14C13.45 9 13 9.45 13 10V14C13 14.55 13.45 15 14 15Z" fill="black"/>
</svg>
