<svg width="24" height="24" viewBox="0 0 24 24" fill="none" xmlns="http://www.w3.org/2000/svg">
<path d="M13 16.1219H12.97C16.46 15.7219 19.17 12.7619 19.17 9.17188C19.17 5.30188 16.04 2.17188 12.17 2.17188C8.3 2.17188 5.17 5.30188 5.17 9.17188C5.16872 10.8246 5.75397 12.4242 6.82156 13.6859C7.88915 14.9476 9.36982 15.7896 11 16.0619V20.0019H5V22.0019H19V20.0019H13V16.1219ZM7.17 9.17188C7.17 6.41188 9.41 4.17188 12.17 4.17188C14.93 4.17188 17.17 6.41188 17.17 9.17188C17.17 11.9319 14.93 14.1719 12.17 14.1719C9.41 14.1719 7.17 11.9319 7.17 9.17188Z" fill="black"/>
</svg>
