<svg width="24" height="24" viewBox="0 0 24 24" fill="none" xmlns="http://www.w3.org/2000/svg">
<path d="M18.51 15.68L17.1 14.27L21.58 9.79L23 11.2L18.51 15.68ZM14.98 12.15L18.05 9.08L13.8 4.82L10.72 7.89L9.3 6.47L13.8 2L20.88 9.08L16.4 13.56L14.98 12.15ZM21.18 21.2L19.77 22.61L13.83 16.67L10.5 20H1V17.37C1 16.53 1.52 15.8 2.3 15.49C2.88 15.26 3.58 14.93 4.27 14.47L5.65 15.85C5.74 15.95 5.87 16 6 16C6.13 16 6.26 15.95 6.36 15.85C6.56 15.65 6.56 15.34 6.36 15.14L5.08 13.86C5.35 13.62 5.61 13.35 5.85 13.06L7.12 14.33C7.16527 14.3772 7.21961 14.4147 7.27975 14.4404C7.3399 14.466 7.40461 14.4793 7.47 14.4793C7.53539 14.4793 7.6001 14.466 7.66025 14.4404C7.7204 14.4147 7.77473 14.3772 7.82 14.33C8.02 14.13 8.02 13.82 7.82 13.62L6.42 12.22C6.61 11.88 6.76 11.5 6.87 11.1L8.58 12.82C8.62527 12.8672 8.6796 12.9047 8.73975 12.9304C8.7999 12.956 8.86461 12.9693 8.93 12.9693C8.99539 12.9693 9.0601 12.956 9.12025 12.9304C9.1804 12.9047 9.23473 12.8672 9.28 12.82C9.47 12.62 9.47 12.32 9.29 12.12L1.39 4.22L2.81 2.81L21.18 21.2ZM12.42 15.26L10.75 13.58L7.42 16.9C6.64 17.68 5.37 17.68 4.59 16.89L4.4 16.72L3.93 16.96C3.64 17.1 3.34 17.23 3.04 17.35L3.03 18H9.67L12.42 15.26Z" fill="black"/>
</svg>
