<svg width="24" height="24" viewBox="0 0 24 24" fill="none" xmlns="http://www.w3.org/2000/svg">
<path d="M12.5 9.99781C12.5 8.34781 11.15 6.99781 9.49999 6.99781C7.84999 6.99781 6.49999 8.34781 6.49999 9.99781C6.49999 11.6478 7.84999 12.9978 9.49999 12.9978C11.15 12.9978 12.5 11.6478 12.5 9.99781ZM9.49999 10.9978C8.94999 10.9978 8.49999 10.5478 8.49999 9.99781C8.49999 9.44781 8.94999 8.99781 9.49999 8.99781C10.05 8.99781 10.5 9.44781 10.5 9.99781C10.5 10.5478 10.05 10.9978 9.49999 10.9978ZM16 12.9978C17.11 12.9978 18 12.1078 18 10.9978C18 9.88781 17.11 8.99781 16 8.99781C14.89 8.99781 13.99 9.88781 14 10.9978C14 12.1078 14.89 12.9978 16 12.9978ZM11.99 2.00781C6.46999 2.00781 1.98999 6.48781 1.98999 12.0078C1.98999 17.5278 6.46999 22.0078 11.99 22.0078C17.51 22.0078 21.99 17.5278 21.99 12.0078C21.99 6.48781 17.51 2.00781 11.99 2.00781ZM5.83999 17.1178C6.51999 16.5778 8.10999 16.0078 9.49999 16.0078C9.56999 16.0078 9.64999 16.0178 9.72999 16.0178C9.96999 15.3778 10.4 14.7278 11.03 14.1578C10.5255 14.0612 10.0136 14.0076 9.49999 13.9978C8.19999 13.9978 6.10999 14.4478 4.76999 15.4278C4.26999 14.3878 3.98999 13.2278 3.98999 11.9978C3.98999 7.58781 7.57999 3.99781 11.99 3.99781C16.4 3.99781 19.99 7.58781 19.99 11.9978C19.99 13.1978 19.72 14.3378 19.24 15.3678C18.24 14.7778 16.88 14.4978 16 14.4978C14.48 14.4978 11.5 15.3078 11.5 17.1978V19.9778C10.4106 19.9159 9.34573 19.6299 8.37186 19.1378C7.398 18.6457 6.53609 17.9581 5.83999 17.1178Z" fill="black"/>
</svg>
