<svg width="24" height="24" viewBox="0 0 24 24" fill="none" xmlns="http://www.w3.org/2000/svg">
<path d="M17 18C17.5523 18 18 17.5523 18 17C18 16.4477 17.5523 16 17 16C16.4477 16 16 16.4477 16 17C16 17.5523 16.4477 18 17 18Z" fill="black"/>
<path d="M20.86 14.97L19.93 14.13C20.41 10.68 17.06 8.09 13.88 9.31C13.2748 9.10356 12.6395 8.9988 12 9C7.74 9 6.35 12.58 6.11 13.85C5.49966 13.6632 4.96534 13.2856 4.58554 12.7726C4.20575 12.2596 4.00051 11.6383 4 11C4 9.34 5.34 8 7 8H9.5C10.163 8 10.7989 7.73661 11.2678 7.26777C11.7366 6.79893 12 6.16304 12 5.5C12 4.83696 11.7366 4.20107 11.2678 3.73223C10.7989 3.26339 10.163 3 9.5 3H8C7.45 3 7 3.45 7 4C7 4.55 7.45 5 8 5H9.5C9.78 5 10 5.22 10 5.5C10 5.78 9.78 6 9.5 6H7C4.24 6 2 8.24 2 11C2 13.44 3.76 15.47 6.07 15.91C6.28703 17.3271 7.00444 18.6196 8.09227 19.5533C9.1801 20.487 10.5664 21.0003 12 21H18.53C21.64 21 23.23 17.11 20.86 14.97ZM18.53 19H12C10.79 19 9.66 18.46 8.89 17.52C8.11 16.57 7.83 15.36 8.09 14.11C8.25043 13.3758 8.61696 12.7026 9.14658 12.1695C9.67619 11.6363 10.3469 11.2653 11.08 11.1C11.3 11.05 11.53 11.04 11.75 11.03C11.28 11.74 11 12.58 11 13.5C11 14.74 11.5 15.87 12.32 16.68L13.73 15.27C13.28 14.82 13 14.19 13 13.5C13 12.08 14.2 11 15.5 11C16.163 11 16.7989 11.2634 17.2678 11.7322C17.7366 12.2011 18 12.837 18 13.5C18 13.96 17.87 14.38 17.65 14.75L19.52 16.45C19.83 16.73 20 17.12 20 17.54C20 18.34 19.34 19 18.53 19Z" fill="black"/>
</svg>
