<svg width="24" height="24" viewBox="0 0 24 24" fill="none" xmlns="http://www.w3.org/2000/svg">
<path d="M22.61 18.9895L13.53 9.90948C14.46 7.56948 13.98 4.80948 12.09 2.90948C9.78996 0.609483 6.20996 0.399483 3.65996 2.25948L7.49996 6.10948L6.07996 7.51948L2.24996 3.68948C0.389961 6.22948 0.599962 9.81948 2.89996 12.1095C4.75996 13.9695 7.46996 14.4595 9.78996 13.5895L18.9 22.6995C19.29 23.0895 19.92 23.0895 20.31 22.6995L22.61 20.3995C23.01 20.0195 23.01 19.3895 22.61 18.9895ZM19.61 20.5895L10.15 11.1295C9.53996 11.5795 8.85996 11.8495 8.14996 11.9495C6.78996 12.1495 5.35996 11.7395 4.31996 10.6995C3.36996 9.75948 2.92996 8.49948 2.99996 7.25948L6.08996 10.3495L10.33 6.10948L7.23996 3.01948C8.47996 2.94948 9.72996 3.38948 10.68 4.32948C11.1915 4.84009 11.5715 5.46713 11.7874 6.15684C12.0034 6.84655 12.0489 7.57834 11.92 8.28948C11.7951 9.00612 11.4926 9.68001 11.04 10.2495L20.49 19.6995L19.61 20.5895Z" fill="black"/>
</svg>
