<svg width="24" height="24" viewBox="0 0 24 24" fill="none" xmlns="http://www.w3.org/2000/svg">
<path d="M2.81001 2.81002L1.39001 4.22002L3.66001 6.49002C2.57386 8.12206 1.99616 10.0396 2.00001 12C2.00001 17.52 6.48001 22 12 22C14.04 22 15.93 21.39 17.51 20.34L19.78 22.61L21.19 21.2L2.81001 2.81002ZM12 20C7.59001 20 4.00001 16.41 4.00001 12C4.00001 10.52 4.41001 9.14002 5.12001 7.94002L16.06 18.88C14.86 19.59 13.48 20 12 20ZM7.94001 5.12002L6.49001 3.66002C8.12206 2.57386 10.0396 1.99617 12 2.00002C17.52 2.00002 22 6.48002 22 12C22 14.04 21.39 15.93 20.34 17.51L18.88 16.05C19.6136 14.8265 20.0007 13.4266 20 12C20 7.59002 16.41 4.00002 12 4.00002C10.52 4.00002 9.14001 4.41002 7.94001 5.12002Z" fill="black"/>
</svg>
