<svg width="24" height="24" viewBox="0 0 24 24" fill="none" xmlns="http://www.w3.org/2000/svg">
<path d="M18.7001 12.4025C18.4243 12.2469 18.1367 12.1132 17.8401 12.0025C18.1301 11.8925 18.4201 11.7625 18.7001 11.6025C19.6105 11.0755 20.3666 10.3188 20.8931 9.40809C21.4195 8.49735 21.6978 7.46443 21.7001 6.4125C20.7901 5.8925 19.7501 5.6125 18.6901 5.6125C17.6701 5.6125 16.6401 5.8725 15.7001 6.4125C15.4201 6.5725 15.1601 6.7625 14.9201 6.9525C14.9701 6.6425 15.0001 6.3225 15.0001 6.0025C15.0001 3.7825 13.7901 1.8525 12.0001 0.8125C10.2101 1.8525 9.00006 3.7825 9.00006 6.0025C9.00006 6.3225 9.03006 6.6425 9.08006 6.9525C8.84006 6.7525 8.58006 6.5625 8.30006 6.4025C7.36006 5.8625 6.33006 5.6025 5.31006 5.6025C4.26006 5.6025 3.21006 5.8825 2.30006 6.4025C2.29809 7.45529 2.57455 8.48987 3.10141 9.40134C3.62827 10.3128 4.3868 11.0688 5.30006 11.5925C5.58006 11.7525 5.87006 11.8825 6.16006 11.9925C5.87006 12.1025 5.58006 12.2325 5.30006 12.3925C4.38966 12.9195 3.63348 13.6762 3.10704 14.5869C2.58061 15.4976 2.30235 16.5306 2.30006 17.5825C3.21006 18.1025 4.25006 18.3825 5.31006 18.3825C6.33006 18.3825 7.36006 18.1225 8.30006 17.5825C8.58006 17.4225 8.84006 17.2325 9.08006 17.0425C9.03006 17.3625 9.00006 17.6825 9.00006 18.0025C9.00006 20.2225 10.2101 22.1525 12.0001 23.1925C13.7901 22.1525 15.0001 20.2225 15.0001 18.0025C15.0001 17.6825 14.9701 17.3625 14.9201 17.0525C15.1601 17.2525 15.4201 17.4325 15.7001 17.5925C16.6401 18.1325 17.6701 18.3925 18.6901 18.3925C19.7401 18.3925 20.7901 18.1125 21.7001 17.5925C21.6978 16.5406 21.4195 15.5076 20.8931 14.5969C20.3666 13.6862 19.6105 12.9295 18.7001 12.4025ZM16.1601 8.5225C16.3701 8.3525 16.5401 8.2325 16.7001 8.1525C17.3101 7.8025 18.0001 7.6125 18.7001 7.6125C18.9701 7.6125 19.2301 7.6425 19.4901 7.6925C19.1801 8.6025 18.5501 9.3825 17.7101 9.8725C17.5401 9.9725 17.3501 10.0525 17.1301 10.1425L15.7501 10.6625C15.5801 10.2025 15.3401 9.7925 15.0301 9.4225L16.1601 8.5225ZM12.0001 3.3725C12.6301 4.0925 13.0001 5.0325 13.0001 6.0025C13.0001 6.1925 12.9801 6.4125 12.9501 6.6325L12.7201 8.0725C12.4801 8.0325 12.2401 8.0025 12.0001 8.0025C11.7601 8.0025 11.5201 8.0325 11.2901 8.0725L11.0601 6.6325C11.0201 6.4125 11.0001 6.1925 11.0001 6.0025C11.0001 5.0225 11.3701 4.0925 12.0001 3.3725ZM4.51006 7.6825C4.77006 7.6225 5.04006 7.6025 5.31006 7.6025C6.00006 7.6025 6.69006 7.7825 7.30006 8.1425C7.45006 8.2325 7.62006 8.3425 7.79006 8.4925L8.94006 9.4525C8.64006 9.8125 8.41006 10.2125 8.24006 10.6525L6.86006 10.1325C6.65006 10.0425 6.46006 9.9525 6.30006 9.8625C5.43006 9.3625 4.81006 8.5925 4.51006 7.6825ZM7.84006 15.4725C7.63006 15.6425 7.46006 15.7625 7.30006 15.8425C6.69006 16.1925 6.00006 16.3825 5.30006 16.3825C5.03006 16.3825 4.77006 16.3525 4.51006 16.3025C4.82006 15.3925 5.45006 14.6125 6.29006 14.1225C6.46006 14.0225 6.65006 13.9425 6.87006 13.8525L8.25006 13.3325C8.41006 13.7925 8.66006 14.2125 8.97006 14.5725L7.84006 15.4725ZM12.0001 20.6325C11.3701 19.9125 11.0001 18.9725 11.0001 18.0025C11.0001 17.8025 11.0201 17.5925 11.0601 17.3525L11.2801 15.9325C11.5101 15.9725 11.7501 16.0025 12.0001 16.0025C12.2401 16.0025 12.4801 15.9725 12.7101 15.9325L12.9401 17.3725C12.9801 17.5925 13.0001 17.8125 13.0001 18.0025C13.0001 18.9825 12.6301 19.9125 12.0001 20.6325ZM18.6901 16.3925C17.7866 16.394 16.9105 16.0831 16.2101 15.5125L15.0601 14.5525C15.3601 14.1925 15.6001 13.7925 15.7601 13.3425L17.1401 13.8625C17.3601 13.9425 17.5501 14.0325 17.7101 14.1225C18.5601 14.6125 19.1801 15.3925 19.4901 16.3025C19.2201 16.3725 18.9501 16.3925 18.6901 16.3925Z" fill="black"/>
</svg>
