<svg width="24" height="24" viewBox="0 0 24 24" fill="none" xmlns="http://www.w3.org/2000/svg">
<path d="M12 5.5L18 10V19H6V10L12 5.5ZM12 3L4 9V21H20V9L12 3ZM15 12H11.5V15.5H8V11H7V18H8V16.5H16V18H17V14C17 12.9 16.1 12 15 12ZM9.75 12.5C9.41848 12.5 9.10054 12.6317 8.86612 12.8661C8.6317 13.1005 8.5 13.4185 8.5 13.75C8.5 14.0815 8.6317 14.3995 8.86612 14.6339C9.10054 14.8683 9.41848 15 9.75 15C10.0815 15 10.3995 14.8683 10.6339 14.6339C10.8683 14.3995 11 14.0815 11 13.75C11 13.4185 10.8683 13.1005 10.6339 12.8661C10.3995 12.6317 10.0815 12.5 9.75 12.5Z" fill="black"/>
</svg>
