<svg width="24" height="24" viewBox="0 0 24 24" fill="none" xmlns="http://www.w3.org/2000/svg">
<path d="M21.67 18.1672L16.37 12.8672H15.38L12.84 15.4072V16.3972L18.14 21.6972C18.53 22.0872 19.16 22.0872 19.55 21.6972L21.67 19.5772C21.7627 19.4847 21.8362 19.3748 21.8864 19.2538C21.9366 19.1328 21.9624 19.0032 21.9624 18.8722C21.9624 18.7412 21.9366 18.6115 21.8864 18.4906C21.8362 18.3696 21.7627 18.2597 21.67 18.1672ZM18.84 19.5872L14.6 15.3472L15.31 14.6372L19.55 18.8772L18.84 19.5872Z" fill="black"/>
<path d="M17.34 10.19L18.75 8.78L20.87 10.9C21.4318 10.3375 21.7474 9.575 21.7474 8.78C21.7474 7.985 21.4318 7.2225 20.87 6.66L17.33 3.12L15.92 4.53V1.71L15.22 1L11.68 4.54L12.39 5.25H15.22L13.81 6.66L14.87 7.72L11.98 10.61L7.85 6.48V5.06L4.83 2.04L2 4.87L5.03 7.9H6.44L10.57 12.03L9.72 12.88H7.6L2.3 18.18C2.2073 18.2725 2.13375 18.3824 2.08357 18.5034C2.03339 18.6243 2.00756 18.754 2.00756 18.885C2.00756 19.016 2.03339 19.1457 2.08357 19.2666C2.13375 19.3876 2.2073 19.4975 2.3 19.59L4.42 21.71C4.81 22.1 5.44 22.1 5.83 21.71L11.13 16.41V14.29L16.28 9.14L17.34 10.19ZM9.36 15.34L5.12 19.58L4.41 18.87L8.65 14.63L9.36 15.34Z" fill="black"/>
</svg>
