<svg width="24" height="24" viewBox="0 0 24 24" fill="none" xmlns="http://www.w3.org/2000/svg">
<path d="M16.81 8.94038L13.06 5.19038L4 14.2504V18.0004H7.75L16.81 8.94038ZM6 16.0004V15.0804L13.06 8.02038L13.98 8.94038L6.92 16.0004H6ZM19.71 6.04038C19.8027 5.94787 19.8763 5.83798 19.9264 5.71701C19.9766 5.59603 20.0024 5.46635 20.0024 5.33538C20.0024 5.20441 19.9766 5.07473 19.9264 4.95376C19.8763 4.83279 19.8027 4.7229 19.71 4.63038L17.37 2.29038C17.1825 2.10437 16.9291 2 16.665 2C16.4009 2 16.1475 2.10437 15.96 2.29038L14.13 4.12038L17.88 7.87038L19.71 6.04038ZM2 20.0004H22V24.0004H2V20.0004Z" fill="black"/>
</svg>
