<svg width="24" height="24" viewBox="0 0 24 24" fill="none" xmlns="http://www.w3.org/2000/svg">
<path d="M8.00001 20.0025C8.00001 21.1025 7.10001 22.0025 6.00001 22.0025C4.90001 22.0025 4.00001 21.1025 4.00001 20.0025C4.00001 18.9025 4.90001 18.0025 6.00001 18.0025C7.10001 18.0025 8.00001 18.9025 8.00001 20.0025ZM15 8.6625V12.1725L17 14.1725V6.2725C17.58 5.5925 17.97 5.0025 18.65 5.0025C19.42 5.0025 20 5.6625 20 6.4825V7.0025H22V6.4825C22 4.5625 20.52 3.0025 18.65 3.0025C16.99 3.0025 16.11 4.2725 15.47 5.0325L11.97 9.1425L13.39 10.5625L15 8.6625ZM19.78 22.6125L17.87 20.7025C17.58 21.4625 16.86 22.0025 16 22.0025C14.9 22.0025 14 21.1025 14 20.0025C14 19.1425 14.54 18.4225 15.3 18.1325L14.17 17.0025H7.43001C6.58001 17.0025 6.12001 16.0025 6.67001 15.3525L9.36001 12.1925L1.39001 4.2225L2.80001 2.8125L10.66 10.6725L12.08 12.0925L21.19 21.2025L19.78 22.6125ZM12.17 15.0025L10.78 13.6125L9.60001 15.0025H12.17ZM10 5.0025C10.29 5.0025 10.58 5.0225 10.86 5.0525L9.49001 6.6725L10.91 8.0925L14.3 4.1025C13.03 3.4025 11.56 3.0025 10 3.0025C8.77001 3.0025 7.60002 3.2525 6.53001 3.7025L8.10002 5.2725C8.71818 5.09681 9.35737 5.00597 10 5.0025Z" fill="black"/>
</svg>
