<svg width="24" height="24" viewBox="0 0 24 24" fill="none" xmlns="http://www.w3.org/2000/svg">
<path d="M14.27 5.99635C13.72 6.94635 14.05 8.17635 15 8.72635C15.95 9.27635 17.18 8.94635 17.73 7.99635C18.28 7.04635 17.95 5.81635 17 5.26635C16.05 4.71635 14.82 5.04635 14.27 5.99635Z" fill="black"/>
<path d="M15.84 10.4076L13.24 8.90763C10.86 7.52763 10.04 4.46763 11.42 2.08763L9.69001 1.08763C8.10001 3.82763 8.60001 7.20763 10.66 9.39763L5.51001 18.3176L7.24001 19.3176L8.74001 16.7176L10.47 17.7176L7.47001 22.9176L9.20001 23.9176L15.49 13.0276C16.0661 13.8094 16.4022 14.742 16.4573 15.7115C16.5123 16.6811 16.2839 17.6457 15.8 18.4876L17.53 19.4876C19.13 16.7376 18.81 12.9076 15.84 10.4076ZM12.75 3.79763C13.47 4.20763 14.38 3.96763 14.8 3.24763C15.21 2.52763 14.97 1.61763 14.25 1.19763C13.9056 1.00575 13.4996 0.957038 13.1196 1.06203C12.7397 1.16701 12.4162 1.41727 12.2193 1.75873C12.0223 2.10019 11.9675 2.50545 12.0668 2.88695C12.1661 3.26845 12.4115 3.59556 12.75 3.79763Z" fill="black"/>
</svg>
