<svg width="24" height="24" viewBox="0 0 24 24" fill="none" xmlns="http://www.w3.org/2000/svg">
<path d="M11.9999 10C14.2099 10 15.9999 8.21 15.9999 6C15.9999 3.79 14.2099 2 11.9999 2C9.78994 2 7.99994 3.79 7.99994 6C7.99994 8.21 9.78994 10 11.9999 10ZM11.9999 4C13.0999 4 13.9999 4.9 13.9999 6C13.9999 7.1 13.0999 8 11.9999 8C10.8999 8 9.99994 7.1 9.99994 6C9.99994 4.9 10.8999 4 11.9999 4ZM18.3899 12.56C16.7099 11.7 14.5299 11 11.9999 11C9.46994 11 7.28994 11.7 5.60994 12.56C5.122 12.8113 4.71324 13.1929 4.42904 13.6625C4.14484 14.132 3.99631 14.6712 3.99994 15.22V22H5.99994V15.22C5.99994 14.84 6.19994 14.5 6.51994 14.34C7.70994 13.73 9.62994 13 11.9999 13C12.7599 13 13.4699 13.07 14.1299 13.2L12.5799 16.5H9.74994C8.22994 16.5 6.99994 17.73 6.99994 19.25C6.99994 20.77 8.22994 22 9.74994 22H17.9999C19.0999 22 19.9999 21.1 19.9999 20V15.22C19.9999 14.1 19.3899 13.07 18.3899 12.56ZM10.9399 20H9.74994C9.33994 20 8.99994 19.66 8.99994 19.25C8.99994 18.84 9.33994 18.5 9.74994 18.5H11.6399L10.9399 20ZM17.9999 20H13.1499L16.0899 13.73C16.6299 13.93 17.0999 14.14 17.4899 14.34C17.7999 14.5 17.9999 14.84 17.9999 15.22V20Z" fill="black"/>
</svg>
