<svg width="24" height="24" viewBox="0 0 24 24" fill="none" xmlns="http://www.w3.org/2000/svg">
<path d="M19 3H5C3.9 3 3 3.9 3 5V19C3 20.1 3.9 21 5 21H19C20.1 21 21 20.1 21 19V5C21 3.9 20.1 3 19 3ZM19 19H5V5H19V19ZM15 15H11V13H13C13.5304 13 14.0391 12.7893 14.4142 12.4142C14.7893 12.0391 15 11.5304 15 11V9C15 8.46957 14.7893 7.96086 14.4142 7.58579C14.0391 7.21071 13.5304 7 13 7H9V9H13V11H11C10.4696 11 9.96086 11.2107 9.58579 11.5858C9.21071 11.9609 9 12.4696 9 13V17H15V15Z" fill="black"/>
</svg>
