<svg width="24" height="24" viewBox="0 0 24 24" fill="none" xmlns="http://www.w3.org/2000/svg">
<path d="M3 13H5V11H3V13ZM3 17H5V15H3V17ZM5 21V19H3C3 19.5304 3.21071 20.0391 3.58579 20.4142C3.96086 20.7893 4.46957 21 5 21ZM3 9H5V7H3V9ZM15 21H17V19H15V21ZM19 3H9C8.46957 3 7.96086 3.21071 7.58579 3.58579C7.21071 3.96086 7 4.46957 7 5V15C7 15.5304 7.21071 16.0391 7.58579 16.4142C7.96086 16.7893 8.46957 17 9 17H19C20.1 17 21 16.1 21 15V5C21 3.9 20.1 3 19 3ZM19 15H9V5H19V15ZM11 21H13V19H11V21ZM7 21H9V19H7V21Z" fill="black"/>
</svg>
