<svg width="24" height="24" viewBox="0 0 24 24" fill="none" xmlns="http://www.w3.org/2000/svg">
<path d="M19.93 8.35215L16.33 10.0321L14 7.70214V6.30215L16.33 3.97214L19.93 5.65214C20.31 5.83214 20.75 5.66214 20.93 5.29214C21.11 4.91214 20.94 4.47214 20.57 4.29214L16.65 2.46214C16.4641 2.37443 16.2556 2.34656 16.0532 2.38239C15.8508 2.41821 15.6645 2.51596 15.52 2.66214L13.78 4.40214C13.6902 4.27921 13.5729 4.179 13.4375 4.10954C13.302 4.04009 13.1522 4.0033 13 4.00214C12.45 4.00214 12 4.45214 12 5.00214V6.00214H8.82C8.4 4.84214 7.3 4.00214 6 4.00214C4.34 4.00214 3 5.34214 3 7.00214C3 8.10214 3.6 9.05214 4.48 9.58214L7.08 18.0021H6C4.9 18.0021 4 18.9021 4 20.0021V21.0021H17V20.0021C17 18.9021 16.1 18.0021 15 18.0021H13.38L8.41 8.77215C8.58 8.53215 8.72 8.28214 8.82 8.00214H12V9.00214C12 9.55214 12.45 10.0021 13 10.0021C13.32 10.0021 13.6 9.84215 13.78 9.60215L15.52 11.3421C15.82 11.6421 16.27 11.7221 16.65 11.5421L20.57 9.71214C20.95 9.53214 21.11 9.09214 20.93 8.71214C20.8448 8.53207 20.6918 8.39308 20.5044 8.32561C20.3169 8.25814 20.1104 8.26768 19.93 8.35215ZM6 8.00214C5.45 8.00214 5 7.55214 5 7.00214C5 6.45214 5.45 6.00214 6 6.00214C6.55 6.00214 7 6.45214 7 7.00214C7 7.55214 6.55 8.00214 6 8.00214ZM11.11 18.0021H9.17L6.71 10.0021H6.81L11.11 18.0021Z" fill="black"/>
</svg>
