<svg width="24" height="24" viewBox="0 0 24 24" fill="none" xmlns="http://www.w3.org/2000/svg">
<path d="M20 6H8.3L16.56 2.66L15.88 1L3.24 6.15C2.51 6.43 2 7.17 2 8V20C2 20.5304 2.21071 21.0391 2.58579 21.4142C2.96086 21.7893 3.46957 22 4 22H20C20.5304 22 21.0391 21.7893 21.4142 21.4142C21.7893 21.0391 22 20.5304 22 20V8C22 6.89 21.11 6 20 6ZM20 8V11H18V9H16V11H4V8H20ZM4 20V13H20V20H4Z" fill="black"/>
<path d="M8 18.9766C9.38071 18.9766 10.5 17.8573 10.5 16.4766C10.5 15.0959 9.38071 13.9766 8 13.9766C6.61929 13.9766 5.5 15.0959 5.5 16.4766C5.5 17.8573 6.61929 18.9766 8 18.9766Z" fill="black"/>
</svg>
