<svg width="24" height="24" viewBox="0 0 24 24" fill="none" xmlns="http://www.w3.org/2000/svg">
<path d="M3 12C3 14.21 3.91 16.2 5.36 17.64L3 20H9V14L6.76 16.24C5.63474 15.1157 5.00173 13.5907 5 12C4.99995 10.7601 5.3847 9.55066 6.10116 8.53866C6.81762 7.52666 7.83048 6.76193 9 6.35V4.26C5.55 5.15 3 8.27 3 12ZM11 17H13V15H11V17ZM21 4H15V10L17.24 7.76C18.3653 8.88433 18.9983 10.4093 19 12C19 13.2399 18.6153 14.4493 17.8988 15.4613C17.1824 16.4733 16.1695 17.2381 15 17.65V19.74C18.45 18.85 21 15.73 21 12C21 9.79 20.09 7.8 18.64 6.36L21 4ZM11 13H13V7H11V13Z" fill="black"/>
</svg>
