<svg width="24" height="24" viewBox="0 0 24 24" fill="none" xmlns="http://www.w3.org/2000/svg">
<path d="M11.57 13.1619C10.21 13.4419 9.4 14.3219 9.4 15.5719C9.4 16.9119 10.51 17.9919 11.89 17.9919C13.94 17.9919 15.6 16.3319 15.6 14.2819C15.6 13.2119 15.45 12.1619 15.14 11.1619C14.35 12.2319 12.94 12.8819 11.57 13.1619ZM13.5 0.671875C13.5 0.671875 14.24 3.32187 14.24 5.47187C14.24 7.53187 12.89 9.20187 10.83 9.20187C8.76 9.20187 7.2 7.53187 7.2 5.47187L7.23 5.11188C5.21 7.51188 4 10.6219 4 14.0019C4 18.4219 7.58 22.0019 12 22.0019C16.42 22.0019 20 18.4219 20 14.0019C20 8.61188 17.41 3.80188 13.5 0.671875ZM12 20.0019C8.69 20.0019 6 17.3119 6 14.0019C6 12.4719 6.3 10.9619 6.86 9.57187C7.38147 10.0921 8.00073 10.5039 8.68209 10.7836C9.36346 11.0634 10.0935 11.2055 10.83 11.2019C13.49 11.2019 15.58 9.37187 16.11 6.77187C17.3493 8.98002 18.0002 11.4697 18 14.0019C18 17.3119 15.31 20.0019 12 20.0019Z" fill="black"/>
</svg>
