<svg width="24" height="24" viewBox="0 0 24 24" fill="none" xmlns="http://www.w3.org/2000/svg">
<path d="M6.00005 22.0025H22.0001V5.9725L6.00005 22.0025ZM20.0001 20.0025H18.0001V12.7825L20.0001 10.7825V20.0025ZM5.22005 7.2225L3.93005 5.9325C7.83005 2.0225 14.1701 2.0225 18.0801 5.9325L16.7901 7.2225C13.6001 4.0325 8.41005 4.0325 5.22005 7.2225ZM12.9301 11.0725L11.0001 13.0025L9.07005 11.0725C9.58328 10.5632 10.277 10.2774 11.0001 10.2774C11.7231 10.2774 12.4168 10.5632 12.9301 11.0725ZM14.2201 9.7925C12.4401 8.0225 9.56005 8.0225 7.79005 9.7925L6.50005 8.5025C7.69483 7.31148 9.31304 6.64269 11.0001 6.64269C12.6871 6.64269 14.3053 7.31148 15.5001 8.5025L14.2201 9.7925Z" fill="black"/>
</svg>
