<svg width="24" height="24" viewBox="0 0 24 24" fill="none" xmlns="http://www.w3.org/2000/svg">
<path d="M20.94 13.0025C20.7925 14.351 20.3375 15.6476 19.61 16.7925L18.14 15.3225C18.52 14.6125 18.79 13.8325 18.91 13.0025H20.94ZM8.67001 5.8425C9.69395 5.29268 10.8378 5.00414 12 5.0025C13.1275 5.00407 14.238 5.27759 15.2373 5.79985C16.2365 6.32211 17.095 7.07769 17.74 8.0025H15V10.0025H21V4.0025H19V6.3625C17.35 4.3225 14.83 3.0025 12 3.0025C10.24 3.0025 8.60001 3.5125 7.22001 4.3925L8.67001 5.8425ZM11 7.0025V8.1725L13 10.1725V7.0025H11ZM19.78 22.6125L16.78 19.6125C15.3497 20.5174 13.6926 20.9993 12 21.0025C9.61307 21.0025 7.32388 20.0543 5.63605 18.3665C3.94823 16.6786 3.00001 14.3894 3.00001 12.0025C3.00001 10.2425 3.51001 8.6025 4.39001 7.2225L1.39001 4.2225L2.80001 2.8125L21.18 21.1925L19.78 22.6125ZM15.32 18.1525L5.84001 8.6725C5.29019 9.69644 5.00165 10.8403 5.00001 12.0025C5.00001 15.8625 8.14001 19.0025 12 19.0025C13.2 19.0025 14.34 18.6925 15.32 18.1525Z" fill="black"/>
</svg>
