<svg width="24" height="24" viewBox="0 0 24 24" fill="none" xmlns="http://www.w3.org/2000/svg">
<path d="M16.79 5.8025L14 3.0025H21V10.0025L18.21 7.2025L14.12 11.2925L12.71 9.8825L16.79 5.8025ZM19 12.0025V16.1725L21 18.1725V12.0025H19ZM19.78 22.6125L18.17 21.0025H5.00001C4.46958 21.0025 3.96087 20.7918 3.5858 20.4167C3.21073 20.0416 3.00001 19.5329 3.00001 19.0025V5.8325L1.39001 4.2225L2.80001 2.8125L21.18 21.1925L19.78 22.6125ZM16.17 19.0025L11.29 14.1225L9.70001 15.7125L8.29001 14.3025L9.88001 12.7125L5.00001 7.8325V19.0025H16.17ZM7.83001 5.0025H12V3.0025H5.83001L7.83001 5.0025Z" fill="black"/>
</svg>
