<svg width="24" height="24" viewBox="0 0 24 24" fill="none" xmlns="http://www.w3.org/2000/svg">
<path d="M15 16.0004L11 20.0004H21V16.0004H15ZM12.06 7.19038L3 16.2504V20.0004H6.75L15.81 10.9404L12.06 7.19038ZM5.92 18.0004H5V17.0804L12.06 10.0204L12.98 10.9404L5.92 18.0004ZM18.71 8.04038C18.8027 7.94787 18.8763 7.83798 18.9264 7.71701C18.9766 7.59603 19.0024 7.46635 19.0024 7.33538C19.0024 7.20441 18.9766 7.07473 18.9264 6.95376C18.8763 6.83279 18.8027 6.7229 18.71 6.63038L16.37 4.29038C16.1825 4.10437 15.9291 4 15.665 4C15.4009 4 15.1475 4.10437 14.96 4.29038L13.13 6.12038L16.88 9.87038L18.71 8.04038Z" fill="black"/>
</svg>
