<svg width="24" height="24" viewBox="0 0 24 24" fill="none" xmlns="http://www.w3.org/2000/svg">
<path d="M10 17C10.8284 17 11.5 16.3284 11.5 15.5C11.5 14.6716 10.8284 14 10 14C9.17157 14 8.5 14.6716 8.5 15.5C8.5 16.3284 9.17157 17 10 17Z" fill="black"/>
<path d="M4 10.999V7.99901H11.29C11.1 7.36901 11 6.69901 11 5.99901H4.43C5.33 5.22901 7.71 4.91901 11.08 5.01901C11.18 4.31901 11.38 3.64901 11.67 3.02901C2.97 2.66901 2 5.01901 2 6.99901V16.499C2 18.429 3.57 19.999 5.5 19.999L4 20.999V21.999H16V20.999L14.5 19.999C16.43 19.999 18 18.429 18 16.499V12.999C16.09 12.999 14.37 12.239 13.11 10.999H4ZM16 16.499C16 17.329 15.33 17.999 14.5 17.999H5.5C4.67 17.999 4 17.329 4 16.499V12.999H16V16.499Z" fill="black"/>
<path d="M18 1C15.24 1 13 3.24 13 6C13 8.76 15.24 11 18 11C20.76 11 23 8.76 23 6C23 3.24 20.76 1 18 1ZM18.5 9H17.5V8H18.5V9ZM18.5 7H17.5V3H18.5V7Z" fill="black"/>
</svg>
