<svg width="24" height="24" viewBox="0 0 24 24" fill="none" xmlns="http://www.w3.org/2000/svg">
<path d="M15.82 7.22L14.82 7.62C14.61 7.46 14.39 7.33 14.15 7.23L14 6.17C13.98 6.07 13.9 6 13.8 6H12.2C12.1 6 12.02 6.07 12.01 6.17L11.86 7.23C11.62 7.33 11.39 7.46 11.19 7.62L10.19 7.22C10.1 7.19 9.99 7.22 9.95 7.31L9.15 8.69C9.12521 8.73198 9.11662 8.78158 9.12582 8.82946C9.13503 8.87734 9.16141 8.9202 9.2 8.95L10.05 9.61C10.02 9.73 10 9.87 10 10C10 10.13 10.01 10.26 10.03 10.39L9.19 11.05C9.15216 11.0781 9.12609 11.1192 9.11685 11.1654C9.10761 11.2116 9.11586 11.2595 9.14001 11.3L9.94 12.69C9.99 12.78 10.09 12.81 10.19 12.78L11.18 12.38C11.39 12.54 11.61 12.67 11.86 12.77L12 13.83C12.02 13.93 12.1 14 12.2 14H13.8C13.9 14 13.98 13.93 14 13.83L14.15 12.77C14.39 12.67 14.62 12.54 14.82 12.38L15.81 12.78C15.9 12.82 16.01 12.78 16.05 12.69L16.85 11.3C16.9 11.21 16.88 11.11 16.8 11.05L15.97 10.39C16.0098 10.1315 16.0098 9.86847 15.97 9.61L16.82 8.95C16.8586 8.9202 16.885 8.87734 16.8942 8.82946C16.9034 8.78158 16.8948 8.73198 16.87 8.69L16.07 7.31C16.02 7.22 15.91 7.19 15.82 7.22ZM13 11.43C12.8122 11.43 12.6263 11.393 12.4528 11.3211C12.2793 11.2493 12.1216 11.144 11.9888 11.0112C11.8561 10.8784 11.7507 10.7207 11.6789 10.5472C11.607 10.3737 11.57 10.1878 11.57 10C11.57 9.81221 11.607 9.62626 11.6789 9.45276C11.7507 9.27927 11.8561 9.12163 11.9888 8.98884C12.1216 8.85605 12.2793 8.75072 12.4528 8.67885C12.6263 8.60699 12.8122 8.57 13 8.57C13.3793 8.57 13.743 8.72066 14.0112 8.98884C14.2793 9.25701 14.43 9.62074 14.43 10C14.43 10.3793 14.2793 10.743 14.0112 11.0112C13.743 11.2793 13.3793 11.43 13 11.43Z" fill="black"/>
<path d="M19.94 9.06C19.51 5.79 16.71 3.2 13.41 3.01C13.27 3 13.14 3 13 3C9.46997 3 6.56997 5.61 6.07997 9L4.14997 12.48C3.73997 13.14 4.21997 14 4.99997 14H5.99997V16C5.99997 17.1 6.89997 18 7.99997 18H8.99997V21H16V16.32C17.3402 15.6822 18.4437 14.6358 19.1516 13.3313C19.8596 12.0268 20.1356 10.5313 19.94 9.06ZM14.89 14.63L14 15.05V19H11V16H7.99997V12H6.69997L8.02997 9.67C8.20997 7.06 10.35 5 13 5C15.76 5 18 7.24 18 10C18 12.09 16.71 13.88 14.89 14.63Z" fill="black"/>
</svg>
