<svg width="24" height="24" viewBox="0 0 24 24" fill="none" xmlns="http://www.w3.org/2000/svg">
<path d="M2.52998 19.65L3.86998 20.21V11.18L1.43998 17.04C1.02998 18.06 1.51998 19.23 2.52998 19.65ZM22.03 15.95L17.07 3.98C16.919 3.62226 16.6679 3.3158 16.3467 3.09756C16.0256 2.87932 15.6482 2.75862 15.26 2.75C15 2.75 14.73 2.79 14.47 2.9L7.09998 5.95C6.61342 6.15331 6.22691 6.54064 6.02462 7.02762C5.82234 7.5146 5.82067 8.06179 6.01998 8.55L10.98 20.52C11.1831 21.0067 11.5704 21.3934 12.0574 21.5957C12.5445 21.798 13.0918 21.7996 13.58 21.6L20.94 18.55C21.4292 18.3497 21.8189 17.9632 22.0233 17.4757C22.2277 16.9881 22.2301 16.4393 22.03 15.95ZM12.83 19.75L7.86998 7.79L15.22 4.75H15.23L20.18 16.7L12.83 19.75Z" fill="black"/>
<path d="M11 10C11.5523 10 12 9.55228 12 9C12 8.44772 11.5523 8 11 8C10.4477 8 10 8.44772 10 9C10 9.55228 10.4477 10 11 10Z" fill="black"/>
<path d="M5.88 19.7463C5.88 20.8463 6.78 21.7463 7.88 21.7463H9.33L5.88 13.4062V19.7463Z" fill="black"/>
</svg>
