<svg width="24" height="24" viewBox="0 0 24 24" fill="none" xmlns="http://www.w3.org/2000/svg">
<path d="M21.71 11.2924L12.71 2.29244C12.6174 2.19974 12.5076 2.12619 12.3866 2.07601C12.2656 2.02583 12.1359 2 12.005 2C11.874 2 11.7443 2.02583 11.6233 2.07601C11.5024 2.12619 11.3925 2.19974 11.3 2.29244L8.20996 5.38244L9.61996 6.79244L12 4.42244L19.58 12.0024L17.2 14.3824L18.61 15.7924L21.7 12.7024C22.1 12.3324 22.1 11.7024 21.71 11.2924Z" fill="black"/>
<path d="M13 7.5025V10.1725L15.17 12.3425L16.5 11.0025L13 7.5025ZM1.39001 4.2225L5.38001 8.2125L2.29001 11.3025C2.19731 11.395 2.12376 11.5049 2.07358 11.6259C2.0234 11.7468 1.99757 11.8765 1.99757 12.0075C1.99757 12.1385 2.0234 12.2682 2.07358 12.3891C2.12376 12.5101 2.19731 12.62 2.29001 12.7125L11.29 21.7125C11.68 22.1025 12.31 22.1025 12.7 21.7125L15.79 18.6225L19.78 22.6125L21.19 21.2025L2.81001 2.8125L1.39001 4.2225ZM8.03001 10.8525C8.02001 10.9025 7.99001 10.9525 7.99001 11.0025V15.0025H9.99001V12.8225L14.37 17.2025L12 19.5825L4.42001 12.0025L6.80001 9.6225L8.03001 10.8525Z" fill="black"/>
</svg>
