<svg width="24" height="24" viewBox="0 0 24 24" fill="none" xmlns="http://www.w3.org/2000/svg">
<path d="M23 11.9991L20.56 9.21906L20.9 5.53906L17.29 4.71906L15.4 1.53906L12 2.99906L8.6 1.53906L6.71 4.71906L3.1 5.52906L3.44 9.20906L1 11.9991L3.44 14.7791L3.1 18.4691L6.71 19.2891L8.6 22.4691L12 20.9991L15.4 22.4591L17.29 19.2791L20.9 18.4591L20.56 14.7791L23 11.9991ZM18.49 14.1091L18.75 16.8991L16.01 17.5191L14.58 19.9291L12 18.8191L9.42 19.9291L7.99 17.5191L5.25 16.8991L5.51 14.0991L3.66 11.9991L5.51 9.87906L5.25 7.09906L7.99 6.48906L9.42 4.07906L12 5.17906L14.58 4.06906L16.01 6.47906L18.75 7.09906L18.49 9.88906L20.34 11.9991L18.49 14.1091ZM11 14.9991H13V16.9991H11V14.9991ZM11 6.99906H13V12.9991H11V6.99906Z" fill="black"/>
</svg>
