<svg width="24" height="24" viewBox="0 0 24 24" fill="none" xmlns="http://www.w3.org/2000/svg">
<path d="M6 6C7.1 6 8 5.1 8 4C8 2.9 7.1 2 6 2C4.9 2 4 2.9 4 4C4 5.1 4.9 6 6 6ZM10 9.43C10 8.62 9.52 7.9 8.78 7.58C7.90315 7.19731 6.95673 6.99978 6 6.99978C5.04328 6.99978 4.09685 7.19731 3.22 7.58C2.85771 7.73485 2.54892 7.99277 2.33202 8.32168C2.11511 8.6506 1.99966 9.036 2 9.43V10H10V9.43ZM18 6C19.1 6 20 5.1 20 4C20 2.9 19.1 2 18 2C16.9 2 16 2.9 16 4C16 5.1 16.9 6 18 6ZM22 9.43C22 8.62 21.52 7.9 20.78 7.58C19.9031 7.19731 18.9567 6.99978 18 6.99978C17.0433 6.99978 16.0969 7.19731 15.22 7.58C14.8577 7.73485 14.5489 7.99277 14.332 8.32168C14.1151 8.6506 13.9997 9.036 14 9.43V10H22V9.43ZM19 17V14.99L5 15V17L2 14L5 11V13.01L19 13V11L22 14L19 17ZM10 19V18H7.5C7.22 18 7 18.22 7 18.5V21.5C7 21.78 7.22 22 7.5 22H9.5C9.78 22 10 21.78 10 21.5V20C10 19.72 9.78 19.5 9.5 19.5H8V19H10ZM9 20.5V21H8V20.5H9ZM17.5 19H16.5V22H15.5V19H14.5V18H17.5V19ZM12.5 19V19.5H13.5V20.5H12.5V22H11.5V18H14V19H12.5Z" fill="black"/>
</svg>
