<svg width="24" height="24" viewBox="0 0 24 24" fill="none" xmlns="http://www.w3.org/2000/svg">
<path d="M19.89 10.7501C19.96 11.1601 20 11.5701 20 12.0001C20 16.4101 16.41 20.0001 12 20.0001C7.59 20.0001 4 16.4101 4 12.0001C4 11.9501 4.01 11.9001 4 11.8601C6.6 10.8801 8.69 8.87006 9.74 6.31006C13.12 10.4501 17.71 10.0401 18.73 9.92006L17.84 7.99006C17.71 8.00006 13.22 8.37006 10.66 4.13006C11.67 3.97006 12.37 3.98006 13.25 4.12006C15.77 2.97006 15.18 3.23006 16.01 2.86006C14.7507 2.28849 13.3829 1.99516 12 2.00006C6.48 2.00006 2 6.48006 2 12.0001C2 17.5201 6.48 22.0001 12 22.0001C17.52 22.0001 22 17.5201 22 12.0001C22 10.5701 21.7 9.22006 21.16 7.99006L19.89 10.7501ZM8.08 5.03006C7.44901 6.91062 6.14559 8.49181 4.42 9.47006C5.05099 7.58951 6.35441 6.00831 8.08 5.03006Z" fill="black"/>
<path d="M15 14.25C15.6904 14.25 16.25 13.6904 16.25 13C16.25 12.3096 15.6904 11.75 15 11.75C14.3096 11.75 13.75 12.3096 13.75 13C13.75 13.6904 14.3096 14.25 15 14.25Z" fill="black"/>
<path d="M9 14.25C9.69036 14.25 10.25 13.6904 10.25 13C10.25 12.3096 9.69036 11.75 9 11.75C8.30964 11.75 7.75 12.3096 7.75 13C7.75 13.6904 8.30964 14.25 9 14.25Z" fill="black"/>
<path d="M23 4.5L20.6 3.4L19.5 1L18.4 3.4L16 4.5L18.4 5.6L19.5 8L20.6 5.6L23 4.5Z" fill="black"/>
</svg>
