<svg width="24" height="24" viewBox="0 0 24 24" fill="none" xmlns="http://www.w3.org/2000/svg">
<path d="M11 6.00001C12.38 6.00001 13.63 6.56001 14.54 7.46001L12 10H18V4.00001L15.95 6.05001C15.3007 5.39895 14.5292 4.88267 13.6797 4.53085C12.8301 4.17904 11.9195 3.99863 11 4.00001C7.47 4.00001 4.57 6.61001 4.08 10H6.1C6.33053 8.87064 6.94418 7.85561 7.8371 7.1267C8.73001 6.39779 9.84735 5.99977 11 6.00001ZM16.64 15.14C17.3216 14.2163 17.7616 13.137 17.92 12H15.9C15.6695 13.1294 15.0558 14.1444 14.1629 14.8733C13.27 15.6022 12.1527 16.0002 11 16C9.62 16 8.37 15.44 7.46 14.54L10 12H4V18L6.05 15.95C6.69927 16.6011 7.47085 17.1173 8.32035 17.4692C9.16985 17.821 10.0805 18.0014 11 18C12.55 18 13.98 17.49 15.14 16.64L20 21.49L21.49 20L16.64 15.14Z" fill="black"/>
</svg>
