<svg width="24" height="24" viewBox="0 0 24 24" fill="none" xmlns="http://www.w3.org/2000/svg">
<path d="M1.41 1.60156L0 3.01156L5 8.00156C3.34 8.00156 2 9.34156 2 11.0016V17.0016H6V21.0016H18L20.95 23.9616L22.36 22.5516L1.41 1.60156ZM6 15.0016H4V11.0016C4 10.4516 4.45 10.0016 5 10.0016H7L10 13.0016H6V15.0016ZM8 19.0016V15.0016H12L16 19.0016H8ZM8 5.00156H16V8.00156H10.66L12.66 10.0016H19C19.55 10.0016 20 10.4516 20 11.0016V15.0016L18 15.0116V13.0016H15.66L19.66 17.0016H22V11.0016C22 9.34156 20.66 8.00156 19 8.00156H18V3.00156H6V3.36156L8 5.36156V5.00156Z" fill="black"/>
<path d="M18 12.5078C18.5523 12.5078 19 12.0601 19 11.5078C19 10.9555 18.5523 10.5078 18 10.5078C17.4477 10.5078 17 10.9555 17 11.5078C17 12.0601 17.4477 12.5078 18 12.5078Z" fill="black"/>
</svg>
