<svg width="24" height="24" viewBox="0 0 24 24" fill="none" xmlns="http://www.w3.org/2000/svg">
<path d="M20 2H4.01C2.91 2 2.01 2.9 2.01 4L2 22L6 18H20C21.1 18 22 17.1 22 16V4C22 2.9 21.1 2 20 2ZM20 16H5.17L4 17.17V4H20V16ZM12 10C13.1 10 14 9.1 14 8C14 6.9 13.1 6 12 6C10.9 6 10 6.9 10 8C10 9.1 10.9 10 12 10ZM16 13.43C16 12.62 15.52 11.9 14.78 11.58C13.9031 11.1973 12.9567 10.9998 12 10.9998C11.0433 10.9998 10.0969 11.1973 9.22 11.58C8.85771 11.7349 8.54892 11.9928 8.33202 12.3217C8.11511 12.6506 7.99966 13.036 8 13.43V14H16V13.43Z" fill="black"/>
</svg>
