<svg width="24" height="24" viewBox="0 0 24 24" fill="none" xmlns="http://www.w3.org/2000/svg">
<path d="M16.48 2.52C19.75 4.07 22.0901 7.24 22.4501 11H23.9501C23.4401 4.84 18.29 0 12 0L11.34 0.03L15.15 3.84L16.48 2.52ZM10.23 1.75C10.0915 1.60971 9.9264 1.49833 9.74444 1.4223C9.56249 1.34628 9.36725 1.30714 9.17005 1.30714C8.97285 1.30714 8.77761 1.34628 8.59565 1.4223C8.41369 1.49833 8.24864 1.60971 8.11005 1.75L1.75005 8.11C1.60976 8.24859 1.49837 8.41364 1.42235 8.5956C1.34633 8.77756 1.30719 8.9728 1.30719 9.17C1.30719 9.3672 1.34633 9.56244 1.42235 9.7444C1.49837 9.92635 1.60976 10.0914 1.75005 10.23L13.77 22.25C14.36 22.84 15.31 22.84 15.89 22.25L22.25 15.89C22.84 15.3 22.84 14.35 22.25 13.77L10.23 1.75ZM14.83 21.19L2.81005 9.17L9.17005 2.81L21.1901 14.83L14.83 21.19ZM7.52005 21.48C5.87523 20.7053 4.46008 19.5163 3.41345 18.0296C2.36683 16.543 1.72469 14.8097 1.55005 13H0.0500488C0.560049 19.16 5.71005 24 12 24L12.66 23.97L8.85005 20.16L7.52005 21.48Z" fill="black"/>
</svg>
