<svg width="24" height="24" viewBox="0 0 24 24" fill="none" xmlns="http://www.w3.org/2000/svg">
<path d="M24 14.9994C24 12.3594 21.95 10.2194 19.35 10.0394C19.0141 8.33709 18.0976 6.80423 16.7571 5.70262C15.4165 4.60101 13.7351 3.99898 12 3.99938C10.67 3.99938 9.43 4.35937 8.35 4.96937L9.84 6.45938C10.51 6.16938 11.23 5.99938 12 5.99938C15.04 5.99938 17.5 8.45938 17.5 11.4994V11.9994H19C19.63 11.9989 20.2441 12.1971 20.755 12.5658C21.2659 12.9344 21.6476 13.4547 21.8459 14.0527C22.0441 14.6507 22.0488 15.296 21.8592 15.8968C21.6697 16.4976 21.2955 17.0234 20.79 17.3994L22.2 18.8094C23.29 17.8894 24 16.5394 24 14.9994ZM4.41 3.85938L3 5.26938L5.77 8.03938H5.35C3.88023 8.19821 2.52101 8.89458 1.53349 9.9947C0.545971 11.0948 -0.000171702 12.5211 4.04928e-08 13.9994C4.04928e-08 17.3094 2.69 19.9994 6 19.9994H17.73L19.73 21.9994L21.14 20.5894L4.41 3.85938ZM6 17.9994C3.79 17.9994 2 16.2094 2 13.9994C2 11.7894 3.79 9.99938 6 9.99938H7.73L15.73 17.9994H6Z" fill="black"/>
</svg>
