<svg width="24" height="24" viewBox="0 0 24 24" fill="none" xmlns="http://www.w3.org/2000/svg">
<path d="M20 4H16.83L15 2H9L7.17 4H4C2.9 4 2 4.9 2 6V18C2 19.1 2.9 20 4 20H20C21.1 20 22 19.1 22 18V6C22 4.9 21.1 4 20 4ZM20 18H4V6H8.05L8.64 5.35L9.88 4H14.12L15.36 5.35L15.95 6H20V18ZM9 12C9 10.34 10.34 9 12 9H15.98C15.06 7.79 13.63 7 12 7C11.2586 7.00021 10.5265 7.16523 9.85672 7.48312C9.18693 7.80101 8.59618 8.26382 8.12722 8.83806C7.65826 9.4123 7.32281 10.0836 7.14516 10.8034C6.9675 11.5232 6.95208 12.2735 7.1 13H9.18C9.07 12.69 9 12.35 9 12ZM15 12C15 13.66 13.66 15 12 15H8.02C8.94 16.21 10.37 17 12 17C12.7414 16.9998 13.4735 16.8348 14.1433 16.5169C14.8131 16.199 15.4038 15.7362 15.8728 15.1619C16.3417 14.5877 16.6772 13.9164 16.8548 13.1966C17.0325 12.4768 17.0479 11.7265 16.9 11H14.82C14.93 11.31 15 11.65 15 12Z" fill="black"/>
</svg>
