<svg width="24" height="24" viewBox="0 0 24 24" fill="none" xmlns="http://www.w3.org/2000/svg">
<path d="M12 6C13.1046 6 14 5.10457 14 4C14 2.89543 13.1046 2 12 2C10.8954 2 10 2.89543 10 4C10 5.10457 10.8954 6 12 6Z" fill="black"/>
<path d="M19.0001 13.0004V11.0004C17.4601 11.0204 15.9101 10.2504 14.9301 9.17041L13.6401 7.74041C13.4701 7.55041 13.2601 7.40041 13.0301 7.29041C13.0201 7.29041 13.0201 7.28041 13.0101 7.28041H13.0001C12.6501 7.08041 12.2501 6.98041 11.8101 7.02041C10.7601 7.11041 10.0001 8.04041 10.0001 9.09041V15.0004C10.0001 16.1004 10.9001 17.0004 12.0001 17.0004H17.0001V22.0004H19.0001V16.5004C19.0001 15.4004 18.1001 14.5004 17.0001 14.5004H14.0001V11.0504C15.2901 12.1204 17.2501 12.9904 19.0001 13.0004ZM10.0001 20.0004C8.34006 20.0004 7.00006 18.6604 7.00006 17.0004C7.00006 15.6904 7.84006 14.5904 9.00006 14.1704V12.1004C8.11515 12.2813 7.29576 12.6985 6.62893 13.3077C5.9621 13.9169 5.47274 14.6953 5.21283 15.5603C4.95293 16.4253 4.93218 17.3446 5.15279 18.2204C5.37341 19.0963 5.82715 19.896 6.46581 20.5347C7.10447 21.1733 7.9042 21.6271 8.78005 21.8477C9.6559 22.0683 10.5752 22.0475 11.4402 21.7876C12.3052 21.5277 13.0836 21.0384 13.6928 20.3715C14.302 19.7047 14.7192 18.8853 14.9001 18.0004H12.8301C12.4201 19.1604 11.3101 20.0004 10.0001 20.0004Z" fill="black"/>
</svg>
