<svg width="24" height="24" viewBox="0 0 24 24" fill="none" xmlns="http://www.w3.org/2000/svg">
<path d="M10 14H10.74L8.82 5.56002C8.71868 5.11811 8.47086 4.72346 8.11683 4.44024C7.7628 4.15702 7.32338 4.00187 6.87 4.00002H3V6.00002H6.87L8.29 12.25H8.28C7.20851 12.573 6.24851 13.1888 5.50821 14.028C4.7679 14.8673 4.27671 15.8966 4.09 17H0V19H6V18C6 15.79 7.79 14 10 14ZM19 8.00002H18.18L16.83 4.31002C16.6922 3.92501 16.4383 3.59224 16.1034 3.3576C15.7684 3.12297 15.3689 2.99803 14.96 3.00002H11V5.00002H14.96L16.06 8.00002H10.4L10.86 10H15C14.57 10.58 14.25 11.25 14.1 12H11.31L11.77 14H14.1C14.54 16.23 16.41 17.88 18.75 17.99C21.55 18.12 24 15.8 24 12.99C24 10.2 21.8 8.00002 19 8.00002ZM19 16C17.32 16 16 14.68 16 13C16 12.07 16.41 11.27 17.05 10.72L18.01 13.36L19.89 12.68L18.92 10.01C18.95 10.01 18.98 10 19.01 10C20.69 10 22.01 11.32 22.01 13C22.01 14.68 20.68 16 19 16Z" fill="black"/>
<path d="M10 15C8.34 15 7 16.34 7 18C7 19.66 8.34 21 10 21C11.66 21 13 19.66 13 18C13 16.34 11.66 15 10 15ZM10 19C9.45 19 9 18.55 9 18C9 17.45 9.45 17 10 17C10.55 17 11 17.45 11 18C11 18.55 10.55 19 10 19Z" fill="black"/>
</svg>
