<svg width="24" height="24" viewBox="0 0 24 24" fill="none" xmlns="http://www.w3.org/2000/svg">
<path d="M12 4C16.41 4 20 7.59 20 12C20 13.48 19.59 14.86 18.88 16.06L20.34 17.52C21.425 15.8837 22.0024 13.9633 22 12C22 6.48 17.52 2 12 2C9.96002 2 8.07002 2.61 6.49002 3.66L7.95002 5.12C9.17354 4.38646 10.5735 3.99932 12 4ZM14.91 12.08L17.5 6.5L11.92 9.09L14.91 12.08ZM2.10002 4.93L3.66002 6.49C2.57386 8.12204 1.99617 10.0396 2.00002 12C2.00002 17.52 6.48002 22 12 22C14.04 22 15.93 21.39 17.51 20.34L19.07 21.9L20.48 20.49L3.51002 3.51L2.10002 4.93ZM5.12002 7.94L9.10002 11.92L6.50002 17.5L12.08 14.91L16.06 18.89C14.86 19.59 13.48 20 12 20C7.59002 20 4.00002 16.41 4.00002 12C4.00002 10.52 4.41002 9.14 5.12002 7.94Z" fill="black"/>
</svg>
