<svg width="24" height="24" viewBox="0 0 24 24" fill="none" xmlns="http://www.w3.org/2000/svg">
<path d="M18.6 19.4969H21V21.4969H15V15.4969H17V18.2269C18.83 16.7569 20 14.5169 20 11.9969C20 7.92687 16.94 4.55688 13 4.06688V2.04688C18.05 2.54688 22 6.80687 22 11.9969C22 14.9869 20.68 17.6669 18.6 19.4969ZM4 11.9969C4 9.47687 5.17 7.22688 7 5.76688V8.49687H9V2.49688H3V4.49688H5.4C4.3316 5.43256 3.47553 6.58579 2.88915 7.87929C2.30276 9.17279 1.99961 10.5767 2 11.9969C2 17.1869 5.95 21.4469 11 21.9469V19.9269C7.06 19.4369 4 16.0669 4 11.9969ZM16.24 8.10687L10.58 13.7669L7.75 10.9369L6.34 12.3469L10.58 16.5869L17.65 9.51688L16.24 8.10687Z" fill="black"/>
</svg>
