<svg width="24" height="24" viewBox="0 0 24 24" fill="none" xmlns="http://www.w3.org/2000/svg">
<path d="M5 13C5.59539 12.9995 6.17718 12.8219 6.67129 12.4897C7.1654 12.1575 7.5495 11.6858 7.77468 11.1346C7.99987 10.5835 8.05596 9.97776 7.93581 9.39462C7.81566 8.81147 7.52471 8.27727 7.1 7.86C6.51 7.29 5.75 7 5 7C4.40461 7.00049 3.82282 7.17813 3.32871 7.51032C2.8346 7.8425 2.4505 8.3142 2.22532 8.86536C2.00013 9.41653 1.94404 10.0222 2.06419 10.6054C2.18434 11.1885 2.47529 11.7227 2.9 12.14C3.49 12.71 4.25 13 5 13ZM4.29 9.3C4.47471 9.11107 4.72668 9.00291 4.99087 8.99917C5.25507 8.99542 5.51001 9.09638 5.7 9.28C6.1 9.67 6.1 10.29 5.72 10.69C5.52 10.89 5.27 11 5 11C4.74 11 4.49 10.9 4.3 10.72C3.9 10.32 3.9 9.7 4.29 9.3ZM18 7H9V13H22V11C22 8.79 20.21 7 18 7ZM11 11V9H18C19.1 9 20 9.9 20 11H11ZM2 16H8V18H16V16H22V14H2V16Z" fill="black"/>
</svg>
