<svg width="24" height="24" viewBox="0 0 24 24" fill="none" xmlns="http://www.w3.org/2000/svg">
<path d="M23 11.01L18 11C17.45 11 17 11.45 17 12V21C17 21.55 17.45 22 18 22H23C23.55 22 24 21.55 24 21V12C24 11.45 23.55 11.01 23 11.01ZM23 20H18V13H23V20ZM20 2H2C0.89 2 0 2.89 0 4V16C0 16.5304 0.210714 17.0391 0.585786 17.4142C0.960859 17.7893 1.46957 18 2 18H9V20H7V22H15V20H13V18H15V16H2V4H20V9H22V4C22 3.46957 21.7893 2.96086 21.4142 2.58579C21.0391 2.21071 20.5304 2 20 2ZM11.97 9L11 6L10.03 9H7L9.47 10.76L8.53 13.67L11 11.87L13.47 13.67L12.53 10.76L15 9H11.97Z" fill="black"/>
</svg>
