<svg width="24" height="24" viewBox="0 0 24 24" fill="none" xmlns="http://www.w3.org/2000/svg">
<path d="M14 2H6C4.9 2 4.01 2.9 4.01 4L4 20C4 21.1 4.89 22 5.99 22H18C19.1 22 20 21.1 20 20V8L14 2ZM18 20H6V4H13.17L18 8.83V20ZM8.45 10.57L7.28 9.4V13H10.88L9.44 11.56C9.7038 11.0468 10.1035 10.6158 10.5955 10.3143C11.0875 10.0127 11.6529 9.85213 12.23 9.85C13.0654 9.85 13.8666 10.1819 14.4574 10.7726C15.0481 11.3634 15.38 12.1646 15.38 13C15.38 13.8354 15.0481 14.6366 14.4574 15.2274C13.8666 15.8181 13.0654 16.15 12.23 16.15C11.7229 16.15 11.2234 16.0272 10.7741 15.7921C10.3248 15.557 9.93907 15.2166 9.65 14.8H8.1C8.45099 15.6011 9.02733 16.2828 9.75883 16.7622C10.4903 17.2415 11.3454 17.4979 12.22 17.5C14.7 17.5 16.72 15.48 16.72 13C16.72 10.52 14.7 8.5 12.22 8.5C10.63 8.5 9.25 9.33 8.45 10.57Z" fill="black"/>
</svg>
