<svg width="24" height="24" viewBox="0 0 24 24" fill="none" xmlns="http://www.w3.org/2000/svg">
<path d="M1 9.00563L3 11.0056C7.97 6.03563 16.03 6.03563 21 11.0056L23 9.00563C16.93 2.93563 7.08 2.93563 1 9.00563ZM9 17.0056L12 20.0056L15 17.0056C14.6064 16.611 14.1388 16.2979 13.624 16.0842C13.1092 15.8706 12.5574 15.7606 12 15.7606C11.4426 15.7606 10.8908 15.8706 10.376 16.0842C9.86117 16.2979 9.39359 16.611 9 17.0056ZM5 13.0056L7 15.0056C8.32646 13.6803 10.1249 12.9358 12 12.9358C13.8751 12.9358 15.6735 13.6803 17 15.0056L19 13.0056C15.14 9.14562 8.87 9.14562 5 13.0056Z" fill="black"/>
</svg>
