<svg width="24" height="24" viewBox="0 0 24 24" fill="none" xmlns="http://www.w3.org/2000/svg">
<path d="M13 5.07687C14.4929 5.29394 15.8758 5.98752 16.9426 7.05429C18.0094 8.12106 18.7029 9.50393 18.92 10.9969H21.95C21.48 6.27688 17.72 2.51687 13 2.04688V5.07687ZM18.92 12.9969C18.7029 14.4898 18.0094 15.8727 16.9426 16.9395C15.8758 18.0062 14.4929 18.6998 13 18.9169V21.9469C17.72 21.4769 21.48 17.7169 21.95 12.9969H18.92ZM11 18.9169C7.61 18.4269 5 15.5169 5 11.9969C5 8.47687 7.61 5.56687 11 5.07687V2.04688C5.95 2.54688 2 6.80687 2 11.9969C2 17.1869 5.95 21.4469 11 21.9469V18.9169Z" fill="black"/>
</svg>
