<svg width="24" height="24" viewBox="0 0 24 24" fill="none" xmlns="http://www.w3.org/2000/svg">
<path d="M18 18.4974V17.4974C18 16.6974 17.3 15.9974 16.5 15.9974H13V21.9974H14.5V19.9974H15.6L16.5 21.9974H18L17.1 19.8974C17.6 19.5974 18 19.0974 18 18.4974ZM16.5 18.4974H14.5V17.4974H16.5V18.4974ZM3.5 17.9974H1.5V15.9974H0V21.9974H1.5V19.4974H3.5V21.9974H5V15.9974H3.5V17.9974ZM10 15.9974H6.5V21.9974H10C10.8 21.9974 11.5 21.2974 11.5 20.4974V17.4974C11.5 16.6974 10.8 15.9974 10 15.9974ZM10 20.4974H8V17.4974H10V20.4974ZM24 19.9974H22V21.9974H20.5V19.9974H18.5V18.4974H20.5V16.4974H22V18.4974H24V19.9974ZM10.98 4.14745L9.42 2.58745C14.52 0.167446 19.83 5.47745 17.41 10.5774L15.85 9.01745C16.66 6.05745 13.94 3.33745 10.98 4.14745ZM6.34 2.33745L4.93 3.75745L6.59 5.41745C4.17 10.5174 9.48 15.8274 14.58 13.4074L16.24 15.0674L17.65 13.6574L6.34 2.33745ZM8.15 6.97745L13.02 11.8474C10.06 12.6574 7.34 9.93745 8.15 6.97745Z" fill="black"/>
</svg>
