<svg width="24" height="24" viewBox="0 0 24 24" fill="none" xmlns="http://www.w3.org/2000/svg">
<path d="M19.28 4.93156L17.16 2.81156C16.38 2.03156 15.11 2.03156 14.33 2.81156L11.5 5.64156L13.62 7.76156L15.74 5.64156L19.28 9.18156C19.8419 8.6171 20.1574 7.85304 20.1574 7.05656C20.1574 6.26008 19.8419 5.49603 19.28 4.93156ZM5.48999 13.7716C6.07999 14.3616 7.02999 14.3616 7.60999 13.7716L10.08 11.3016L7.95999 9.17156L5.48999 11.6416C4.89999 12.2316 4.89999 13.1816 5.48999 13.7716Z" fill="black"/>
<path d="M15.04 7.75813L14.33 8.46813L13.62 9.17813L10.44 5.99813C9.84997 5.39813 8.89997 5.39813 8.31997 5.98813C8.17968 6.12672 8.0683 6.29178 7.99228 6.47374C7.91625 6.65569 7.87711 6.85093 7.87711 7.04813C7.87711 7.24533 7.91625 7.44057 7.99228 7.62253C8.0683 7.80449 8.17968 7.96954 8.31997 8.10813L11.5 11.2881L10.79 11.9981L4.42997 18.3581C3.64997 19.1381 3.64997 20.4081 4.42997 21.1881C5.20997 21.9681 6.47997 21.9681 7.25997 21.1881L16.45 11.9981C16.5426 12.0907 16.6525 12.1642 16.7734 12.2143C16.8944 12.2644 17.024 12.2902 17.155 12.2902C17.2859 12.2902 17.4155 12.2644 17.5365 12.2143C17.6575 12.1642 17.7674 12.0907 17.86 11.9981C17.9526 11.9056 18.026 11.7956 18.0761 11.6747C18.1262 11.5537 18.152 11.4241 18.152 11.2931C18.152 11.1622 18.1262 11.0326 18.0761 10.9116C18.026 10.7906 17.9526 10.6807 17.86 10.5881L15.04 7.75813Z" fill="black"/>
</svg>
