<svg width="24" height="24" viewBox="0 0 24 24" fill="none" xmlns="http://www.w3.org/2000/svg">
<path d="M20 4H4C2.9 4 2 4.9 2 6V18C2 19.1 2.9 20 4 20H20C21.1 20 22 19.1 22 18V6C22 4.9 21.1 4 20 4ZM20 18H4V6H20V18Z" fill="black"/>
<path d="M8.29 15.7069C7.8016 15.2204 7.41413 14.6422 7.14984 14.0055C6.88556 13.3688 6.74968 12.6862 6.75 11.9969C6.75 10.6469 7.27 9.30687 8.28 8.27687L7.05 7.04688C5.68 8.40688 5 10.2069 5 11.9969C5 13.7869 5.68 15.5869 7.06 16.9369L8.29 15.7069ZM12 15.4969C13.93 15.4969 15.5 13.9269 15.5 11.9969C15.5 10.0669 13.93 8.49687 12 8.49687C10.07 8.49687 8.5 10.0669 8.5 11.9969C8.5 13.9269 10.07 15.4969 12 15.4969ZM12 10.4969C12.83 10.4969 13.5 11.1669 13.5 11.9969C13.5 12.8269 12.83 13.4969 12 13.4969C11.17 13.4969 10.5 12.8269 10.5 11.9969C10.5 11.1669 11.17 10.4969 12 10.4969ZM15.72 15.7169L16.95 16.9469C18.32 15.5869 19 13.7869 19 11.9969C19 10.2069 18.32 8.40687 16.94 7.05687L15.71 8.28687C16.1984 8.77336 16.5859 9.35155 16.8502 9.98822C17.1144 10.6249 17.2503 11.3075 17.25 11.9969C17.25 13.3469 16.73 14.6869 15.72 15.7169Z" fill="black"/>
</svg>
