<svg width="24" height="24" viewBox="0 0 24 24" fill="none" xmlns="http://www.w3.org/2000/svg">
<path d="M12 2C6.48 2 2 6.48 2 12C2 17.52 6.48 22 12 22C17.52 22 22 17.52 22 12C22 6.48 17.52 2 12 2ZM12 20C7.59 20 4 16.41 4 12C4 7.59 7.59 4 12 4C16.41 4 20 7.59 20 12C20 16.41 16.41 20 12 20ZM16.29 10.19C16.113 9.30158 15.6644 8.49006 15.0063 7.86757C14.3481 7.24508 13.5129 6.84234 12.616 6.715C11.7191 6.58766 10.8048 6.742 9.99945 7.15669C9.19406 7.57139 8.53733 8.22597 8.12 9.03C7.26276 9.11983 6.46928 9.52432 5.89299 10.1653C5.31669 10.8062 4.99852 11.6381 5 12.5C5 14.43 6.57 16 8.5 16H16.08C17.69 16 19 14.69 19 13.08C19 11.54 17.8 10.29 16.29 10.19ZM16 14H8.5C7.67 14 7 13.33 7 12.5C7 11.67 7.67 11 8.5 11H9.4L9.89 9.95C10.117 9.5133 10.4739 9.15782 10.9115 8.93261C11.3491 8.70741 11.8458 8.6236 12.3331 8.69274C12.8204 8.76188 13.2742 8.98056 13.6319 9.31861C13.9895 9.65666 14.2335 10.0974 14.33 10.58L14.61 12H16C16.55 12 17 12.45 17 13C17 13.55 16.55 14 16 14Z" fill="black"/>
</svg>
