<svg width="24" height="24" viewBox="0 0 24 24" fill="none" xmlns="http://www.w3.org/2000/svg">
<path d="M21 5H3C1.9 5 1 5.9 1 7V17C1 18.1 1.9 19 3 19H21C22.1 19 23 18.1 23 17V7C23 5.9 22.1 5 21 5ZM19 17H5V7H19V17ZM10 16H14C14.55 16 15 15.55 15 15V12C15 11.45 14.55 11 14 11V10C14 9.46957 13.7893 8.96086 13.4142 8.58579C13.0391 8.21071 12.5304 8 12 8C11.4696 8 10.9609 8.21071 10.5858 8.58579C10.2107 8.96086 10 9.46957 10 10V11C9.45 11 9 11.45 9 12V15C9 15.55 9.45 16 10 16ZM10.8 10C10.8 9.34 11.34 8.8 12 8.8C12.66 8.8 13.2 9.34 13.2 10V11H10.8V10Z" fill="black"/>
</svg>
