<svg width="24" height="24" viewBox="0 0 24 24" fill="none" xmlns="http://www.w3.org/2000/svg">
<path d="M16.5 4.38281C17.6046 4.38281 18.5 3.48738 18.5 2.38281C18.5 1.27824 17.6046 0.382812 16.5 0.382812C15.3954 0.382812 14.5 1.27824 14.5 2.38281C14.5 3.48738 15.3954 4.38281 16.5 4.38281Z" fill="black"/>
<path d="M24 11.8763V7.17625L18.95 5.03625C17.98 4.62625 16.86 4.97625 16.3 5.87625L15.3 7.47625C14.63 8.65625 13.39 9.53625 11.89 9.79625L11.95 9.85625C12.64 10.5462 13.47 10.9262 14.41 11.0262C15.21 10.6062 15.93 10.0463 16.5 9.38625L17.1 12.3863L15.94 13.4862L15 14.3763V21.8762H17V15.8763L19.1 13.8763L20.9 21.8762H23L20.82 10.8763L20.2 7.77625L22 8.47625V11.8763H24ZM10.29 8.08625C10.51 8.23625 10.76 8.32625 11.01 8.37625C11.14 8.39625 11.26 8.41625 11.39 8.41625C11.52 8.41625 11.65 8.40625 11.77 8.37625C11.9 8.35625 12.02 8.31625 12.14 8.26625C12.38 8.16625 12.61 8.02625 12.8 7.82625C13.29 7.33625 13.47 6.65625 13.35 6.02625C13.28 5.65625 13.1 5.28625 12.8 4.99625C12.61 4.80625 12.38 4.65625 12.14 4.55625C12.02 4.50625 11.9 4.46625 11.77 4.44625C11.64 4.42625 11.52 4.40625 11.39 4.40625C11.27 4.40625 11.16 4.41625 11.04 4.43625C10.9 4.45625 10.76 4.49625 10.63 4.54625C10.4 4.65625 10.17 4.80625 9.97996 4.99625C9.67996 5.28625 9.49996 5.65625 9.42996 6.02625C9.30996 6.65625 9.48996 7.33625 9.97996 7.82625C10.07 7.92625 10.18 8.00625 10.29 8.08625Z" fill="black"/>
<path d="M11.24 10.5566L9.24005 8.55656C9.14005 8.45656 9.04005 8.37656 8.93005 8.29656C8.71137 8.15566 8.46647 8.06042 8.21005 8.01656C8.08005 7.98656 7.96005 7.97656 7.83005 7.97656C7.32005 7.97656 6.81005 8.17656 6.42005 8.56656L3.08005 11.9066C2.67005 12.3166 2.46005 12.8866 2.50005 13.4466C2.50005 13.6266 2.54005 13.8166 2.61005 13.9966L3.68005 16.9466L0.0500488 20.5766L1.46005 21.9966L5.70005 17.7566V15.5366L7.00005 16.7466V21.8766H9.00005V15.8766L6.88005 13.7566L9.24005 11.3966L9.95005 12.1066C11.24 13.3666 12.92 14.1466 14.98 14.1466L14.84 12.0766C13.34 12.0566 12.14 11.4566 11.24 10.5566Z" fill="black"/>
</svg>
