<svg width="24" height="24" viewBox="0 0 24 24" fill="none" xmlns="http://www.w3.org/2000/svg">
<path d="M20.75 16C21.0815 16 21.3995 15.8683 21.6339 15.6339C21.8683 15.3995 22 15.0815 22 14.75C22 14.4185 21.8683 14.1005 21.6339 13.8661C21.3995 13.6317 21.0815 13.5 20.75 13.5H12V12.5H18.75C19.44 12.5 20 11.94 20 11.25C20 10.58 19.47 10.05 18.82 10.01L8.87 10L10.35 7.4C10.44 7.23 10.49 7.06 10.49 6.86C10.49 6.6 10.4 6.36 10.23 6.16L9.12 5L1.94 11.8C1.34 12.36 1 13.15 1 13.97V20C1 21.66 2.34 23 4 23H17.75C18.0815 23 18.3995 22.8683 18.6339 22.6339C18.8683 22.3995 19 22.0815 19 21.75C19 21.4185 18.8683 21.1005 18.6339 20.8661C18.3995 20.6317 18.0815 20.5 17.75 20.5H12V19.5H19.75C20.0815 19.5 20.3995 19.3683 20.6339 19.1339C20.8683 18.8995 21 18.5815 21 18.25C21 17.9185 20.8683 17.6005 20.6339 17.3661C20.3995 17.1317 20.0815 17 19.75 17H12V16H20.75ZM10 21H4C3.45 21 3 20.55 3 20V14C3 13.61 3.23 13.36 3.36 13.25L7 9.87V12H10V21ZM13.5 9C14.33 9 15 8.33 15 7.5C15 6.66 13.5 5 13.5 5C13.5 5 12 6.66 12 7.5C12 8.33 12.67 9 13.5 9ZM18.5 1C18.5 1 16 3.83 16 5.5C16 6.16304 16.2634 6.79893 16.7322 7.26777C17.2011 7.73661 17.837 8 18.5 8C19.163 8 19.7989 7.73661 20.2678 7.26777C20.7366 6.79893 21 6.16304 21 5.5C21 3.83 18.5 1 18.5 1ZM18.5 6.5C17.95 6.5 17.5 6.05 17.5 5.5C17.5 5.1 17.93 4.28 18.5 3.45C19.07 4.28 19.5 5.1 19.5 5.5C19.5 6.05 19.05 6.5 18.5 6.5Z" fill="black"/>
</svg>
