<svg width="24" height="24" viewBox="0 0 24 24" fill="none" xmlns="http://www.w3.org/2000/svg">
<path d="M14 2H6C4.9 2 4 2.9 4 4V20C4 21.1 4.89 22 5.99 22H18C19.1 22 20 21.1 20 20V8L14 2ZM18 20H6V4H13V9H18V20Z" fill="black"/>
<path d="M9.03001 11.0273C8.70437 11.352 8.44601 11.7377 8.26972 12.1625C8.09343 12.5872 8.00269 13.0425 8.00269 13.5023C8.00269 13.9622 8.09343 14.4175 8.26972 14.8422C8.44601 15.2669 8.70437 15.6527 9.03001 15.9773C9.56222 16.5088 10.2523 16.8535 10.9968 16.9598C11.7413 17.0662 12.5003 16.9285 13.16 16.5673L15.04 18.4473L16.45 17.0373L14.57 15.1573C15.28 13.8273 15.1 12.1473 13.98 11.0273C13.6553 10.7017 13.2696 10.4433 12.8449 10.267C12.4202 10.0907 11.9649 10 11.505 10C11.0452 10 10.5899 10.0907 10.1651 10.267C9.74043 10.4433 9.35469 10.7017 9.03001 11.0273ZM12.56 14.5573C11.97 15.1473 11.02 15.1473 10.44 14.5573C10.2997 14.4187 10.1883 14.2537 10.1123 14.0717C10.0363 13.8898 9.99715 13.6945 9.99715 13.4973C9.99715 13.3001 10.0363 13.1049 10.1123 12.9229C10.1883 12.741 10.2997 12.5759 10.44 12.4373C10.5786 12.297 10.7437 12.1857 10.9256 12.1096C11.1076 12.0336 11.3028 11.9945 11.5 11.9945C11.6972 11.9945 11.8925 12.0336 12.0744 12.1096C12.2564 12.1857 12.4214 12.297 12.56 12.4373C13.15 13.0273 13.15 13.9673 12.56 14.5573Z" fill="black"/>
</svg>
