<svg width="24" height="24" viewBox="0 0 24 24" fill="none" xmlns="http://www.w3.org/2000/svg">
<path d="M6 6.5C6.31 6.5 6.7 6.65 6.9 7.06C7.14 7.56 6.92 8.16 6.43 8.4C6.31336 8.45776 6.18637 8.49167 6.05646 8.49976C5.92655 8.50786 5.79633 8.48996 5.67342 8.44713C5.55051 8.4043 5.43738 8.33739 5.34064 8.25031C5.24389 8.16323 5.16549 8.05774 5.11 7.94C5.05004 7.82222 5.01437 7.69359 5.00512 7.56175C4.99586 7.42991 5.0132 7.29755 5.05612 7.17255C5.09903 7.04754 5.16663 6.93244 5.25491 6.83408C5.34319 6.73573 5.45034 6.65612 5.57 6.6C5.71 6.54 5.85 6.5 6 6.5ZM12.47 8.61L19.16 11.02C19.68 11.21 20.09 11.58 20.31 12.07C20.53 12.55 20.56 13.1 20.37 13.6L20.36 13.62L11.77 10.51L12.47 8.61ZM10 15.19L14 16.63V17H10V15.19ZM6 4.5C5.56 4.5 5.12 4.6 4.7 4.8C4.34483 4.97003 4.02674 5.20855 3.764 5.50185C3.50126 5.79515 3.29904 6.13747 3.16896 6.50914C3.03887 6.8808 2.98349 7.27451 3.00597 7.66764C3.02846 8.06077 3.12838 8.44559 3.3 8.8C3.46983 9.15535 3.70823 9.47363 4.0015 9.73652C4.29477 9.99941 4.63712 10.2017 5.00886 10.3318C5.3806 10.4619 5.77439 10.5173 6.16759 10.4946C6.56079 10.472 6.94564 10.3719 7.3 10.2C8.01536 9.85432 8.56503 9.23983 8.82916 8.49052C9.09329 7.74121 9.05046 6.91786 8.71 6.2C8.46345 5.69079 8.07852 5.26128 7.59925 4.96063C7.11999 4.65998 6.56576 4.50035 6 4.5ZM11.28 6.05L9.2 11.71L21.56 16.18L22.25 14.29C22.4327 13.7938 22.5153 13.2663 22.4929 12.738C22.4705 12.2097 22.3435 11.6911 22.1194 11.2122C21.8953 10.7333 21.5784 10.3036 21.1872 9.94788C20.7959 9.59219 20.338 9.3176 19.84 9.14L11.28 6.05ZM2.19 10.25L1.5 12.14L8 14.48V19H16V17.37L20.52 19L21.21 17.11L2.19 10.25Z" fill="black"/>
</svg>
