<svg width="24" height="24" viewBox="0 0 24 24" fill="none" xmlns="http://www.w3.org/2000/svg">
<path d="M17.5 15.0022V13.0022H18.6L19.5 15.0022H21L20.1 12.9022C20.6 12.6022 21 12.1022 21 11.5022V10.5022C21 9.70219 20.3 9.00219 19.5 9.00219H16V13.8622L17.14 15.0022H17.5ZM17.5 10.5022H19.5V11.5022H17.5V10.5022ZM13 10.5022V10.8622L14.5 12.3622V10.5022C14.5 9.70219 13.8 9.00219 13 9.00219H11.14L12.64 10.5022H13ZM2.50995 2.49219L1.44995 3.55219L6.89995 9.00219H6.49995V11.0022H4.49995V9.00219H2.99995V15.0022H4.49995V12.5022H6.49995V15.0022H7.99995V10.1022L9.49995 11.6022V15.0022H12.9L20.5 22.6022L21.5599 21.5422L2.50995 2.49219Z" fill="black"/>
</svg>
