<svg width="24" height="24" viewBox="0 0 24 24" fill="none" xmlns="http://www.w3.org/2000/svg">
<path d="M21 7C21 6.62924 20.9177 6.26311 20.7588 5.92812C20.5999 5.59313 20.3685 5.29768 20.0813 5.06316C19.7941 4.82864 19.4584 4.66093 19.0984 4.57218C18.7385 4.48342 18.3632 4.47585 18 4.55V4C18.0002 3.6144 17.9112 3.23397 17.74 2.88847C17.5688 2.54297 17.32 2.24175 17.013 2.00838C16.706 1.77501 16.3493 1.61581 15.9705 1.54323C15.5918 1.47065 15.2015 1.48666 14.83 1.59C14.6457 1.12195 14.3251 0.720084 13.9096 0.436556C13.4941 0.153028 13.003 0.000929541 12.5 0C11.27 0 10.25 0.89 10.04 2.06C9.67472 1.9792 9.29599 1.98139 8.9317 2.06643C8.56741 2.15146 8.22684 2.31716 7.93511 2.55132C7.64337 2.78547 7.40791 3.08211 7.24606 3.41937C7.08422 3.75663 7.00012 4.12592 6.99997 4.5V10.39C6.65997 10.08 6.23997 9.85 5.77997 9.73L5.00997 9.52C4.17997 9.29 3.30997 9.61 2.81997 10.35C2.43997 10.92 2.41997 11.66 2.66997 12.3L5.22997 18.73C5.84798 20.2858 6.91916 21.6201 8.30462 22.5598C9.69008 23.4995 11.3259 24.0012 13 24C17.42 24 21 20.42 21 16V7ZM19 16C19 19.31 16.31 22 13 22C10.39 22 8.04997 20.41 7.08997 17.99L4.48997 11.45L5.01997 11.59C5.47997 11.71 5.84997 12.05 6.01997 12.49L6.99997 15H8.99997V4.5C8.99997 4.22 9.21997 4 9.49997 4C9.77997 4 9.99997 4.22 9.99997 4.5V12H12V2.5C12 2.22 12.22 2 12.5 2C12.78 2 13 2.22 13 2.5V12H15V4C15 3.72 15.22 3.5 15.5 3.5C15.78 3.5 16 3.72 16 4V12H18V7C18 6.72 18.22 6.5 18.5 6.5C18.78 6.5 19 6.72 19 7V16Z" fill="black"/>
</svg>
