<svg width="24" height="24" viewBox="0 0 24 24" fill="none" xmlns="http://www.w3.org/2000/svg">
<path d="M18 23.9978H11.45C10.37 23.9978 9.31001 23.5478 8.56001 22.7678L1.26001 15.1578L3.33001 13.3278C3.95001 12.7778 4.86001 12.6678 5.59001 13.0578L8.00001 14.3378V4.78781C7.99963 4.41602 8.08217 4.04882 8.24164 3.71296C8.40111 3.3771 8.63348 3.08104 8.92183 2.84633C9.21018 2.61163 9.54725 2.4442 9.90849 2.35623C10.2697 2.26826 10.646 2.26197 11.01 2.33781C11.1 1.03781 12.18 0.0078125 13.5 0.0078125C14.36 0.0078125 15.11 0.437813 15.56 1.09781C15.85 0.977813 16.17 0.917813 16.5 0.917813C17.1631 0.917813 17.7989 1.1812 18.2678 1.65005C18.7366 2.11889 19 2.75477 19 3.41781V3.69781C19.3633 3.62366 19.7385 3.63124 20.0985 3.71999C20.4584 3.80874 20.7942 3.97645 21.0813 4.21097C21.3685 4.44549 21.5999 4.74094 21.7588 5.07593C21.9177 5.41092 22.0001 5.77705 22 6.14781V19.9978C22 22.2078 20.21 23.9978 18 23.9978ZM4.14001 15.2778L10 21.3778C10.38 21.7678 10.9 21.9978 11.44 21.9978H18C19.1 21.9978 20 21.0978 20 19.9978V6.14781C20 5.86781 19.78 5.64781 19.5 5.64781C19.22 5.64781 19 5.86781 19 6.14781V11.9978H17V3.41781C17 3.13781 16.78 2.91781 16.5 2.91781C16.22 2.91781 16 3.13781 16 3.41781V11.9978H14V2.50781C14 2.22781 13.78 2.00781 13.5 2.00781C13.22 2.00781 13 2.22781 13 2.50781V11.9978H11V4.78781C11 4.50781 10.78 4.28781 10.5 4.28781C10.22 4.28781 10 4.51781 10 4.78781V17.6578L4.65001 14.8278L4.14001 15.2778Z" fill="black"/>
</svg>
