<svg width="24" height="24" viewBox="0 0 24 24" fill="none" xmlns="http://www.w3.org/2000/svg">
<path d="M6.5 17C7.32843 17 8 16.3284 8 15.5C8 14.6716 7.32843 14 6.5 14C5.67157 14 5 14.6716 5 15.5C5 16.3284 5.67157 17 6.5 17Z" fill="black"/>
<path d="M13.5 17C14.3284 17 15 16.3284 15 15.5C15 14.6716 14.3284 14 13.5 14C12.6716 14 12 14.6716 12 15.5C12 16.3284 12.6716 17 13.5 17Z" fill="black"/>
<path d="M4 10.999V7.99901H11.29C11.1 7.36901 11 6.69901 11 5.99901H4.43C5.26 5.28901 7.41 4.90901 11.08 5.01901C11.18 4.31901 11.38 3.64901 11.67 3.02901C2.97 2.66901 2 5.01901 2 6.99901V16.499C2 17.449 2.38 18.309 3 18.939V20.999C3 21.549 3.45 21.999 4 21.999H5C5.55 21.999 6 21.549 6 20.999V19.999H14V20.999C14 21.549 14.45 21.999 15 21.999H16C16.55 21.999 17 21.549 17 20.999V18.939C17.62 18.309 18 17.449 18 16.499V12.999C16.09 12.999 14.37 12.239 13.11 10.999H4ZM16 15.999C16 17.099 15.1 17.999 14 17.999H6C4.9 17.999 4 17.099 4 15.999V12.999H16V15.999Z" fill="black"/>
<path d="M18 1C15.24 1 13 3.24 13 6C13 8.76 15.24 11 18 11C20.76 11 23 8.76 23 6C23 3.24 20.76 1 18 1ZM18.5 9H17.5V8H18.5V9ZM18.5 7H17.5V3H18.5V7Z" fill="black"/>
</svg>
