<svg width="24" height="24" viewBox="0 0 24 24" fill="none" xmlns="http://www.w3.org/2000/svg">
<path d="M13 3C13 1.9 13.9 1 15 1C16.1 1 17 1.9 17 3C17 4.1 16.1 5 15 5C13.9 5 13 4.1 13 3ZM7.25 22.5C6.84 22.5 6.5 22.84 6.5 23.25C6.5 23.66 6.84 24 7.25 24C7.66 24 8 23.66 8 23.25C8 22.84 7.66 22.5 7.25 22.5ZM15.75 22.5C15.34 22.5 15 22.84 15 23.25C15 23.66 15.34 24 15.75 24C16.16 24 16.5 23.66 16.5 23.25C16.5 22.84 16.16 22.5 15.75 22.5ZM19.24 19C19.1248 18.9992 19.0111 19.026 18.9085 19.0782C18.8058 19.1304 18.7172 19.2065 18.65 19.3C18.1 20.03 17.23 20.5 16.25 20.5H16V14.5L11.68 11.83L13.48 8.94C14.0649 9.87648 14.8785 10.6487 15.8442 11.1841C16.8098 11.7194 17.8959 12.0002 19 12V10C17.15 10 15.56 8.88 14.87 7.28L14.35 6.07C14.16 5.64 13.61 5 12.7 5H7L4.5 9L6.2 10.06L8.1 7H10.45L8.05 10.84C7.74 11.34 7.66 11.95 7.84 12.51L9.18 16.66L6.06 20.42C5.36 20.26 4.76 19.85 4.35 19.3C4.29091 19.2212 4.21687 19.1548 4.13212 19.1046C4.04737 19.0545 3.95357 19.0215 3.85607 19.0075C3.75856 18.9936 3.65927 18.999 3.56386 19.0235C3.46845 19.0479 3.37879 19.0909 3.3 19.15C3.22121 19.2091 3.15482 19.2831 3.10464 19.3679C3.05446 19.4526 3.02147 19.5464 3.00754 19.6439C2.99361 19.7414 2.99902 19.8407 3.02346 19.9361C3.04791 20.0315 3.09091 20.1212 3.15 20.2C3.97 21.3 5.28 22 6.75 22H16.25C17.72 22 19.03 21.3 19.85 20.2C19.95 20.06 20 19.9 20 19.75C20 19.36 19.68 19 19.24 19ZM14 20.5H8.6L11.5 17L10.5 13.7L14 15.9V20.5Z" fill="black"/>
</svg>
