<svg width="24" height="24" viewBox="0 0 24 24" fill="none" xmlns="http://www.w3.org/2000/svg">
<path d="M21 1H7C5.9 1 5 1.9 5 3V17C5 18.1 5.9 19 7 19H21C22.1 19 23 18.1 23 17V3C23 1.9 22.1 1 21 1ZM21 17H7V3H21V17ZM3 5H1V21C1 22.1 1.9 23 3 23H19V21H3V5ZM17 13V11.5C17 10.67 16.33 10 15.5 10C16.33 10 17 9.33 17 8.5V7C17 6.46957 16.7893 5.96086 16.4142 5.58579C16.0391 5.21071 15.5304 5 15 5H11V7H15V9H13V11H15V13H11V15H15C15.5304 15 16.0391 14.7893 16.4142 14.4142C16.7893 14.0391 17 13.5304 17 13Z" fill="black"/>
</svg>
