<svg width="24" height="24" viewBox="0 0 24 24" fill="none" xmlns="http://www.w3.org/2000/svg">
<path d="M20.5 2V4.02C18.18 2.13 15.22 1 12 1C8.78 1 5.82 2.13 3.5 4.02V2H2V7H7V5.5H4.09C6.2 3.64 8.97 2.5 12 2.5C15.03 2.5 17.79 3.64 19.91 5.5H17V7H22V2H20.5Z" fill="black"/>
<path d="M18.89 13.7698L15.09 12.0998C14.96 12.0398 14.81 11.9998 14.65 11.9998H14V7.62985C14 6.30985 13.04 5.12985 11.73 5.00985C11.384 4.97909 11.0353 5.02056 10.7062 5.13162C10.377 5.24268 10.0745 5.4209 9.81789 5.655C9.56123 5.88909 9.356 6.17396 9.2152 6.49153C9.07441 6.8091 9.00113 7.15246 9 7.49985V15.6498L7.13 15.2498C6.94 15.2198 6.11 15.0998 5.4 15.8098L4 17.2198L9.12 22.4098C9.49 22.7898 10 22.9998 10.53 22.9998H17.08C18.06 22.9998 18.89 22.2998 19.05 21.3298L19.97 15.8898C20.0407 15.4674 19.974 15.0334 19.7795 14.6518C19.5851 14.2701 19.2733 13.961 18.89 13.7698ZM18 15.5598L17.08 20.9998H10.53L6.83 17.2198L11 18.1098V7.49985C11 7.21985 11.22 6.99985 11.5 6.99985C11.78 6.99985 12 7.21985 12 7.49985V13.6798H13.76L18 15.5598Z" fill="black"/>
</svg>
