<svg width="24" height="24" viewBox="0 0 24 24" fill="none" xmlns="http://www.w3.org/2000/svg">
<path d="M9.99999 6.35V4.26C9.33999 4.43 8.70999 4.69 8.11999 5.01L9.61999 6.51C9.74999 6.46 9.86999 6.4 9.99999 6.35ZM20 12C20 9.79 19.09 7.8 17.64 6.36L20 4H14V10L16.24 7.76C17.3652 8.88433 17.9983 10.4093 18 12C18 12.85 17.81 13.65 17.49 14.38L18.99 15.88C19.6538 14.6947 20.0016 13.3585 20 12ZM4.26999 4L2.85999 5.41L5.21999 7.77C4.25625 9.29862 3.84387 11.1107 4.05121 12.9058C4.25855 14.701 5.07316 16.3713 6.35999 17.64L3.99999 20H9.99999V14L7.75999 16.24C6.63472 15.1157 6.00171 13.5907 5.99999 12C5.99999 11 6.24999 10.06 6.67999 9.23L14.76 17.31C14.51 17.44 14.26 17.55 14 17.65V19.74C14.8 19.53 15.55 19.2 16.23 18.78L18.81 21.36L20.22 19.95L4.26999 4Z" fill="black"/>
</svg>
