<svg width="24" height="24" viewBox="0 0 24 24" fill="none" xmlns="http://www.w3.org/2000/svg">
<path d="M7.94001 5.12002L6.49001 3.66002C8.12206 2.57386 10.0396 1.99617 12 2.00002C17.52 2.00002 22 6.48002 22 12C22 14.04 21.39 15.93 20.34 17.51L18.88 16.05C19.6136 14.8265 20.0007 13.4266 20 12C20 7.59002 16.41 4.00002 12 4.00002C10.52 4.00002 9.14001 4.41002 7.94001 5.12002ZM17.66 9.53002L16.25 8.12002L13.6 10.77L15.01 12.18L17.66 9.53002ZM19.78 22.61L17.51 20.34C15.878 21.4262 13.9604 22.0039 12 22C6.48001 22 2.00001 17.52 2.00001 12C2.00001 9.96002 2.61001 8.07002 3.66001 6.49002L1.39001 4.22002L2.80001 2.81002L21.18 21.19L19.78 22.61ZM16.06 18.88L12.18 15L10.59 16.59L6.35001 12.35L7.76002 10.94L10.59 13.77L10.77 13.59L5.12001 7.94002C4.38765 9.1677 4.00067 10.5705 4.00001 12C4.00001 16.41 7.59001 20 12 20C13.48 20 14.86 19.59 16.06 18.88Z" fill="black"/>
</svg>
