<svg width="24" height="24" viewBox="0 0 24 24" fill="none" xmlns="http://www.w3.org/2000/svg">
<path d="M21 14.9978V12.9978H17.93C17.88 12.6078 17.81 12.2278 17.71 11.8578L20.29 10.3678L19.29 8.63781L16.92 9.99781C16.64 9.51781 16.3 9.08781 15.93 8.70781C16.03 8.14781 16.13 7.01781 15.35 5.81781L17 4.16781L15.59 2.75781L13.87 4.47781C12.19 3.58781 10.77 4.14781 10.14 4.47781L8.41 2.75781L7 4.16781L8.65 5.81781C7.87 7.01781 7.97 8.15781 8.07 8.70781C7.7 9.09781 7.36 9.52781 7.08 9.99781L4.71 8.62781L3.71 10.3578L6.29 11.8478C6.19 12.2178 6.12 12.5978 6.07 12.9878H3V14.9878H6.07C6.12 15.3778 6.19 15.7578 6.29 16.1278L3.71 17.6178L4.71 19.3478L7.08 17.9978C8.16 19.8078 9.96 20.9978 12 20.9978C14.04 20.9978 15.84 19.8078 16.92 17.9978L19.29 19.3678L20.29 17.6378L17.71 16.1478C17.81 15.7778 17.88 15.3978 17.93 15.0078H21V14.9978ZM12 5.99781C12.88 5.99781 13.62 6.56781 13.88 7.35781C13.29 7.12781 12.66 6.99781 12 6.99781C11.34 6.99781 10.71 7.12781 10.12 7.35781C10.38 6.56781 11.12 5.99781 12 5.99781ZM12 18.9978C9.79 18.9978 8 16.7578 8 13.9978C8 11.2378 9.79 8.99781 12 8.99781C14.21 8.99781 16 11.2378 16 13.9978C16 16.7578 14.21 18.9978 12 18.9978Z" fill="black"/>
<path d="M11 11H13V17H11V11Z" fill="black"/>
</svg>
