<svg width="24" height="24" viewBox="0 0 24 24" fill="none" xmlns="http://www.w3.org/2000/svg">
<path d="M12 2C6.48 2 2 6.48 2 12C2 17.52 6.48 22 12 22C17.52 22 22 17.52 22 12C22 6.48 17.52 2 12 2ZM5.23 7.75C6.1 8.62 6.7 9.74 6.91 11H4.07C4.21935 9.84607 4.61494 8.73771 5.23 7.75ZM4.07 13H6.91C6.70379 14.2324 6.11621 15.3691 5.23 16.25C4.61494 15.2623 4.21935 14.1539 4.07 13ZM11 19.93C9.27 19.71 7.71 18.93 6.51 17.79C7.84735 16.522 8.70276 14.8289 8.93 13H11V19.93ZM11 11H8.93C8.69923 9.1672 7.84052 7.47099 6.5 6.2C7.73666 5.03147 9.31232 4.28566 11 4.07V11ZM19.93 11H17.09C17.3 9.74 17.9 8.62 18.77 7.75C19.37 8.72 19.78 9.82 19.93 11ZM13 4.07C14.73 4.29 16.29 5.06 17.5 6.2C16.1595 7.47099 15.3008 9.1672 15.07 11H13V4.07ZM13 19.93V13H15.07C15.3016 14.8275 16.1563 16.5193 17.49 17.79C16.2592 18.963 14.6863 19.7127 13 19.93ZM18.77 16.25C17.8855 15.3678 17.2983 14.2317 17.09 13H19.93C19.7807 14.1539 19.3851 15.2623 18.77 16.25Z" fill="black"/>
</svg>
