<svg width="24" height="24" viewBox="0 0 24 24" fill="none" xmlns="http://www.w3.org/2000/svg">
<path d="M17.5 9.0025C18.33 9.0025 19 9.6725 19 10.5025C19 11.3325 18.33 12.0025 17.5 12.0025C16.67 12.0025 16 11.3325 16 10.5025C16 9.6725 16.67 9.0025 17.5 9.0025ZM10.83 8.0025H20V16.0025H18.83L20.7 17.8725C21.45 17.5825 22 16.8525 22 16.0025V8.0025C22 6.9025 21.1 6.0025 20 6.0025H8.83001L10.83 8.0025ZM19.78 22.6125L15.17 18.0025H4.00001C2.90001 18.0025 2.00001 17.1025 2.00001 16.0025V8.0025C2.00001 7.1525 2.55001 6.4225 3.30001 6.1325L1.39001 4.2225L2.80001 2.8125L21.18 21.1925L19.78 22.6125ZM13.17 16.0025L10.17 13.0025H9.00001V15.0025H7.00001V13.0025H5.00001V11.0025H7.00001V9.8325L5.17001 8.0025H4.00001V16.0025H13.17Z" fill="black"/>
</svg>
