<svg width="24" height="24" viewBox="0 0 24 24" fill="none" xmlns="http://www.w3.org/2000/svg">
<path d="M9 14.25C9.69036 14.25 10.25 13.6904 10.25 13C10.25 12.3096 9.69036 11.75 9 11.75C8.30964 11.75 7.75 12.3096 7.75 13C7.75 13.6904 8.30964 14.25 9 14.25Z" fill="black"/>
<path d="M17.5 10C18.25 10 18.97 9.91 19.67 9.76C19.88 10.47 20 11.22 20 12C20 13.22 19.72 14.37 19.23 15.4L20.72 16.89C21.5592 15.3968 22 13.7128 22 12C22 6.48 17.52 2 12 2C10.22 2 8.56001 2.47 7.11001 3.28L12.44 8.61C13.93 9.49 15.65 10 17.5 10ZM10.66 4.12C11.09 4.05 11.54 4 12 4C14.9 4 17.44 5.56 18.84 7.88C18.41 7.95 17.96 8 17.5 8C14.6 8 12.06 6.44 10.66 4.12ZM1.89001 3.72L4.08001 5.91C2.73176 7.65384 2.00021 9.79574 2.00001 12C2.00001 17.52 6.48001 22 12 22C14.29 22 16.4 21.22 18.09 19.92L20.28 22.11L21.69 20.7L3.31001 2.31L1.89001 3.72ZM16.66 18.49C15.3056 19.4737 13.674 20.0024 12 20C7.59001 20 4.00001 16.41 4.00001 12C4.00001 11.95 4.01001 11.9 4.00001 11.86C5.37499 11.342 6.61811 10.5258 7.64001 9.47L16.66 18.49ZM6.23001 8.06C5.70001 8.61 5.09001 9.09 4.42001 9.47C4.68001 8.7 5.05002 7.99 5.51002 7.34L6.23001 8.06Z" fill="black"/>
</svg>
