<svg width="24" height="24" viewBox="0 0 24 24" fill="none" xmlns="http://www.w3.org/2000/svg">
<path d="M20 17.1725L16.63 13.7925C17.27 14.0125 17.86 14.2725 18.4 14.5525C19.37 15.0625 19.98 16.0725 20 17.1725ZM21.19 21.1925L19.78 22.6025L17.17 20.0025H4.00001V17.2225C4.00001 16.1025 4.61001 15.0725 5.61001 14.5625C6.90001 13.9025 8.48001 13.3425 10.28 13.1125L1.39001 4.2225L2.80001 2.8125L21.19 21.1925ZM15.17 18.0025L12.17 15.0025H12C9.63001 15.0025 7.71001 15.7325 6.52001 16.3425C6.20001 16.5025 6.00001 16.8425 6.00001 17.2225V18.0025H15.17ZM12 6.0025C13.1 6.0025 14 6.9025 14 8.0025C14 8.8625 13.46 9.5925 12.7 9.8725L14.18 11.3525C14.6806 11.0285 15.1024 10.5968 15.4145 10.0887C15.7267 9.5807 15.9212 9.00931 15.984 8.41637C16.0468 7.82343 15.9762 7.22396 15.7774 6.66182C15.5786 6.09969 15.2566 5.58913 14.835 5.16752C14.4134 4.7459 13.9028 4.4239 13.3407 4.22509C12.7786 4.02628 12.1791 3.95568 11.5861 4.01847C10.9932 4.08127 10.4218 4.27585 9.91379 4.58799C9.40576 4.90014 8.97397 5.32193 8.65001 5.8225L10.13 7.3025C10.2712 6.92049 10.5263 6.59101 10.8607 6.35854C11.1951 6.12607 11.5927 6.00179 12 6.0025Z" fill="black"/>
</svg>
