<svg width="24" height="24" viewBox="0 0 24 24" fill="none" xmlns="http://www.w3.org/2000/svg">
<path d="M21 3.00781H3C1.9 3.00781 1 3.90781 1 5.00781V8.99781H3V4.98781H21V19.0178H3V14.9978H1V19.0078C1 20.1078 1.9 20.9878 3 20.9878H21C22.1 20.9878 23 20.1078 23 19.0078V5.00781C23 4.47738 22.7893 3.96867 22.4142 3.5936C22.0391 3.21853 21.5304 3.00781 21 3.00781ZM11 15.9978L15 11.9978L11 7.99781V10.9978H1V12.9978H11V15.9978ZM21 3.00781H3C1.9 3.00781 1 3.90781 1 5.00781V8.99781H3V4.98781H21V19.0178H3V14.9978H1V19.0078C1 20.1078 1.9 20.9878 3 20.9878H21C22.1 20.9878 23 20.1078 23 19.0078V5.00781C23 4.47738 22.7893 3.96867 22.4142 3.5936C22.0391 3.21853 21.5304 3.00781 21 3.00781ZM11 15.9978L15 11.9978L11 7.99781V10.9978H1V12.9978H11V15.9978Z" fill="black"/>
</svg>
