<svg width="24" height="24" viewBox="0 0 24 24" fill="none" xmlns="http://www.w3.org/2000/svg">
<path d="M16 2.99778C13.24 2.99778 11 5.23778 11 7.99778V15.9978C11 17.6578 9.66 18.9978 8 18.9978C6.34 18.9978 5 17.6578 5 15.9978V8.99778H5.83C7.44 8.99778 8.89 7.81778 9 6.20778C9.02853 5.81282 8.97859 5.41612 8.85306 5.04056C8.72752 4.665 8.52888 4.318 8.26858 4.01959C8.00828 3.72118 7.69148 3.47725 7.33645 3.30187C6.98141 3.1265 6.59517 3.02314 6.2 2.99778C4.44 2.88778 3 4.41778 3 6.18778V15.9978C3 18.7578 5.24 20.9978 8 20.9978C10.76 20.9978 13 18.7578 13 15.9978V7.99778C13 6.33778 14.34 4.99778 16 4.99778C17.66 4.99778 19 6.33778 19 7.99778V14.9978H18.17C16.56 14.9978 15.11 16.1778 15 17.7878C14.9715 18.1827 15.0214 18.5794 15.1469 18.955C15.2725 19.3306 15.4711 19.6775 15.7314 19.976C15.9917 20.2744 16.3085 20.5183 16.6636 20.6937C17.0186 20.8691 17.4048 20.9724 17.8 20.9978C19.56 21.1178 21 19.5778 21 17.8178V7.99778C21 5.23778 18.76 2.99778 16 2.99778ZM5 5.99778C5 5.44778 5.45 4.99778 6 4.99778C6.55 4.99778 7 5.44778 7 5.99778C7 6.54778 6.55 6.99778 6 6.99778H5V5.99778ZM19 17.9978C19 18.5478 18.55 18.9978 18 18.9978C17.45 18.9978 17 18.5478 17 17.9978C17 17.4478 17.45 16.9978 18 16.9978H19V17.9978Z" fill="black"/>
</svg>
