<svg width="24" height="24" viewBox="0 0 24 24" fill="none" xmlns="http://www.w3.org/2000/svg">
<path d="M6 3H3V6C4.66 6 6 4.66 6 3ZM14 3H12C12 5.38695 11.0518 7.67613 9.36396 9.36396C7.67613 11.0518 5.38695 12 3 12V14C9.08 14 14 9.07 14 3ZM10 3H8C8 5.76 5.76 8 3 8V10C6.87 10 10 6.87 10 3ZM10 21H12C12 18.6131 12.9482 16.3239 14.636 14.636C16.3239 12.9482 18.6131 12 21 12V10C14.93 10 10 14.93 10 21ZM18 21H21V18C19.34 18 18 19.34 18 21ZM14 21H16C16 18.24 18.24 16 21 16V14C17.13 14 14 17.13 14 21Z" fill="black"/>
</svg>
