<svg width="24" height="24" viewBox="0 0 24 24" fill="none" xmlns="http://www.w3.org/2000/svg">
<path d="M4.82994 2H19.9999C21.0999 2 21.9999 2.9 21.9999 4V19.17L19.9999 17.17V4H6.82994L4.82994 2ZM10.9199 6L10.3499 7.52L11.7099 8.88L11.9399 8.22H12.0399L12.5799 9.74L15.6199 12.78L13.0699 6H10.9199ZM20.4899 23.31L19.1699 22H3.99994C2.89994 22 1.99994 21.1 1.99994 20V4.83L0.689941 3.51L2.09994 2.1L21.8999 21.9L20.4899 23.31ZM17.1699 20L12.0999 14.93H9.57994L8.48994 18H6.40994L8.79994 11.63L3.99994 6.83V20H17.1699Z" fill="black"/>
</svg>
