<svg width="24" height="24" viewBox="0 0 24 24" fill="none" xmlns="http://www.w3.org/2000/svg">
<path d="M13.49 5.47656C14.59 5.47656 15.49 4.57656 15.49 3.47656C15.49 2.37656 14.59 1.47656 13.49 1.47656C12.39 1.47656 11.49 2.37656 11.49 3.47656C11.49 4.57656 12.39 5.47656 13.49 5.47656ZM9.89001 19.3766L10.89 14.9766L12.99 16.9766V22.9766H14.99V15.4766L12.89 13.4766L13.49 10.4766C14.79 11.9766 16.79 12.9766 18.99 12.9766V10.9766C17.09 10.9766 15.49 9.97656 14.69 8.57656L13.69 6.97656C13.29 6.37656 12.69 5.97656 11.99 5.97656C11.69 5.97656 11.49 6.07656 11.19 6.07656L5.99001 8.27656V12.9766H7.99001V9.57656L9.79001 8.87656L8.19001 16.9766L3.29001 15.9766L2.89001 17.9766L9.89001 19.3766Z" fill="black"/>
</svg>
