<svg width="24" height="24" viewBox="0 0 24 24" fill="none" xmlns="http://www.w3.org/2000/svg">
<path d="M13 10.0025C13 9.4525 13.45 9.0025 14 9.0025H17C17.55 9.0025 18 9.4525 18 10.0025V11.0025H16.5V10.5025H14.5V11.5025L13 10.0025ZM16.5 13.5025L17.71 14.7125C17.89 14.5225 18 14.2725 18 14.0025V13.0025H16.5V13.5025ZM8.83001 6.0025H19V16.1725L20.98 18.1525C20.98 18.1025 21 18.0525 21 17.9925V6.0025C21 4.9025 20.1 4.0025 19 4.0025H6.83001L8.83001 6.0025ZM19.78 22.6125L17.17 20.0025H5.00001C4.46958 20.0025 3.96087 19.7918 3.5858 19.4167C3.21073 19.0416 3.00001 18.5329 3.00001 18.0025V6.0025C3.00001 5.9525 3.02001 5.9025 3.02001 5.8525L1.39001 4.2225L2.80001 2.8125L21.18 21.1925L19.78 22.6125ZM7.50001 13.5025H9.50001V13.0025H10.17L7.67001 10.5025H7.50001V13.5025ZM15.17 18.0025L11 13.8325V14.0025C11 14.5525 10.55 15.0025 10 15.0025H7.00001C6.45001 15.0025 6.00001 14.5525 6.00001 14.0025V10.0025C6.00001 9.6825 6.16001 9.4125 6.40001 9.2225L5.00001 7.8325V18.0025H15.17Z" fill="black"/>
</svg>
