<svg width="24" height="24" viewBox="0 0 24 24" fill="none" xmlns="http://www.w3.org/2000/svg">
<path d="M12 2C6.48 2 2 6.48 2 12C2 17.52 6.48 22 12 22C17.52 22 22 17.52 22 12C22 6.48 17.52 2 12 2ZM12 20C7.58 20 4 16.42 4 12C4 7.58 7.58 4 12 4C16.42 4 20 7.58 20 12C20 16.42 16.42 20 12 20Z" fill="black"/>
<path d="M7.09998 10.1763C7.36367 10.7503 7.50019 11.3745 7.50019 12.0063C7.50019 12.638 7.36367 13.2622 7.09998 13.8363L8.46998 14.4563C8.83998 13.6463 9.01998 12.8063 9.00998 11.9563C8.99998 11.1163 8.81998 10.3063 8.46998 9.55625L7.09998 10.1763ZM13.33 7.32625C14.11 8.89625 14.51 10.4663 14.51 11.9663C14.51 13.4763 14.11 15.0562 13.33 16.6562L14.68 17.3162C15.56 15.5062 16.01 13.7063 16.01 11.9663C16.01 10.2263 15.56 8.43625 14.68 6.65625L13.33 7.32625ZM10.2 8.71625C10.73 9.78625 11 10.9262 11 12.1163C11 13.2862 10.74 14.3463 10.22 15.2663L11.52 16.0063C12.17 14.8563 12.5 13.5563 12.5 12.1163C12.5 10.6963 12.18 9.32625 11.54 8.04625L10.2 8.71625Z" fill="black"/>
</svg>
