<svg width="24" height="24" viewBox="0 0 24 24" fill="none" xmlns="http://www.w3.org/2000/svg">
<path d="M11 19H13V22H11V19ZM2 11H5V13H2V11ZM19 11H22V13H19V11ZM15.894 17.801L17.301 16.394L19.423 18.516L18.015 19.923L15.894 17.801ZM4.584 18.509L6.705 16.387L8.113 17.794L5.991 19.916L4.584 18.509ZM15 8.02V3H9V8.02C7.79 8.94 7 10.37 7 12C7 14.76 9.24 17 12 17C14.76 17 17 14.76 17 12C17 10.37 16.21 8.94 15 8.02ZM11 5H13V7.1C12.68 7.04 12.34 7 12 7C11.66 7 11.32 7.04 11 7.1V5ZM12 15C10.35 15 9 13.65 9 12C9 10.35 10.35 9 12 9C13.65 9 15 10.35 15 12C15 13.65 13.65 15 12 15Z" fill="black"/>
</svg>
