<svg width="24" height="24" viewBox="0 0 24 24" fill="none" xmlns="http://www.w3.org/2000/svg">
<path d="M12 2C6.48 2 2 6.48 2 12C2 17.52 6.48 22 12 22C17.52 22 22 17.52 22 12C22 6.48 17.52 2 12 2ZM12 20C7.58 20 4 16.42 4 12C4 7.58 7.58 4 12 4C16.42 4 20 7.58 20 12C20 16.42 16.42 20 12 20Z" fill="black"/>
<path d="M13.54 8.97269C13.31 8.50269 12.78 8.26269 12.28 8.44269L8.99998 9.65269V12.0027H9.99998V10.3527L11.54 9.78269L10.58 14.6727L7.79998 14.1027L7.59998 15.0827L11.36 15.8527L11.88 13.2127L13 14.4227V18.0027H14V14.0327L12.68 12.5927L13.09 10.2427C13.99 11.4627 15.3 12.0027 16 12.0027V11.0027C15.59 11.0027 14.37 10.6727 13.54 8.97269Z" fill="black"/>
<path d="M13.5 8C14.0523 8 14.5 7.55228 14.5 7C14.5 6.44772 14.0523 6 13.5 6C12.9477 6 12.5 6.44772 12.5 7C12.5 7.55228 12.9477 8 13.5 8Z" fill="black"/>
</svg>
