<svg width="24" height="24" viewBox="0 0 24 24" fill="none" xmlns="http://www.w3.org/2000/svg">
<path d="M10.04 6.28859C10.66 6.10859 11.32 5.99859 12 5.99859C15.86 5.99859 19 9.13859 19 12.9986C19 13.6786 18.89 14.3386 18.71 14.9586L20.27 16.5186C20.74 15.4386 21 14.2486 21 12.9986C21.0002 11.5106 20.6314 10.0457 19.9267 8.73511C19.222 7.42453 18.2033 6.30913 16.9618 5.48875C15.7204 4.66838 14.2949 4.16862 12.8129 4.03422C11.3309 3.89981 9.83879 4.13495 8.46999 4.71859L10.04 6.28859ZM17.337 1.80859L21.944 5.65359L20.664 7.18859L16.054 3.34559L17.337 1.80859ZM3.01999 2.09859L1.60999 3.50859L2.97999 4.87859L2.05999 5.64859L3.33999 7.18859L4.39999 6.30859L5.19999 7.10859C3.77957 8.74191 2.99813 10.834 2.99999 12.9986C2.99999 15.3855 3.9482 17.6747 5.63602 19.3626C7.32385 21.0504 9.61304 21.9986 12 21.9986C14.25 21.9986 16.31 21.1686 17.89 19.7986L19.99 21.8986L21.4 20.4886L3.01999 2.09859ZM12 19.9986C8.13999 19.9986 4.99999 16.8586 4.99999 12.9986C4.99999 11.2986 5.60999 9.73859 6.61999 8.52859L16.47 18.3786C15.2165 19.4269 13.634 20.0004 12 19.9986ZM7.47999 3.72859L7.93999 3.34859L6.65999 1.80859L6.05999 2.30859L7.47999 3.72859Z" fill="black"/>
</svg>
