<svg width="24" height="24" viewBox="0 0 24 24" fill="none" xmlns="http://www.w3.org/2000/svg">
<path d="M17.73 12.0224L21.71 8.04244C21.8027 7.94993 21.8762 7.84004 21.9264 7.71907C21.9766 7.5981 22.0024 7.46841 22.0024 7.33744C22.0024 7.20648 21.9766 7.07679 21.9264 6.95582C21.8762 6.83485 21.8027 6.72496 21.71 6.63244L17.37 2.29244C17.2775 2.19974 17.1676 2.12619 17.0466 2.07601C16.9256 2.02583 16.7959 2 16.665 2C16.534 2 16.4043 2.02583 16.2833 2.07601C16.1624 2.12619 16.0525 2.19974 15.96 2.29244L11.98 6.27244L7.99996 2.29244C7.81247 2.10644 7.55907 2.00206 7.29496 2.00206C7.03086 2.00206 6.77745 2.10644 6.58996 2.29244L2.24996 6.63244C2.15726 6.72496 2.08371 6.83485 2.03353 6.95582C1.98335 7.07679 1.95752 7.20648 1.95752 7.33744C1.95752 7.46841 1.98335 7.5981 2.03353 7.71907C2.08371 7.84004 2.15726 7.94993 2.24996 8.04244L6.22996 12.0224L2.24996 16.0024C2.15726 16.095 2.08371 16.2048 2.03353 16.3258C1.98335 16.4468 1.95752 16.5765 1.95752 16.7074C1.95752 16.8384 1.98335 16.9681 2.03353 17.0891C2.08371 17.21 2.15726 17.3199 2.24996 17.4124L6.58996 21.7524C6.97996 22.1424 7.60996 22.1424 7.99996 21.7524L11.98 17.7724L15.96 21.7524C16.16 21.9524 16.41 22.0424 16.67 22.0424C16.93 22.0424 17.18 21.9424 17.38 21.7524L21.72 17.4124C21.8127 17.3199 21.8862 17.21 21.9364 17.0891C21.9866 16.9681 22.0124 16.8384 22.0124 16.7074C22.0124 16.5765 21.9866 16.4468 21.9364 16.3258C21.8862 16.2048 21.8127 16.095 21.72 16.0024L17.73 12.0224ZM12 9.00244C12.55 9.00244 13 9.45244 13 10.0024C13 10.5524 12.55 11.0024 12 11.0024C11.45 11.0024 11 10.5524 11 10.0024C11 9.45244 11.45 9.00244 12 9.00244ZM7.28996 10.9624L3.65996 7.34244L7.28996 3.71244L10.91 7.33244L7.28996 10.9624ZM9.99996 13.0024C9.44996 13.0024 8.99996 12.5524 8.99996 12.0024C8.99996 11.4524 9.44996 11.0024 9.99996 11.0024C10.55 11.0024 11 11.4524 11 12.0024C11 12.5524 10.55 13.0024 9.99996 13.0024ZM12 15.0024C11.45 15.0024 11 14.5524 11 14.0024C11 13.4524 11.45 13.0024 12 13.0024C12.55 13.0024 13 13.4524 13 14.0024C13 14.5524 12.55 15.0024 12 15.0024ZM14 11.0024C14.55 11.0024 15 11.4524 15 12.0024C15 12.5524 14.55 13.0024 14 13.0024C13.45 13.0024 13 12.5524 13 12.0024C13 11.4524 13.45 11.0024 14 11.0024ZM16.66 20.3424L13.03 16.7224L16.66 13.0924L20.28 16.7124L16.66 20.3424Z" fill="black"/>
</svg>
