<svg width="24" height="24" viewBox="0 0 24 24" fill="none" xmlns="http://www.w3.org/2000/svg">
<path d="M12 2.02344C6.49002 2.02344 2.02002 6.49344 2.02002 12.0034C2.02002 17.5134 6.49002 21.9834 12 21.9834C17.51 21.9834 21.98 17.5134 21.98 12.0034C21.98 6.49344 17.51 2.02344 12 2.02344ZM12 19.9834C7.60002 19.9834 4.02002 16.4034 4.02002 12.0034C4.02002 7.60344 7.60002 4.02344 12 4.02344C16.4 4.02344 19.98 7.60344 19.98 12.0034C19.98 16.4034 16.4 19.9834 12 19.9834ZM12.75 5.00344L8.25002 13.5034H11.39V19.0034L15.75 10.5034H12.75V5.00344Z" fill="black"/>
</svg>
