<svg width="24" height="24" viewBox="0 0 24 24" fill="none" xmlns="http://www.w3.org/2000/svg">
<path d="M21.19 21.1925L2.81001 2.8125L1.39001 4.2225L3.00001 5.8325V19.0025C3.00001 20.1025 3.90001 21.0025 5.00001 21.0025H18.17L19.78 22.6125L21.19 21.1925ZM8.25001 19.0025H5.00001V7.8325L7.00001 9.8325V13.5025C7.00001 14.0525 7.45001 14.5025 8.00001 14.5025H8.25001V19.0025ZM9.75001 19.0025V14.5025H10C10.46 14.5025 10.82 14.1925 10.94 13.7725L14.25 17.0825V19.0025H9.75001ZM11 8.1725L5.83001 3.0025H19C20.1 3.0025 21 3.9025 21 5.0025V18.1725L19 16.1725V5.0025H17V13.5025C17 13.6925 16.93 13.8625 16.84 14.0125L13 10.1725V5.0025H11V8.1725Z" fill="black"/>
</svg>
