<svg width="24" height="24" viewBox="0 0 24 24" fill="none" xmlns="http://www.w3.org/2000/svg">
<path d="M18.38 6.24C17.79 3.24 15.14 1 12 1C8.86 1 6.21 3.24 5.62 6.24C4.85179 6.5245 4.18901 7.03723 3.72067 7.70935C3.25233 8.38147 3.00085 9.1808 3 10C3 12.21 4.79 14 7 14C7.12 14 7.23 13.98 7.34 13.98L12.07 23L16.68 13.97C16.79 13.98 16.89 14 17 14C19.21 14 21 12.21 21 10C21 8.29 19.92 6.81 18.38 6.24ZM12.05 18.63L9.32 13.42C10.1684 13.8059 11.0902 14.004 12.0222 14.0005C12.9542 13.9971 13.8745 13.7922 14.72 13.4L12.05 18.63ZM17 12C16.48 12 15.99 11.8 15.61 11.44L15.05 10.9L14.39 11.32C13.6719 11.7652 12.8435 12.0003 11.9986 11.9986C11.1537 11.9968 10.3262 11.7582 9.61 11.31L8.95 10.9L8.39 11.44C8.01 11.79 7.52 12 7 12C6.49991 11.9967 6.01923 11.8061 5.65279 11.4658C5.28636 11.1254 5.06079 10.6601 5.02061 10.1617C4.98043 9.66317 5.12856 9.16774 5.43575 8.77311C5.74295 8.37849 6.1869 8.11335 6.68 8.03L7.45 7.9L7.51 7.12C7.71 4.8 9.66 3 12 3C14.34 3 16.29 4.8 16.48 7.12L16.54 7.9L17.31 8.02C18.28 8.18 19 9.01 19 10C19 11.1 18.1 12 17 12Z" fill="black"/>
</svg>
