<svg width="24" height="24" viewBox="0 0 24 24" fill="none" xmlns="http://www.w3.org/2000/svg">
<path d="M22 10V1H14V10C14 11.86 15.28 13.41 17 13.86V21H15V23H21V21H19V13.86C20.72 13.41 22 11.86 22 10ZM20 3V6H16V3H20ZM16 10V8H20V10C20 11.1 19.1 12 18 12C16.9 12 16 11.1 16 10ZM10 9H8V8H10C10.663 8 11.2989 7.73661 11.7678 7.26777C12.2366 6.79893 12.5 6.16304 12.5 5.5C12.5 4.83696 12.2366 4.20107 11.7678 3.73223C11.2989 3.26339 10.663 3 10 3H8V1H6V3H4C3.33696 3 2.70107 3.26339 2.23223 3.73223C1.76339 4.20107 1.5 4.83696 1.5 5.5C1.5 6.16304 1.76339 6.79893 2.23223 7.26777C2.70107 7.73661 3.33696 8 4 8H6V9H4C3.33696 9 2.70107 9.26339 2.23223 9.73223C1.76339 10.2011 1.5 10.837 1.5 11.5C1.5 12.163 1.76339 12.7989 2.23223 13.2678C2.70107 13.7366 3.33696 14 4 14H6V23H8V14H10C10.663 14 11.2989 13.7366 11.7678 13.2678C12.2366 12.7989 12.5 12.163 12.5 11.5C12.5 10.837 12.2366 10.2011 11.7678 9.73223C11.2989 9.26339 10.663 9 10 9ZM4 6C3.72 6 3.5 5.78 3.5 5.5C3.5 5.22 3.72 5 4 5H10C10.28 5 10.5 5.22 10.5 5.5C10.5 5.78 10.28 6 10 6H4ZM10 12H4C3.72 12 3.5 11.78 3.5 11.5C3.5 11.22 3.72 11 4 11H10C10.28 11 10.5 11.22 10.5 11.5C10.5 11.78 10.28 12 10 12Z" fill="black"/>
</svg>
