<svg width="24" height="24" viewBox="0 0 24 24" fill="none" xmlns="http://www.w3.org/2000/svg">
<path d="M18.98 17H2V19H22V17H18.98ZM21 16C20.73 11.93 17.75 8.6 13.84 7.79C13.9693 7.48547 14.0213 7.15369 13.9913 6.82421C13.9613 6.49473 13.8503 6.17777 13.6682 5.90159C13.486 5.6254 13.2384 5.39855 12.9473 5.24124C12.6563 5.08394 12.3308 5.00106 12 5C11.6692 5.00106 11.3437 5.08394 11.0527 5.24124C10.7616 5.39855 10.514 5.6254 10.3318 5.90159C10.1497 6.17777 10.0387 6.49473 10.0087 6.82421C9.97872 7.15369 10.0307 7.48547 10.16 7.79C6.25 8.6 3.27 11.93 3 16H21ZM12 9.58C14.95 9.58 17.47 11.41 18.5 13.99H5.5C6.01832 12.6893 6.9147 11.5738 8.07338 10.7877C9.23206 10.0016 10.5998 9.58092 12 9.58Z" fill="black"/>
</svg>
