<svg width="24" height="24" viewBox="0 0 24 24" fill="none" xmlns="http://www.w3.org/2000/svg">
<path d="M11 8.17002L6.49001 3.66002C8.12206 2.57386 10.0396 1.99617 12 2.00002C17.52 2.00002 22 6.48002 22 12C22 14.04 21.39 15.93 20.34 17.51L18.88 16.05C19.6148 14.827 20.0021 13.4268 20 12C20 8.65002 17.93 5.78002 15 4.59002V5.00002C15 6.10002 14.1 7.00002 13 7.00002H11V8.17002ZM21.19 21.19L19.78 22.6L17.51 20.33C15.881 21.4236 13.9621 22.0052 12 22C6.48001 22 2.00001 17.52 2.00001 12C2.00001 9.96002 2.61001 8.07002 3.66001 6.49002L1.39001 4.22002L2.80001 2.81002L21.19 21.19ZM11 18C9.90001 18 9.00001 17.1 9.00001 16V15L4.21001 10.21C4.08001 10.79 4.00001 11.38 4.00001 12C4.00001 16.08 7.05001 19.44 11 19.93V18Z" fill="black"/>
</svg>
