<svg width="24" height="24" viewBox="0 0 24 24" fill="none" xmlns="http://www.w3.org/2000/svg">
<path d="M3 9.00437V15.0044H7L12 20.0044V4.00437L7 9.00437H3ZM10 8.83437V15.1744L7.83 13.0044H5V11.0044H7.83L10 8.83437ZM16.5 12.0044C16.4998 11.1665 16.2657 10.3453 15.824 9.63332C15.3823 8.92131 14.7506 8.34676 14 7.97437V16.0244C15.48 15.2944 16.5 13.7744 16.5 12.0044ZM14 3.23438V5.29437C16.89 6.15437 19 8.83438 19 12.0044C19 15.1744 16.89 17.8544 14 18.7144V20.7744C18.01 19.8644 21 16.2844 21 12.0044C21 7.72438 18.01 4.14438 14 3.23438Z" fill="black"/>
</svg>
