<svg width="24" height="24" viewBox="0 0 24 24" fill="none" xmlns="http://www.w3.org/2000/svg">
<path d="M21.41 13.4228L18.83 16.0028L17.02 14.1928L19.2 12.0028L12 4.80281L9.81001 6.99281L8.00001 5.17281L10.58 2.59281C11.36 1.81281 12.63 1.81281 13.41 2.59281L21.41 10.5928C22.2 11.3728 22.2 12.6328 21.41 13.4228ZM21.19 21.1928L19.78 22.6028L16 18.8328L13.42 21.4128C12.64 22.1928 11.37 22.1928 10.59 21.4128L2.59001 13.4128C1.81001 12.6328 1.81001 11.3628 2.59001 10.5828L5.17001 8.00281L1.39001 4.22281L2.80001 2.81281L21.19 21.1928ZM14.19 17.0228L12.8 15.6328L12 16.4328L7.58001 12.0028L8.38001 11.2028L6.98001 9.81281L4.80001 12.0028L12 19.2028L14.19 17.0228ZM16.42 12.0028L12 7.58281L11.2 8.38281L15.62 12.8028L16.42 12.0028Z" fill="black"/>
</svg>
