<svg width="24" height="24" viewBox="0 0 24 24" fill="none" xmlns="http://www.w3.org/2000/svg">
<path d="M7.94001 5.12C9.14001 4.41 10.52 4 12 4C16.41 4 20 7.59 20 12C20 13.48 19.59 14.86 18.88 16.06L20.34 17.52C21.4249 15.8837 22.0024 13.9633 22 12C22 6.48 17.52 2 12 2C9.96001 2 8.07001 2.61 6.49001 3.66L7.94001 5.12ZM2.81001 2.81L1.39001 4.22L3.66001 6.49C2.57386 8.12204 1.99616 10.0396 2.00001 12C2.00001 17.52 6.48001 22 12 22C14.04 22 15.93 21.39 17.51 20.34L19.78 22.61L21.19 21.2L2.81001 2.81ZM12 20C7.59001 20 4.00001 16.41 4.00001 12C4.00001 10.52 4.41001 9.14 5.12001 7.94L8.17001 11H7.00001V13H10.17L16.05 18.88C14.8265 19.6135 13.4266 20.0007 12 20Z" fill="black"/>
<path d="M13.83 11L15.83 13H17V11H13.83Z" fill="black"/>
</svg>
