<svg width="24" height="24" viewBox="0 0 24 24" fill="none" xmlns="http://www.w3.org/2000/svg">
<path d="M15 4C10.58 4 7 7.58 7 12C7 16.42 10.58 20 15 20C19.42 20 23 16.42 23 12C23 7.58 19.42 4 15 4ZM15 18C11.69 18 9 15.31 9 12C9 8.69 11.69 6 15 6C18.31 6 21 8.69 21 12C21 15.31 18.31 18 15 18ZM3 12C2.99995 10.7601 3.3847 9.55066 4.10116 8.53866C4.81762 7.52666 5.83048 6.76193 7 6.35V4.26C3.55 5.15 1 8.27 1 12C1 15.73 3.55 18.85 7 19.74V17.65C5.83048 17.2381 4.81762 16.4733 4.10116 15.4613C3.3847 14.4493 2.99995 13.2399 3 12Z" fill="black"/>
</svg>
