<svg width="24" height="24" viewBox="0 0 24 24" fill="none" xmlns="http://www.w3.org/2000/svg">
<path d="M12 6.00312C13.8387 5.99701 15.6419 6.50991 17.2021 7.48285C18.7624 8.45579 20.0164 9.84929 20.82 11.5031C20.24 12.6979 19.4195 13.7601 18.41 14.6231L19.82 16.0331C21.21 14.8031 22.31 13.2631 23 11.5031C21.27 7.11313 17 4.00312 12 4.00312C10.73 4.00312 9.51 4.20313 8.36 4.57313L10.01 6.22312C10.66 6.09312 11.32 6.00312 12 6.00312ZM10.93 7.14312L13 9.21313C13.57 9.46313 14.03 9.92312 14.28 10.4931L16.35 12.5631C16.43 12.2231 16.49 11.8631 16.49 11.4931C16.5 9.01312 14.48 7.00313 12 7.00313C11.63 7.00313 11.28 7.05312 10.93 7.14312ZM2.01 3.87312L4.69 6.55313C3.04032 7.84429 1.76625 9.55341 1 11.5031C2.73 15.8931 7 19.0031 12 19.0031C13.52 19.0031 14.98 18.7131 16.32 18.1831L19.74 21.6031L21.15 20.1931L3.42 2.45312L2.01 3.87312ZM9.51 11.3731L12.12 13.9831C12.08 13.9931 12.04 14.0031 12 14.0031C11.337 14.0031 10.7011 13.7397 10.2322 13.2709C9.76339 12.8021 9.5 12.1662 9.5 11.5031C9.5 11.4531 9.51 11.4231 9.51 11.3731ZM6.11 7.97312L7.86 9.72313C7.62291 10.2866 7.50052 10.8918 7.5 11.5031C7.5013 12.2471 7.68677 12.9793 8.03987 13.6342C8.39297 14.2891 8.90271 14.8464 9.52359 15.2563C10.1445 15.6663 10.8572 15.9162 11.5982 15.9837C12.3391 16.0512 13.0853 15.9342 13.77 15.6431L14.75 16.6231C13.87 16.8631 12.95 17.0031 12 17.0031C10.1613 17.0092 8.35813 16.4963 6.79788 15.5234C5.23763 14.5505 3.98362 13.157 3.18 11.5031C3.88 10.0731 4.9 8.89312 6.11 7.97312Z" fill="black"/>
</svg>
