<svg width="24" height="24" viewBox="0 0 24 24" fill="none" xmlns="http://www.w3.org/2000/svg">
<path d="M-0.0100098 7.72625V9.40625L2.98999 8.40625V18.0063H4.98999V6.00625H4.73999L-0.0100098 7.72625ZM23.77 14.3762C23.63 14.0962 23.42 13.8463 23.14 13.6363C22.86 13.4263 22.53 13.2463 22.13 13.1063C21.73 12.9663 21.28 12.8363 20.78 12.7263C20.4851 12.6693 20.1945 12.5925 19.91 12.4962C19.68 12.4162 19.5 12.3362 19.36 12.2462C19.22 12.1562 19.13 12.0562 19.08 11.9462C19.0252 11.8197 18.9977 11.6831 18.9994 11.5452C19.0012 11.4073 19.032 11.2714 19.09 11.1463C19.15 11.0163 19.24 10.8963 19.36 10.8063C19.48 10.7063 19.63 10.6263 19.81 10.5663C19.99 10.5063 20.21 10.4763 20.45 10.4763C20.7 10.4763 20.92 10.5162 21.11 10.5862C21.3 10.6562 21.46 10.7562 21.59 10.8762C21.72 10.9962 21.81 11.1362 21.88 11.2962C21.94 11.4562 21.98 11.6162 21.98 11.7862H23.93C23.9324 11.4092 23.8501 11.0364 23.6892 10.6954C23.5282 10.3544 23.2927 10.054 23 9.81625C22.7 9.56625 22.34 9.37625 21.91 9.22625C21.48 9.07625 20.99 9.00625 20.45 9.00625C19.94 9.00625 19.47 9.07625 19.06 9.21625C18.65 9.35625 18.29 9.54625 18 9.78625C17.71 10.0262 17.49 10.3062 17.33 10.6262C17.17 10.9462 17.1 11.2763 17.1 11.6363C17.1 11.9963 17.18 12.3263 17.33 12.5963C17.48 12.8763 17.69 13.1162 17.97 13.3262C18.24 13.5362 18.57 13.7063 18.95 13.8563C19.33 13.9963 19.76 14.1162 20.22 14.2162C20.61 14.2962 20.93 14.3862 21.17 14.4762C21.41 14.5662 21.6 14.6663 21.74 14.7663C21.87 14.8663 21.96 14.9863 22.01 15.1063C22.06 15.2263 22.08 15.3563 22.08 15.4963C22.08 15.8163 21.95 16.0663 21.68 16.2663C21.41 16.4663 21.02 16.5562 20.51 16.5562C20.29 16.5562 20.08 16.5362 19.87 16.4762C19.66 16.4262 19.47 16.3462 19.31 16.2362C19.1279 16.114 18.9788 15.9488 18.8759 15.7552C18.773 15.5615 18.7195 15.3455 18.72 15.1262H16.83C16.83 15.4862 16.91 15.8363 17.07 16.1763C17.23 16.5163 17.46 16.8263 17.77 17.1063C18.08 17.3763 18.46 17.5963 18.92 17.7663C19.38 17.9363 19.9 18.0163 20.5 18.0163C21.03 18.0163 21.51 17.9563 21.94 17.8263C22.37 17.6963 22.74 17.5163 23.05 17.2863C23.36 17.0563 23.59 16.7763 23.76 16.4563C23.93 16.1363 24.01 15.7862 24.01 15.3962C23.99 14.9962 23.92 14.6562 23.77 14.3762ZM13.81 7.05625C13.47 6.65625 13.06 6.35625 12.58 6.17625C12.11 5.99625 11.57 5.90625 10.99 5.90625C10.41 5.90625 9.87999 5.99625 9.39999 6.17625C8.91999 6.35625 8.50999 6.64625 8.16999 7.05625C7.82999 7.46625 7.56999 7.98625 7.37999 8.64625C7.19999 9.29625 7.09999 10.0962 7.09999 11.0362V12.9562C7.09999 13.8962 7.18999 14.6963 7.37999 15.3463C7.56999 16.0063 7.82999 16.5363 8.17999 16.9463C8.51999 17.3563 8.92999 17.6563 9.40999 17.8363C9.88999 18.0163 10.42 18.1163 11 18.1163C11.59 18.1163 12.12 18.0263 12.59 17.8363C13.07 17.6563 13.47 17.3563 13.81 16.9463C14.15 16.5363 14.41 16.0063 14.59 15.3463C14.77 14.6963 14.87 13.8962 14.87 12.9562V11.0362C14.87 10.0962 14.78 9.29625 14.59 8.64625C14.41 7.98625 14.15 7.45625 13.81 7.05625ZM12.89 13.2263C12.89 13.8263 12.85 14.3363 12.77 14.7563C12.69 15.1763 12.57 15.5163 12.41 15.7763C12.25 16.0363 12.05 16.2263 11.82 16.3463C11.59 16.4663 11.31 16.5263 11 16.5263C10.7 16.5263 10.42 16.4663 10.18 16.3463C9.93999 16.2263 9.73999 16.0363 9.57999 15.7763C9.41999 15.5163 9.28999 15.1763 9.19999 14.7563C9.10999 14.3363 9.06999 13.8263 9.06999 13.2263V10.7263C9.06999 10.1263 9.10999 9.61625 9.19999 9.20625C9.28999 8.79625 9.40999 8.46625 9.57999 8.20625C9.73999 7.95625 9.93999 7.77625 10.18 7.65625C10.42 7.54625 10.69 7.48625 10.99 7.48625C11.3 7.48625 11.57 7.54625 11.8 7.65625C12.04 7.76625 12.24 7.94625 12.4 8.20625C12.56 8.45625 12.69 8.78625 12.77 9.19625C12.85 9.60625 12.9 10.1162 12.9 10.7162V13.2263H12.89Z" fill="black"/>
</svg>
