<svg width="24" height="24" viewBox="0 0 24 24" fill="none" xmlns="http://www.w3.org/2000/svg">
<path d="M14.06 9.0225L14.98 9.9425L13.87 11.0525L15.28 12.4625L17.8 9.9425L14.05 6.1925L11.53 8.7125L12.94 10.1225L14.06 9.0225ZM20.71 7.0425C20.8027 6.94999 20.8763 6.8401 20.9264 6.71912C20.9766 6.59815 21.0025 6.46847 21.0025 6.3375C21.0025 6.20653 20.9766 6.07685 20.9264 5.95588C20.8763 5.8349 20.8027 5.72501 20.71 5.6325L18.37 3.2925C18.17 3.0925 17.92 3.0025 17.66 3.0025C17.4 3.0025 17.15 3.1025 16.96 3.2925L15.13 5.1225L18.88 8.8725L20.71 7.0425ZM2.81001 2.8125L1.39001 4.2225L8.71001 11.5425L3.00001 17.2525V21.0025H6.75001L12.46 15.2925L19.78 22.6125L21.19 21.2025L2.81001 2.8125ZM5.92001 19.0025H5.00001V18.0825L10.13 12.9525L11.05 13.8725L5.92001 19.0025Z" fill="black"/>
</svg>
