<svg width="24" height="24" viewBox="0 0 24 24" fill="none" xmlns="http://www.w3.org/2000/svg">
<path d="M7.59 5.41109C6.81 4.63109 6.81 3.36109 7.59 2.58109C8.37 1.80109 9.64 1.80109 10.42 2.58109C11.2 3.36109 11.2 4.63109 10.42 5.41109C9.63 6.20109 8.37 6.20109 7.59 5.41109ZM6 16.0011V7.00109H4V16.0011C4 18.7611 6.24 21.0011 9 21.0011H15V19.0011H9C7.34 19.0011 6 17.6611 6 16.0011ZM20 20.0711L14.93 15.0011H11.5V11.3211C12.9 12.4711 15.1 13.4811 17 13.4811V11.3211C15.34 11.3411 13.39 10.4511 12.33 9.28109L10.93 7.73109C10.74 7.52109 10.5 7.35109 10.24 7.23109C9.95 7.09109 9.62 7.00109 9.28 7.00109H9.25C8.01 7.00109 7 8.01109 7 9.25109V15.0011C7 16.6611 8.34 18.0011 10 18.0011H15.07L18.57 21.5011L20 20.0711Z" fill="black"/>
</svg>
