<svg width="24" height="24" viewBox="0 0 24 24" fill="none" xmlns="http://www.w3.org/2000/svg">
<path d="M9.99994 5C9.99994 3.34 8.65994 2 6.99994 2C6.37994 2 5.80994 2.19 5.32994 2.5L9.47994 6.65C9.79994 6.18 9.99994 5.61 9.99994 5ZM13.9999 6C13.9999 4.9 14.8999 4 15.9999 4C17.0999 4 17.9999 4.9 17.9999 6V15.17L19.9999 17.17V6C19.9999 3.79 18.2099 2 15.9999 2C13.7899 2 11.9999 3.79 11.9999 6V9.17L13.9999 11.17V6ZM2.09994 2.1L0.689941 3.51L5.16994 8H3.99994L4.99994 18H5.99994C5.99994 20.21 7.78994 22 9.99994 22C12.2099 22 13.9999 20.21 13.9999 18V16.83L20.4899 23.32L21.8999 21.91L2.09994 2.1ZM7.18994 16H6.80994L6.20994 10H7.16994L7.72994 10.56L7.18994 16ZM11.9999 18C11.9999 19.1 11.0999 20 9.99994 20C8.89994 20 7.99994 19.1 7.99994 18H8.99994L9.55994 12.39L11.9999 14.83V18Z" fill="black"/>
</svg>
