<svg width="24" height="24" viewBox="0 0 24 24" fill="none" xmlns="http://www.w3.org/2000/svg">
<path d="M15.1 19.3669L16.1 21.1069C15.14 21.5469 14.09 21.8369 13 21.9469V19.9269C13.74 19.8369 14.44 19.6469 15.1 19.3669ZM4.07005 12.9969H2.05005C2.16005 14.0969 2.45005 15.1369 2.89005 16.0969L4.63005 15.0969C4.35005 14.4369 4.16005 13.7369 4.07005 12.9969ZM15.1 4.62688L16.1 2.88688C15.14 2.44688 14.1 2.15687 13 2.04688V4.06688C13.74 4.15688 14.44 4.34688 15.1 4.62688ZM19.93 10.9969H21.9501C21.8401 9.89687 21.5501 8.85688 21.1101 7.89688L19.3701 8.89687C19.6501 9.55687 19.84 10.2569 19.93 10.9969ZM8.90005 19.3669L7.90005 21.1069C8.86005 21.5469 9.91005 21.8369 11 21.9469V19.9269C10.26 19.8369 9.56005 19.6469 8.90005 19.3669ZM11 4.06688V2.04688C9.90005 2.15687 8.86005 2.44688 7.90005 2.88688L8.90005 4.62688C9.56005 4.34688 10.26 4.15688 11 4.06688ZM18.3601 7.16687L20.1 6.15687C19.47 5.28687 18.7 4.51688 17.83 3.88688L16.82 5.62688C17.41 6.07688 17.9201 6.58687 18.3601 7.16687ZM4.63005 8.89687L2.89005 7.89688C2.45005 8.85688 2.16005 9.89687 2.05005 10.9969H4.07005C4.16005 10.2569 4.35005 9.55687 4.63005 8.89687ZM19.93 12.9969C19.84 13.7369 19.6501 14.4369 19.3701 15.0969L21.1101 16.0969C21.5501 15.1369 21.8401 14.0869 21.9501 12.9969H19.93ZM16.83 18.3569L17.84 20.0969C18.71 19.4669 19.4801 18.6969 20.1101 17.8269L18.3701 16.8169C17.9201 17.4069 17.41 17.9169 16.83 18.3569ZM7.17005 5.63687L6.17005 3.88688C5.29005 4.52688 4.53005 5.28687 3.90005 6.16687L5.64005 7.17688C6.07477 6.59387 6.58988 6.07538 7.17005 5.63687ZM5.64005 16.8269L3.90005 17.8269C4.53005 18.6969 5.30005 19.4669 6.17005 20.0969L7.18005 18.3569C6.59704 17.9222 6.07855 17.407 5.64005 16.8269ZM13 6.99687H11V12.4069L15.29 16.6969L16.7 15.2869L13 11.5869V6.99687Z" fill="black"/>
</svg>
