<svg width="24" height="24" viewBox="0 0 24 24" fill="none" xmlns="http://www.w3.org/2000/svg">
<path d="M5 16.0014C5 19.8714 8.13 23.0014 12 23.0014C15.87 23.0014 19 19.8714 19 16.0014V12.0014H5V16.0014ZM16.12 4.37141L18.22 2.27141L17.4 1.44141L15.1 3.75141C14.16 3.28141 13.12 3.00141 12 3.00141C10.88 3.00141 9.84 3.28141 8.91 3.75141L6.6 1.44141L5.78 2.27141L7.88 4.37141C6.14 5.64141 5 7.68141 5 10.0014V11.0014H19V10.0014C19 7.68141 17.86 5.64141 16.12 4.37141ZM9 9.00141C8.45 9.00141 8 8.55141 8 8.00141C8 7.45141 8.45 7.00141 9 7.00141C9.55 7.00141 10 7.45141 10 8.00141C10 8.55141 9.55 9.00141 9 9.00141ZM15 9.00141C14.45 9.00141 14 8.55141 14 8.00141C14 7.45141 14.45 7.00141 15 7.00141C15.55 7.00141 16 7.45141 16 8.00141C16 8.55141 15.55 9.00141 15 9.00141Z" fill="black"/>
</svg>
