<svg width="24" height="24" viewBox="0 0 24 24" fill="none" xmlns="http://www.w3.org/2000/svg">
<path d="M21.5799 16.09L20.4899 8.43C20.3536 7.47722 19.878 6.60566 19.1505 5.97551C18.4229 5.34536 17.4924 4.99897 16.5299 5H7.46994C5.47994 5 3.78994 6.46 3.50994 8.43L2.41994 16.09C2.19994 17.63 3.38994 19 4.93994 19C5.61994 19 6.25994 18.73 6.73994 18.25L8.99994 16H14.9999L17.2499 18.25C17.7299 18.73 18.3799 19 19.0499 19C20.6099 19 21.7999 17.63 21.5799 16.09ZM19.4799 16.81C19.4283 16.8707 19.3639 16.9192 19.2912 16.9521C19.2186 16.9849 19.1396 17.0013 19.0599 17C18.9099 17 18.7699 16.94 18.6699 16.84L15.8299 14H8.16994L5.32994 16.84C5.22994 16.94 5.08994 17 4.93994 17C4.86025 17.0013 4.78127 16.9849 4.70865 16.9521C4.63603 16.9192 4.57159 16.8707 4.51994 16.81C4.46607 16.7515 4.42633 16.6814 4.40379 16.6051C4.38126 16.5288 4.37652 16.4484 4.38994 16.37L5.47994 8.71C5.62994 7.74 6.47994 7 7.46994 7H16.5299C17.5199 7 18.3699 7.74 18.5099 8.72L19.5999 16.38C19.6299 16.58 19.5499 16.72 19.4799 16.81Z" fill="black"/>
<path d="M9 8H8V10H6V11H8V13H9V11H11V10H9V8Z" fill="black"/>
<path d="M17 13C17.5523 13 18 12.5523 18 12C18 11.4477 17.5523 11 17 11C16.4477 11 16 11.4477 16 12C16 12.5523 16.4477 13 17 13Z" fill="black"/>
<path d="M15 10C15.5523 10 16 9.55228 16 9C16 8.44772 15.5523 8 15 8C14.4477 8 14 8.44772 14 9C14 9.55228 14.4477 10 15 10Z" fill="black"/>
</svg>
