<svg width="24" height="24" viewBox="0 0 24 24" fill="none" xmlns="http://www.w3.org/2000/svg">
<path d="M22.3 13.77L19.73 11.2L18.32 12.61L20.5401 14.83L14.88 20.49L3.56005 9.17L9.22005 3.51L11.32 5.61L12.73 4.2L10.28 1.75C10.1415 1.60971 9.9764 1.49833 9.79445 1.4223C9.61249 1.34628 9.41725 1.30714 9.22005 1.30714C9.02285 1.30714 8.82761 1.34628 8.64565 1.4223C8.46369 1.49833 8.29864 1.60971 8.16005 1.75L1.80005 8.11C1.65976 8.24859 1.54837 8.41364 1.47235 8.5956C1.39633 8.77756 1.35719 8.9728 1.35719 9.17C1.35719 9.3672 1.39633 9.56244 1.47235 9.7444C1.54837 9.92635 1.65976 10.0914 1.80005 10.23L13.82 22.25C14.41 22.84 15.36 22.84 15.94 22.25L22.3 15.89C22.89 15.3 22.89 14.35 22.3 13.77ZM7.52005 21.48C5.87523 20.7053 4.46008 19.5163 3.41345 18.0296C2.36683 16.543 1.72469 14.8097 1.55005 13H0.0500488C0.560049 19.16 5.71005 24 12 24L12.66 23.97L8.85005 20.15L7.52005 21.48ZM15.05 10H20.05C20.6 10 21.05 9.55 21.05 9V5C21.05 4.45 20.6 4 20.05 4V3.5C20.05 2.83696 19.7867 2.20107 19.3178 1.73223C18.849 1.26339 18.2131 1 17.55 1C16.887 1 16.2511 1.26339 15.7823 1.73223C15.3134 2.20107 15.05 2.83696 15.05 3.5V4C14.5 4 14.05 4.45 14.05 5V9C14.05 9.55 14.5 10 15.05 10ZM15.85 3.5C15.85 2.56 16.61 1.8 17.55 1.8C18.49 1.8 19.25 2.56 19.25 3.5V4H15.85V3.5Z" fill="black"/>
</svg>
