<svg width="24" height="24" viewBox="0 0 24 24" fill="none" xmlns="http://www.w3.org/2000/svg">
<path d="M7.33999 6.40781L0.859985 12.8978L7.34999 19.3778L13.84 12.8978L7.33999 6.40781ZM3.68999 12.8978L7.34999 9.23781L11 12.8978L7.33999 16.5578L3.68999 12.8978ZM19.36 6.63781C18.5267 5.79962 17.5357 5.13478 16.4441 4.68166C15.3524 4.22854 14.1819 3.99612 13 3.99781V0.757812L8.75999 4.99781L13 9.23781V5.99781C14.79 5.99781 16.58 6.67781 17.95 8.04781C19.2612 9.3615 19.9976 11.1417 19.9976 12.9978C19.9976 14.8539 19.2612 16.6341 17.95 17.9478C16.951 18.9499 15.6707 19.6243 14.2793 19.8815C12.8879 20.1387 11.4512 19.9665 10.16 19.3878L8.66999 20.8778C10.02 21.6178 11.51 21.9978 13 21.9978C15.3 21.9978 17.61 21.1178 19.36 19.3578C20.1969 18.5236 20.861 17.5323 21.314 16.441C21.7671 15.3496 22.0004 14.1795 22.0004 12.9978C22.0004 11.8161 21.7671 10.646 21.314 9.55466C20.861 8.46328 20.1969 7.47206 19.36 6.63781Z" fill="black"/>
</svg>
