<svg width="24" height="24" viewBox="0 0 24 24" fill="none" xmlns="http://www.w3.org/2000/svg">
<path d="M4.99994 15H18.9999V9H4.99994V15ZM6.99994 11H16.9999V13H6.99994V11ZM10.9999 2H12.9999V5H10.9999V2ZM17.2859 6.399L19.0759 4.596L20.4959 6.006L18.7059 7.808L17.2859 6.399ZM10.9999 19H12.9999V22H10.9999V19ZM17.2899 17.71L19.0799 19.51L20.4999 18.09L18.6999 16.3L17.2899 17.71ZM3.49494 6.01L4.90194 4.602L6.68994 6.391L5.28394 7.798L3.49494 6.01ZM3.49194 18.076L5.29494 16.286L6.70394 17.706L4.90094 19.496L3.49194 18.076Z" fill="black"/>
</svg>
