<svg width="24" height="24" viewBox="0 0 24 24" fill="none" xmlns="http://www.w3.org/2000/svg">
<path d="M4 18H20C21.1 18 21.99 17.1 21.99 16L22 5C22 3.9 21.1 3 20 3H4C2.9 3 2 3.9 2 5V16C2 17.1 2.9 18 4 18ZM4 5H20V16H4V5ZM1 19H23V21H1V19Z" fill="black"/>
<path d="M13.9701 7.5275C12.6001 6.1575 10.3901 6.1575 9.02005 7.5275C7.65005 8.8975 7.65005 11.1075 9.02005 12.4775C10.2001 13.6575 12.0201 13.8175 13.3801 12.9475L15.4701 15.0375L16.5301 13.9775L14.4401 11.8875C15.3101 10.5275 15.1601 8.7075 13.9701 7.5275ZM12.9101 11.4075C12.1301 12.1875 10.8601 12.1875 10.0801 11.4075C9.30005 10.6275 9.30005 9.3575 10.0801 8.5775C10.8601 7.7975 12.1301 7.7975 12.9101 8.5775C13.6901 9.3675 13.6901 10.6275 12.9101 11.4075Z" fill="black"/>
</svg>
