<svg width="24" height="24" viewBox="0 0 24 24" fill="none" xmlns="http://www.w3.org/2000/svg">
<path d="M14.39 10.9994L16 12.6094V10.9994H14.39ZM17 6.99938H13V8.89937H17C18.71 8.89937 20.1 10.2894 20.1 11.9994C20.1 13.2694 19.33 14.3694 18.23 14.8394L19.63 16.2394C20.3538 15.7933 20.9514 15.1696 21.3662 14.4275C21.7811 13.6854 21.9992 12.8495 22 11.9994C22 9.23938 19.76 6.99938 17 6.99938ZM2 4.26938L5.11 7.37938C4.19119 7.75322 3.40462 8.39238 2.85069 9.21526C2.29676 10.0381 2.00059 11.0074 2 11.9994C2 14.7594 4.24 16.9994 7 16.9994H11V15.0994H7C5.29 15.0994 3.9 13.7094 3.9 11.9994C3.9 10.4094 5.11 9.09938 6.66 8.92938L8.73 10.9994H8V12.9994H10.73L13 15.2694V16.9994H14.73L18.74 21.0094L20.15 19.5994L3.41 2.85938L2 4.26938Z" fill="black"/>
</svg>
