<svg width="24" height="24" viewBox="0 0 24 24" fill="none" xmlns="http://www.w3.org/2000/svg">
<path d="M12 12C9.24 12 7 14.24 7 17C7 19.76 9.24 22 12 22C14.76 22 17 19.76 17 17C17 14.24 14.76 12 12 12ZM12 20C10.35 20 9 18.65 9 17C9 15.35 10.35 14 12 14C13.65 14 15 15.35 15 17C15 18.65 13.65 20 12 20ZM12 3C8.1 3 4.56 4.59 2 7.15L7 12.15C7.65521 11.4914 8.43396 10.9686 9.2916 10.6116C10.1492 10.2545 11.0689 10.0703 11.9979 10.0693C12.9269 10.0684 13.847 10.2508 14.7053 10.6062C15.5637 10.9615 16.3435 11.4827 17 12.14L22 7.14C19.44 4.59 15.9 3 12 3ZM16.84 9.47C15.4 8.56 13.74 8.07 12 8.07C10.26 8.07 8.59 8.56 7.15 9.48L4.94 7.26C6.99 5.79 9.44 5 12 5C14.56 5 17 5.79 19.05 7.26L16.84 9.47Z" fill="black"/>
</svg>
