<svg width="24" height="24" viewBox="0 0 24 24" fill="none" xmlns="http://www.w3.org/2000/svg">
<path d="M17 22C18.66 22 20 20.66 20 19C20 17.34 18.66 16 17 16C15.7 16 14.6 16.84 14.18 18H9.14L11.13 14.94C11.7073 15.0197 12.2927 15.0197 12.87 14.94L13.89 16.51C14.31 15.98 14.85 15.56 15.49 15.3L14.89 14.37C16.115 13.8158 17.1543 12.9201 17.8832 11.7903C18.6122 10.6606 18.9999 9.34455 19 8H5C5 10.84 6.69 13.27 9.12 14.37L5.17 20.45C5.02622 20.6717 4.97602 20.9412 5.03035 21.1998C5.08469 21.4584 5.23916 21.6849 5.46 21.83C5.68168 21.9738 5.95124 22.024 6.20982 21.9696C6.46839 21.9153 6.69495 21.7608 6.84 21.54L7.84 19.99H14.18C14.6 21.16 15.7 22 17 22ZM17 18C17.55 18 18 18.45 18 19C18 19.55 17.55 20 17 20C16.45 20 16 19.55 16 19C16 18.45 16.45 18 17 18ZM9.41 7H10.41C10.56 5.85 10.64 5.36 9.52 4.04C9.1 3.54 8.84 3.27 9.06 2H8.07C7.86 3.11 8.1 4.05 8.96 4.96C9.18 5.2 9.75 5.63 9.41 7ZM11.89 7H12.89C13.04 5.85 13.12 5.36 12 4.04C11.58 3.54 11.32 3.26 11.54 2H10.55C10.34 3.11 10.58 4.05 11.44 4.96C11.67 5.2 12.24 5.63 11.89 7ZM14.41 7H15.41C15.56 5.85 15.64 5.36 14.52 4.04C14.1 3.54 13.84 3.27 14.06 2H13.07C12.86 3.11 13.1 4.05 13.96 4.96C14.18 5.2 14.75 5.63 14.41 7Z" fill="black"/>
</svg>
