<svg width="24" height="24" viewBox="0 0 24 24" fill="none" xmlns="http://www.w3.org/2000/svg">
<path d="M18.4999 12C18.4999 8.11004 19.3399 5.05004 19.9299 3.31004C19.9805 3.15996 19.9944 2.99996 19.9706 2.8434C19.9467 2.68683 19.8858 2.53825 19.7928 2.41004C19.6998 2.28183 19.5775 2.17772 19.4361 2.1064C19.2947 2.03508 19.1383 1.99861 18.9799 2.00004H4.99994C4.31994 2.00004 3.83994 2.66004 4.04994 3.31004C4.73994 5.36004 5.49994 8.10004 5.49994 12C5.49994 15.87 4.73994 18.66 4.04994 20.69C3.83994 21.34 4.31994 22 4.99994 22H18.9999C19.6799 22 20.1699 21.34 19.9499 20.69C19.2699 18.66 18.4999 15.86 18.4999 12Z" fill="black"/>
</svg>
