<svg width="24" height="24" viewBox="0 0 24 24" fill="none" xmlns="http://www.w3.org/2000/svg">
<path d="M11 4.06688V2.04688C8.99005 2.24688 7.16005 3.04688 5.68005 4.25688L7.10005 5.68688C8.23 4.80476 9.57766 4.24497 11 4.06688ZM18.32 4.25688C16.8035 3.01169 14.9525 2.24278 13 2.04688V4.06688C14.46 4.24688 15.79 4.82688 16.9 5.68688L18.32 4.25688ZM19.93 10.9969H21.9501C21.7501 8.98687 20.95 7.15687 19.74 5.67687L18.31 7.09688C19.1922 8.22683 19.752 9.57448 19.93 10.9969ZM5.69005 7.09688L4.26005 5.67687C3.01486 7.19346 2.24595 9.0444 2.05005 10.9969H4.07005C4.25005 9.53687 4.83005 8.20688 5.69005 7.09688ZM4.07005 12.9969H2.05005C2.25005 15.0069 3.05005 16.8369 4.26005 18.3169L5.69005 16.8869C4.80641 15.7616 4.24632 14.4167 4.07005 12.9969ZM15 11.9969C15 10.3369 13.66 8.99687 12 8.99687C10.34 8.99687 9.00005 10.3369 9.00005 11.9969C9.00005 13.6569 10.34 14.9969 12 14.9969C13.66 14.9969 15 13.6569 15 11.9969ZM18.31 16.8969L19.74 18.3269C20.9836 16.8093 21.7523 14.9589 21.9501 13.0069H19.93C19.75 14.4257 19.1903 15.7697 18.31 16.8969ZM13 19.9269V21.9469C15.01 21.7469 16.84 20.9469 18.32 19.7369L16.89 18.3069C15.79 19.1669 14.46 19.7469 13 19.9269ZM5.68005 19.7369C7.19762 20.9804 9.04805 21.7491 11 21.9469V19.9269C9.57766 19.7488 8.23 19.189 7.10005 18.3069L5.68005 19.7369Z" fill="black"/>
</svg>
