<svg width="24" height="24" viewBox="0 0 24 24" fill="none" xmlns="http://www.w3.org/2000/svg">
<path d="M4.5 11C5.32843 11 6 10.3284 6 9.5C6 8.67157 5.32843 8 4.5 8C3.67157 8 3 8.67157 3 9.5C3 10.3284 3.67157 11 4.5 11Z" fill="black"/>
<path d="M22.17 9.17188C22.17 5.30188 19.04 2.17188 15.17 2.17188C11.3 2.17188 8.17 5.30188 8.17 9.17188C8.16872 10.8246 8.75397 12.4242 9.82156 13.6859C10.8892 14.9476 12.3698 15.7896 14 16.0619V20.0019H6V17.0019H7V13.0019C7 12.4519 6.55 12.0019 6 12.0019H3C2.45 12.0019 2 12.4519 2 13.0019V17.0019H3V22.0019H19V20.0019H16V16.1219C17.7006 15.9188 19.2677 15.0993 20.4048 13.8185C21.5418 12.5377 22.1698 10.8846 22.17 9.17188ZM15.17 14.1719C12.41 14.1719 10.17 11.9319 10.17 9.17188C10.17 6.41188 12.41 4.17188 15.17 4.17188C17.93 4.17188 20.17 6.41188 20.17 9.17188C20.17 11.9319 17.93 14.1719 15.17 14.1719Z" fill="black"/>
</svg>
