<svg width="24" height="24" viewBox="0 0 24 24" fill="none" xmlns="http://www.w3.org/2000/svg">
<path d="M20.19 4H4C2.9 4 2.01 4.9 2.01 6V10C3.11 10 4 10.9 4 12C4 13.1 3.11 14 2 14V18C2 19.1 2.9 20 4 20H20C21.1 20 22 19.1 22 18V6C22 4.9 21.19 4 20.19 4ZM20 18H4V15.46C5.19 14.77 6 13.47 6 12C6 10.52 5.2 9.23 4.01 8.54L4 6H20V18ZM8.87 15.66L7.21 12.78L8.14 12.53L9.4 13.52L11.79 12.88L9.39 8.72L10.79 8.34L14.8 12.08L17.24 11.43C17.4866 11.3648 17.749 11.3997 17.97 11.527C18.191 11.6544 18.3528 11.8639 18.42 12.11C18.4822 12.3591 18.4449 12.6227 18.3161 12.8448C18.1873 13.0669 17.9771 13.2302 17.73 13.3L8.87 15.66Z" fill="black"/>
</svg>
