<svg width="24" height="24" viewBox="0 0 24 24" fill="none" xmlns="http://www.w3.org/2000/svg">
<path d="M18 13C14.69 13 12 15.69 12 19C15.31 19 18 16.31 18 13ZM6 13C6 16.31 8.69 19 12 19C12 15.69 9.31 13 6 13ZM8 11.03C8.00092 11.3145 8.07952 11.5934 8.22732 11.8365C8.37513 12.0796 8.58653 12.2777 8.83869 12.4094C9.09086 12.5412 9.37422 12.6015 9.65819 12.584C9.94215 12.5665 10.2159 12.4717 10.45 12.31L10.44 12.43C10.44 13.29 11.14 13.99 12 13.99C12.86 13.99 13.56 13.29 13.56 12.43L13.55 12.31C13.8 12.48 14.11 12.59 14.44 12.59C15.3 12.59 16 11.89 16 11.03C16 10.41 15.63 9.87 15.11 9.62C15.63 9.38 16 8.84 16 8.22C15.9991 7.93549 15.9205 7.65664 15.7727 7.41354C15.6249 7.17044 15.4135 6.97233 15.1613 6.84058C14.9091 6.70884 14.6258 6.64847 14.3418 6.66599C14.0578 6.68351 13.7841 6.77826 13.55 6.94L13.56 6.82C13.56 5.96 12.86 5.26 12 5.26C11.14 5.26 10.44 5.96 10.44 6.82L10.45 6.94C10.2159 6.77826 9.94215 6.68351 9.65819 6.66599C9.37422 6.64847 9.09086 6.70884 8.83869 6.84058C8.58653 6.97233 8.37513 7.17044 8.22732 7.41354C8.07952 7.65664 8.00092 7.93549 8 8.22C8 8.84 8.37 9.38 8.89 9.63C8.37 9.87 8 10.41 8 11.03ZM12 8.06C12.86 8.06 13.56 8.76 13.56 9.62C13.56 10.48 12.86 11.18 12 11.18C11.14 11.18 10.44 10.48 10.44 9.62C10.44 8.76 11.14 8.06 12 8.06ZM20 4V20H4V4H20ZM20 2H4C2.9 2 2 2.9 2 4V20C2 21.1 2.9 22 4 22H20C21.1 22 22 21.1 22 20V4C22 2.9 21.1 2 20 2Z" fill="black"/>
</svg>
