<svg width="24" height="24" viewBox="0 0 24 24" fill="none" xmlns="http://www.w3.org/2000/svg">
<path d="M20 7L20.94 4.94L23 4L20.94 3.06L20 1L19.06 3.06L17 4L19.06 4.94L20 7ZM14.17 8.42L15.58 9.83L14.12 11.29L15.53 12.7L17.7 10.53C17.7927 10.4375 17.8663 10.3276 17.9164 10.2066C17.9666 10.0857 17.9925 9.95597 17.9925 9.825C17.9925 9.69403 17.9666 9.56435 17.9164 9.44338C17.8663 9.3224 17.7927 9.21251 17.7 9.12L14.87 6.29C14.7783 6.1978 14.6692 6.1247 14.549 6.07492C14.4289 6.02515 14.3001 5.99968 14.17 6C13.91 6 13.66 6.1 13.46 6.29L11.29 8.46L12.7 9.87L14.17 8.42ZM1.39001 4.22L8.46001 11.29L2.29001 17.46C2.19731 17.5525 2.12376 17.6624 2.07358 17.7834C2.0234 17.9043 1.99757 18.034 1.99757 18.165C1.99757 18.296 2.0234 18.4257 2.07358 18.5466C2.12376 18.6676 2.19731 18.7775 2.29001 18.87L5.12001 21.7C5.32001 21.9 5.57001 22 5.83001 22C6.09001 22 6.34001 21.9 6.54001 21.71L12.71 15.54L19.78 22.61L21.19 21.2L2.81001 2.81L1.39001 4.22ZM11.29 14.12L5.83001 19.58L4.42001 18.17L9.88001 12.71L11.29 14.12Z" fill="black"/>
</svg>
