<svg width="24" height="24" viewBox="0 0 24 24" fill="none" xmlns="http://www.w3.org/2000/svg">
<path d="M18 16L22 12L18 8V11H12.94C12.7734 9.50502 12.2337 8.07589 11.3705 6.84399C10.5073 5.61209 9.3483 4.61693 8 3.95C7.9856 3.16346 7.66334 2.41393 7.10243 1.86236C6.54151 1.31079 5.78667 1.00118 5 1C3.34 1 2 2.34 2 4C2 5.66 3.34 7 5 7C5.95 7 6.78 6.55 7.33 5.86C9.23 6.9 10.6 8.77 10.92 11H7.82C7.4 9.84 6.3 9 5 9C3.34 9 2 10.34 2 12C2 13.66 3.34 15 5 15C6.3 15 7.4 14.16 7.82 13H10.92C10.6 15.23 9.23 17.1 7.34 18.14C6.78 17.45 5.95 17 5 17C3.34 17 2 18.34 2 20C2 21.66 3.34 23 5 23C5.78612 23.0001 6.54063 22.6906 7.10023 22.1384C7.65983 21.5863 7.97948 20.836 7.99 20.05C9.3383 19.3831 10.4973 18.3879 11.3605 17.156C12.2237 15.9241 12.7634 14.495 12.93 13H18V16Z" fill="black"/>
</svg>
