<svg width="24" height="24" viewBox="0 0 24 24" fill="none" xmlns="http://www.w3.org/2000/svg">
<path d="M9.09997 5H14.9L19 9.1V14.9L18.78 15.12L20.2 16.53L21 15.73V8.27L15.73 3H8.26997L7.46997 3.8L8.87997 5.22L9.09997 5Z" fill="black"/>
<path d="M12 17C12.5523 17 13 16.5523 13 16C13 15.4477 12.5523 15 12 15C11.4477 15 11 15.4477 11 16C11 16.5523 11.4477 17 12 17Z" fill="black"/>
<path d="M13 9.32812V6.99813H11V7.32812L13 9.32812ZM2.41 1.57812L1 2.98812L4.64 6.62813L3 8.26813V15.7281L8.27 20.9981H15.73L17.37 19.3581L21.01 22.9981L22.42 21.5881L2.41 1.57812ZM14.9 18.9981H9.1L5 14.8981V9.09813L6.05 8.04813L15.95 17.9481L14.9 18.9981Z" fill="black"/>
</svg>
