<svg width="24" height="24" viewBox="0 0 24 24" fill="none" xmlns="http://www.w3.org/2000/svg">
<path d="M15 19.0034H8V12.3734C9.26 12.0334 10.11 11.1034 10.77 10.3834C11.6 9.47344 12.08 9.00344 13 9.00344H15V19.0034ZM10 2.02344C8.11 2.02344 6.49 3.13344 5.73 4.73344C4.15 5.26344 3 6.74344 3 8.50344C3 10.3634 4.28 11.9134 6 12.3634V21.0034H17V19.0034H19C20.1 19.0034 21 18.1034 21 17.0034V11.0034C21 9.90344 20.1 9.00344 19 9.00344H17.44C17.79 8.41344 18 7.73344 18 7.00344C18 4.79344 16.21 3.00344 14 3.00344C13.66 3.00344 13.34 3.05344 13.02 3.13344C12.175 2.42018 11.1058 2.02721 10 2.02344ZM7 10.5034C5.9 10.5034 5 9.60344 5 8.50344C5 7.65344 5.55 6.90344 6.37 6.62344L7.17 6.35344L7.53 5.59344C8 4.62344 8.94 4.02344 10 4.02344C10.79 4.02344 11.39 4.37344 11.74 4.67344L12.52 5.32344C12.52 5.32344 13.16 5.00344 13.99 5.00344C15.09 5.00344 15.99 5.90344 15.99 7.00344H12.99C9.67 7.00344 9.15 10.5034 7 10.5034ZM17 17.0034V11.0034H19V17.0034H17Z" fill="black"/>
</svg>
