<svg width="24" height="24" viewBox="0 0 24 24" fill="none" xmlns="http://www.w3.org/2000/svg">
<path d="M22 9.00344H17.21L12.83 2.44344C12.64 2.16344 12.32 2.02344 12 2.02344C11.68 2.02344 11.36 2.16344 11.17 2.45344L6.79 9.00344H2C1.45 9.00344 1 9.45344 1 10.0034C1 10.0934 1.01 10.1834 1.04 10.2734L3.58 19.5434C3.81 20.3834 4.58 21.0034 5.5 21.0034H18.5C19.42 21.0034 20.19 20.3834 20.43 19.5434L22.97 10.2734L23 10.0034C23 9.45344 22.55 9.00344 22 9.00344ZM12 4.80344L14.8 9.00344H9.2L12 4.80344ZM18.5 19.0034L5.51 19.0134L3.31 11.0034H20.7L18.5 19.0034ZM12 13.0034C10.9 13.0034 10 13.9034 10 15.0034C10 16.1034 10.9 17.0034 12 17.0034C13.1 17.0034 14 16.1034 14 15.0034C14 13.9034 13.1 13.0034 12 13.0034Z" fill="black"/>
</svg>
