<svg width="24" height="24" viewBox="0 0 24 24" fill="none" xmlns="http://www.w3.org/2000/svg">
<path d="M19.5 9.5C18.47 9.5 17.6 10.12 17.21 11H14.29C13.9 10.12 13.03 9.5 12 9.5C10.97 9.5 10.1 10.12 9.71 11H6.79C6.4 10.12 5.53 9.5 4.5 9.5C3.83696 9.5 3.20107 9.76339 2.73223 10.2322C2.26339 10.7011 2 11.337 2 12C2 12.663 2.26339 13.2989 2.73223 13.7678C3.20107 14.2366 3.83696 14.5 4.5 14.5C5.53 14.5 6.4 13.88 6.79 13H9.71C10.1 13.88 10.97 14.5 12 14.5C13.03 14.5 13.9 13.88 14.29 13H17.21C17.6 13.88 18.47 14.5 19.5 14.5C20.163 14.5 20.7989 14.2366 21.2678 13.7678C21.7366 13.2989 22 12.663 22 12C22 11.337 21.7366 10.7011 21.2678 10.2322C20.7989 9.76339 20.163 9.5 19.5 9.5Z" fill="black"/>
</svg>
