<svg width="24" height="24" viewBox="0 0 24 24" fill="none" xmlns="http://www.w3.org/2000/svg">
<path d="M18.7499 10.08L17.3999 6.05002C17.2039 5.45209 16.8234 4.93164 16.3132 4.56335C15.803 4.19506 15.1892 3.99785 14.5599 4.00002H9.43995C8.14995 4.00002 6.99995 4.82002 6.59995 6.05002L5.80995 8.40002L4.40995 7.00002L4.69995 6.71002C4.79253 6.61744 4.86597 6.50753 4.91607 6.38656C4.96618 6.2656 4.99197 6.13595 4.99197 6.00502C4.99197 5.87409 4.96618 5.74444 4.91607 5.62347C4.86597 5.50251 4.79253 5.3926 4.69995 5.30002C4.60736 5.20744 4.49745 5.134 4.37649 5.08389C4.25552 5.03379 4.12588 5.008 3.99495 5.008C3.86401 5.008 3.73437 5.03379 3.6134 5.08389C3.49244 5.134 3.38253 5.20744 3.28995 5.30002L1.28995 7.30002C1.10297 7.487 0.997925 7.74059 0.997925 8.00502C0.997925 8.26944 1.10297 8.52304 1.28995 8.71002C1.47692 8.897 1.73052 9.00204 1.99495 9.00204C2.25937 9.00204 2.51297 8.897 2.69995 8.71002L2.99995 8.41002L4.78995 10.2C3.17995 10.72 1.99995 12.22 1.99995 14C1.99995 15.49 2.82995 16.78 4.04995 17.47C4.15976 18.174 4.51724 18.8156 5.05805 19.2794C5.59887 19.7432 6.28748 19.9988 6.99995 20C8.29995 20 9.39995 19.16 9.81995 18H14.1899C14.5999 19.16 15.6999 20 17.0099 20C18.4999 20 19.7399 18.9 19.9599 17.47C21.1699 16.78 21.9999 15.49 21.9999 14C21.9999 12.05 20.5999 10.43 18.7499 10.08ZM12.9999 6.00002H14.5599C14.7696 5.99948 14.9741 6.06484 15.1446 6.18686C15.315 6.30888 15.4429 6.4814 15.5099 6.68002L16.6099 10H12.9999V6.00002ZM8.48994 6.68002C8.55703 6.4814 8.68484 6.30888 8.85532 6.18686C9.02579 6.06484 9.2303 5.99948 9.43995 6.00002H10.9999V10H7.40995L7.38995 9.98002L8.48994 6.68002ZM6.99995 18C6.44995 18 5.99995 17.55 5.99995 17C5.99995 16.45 6.44995 16 6.99995 16C7.54995 16 7.99995 16.45 7.99995 17C7.99995 17.55 7.54995 18 6.99995 18ZM16.9999 18C16.4499 18 15.9999 17.55 15.9999 17C15.9999 16.45 16.4499 16 16.9999 16C17.5499 16 17.9999 16.45 17.9999 17C17.9999 17.55 17.5499 18 16.9999 18ZM19.4899 15.32C19.213 14.9146 18.8417 14.5826 18.4079 14.3527C17.9741 14.1227 17.4909 14.0017 16.9999 14C15.6999 14 14.5999 14.84 14.1799 16H9.81995C9.39995 14.84 8.29995 14 6.99995 14C5.96995 14 5.04995 14.53 4.50995 15.32C4.19995 14.97 3.99995 14.51 3.99995 14C3.99995 12.9 4.89995 12 5.99995 12H17.9999C19.0999 12 19.9999 12.9 19.9999 14C19.9999 14.51 19.7999 14.97 19.4899 15.32Z" fill="black"/>
</svg>
