<svg width="24" height="24" viewBox="0 0 24 24" fill="none" xmlns="http://www.w3.org/2000/svg">
<path d="M21.8999 21.9016L15.7999 15.8016L13.1099 13.1116L4.99994 5.00156L3.58994 3.59156L2.09994 2.10156L0.689941 3.51156L2.99994 5.83156V19.0016C2.99994 20.1016 3.89994 21.0016 4.99994 21.0016H18.1699L20.4799 23.3116L21.8999 21.9016ZM4.99994 19.0016V7.83156L11.8399 14.6716L10.9999 15.7216L8.99994 13.0016L5.99994 17.0016H14.1699L16.1699 19.0016H4.99994ZM7.82994 5.00156L5.82994 3.00156H18.9999C20.0999 3.00156 20.9999 3.90156 20.9999 5.00156V18.1716L18.9999 16.1716V5.00156H7.82994Z" fill="black"/>
</svg>
