<svg width="24" height="24" viewBox="0 0 24 24" fill="none" xmlns="http://www.w3.org/2000/svg">
<path d="M23.71 16.6728C20.66 13.7828 16.54 12.0028 12 12.0028C7.46 12.0028 3.34 13.7828 0.29 16.6728C0.11 16.8528 0 17.1028 0 17.3828C0 17.6628 0.11 17.9128 0.29 18.0928L2.77 20.5728C2.95 20.7528 3.2 20.8628 3.48 20.8628C3.75 20.8628 4 20.7528 4.18 20.5828C4.97 19.8428 5.87 19.2228 6.84 18.7328C7.17 18.5728 7.4 18.2328 7.4 17.8328V14.7328C8.85 14.2528 10.4 14.0028 12 14.0028C13.6 14.0028 15.15 14.2528 16.6 14.7228V17.8228C16.6 18.2128 16.83 18.5628 17.16 18.7228C18.14 19.2128 19.03 19.8428 19.83 20.5728C20.01 20.7528 20.26 20.8528 20.53 20.8528C20.81 20.8528 21.06 20.7428 21.24 20.5628L23.72 18.0828C23.9 17.9028 24.01 17.6528 24.01 17.3728C24.01 17.0928 23.89 16.8528 23.71 16.6728ZM5.4 17.2328C4.74 17.6028 4.11 18.0328 3.53 18.5028L2.46 17.4328C3.37 16.6828 4.36 16.0428 5.41 15.5328V17.2328H5.4ZM20.48 18.4928C19.88 18.0128 19.26 17.5928 18.6 17.2228V15.5228C19.65 16.0328 20.63 16.6728 21.55 17.4228L20.48 18.4928ZM7 6.43281L11.94 11.3728L19.01 4.30281L17.6 2.88281L11.94 8.54281L8.4 5.00281H11V3.00281H5V9.00281H7V6.43281Z" fill="black"/>
</svg>
