<svg width="24" height="24" viewBox="0 0 24 24" fill="none" xmlns="http://www.w3.org/2000/svg">
<path d="M11 11.0024H13.12L19.28 4.84244L17.16 2.72244L11 8.88244V11.0024ZM20.71 2.00244L20 1.29244C19.9075 1.19974 19.7976 1.12619 19.6766 1.07601C19.5557 1.02583 19.426 1 19.295 1C19.164 1 19.0343 1.02583 18.9134 1.07601C18.7924 1.12619 18.6825 1.19974 18.59 1.29244L17.87 2.01244L19.99 4.13244L20.71 3.41244C20.8027 3.31993 20.8763 3.21004 20.9264 3.08907C20.9766 2.9681 21.0024 2.83841 21.0024 2.70744C21.0024 2.57648 20.9766 2.44679 20.9264 2.32582C20.8763 2.20485 20.8027 2.09496 20.71 2.00244ZM17.9 9.05244C17.96 9.41244 18 9.79244 18 10.2024C18 11.9124 16.92 14.8424 12 19.3424C7.08 14.8524 6 11.9124 6 10.2024C6 6.17244 9.09 4.00244 12 4.00244C12.32 4.00244 12.65 4.03244 12.97 4.08244L14.62 2.43244C13.7743 2.15372 12.8904 2.00864 12 2.00244C7.8 2.00244 4 5.22244 4 10.2024C4 13.5224 6.67 17.4524 12 22.0024C17.33 17.4524 20 13.5224 20 10.2024C20 9.19244 19.84 8.26244 19.55 7.40244L17.9 9.05244Z" fill="black"/>
</svg>
