<svg width="24" height="24" viewBox="0 0 24 24" fill="none" xmlns="http://www.w3.org/2000/svg">
<path d="M12 6.36313C13.53 8.36313 15.08 10.7931 15.71 12.6031L17.94 14.8331C17.97 14.5631 18 14.2831 18 14.0031C18 10.0231 12 3.20312 12 3.20312C12 3.20312 10.82 4.55312 9.5 6.39312L10.94 7.83313C11.28 7.32313 11.64 6.83313 12 6.36313ZM5.41 5.14312L4 6.55313L7.32 9.87313C6.55 11.3331 6 12.7931 6 14.0031C6 17.3131 8.69 20.0031 12 20.0031C13.52 20.0031 14.9 19.4331 15.95 18.5031L18.58 21.1331L20 19.7231L5.41 5.14312ZM12 18.0031C9.79 18.0031 8 16.2131 8 14.0031C8 13.3131 8.32 12.3831 8.81 11.3631L14.53 17.0831C13.83 17.6431 12.96 18.0031 12 18.0031Z" fill="black"/>
</svg>
