<svg width="24" height="24" viewBox="0 0 24 24" fill="none" xmlns="http://www.w3.org/2000/svg">
<path d="M20.5 13.0031H22V16.0031H20.5V13.0031ZM18 13.0031H19.5V16.0031H18V13.0031ZM17 13.0031H14.66L17 15.3431V13.0031ZM14.5 8.65312H16.03C17.08 8.65312 18 9.39313 18 10.7031V12.0031H19.5V10.3631C19.5 8.55312 17.9 7.20312 16.03 7.20312H14.5C13.48 7.20312 12.65 6.22312 12.65 5.20312C12.65 4.18312 13.48 3.45312 14.5 3.45312V1.95312C13.6115 1.95313 12.7594 2.30607 12.1312 2.93432C11.5029 3.56256 11.15 4.41465 11.15 5.30313C11.15 6.1916 11.5029 7.04369 12.1312 7.67193C12.7594 8.30018 13.6115 8.65312 14.5 8.65312ZM18.85 4.73312C19.47 4.12312 19.85 3.28312 19.85 2.35312H18.35C18.35 3.37312 17.52 4.20312 16.5 4.20312V5.70312C18.74 5.70312 20.5 7.53313 20.5 9.77313V12.0031H22V9.76313C22 7.54313 20.72 5.62312 18.85 4.73312ZM3.41 4.59313L2 6.00313L9 13.0031H2V16.0031H12L19 23.0031L20.41 21.5931L3.41 4.59313Z" fill="black"/>
</svg>
