<svg width="24" height="24" viewBox="0 0 24 24" fill="none" xmlns="http://www.w3.org/2000/svg">
<path d="M16 7H15L14 6H10L9 7H8C6.9 7 6 7.9 6 9V15C6 16.1 6.9 17 8 17H16C17.1 17 18 16.1 18 15V9C18 7.9 17.1 7 16 7ZM16 15H8V9H9.83L10.83 8H13.17L14.17 9H16V15Z" fill="black"/>
<path d="M12 14C13.1046 14 14 13.1046 14 12C14 10.8954 13.1046 10 12 10C10.8954 10 10 10.8954 10 12C10 13.1046 10.8954 14 12 14Z" fill="black"/>
<path d="M8.57 0.519475L13.05 4.99947L14.46 3.58947L12.92 2.04947C17.7 2.45947 21.53 6.23947 22 10.9995H24C23.36 3.29947 15.79 -1.67053 8.57 0.519475ZM9.54 20.4095L11.08 21.9495C6.3 21.5395 2.47 17.7595 2 12.9995H0C0.64 20.6995 8.21 25.6695 15.43 23.4795L10.95 18.9995L9.54 20.4095Z" fill="black"/>
</svg>
