<svg width="24" height="24" viewBox="0 0 24 24" fill="none" xmlns="http://www.w3.org/2000/svg">
<path d="M20 4H16.83L15 2H9L7.17 4H4C2.9 4 2 4.9 2 6V18C2 19.1 2.9 20 4 20H20C21.1 20 22 19.1 22 18V6C22 4.9 21.1 4 20 4ZM12 7C13.63 7 15.06 7.79 15.98 9H12C10.34 9 9 10.34 9 12C9 12.35 9.07 12.69 9.18 13H7.1C6.95208 12.2735 6.9675 11.5232 7.14516 10.8034C7.32281 10.0836 7.65826 9.4123 8.12722 8.83806C8.59618 8.26382 9.18693 7.80101 9.85672 7.48312C10.5265 7.16523 11.2586 7.00021 12 7ZM12 17C10.37 17 8.94 16.21 8.02 15H12C13.66 15 15 13.66 15 12C15 11.65 14.93 11.31 14.82 11H16.9C17.0479 11.7265 17.0325 12.4768 16.8548 13.1966C16.6772 13.9164 16.3417 14.5877 15.8728 15.1619C15.4038 15.7362 14.8131 16.199 14.1433 16.5169C13.4735 16.8348 12.7414 16.9998 12 17Z" fill="black"/>
</svg>
