<svg width="24" height="24" viewBox="0 0 24 24" fill="none" xmlns="http://www.w3.org/2000/svg">
<path d="M22.49 8.51C22.02 8.28 21.56 8.07 21.09 7.87C19.52 4.41 16.05 2 12 2C7.95 2 4.47 4.41 2.9 7.88C2.43 8.08 1.97 8.29 1.5 8.51C1.19 8.66 1 8.99 1 9.34V14.66C1 15.01 1.19 15.34 1.51 15.49C1.98 15.72 2.44 15.93 2.9 16.13C6.45 23.96 17.55 23.95 21.1 16.13C21.57 15.93 22.03 15.72 22.49 15.5C22.8 15.33 23 15.01 23 14.66V9.34C23.0024 9.16754 22.9557 8.99796 22.8654 8.85101C22.7751 8.70406 22.6449 8.5858 22.49 8.51ZM12 3.8C14.6 3.8 16.91 5.03 18.41 6.92C14.31 5.73 9.93 5.66 5.58 6.93C7.08 5.03 9.4 3.8 12 3.8ZM5.6 17.08C9.79 18.3 14.17 18.31 18.42 17.07C17.6598 18.0441 16.6877 18.8322 15.5775 19.3746C14.4672 19.917 13.2481 20.1994 12.0124 20.2004C10.7768 20.2013 9.55719 19.9208 8.44612 19.3802C7.33506 18.8395 6.36173 18.0529 5.6 17.08Z" fill="black"/>
</svg>
