<svg width="24" height="24" viewBox="0 0 24 24" fill="none" xmlns="http://www.w3.org/2000/svg">
<path d="M21.31 17.38L18.92 15.25C19.44 12.89 17.56 11 15.5 11C14.34 11 12 11.9 12 14.5C12 15.47 12.39 16.34 13.03 16.97L12.32 17.68C11.9001 17.264 11.5671 16.7686 11.3405 16.2226C11.1139 15.6767 10.9982 15.0911 11 14.5C11 12.8 11.96 11.33 13.35 10.57C12.6461 10.2015 11.8645 10.0062 11.07 10C8.68999 10 6.7 11.65 6.16 13.87C5.53824 13.6892 4.99177 13.3118 4.60239 12.7945C4.21301 12.2771 4.00167 11.6475 3.99999 11C3.99999 9.34 5.34 8 7 8H9.5C10.163 8 10.7989 7.73661 11.2678 7.26777C11.7366 6.79893 12 6.16304 12 5.5C12 4.83696 11.7366 4.20107 11.2678 3.73223C10.7989 3.26339 10.163 3 9.5 3H8C7.45 3 7 3.45 7 4C7 4.55 7.45 5 8 5H9.5C9.78 5 10 5.22 10 5.5C10 5.78 9.78 6 9.5 6H7C5.76293 6.00361 4.57109 6.46549 3.65466 7.29645C2.73823 8.12741 2.16223 9.26848 2.03791 10.4993C1.91359 11.7301 2.24976 12.9633 2.9815 13.9607C3.71325 14.9582 4.78864 15.6491 5.99999 15.9V15.93C5.99999 18.73 8.26999 21 11.07 21H19.93C21.8 21 22.74 18.66 21.31 17.38ZM18 19C17.45 19 17 18.55 17 18C17 17.45 17.45 17 18 17C18.55 17 19 17.45 19 18C19 18.55 18.55 19 18 19Z" fill="black"/>
</svg>
