<svg width="24" height="24" viewBox="0 0 24 24" fill="none" xmlns="http://www.w3.org/2000/svg">
<path d="M15 12C17.2091 12 19 10.2091 19 8C19 5.79086 17.2091 4 15 4C12.7909 4 11 5.79086 11 8C11 10.2091 12.7909 12 15 12Z" fill="black"/>
<path d="M23 19.9969V17.9969C23 15.6969 18.9 14.2969 16.1 14.0969L22.1 19.9969H23ZM11.4 14.4969C9.2 15.0969 7 16.2969 7 17.9969V19.9969H16.9L20.9 23.9969L22.2 22.6969L1.2 1.79688L0 3.09687L4 7.09688V9.99687H1V11.9969H4V14.9969H6V11.9969H8.9L11.4 14.4969ZM6 9.99687V9.09688L6.9 9.99687H6Z" fill="black"/>
</svg>
