<svg width="24" height="24" viewBox="0 0 24 24" fill="none" xmlns="http://www.w3.org/2000/svg">
<path d="M12 2C8.14 2 5 5.14 5 9C5 14.25 12 22 12 22C12 22 19 14.25 19 9C19 5.14 15.86 2 12 2ZM12 4C12.2627 3.99993 12.5229 4.05161 12.7656 4.15209C13.0083 4.25256 13.2289 4.39986 13.4147 4.58558C13.6005 4.7713 13.7479 4.99179 13.8485 5.23448C13.9491 5.47717 14.0009 5.73729 14.001 6C14.0011 6.26271 13.9494 6.52286 13.8489 6.7656C13.7484 7.00833 13.6011 7.2289 13.4154 7.41471C13.2297 7.60052 13.0092 7.74793 12.7665 7.84853C12.5238 7.94913 12.2637 8.00093 12.001 8.001C11.4704 8.00113 10.9615 7.79049 10.5863 7.41542C10.211 7.04035 10.0001 6.53157 10 6.001C9.99987 5.47043 10.2105 4.96155 10.5856 4.58629C10.9607 4.21103 11.4694 4.00013 12 4ZM12 14C10.33 14 8.86 13.15 8 11.85C8.02 10.53 10.67 9.8 12 9.8C13.33 9.8 15.98 10.53 16 11.85C15.5636 12.5118 14.9696 13.0547 14.2714 13.43C13.5732 13.8053 12.7927 14.0012 12 14Z" fill="black"/>
</svg>
