<svg width="24" height="24" viewBox="0 0 24 24" fill="none" xmlns="http://www.w3.org/2000/svg">
<path d="M21 15.0056V13.0056H17.93C17.88 12.6156 17.81 12.2356 17.71 11.8656L20.29 10.3756L19.29 8.64563L16.92 10.0056C16.64 9.52562 16.3 9.09562 15.93 8.71562C15.97 8.48562 16 8.25562 16 8.00562C16 7.20562 15.76 6.45563 15.35 5.82563L17 4.17563L15.59 2.76562L13.87 4.48563C12.19 3.59563 10.77 4.15563 10.14 4.48563L8.41 2.76562L7 4.17563L8.65 5.82563C8.22639 6.47382 8.00054 7.23128 8 8.00562C8 8.25562 8.03 8.48563 8.07 8.72563C7.7 9.10563 7.36 9.53562 7.08 10.0056L4.71 8.63562L3.71 10.3656L6.29 11.8556C6.19 12.2256 6.12 12.6056 6.07 12.9956H3V14.9956H6.07C6.12 15.3856 6.19 15.7656 6.29 16.1356L3.71 17.6256L4.71 19.3556L7.08 18.0056C8.16 19.8156 9.96 21.0056 12 21.0056C14.04 21.0056 15.84 19.8156 16.92 18.0056L19.29 19.3756L20.29 17.6456L17.71 16.1556C17.81 15.7856 17.88 15.4056 17.93 15.0156H21V15.0056ZM13 17.0056H11V11.0056H13V17.0056Z" fill="black"/>
</svg>
