<svg width="24" height="24" viewBox="0 0 24 24" fill="none" xmlns="http://www.w3.org/2000/svg">
<path d="M8.65001 5.8225C8.97397 5.32193 9.40576 4.90014 9.91379 4.58799C10.4218 4.27585 10.9932 4.08127 11.5861 4.01847C12.1791 3.95568 12.7786 4.02628 13.3407 4.22509C13.9028 4.4239 14.4134 4.7459 14.835 5.16752C15.2566 5.58913 15.5786 6.09969 15.7774 6.66182C15.9762 7.22396 16.0468 7.82343 15.984 8.41637C15.9212 9.00931 15.7267 9.5807 15.4145 10.0887C15.1024 10.5968 14.6806 11.0285 14.18 11.3525L8.65001 5.8225ZM20 17.1725C19.98 16.0725 19.37 15.0625 18.39 14.5525C17.85 14.2725 17.26 14.0125 16.62 13.7925L20 17.1725ZM21.19 21.1925L2.81001 2.8125L1.39001 4.2225L10.28 13.1125C8.47001 13.3425 6.89001 13.9025 5.61001 14.5625C5.12207 14.8138 4.71332 15.1954 4.42911 15.665C4.14491 16.1345 3.99638 16.6737 4.00001 17.2225V20.0025H17.17L19.78 22.6125L21.19 21.1925Z" fill="black"/>
</svg>
