<svg width="24" height="24" viewBox="0 0 24 24" fill="none" xmlns="http://www.w3.org/2000/svg">
<path d="M7.99994 6C7.99994 3.79 9.78994 2 11.9999 2C14.2099 2 15.9999 3.79 15.9999 6C15.9999 8.21 14.2099 10 11.9999 10C9.78994 10 7.99994 8.21 7.99994 6ZM16.9999 22H17.9999C19.0999 22 19.9999 21.1 19.9999 20V15.22C19.9999 14.1 19.3899 13.07 18.3899 12.56C17.9599 12.34 17.4899 12.13 16.9999 11.94V22ZM12.3399 17L14.9999 11.33C14.0699 11.12 13.0699 11 11.9999 11C9.46994 11 7.28994 11.7 5.60994 12.56C5.122 12.8113 4.71324 13.1929 4.42904 13.6625C4.14484 14.132 3.99631 14.6712 3.99994 15.22V22H6.33994C6.11994 21.55 5.99994 21.04 5.99994 20.5C5.99994 18.57 7.56994 17 9.49994 17H12.3399ZM9.99994 22L11.4099 19H9.49994C8.66994 19 7.99994 19.67 7.99994 20.5C7.99994 21.33 8.66994 22 9.49994 22H9.99994Z" fill="black"/>
</svg>
