<svg width="24" height="24" viewBox="0 0 24 24" fill="none" xmlns="http://www.w3.org/2000/svg">
<path d="M6.62 10.7844C8.06 13.6144 10.38 15.9244 13.21 17.3744L15.41 15.1744C15.68 14.9044 16.08 14.8144 16.43 14.9344C17.55 15.3044 18.76 15.5044 20 15.5044C20.55 15.5044 21 15.9544 21 16.5044V19.9944C21 20.5444 20.55 20.9944 20 20.9944C10.61 20.9944 3 13.3844 3 3.99437C3 3.44437 3.45 2.99437 4 2.99437H7.5C8.05 2.99437 8.5 3.44437 8.5 3.99437C8.5 5.24437 8.7 6.44437 9.07 7.56437C9.18 7.91437 9.1 8.30438 8.82 8.58438L6.62 10.7844ZM20.16 3.68438L19.45 2.98438L13 9.28438V4.99437H12V10.9944H18V9.99438H13.85L20.16 3.68438Z" fill="black"/>
</svg>
