<svg width="24" height="24" viewBox="0 0 24 24" fill="none" xmlns="http://www.w3.org/2000/svg">
<path d="M17.34 14.5425L15.91 13.1125C16.47 12.3825 16.96 11.6125 17.38 10.7925L15.18 8.5925C14.9 8.3125 14.82 7.9225 14.93 7.5725C15.3 6.4525 15.5 5.2525 15.5 4.0025C15.5 3.4525 15.95 3.0025 16.5 3.0025H20C20.55 3.0025 21 3.4525 21 4.0025C21 7.9825 19.63 11.6425 17.34 14.5425ZM14.52 17.3525C11.527 19.7238 7.81854 21.0105 4.00001 21.0025C3.45001 21.0025 3.00001 20.5525 3.00001 20.0025V16.5125C3.00001 15.9625 3.45001 15.5125 4.00001 15.5125C5.24001 15.5125 6.45001 15.3125 7.57001 14.9425C7.92001 14.8225 8.32001 14.9125 8.59001 15.1825L10.79 17.3825C11.6 16.9625 12.37 16.4825 13.09 15.9225L1.39001 4.2225L2.81001 2.8125L21.19 21.2025L19.78 22.6125L14.52 17.3525Z" fill="black"/>
</svg>
