<svg width="24" height="24" viewBox="0 0 24 24" fill="none" xmlns="http://www.w3.org/2000/svg">
<path d="M20 15.5C18.75 15.5 17.55 15.3 16.43 14.93C16.2542 14.874 16.0664 14.8667 15.8868 14.909C15.7072 14.9513 15.5424 15.0415 15.41 15.17L13.21 17.37C10.3712 15.9262 8.06378 13.6188 6.62 10.78L8.82 8.57C8.95245 8.44434 9.04632 8.28352 9.0906 8.1064C9.13488 7.92928 9.12773 7.7432 9.07 7.57C8.69065 6.41806 8.49821 5.2128 8.5 4C8.5 3.45 8.05 3 7.5 3H4C3.45 3 3 3.45 3 4C3 13.39 10.61 21 20 21C20.55 21 21 20.55 21 20V16.5C21 15.95 20.55 15.5 20 15.5ZM20 4V3.5C20 2.83696 19.7366 2.20107 19.2678 1.73223C18.7989 1.26339 18.163 1 17.5 1C16.837 1 16.2011 1.26339 15.7322 1.73223C15.2634 2.20107 15 2.83696 15 3.5V4C14.45 4 14 4.45 14 5V9C14 9.55 14.45 10 15 10H20C20.55 10 21 9.55 21 9V5C21 4.45 20.55 4 20 4ZM19.2 4H15.8V3.5C15.8 2.56 16.56 1.8 17.5 1.8C18.44 1.8 19.2 2.56 19.2 3.5V4Z" fill="black"/>
</svg>
