<svg width="24" height="24" viewBox="0 0 24 24" fill="none" xmlns="http://www.w3.org/2000/svg">
<path d="M22 6.00625V4.00625H6.82L8.82 6.00625H22ZM1.92 1.65625L0.65 2.92625L2.47 4.74625C2.18 5.08625 2 5.52625 2 6.00625V17.0063H0V20.0063H17.73L20.08 22.3563L21.35 21.0863L3.89 3.62625L1.92 1.65625ZM4 6.27625L14.73 17.0063H4V6.27625ZM23 8.00625H17C16.45 8.00625 16 8.45625 16 9.00625V13.1863L18 15.1863V10.0063H22V17.0063H19.82L22.82 20.0063H23C23.55 20.0063 24 19.5563 24 19.0063V9.00625C24 8.45625 23.55 8.00625 23 8.00625Z" fill="black"/>
</svg>
