<svg width="24" height="24" viewBox="0 0 24 24" fill="none" xmlns="http://www.w3.org/2000/svg">
<path d="M14 2H6C4.9 2 4 2.9 4 4V20C4 21.1 4.89 22 5.99 22H18C19.1 22 20 21.1 20 20V8L14 2ZM15.04 19.45L13.16 17.57C11.83 18.28 10.15 18.1 9.03 16.98C8.70436 16.6553 8.44599 16.2696 8.2697 15.8449C8.09342 15.4202 8.00267 14.9648 8.00267 14.505C8.00267 14.0452 8.09342 13.5898 8.2697 13.1651C8.44599 12.7404 8.70436 12.3547 9.03 12.03C9.35467 11.7044 9.74042 11.446 10.1651 11.2697C10.5898 11.0934 11.0452 11.0027 11.505 11.0027C11.9648 11.0027 12.4202 11.0934 12.8449 11.2697C13.2696 11.446 13.6553 11.7044 13.98 12.03C14.5114 12.5622 14.8561 13.2522 14.9625 13.9968C15.0689 14.7413 14.9312 15.5003 14.57 16.16L16.45 18.04L15.04 19.45ZM13 9V3.5L18.5 9H13Z" fill="black"/>
<path d="M11.5 16C12.3284 16 13 15.3284 13 14.5C13 13.6716 12.3284 13 11.5 13C10.6716 13 10 13.6716 10 14.5C10 15.3284 10.6716 16 11.5 16Z" fill="black"/>
</svg>
