<svg width="24" height="24" viewBox="0 0 24 24" fill="none" xmlns="http://www.w3.org/2000/svg">
<path d="M18 11C18.34 11 18.67 11.03 19 11.08V4C19 2.9 18.1 2 17 2H5C3.9 2 3 2.9 3 4V20C3 21.1 3.9 22 5 22H12.26C11.5275 20.9511 11.0967 19.7214 11.0144 18.4447C10.9322 17.168 11.2017 15.8932 11.7935 14.759C12.3854 13.6247 13.277 12.6746 14.3712 12.0118C15.4655 11.349 16.7206 10.9991 18 11ZM7 11V4H12V11L9.5 9.5L7 11Z" fill="black"/>
<path d="M18 13C15.24 13 13 15.24 13 18C13 20.76 15.24 23 18 23C20.76 23 23 20.76 23 18C23 15.24 20.76 13 18 13ZM16.75 20.5V15.5L20.75 18L16.75 20.5Z" fill="black"/>
</svg>
