<svg width="24" height="24" viewBox="0 0 24 24" fill="none" xmlns="http://www.w3.org/2000/svg">
<path d="M19.1 16.9969H22V10.9969C22 9.29687 20.7 7.99687 19 7.99687H10L19.1 16.9969ZM19 9.99687C19.55 9.99687 20 10.4469 20 10.9969C20 11.5469 19.55 11.9969 19 11.9969C18.45 11.9969 18 11.5469 18 10.9969C18 10.4469 18.45 9.99687 19 9.99687ZM18 6.99687V2.99688H6V4.09687L9 6.99687H18ZM1.2 1.79688L0 2.99688L4.9 7.99687C3.3 8.09687 2 9.39687 2 10.9969V16.9969H6V20.9969H17.9L20.9 23.9969L22.2 22.6969L1.2 1.79688ZM8 18.9969V13.9969H10.9L15.9 18.9969H8Z" fill="black"/>
</svg>
