<svg width="24" height="24" viewBox="0 0 24 24" fill="none" xmlns="http://www.w3.org/2000/svg">
<path d="M19.93 8.20496L16.33 9.88496L14 7.69496V6.29496L16.33 4.10496L19.93 5.78496C20.31 5.96496 20.75 5.79496 20.93 5.42496C21.11 5.04496 20.94 4.60496 20.57 4.42496L16.65 2.59496C16.4641 2.50724 16.2555 2.47938 16.0531 2.5152C15.8507 2.55102 15.6644 2.64877 15.52 2.79496L13.78 4.39496C13.6902 4.27202 13.5729 4.17182 13.4374 4.10236C13.302 4.0329 13.1522 3.99612 13 3.99496C12.45 3.99496 12 4.44496 12 4.99496V5.99496H8.81995C8.33995 4.64496 6.97995 3.72496 5.39995 4.06496C4.23995 4.31496 3.24995 5.31496 3.03995 6.49496C2.81995 7.81496 3.49995 8.96496 4.51995 9.57496L7.07995 17.995H3.99995V20.995H17V17.995H13.38L8.40995 8.76496C8.57995 8.52496 8.71995 8.27496 8.81995 7.99496H12V8.99496C12 9.54496 12.45 9.99496 13 9.99496C13.32 9.99496 13.6 9.83496 13.78 9.59496L15.52 11.195C15.82 11.495 16.27 11.575 16.65 11.395L20.57 9.56496C20.95 9.38496 21.11 8.94496 20.93 8.56496C20.8448 8.38488 20.6917 8.24589 20.5043 8.17842C20.3169 8.11095 20.1104 8.12049 19.93 8.20496ZM5.99995 7.99496C5.44995 7.99496 4.99995 7.54496 4.99995 6.99496C4.99995 6.44496 5.44995 5.99496 5.99995 5.99496C6.54995 5.99496 6.99995 6.44496 6.99995 6.99496C6.99995 7.54496 6.54995 7.99496 5.99995 7.99496Z" fill="black"/>
</svg>
