<svg width="24" height="24" viewBox="0 0 24 24" fill="none" xmlns="http://www.w3.org/2000/svg">
<path d="M12.9999 8.5625C12.8122 8.5625 12.6262 8.59949 12.4527 8.67135C12.2792 8.74322 12.1216 8.84855 11.9888 8.98134C11.856 9.11413 11.7507 9.27177 11.6788 9.44526C11.6069 9.61876 11.5699 9.80471 11.5699 9.9925C11.5699 10.1803 11.6069 10.3662 11.6788 10.5397C11.7507 10.7132 11.856 10.8709 11.9888 11.0037C12.1216 11.1365 12.2792 11.2418 12.4527 11.3136C12.6262 11.3855 12.8122 11.4225 12.9999 11.4225C13.3792 11.4225 13.7429 11.2718 14.0111 11.0037C14.2793 10.7355 14.4299 10.3718 14.4299 9.9925C14.4299 9.61324 14.2793 9.24951 14.0111 8.98134C13.7429 8.71316 13.3792 8.5625 12.9999 8.5625Z" fill="black"/>
<path d="M13 3C9.25 3 6.2 5.94 6.02 9.64L4.1 12.2C4.04429 12.2743 4.01036 12.3626 4.00202 12.4551C3.99368 12.5476 4.01126 12.6406 4.05279 12.7236C4.09431 12.8067 4.15815 12.8765 4.23713 12.9253C4.31612 12.9741 4.40714 13 4.5 13H6V16C6 17.1 6.9 18 8 18H9V21H16V16.32C17.4343 15.6381 18.594 14.4887 19.2887 13.0606C19.9834 11.6324 20.1718 10.0105 19.8228 8.46117C19.4739 6.91185 18.6084 5.52726 17.3685 4.53484C16.1287 3.54242 14.5881 3.00117 13 3ZM16 10C16 10.13 15.99 10.26 15.98 10.39L16.81 11.05C16.89 11.11 16.91 11.21 16.86 11.3L16.06 12.69C16.01 12.78 15.9 12.81 15.82 12.78L14.83 12.38C14.62 12.54 14.4 12.67 14.16 12.77L14 13.83C13.99 13.93 13.9 14 13.8 14H12.2C12.1 14 12.02 13.93 12 13.83L11.85 12.77C11.6 12.67 11.38 12.54 11.17 12.38L10.18 12.78C10.09 12.81 9.98 12.78 9.93 12.69L9.13 11.3C9.10586 11.2595 9.0976 11.2116 9.10684 11.1654C9.11608 11.1192 9.14216 11.0781 9.18 11.05L10.02 10.39C10.01 10.26 10 10.13 10 10C10 9.87 10.02 9.73 10.04 9.61L9.19 8.95C9.11 8.89 9.09 8.79 9.14 8.69L9.94 7.31C9.99 7.22 10.09 7.19 10.18 7.22L11.18 7.62C11.38 7.47 11.61 7.33 11.85 7.23L12 6.17C12.02 6.07 12.1 6 12.2 6H13.8C13.9 6 13.98 6.07 14 6.17L14.15 7.23C14.39 7.33 14.61 7.46 14.82 7.62L15.82 7.22C15.91 7.19 16.02 7.22 16.06 7.31L16.86 8.69C16.8848 8.73198 16.8934 8.78158 16.8842 8.82946C16.875 8.87734 16.8486 8.9202 16.81 8.95L15.96 9.61C15.99 9.73 16 9.86 16 10Z" fill="black"/>
</svg>
