<svg width="24" height="24" viewBox="0 0 24 24" fill="none" xmlns="http://www.w3.org/2000/svg">
<path d="M17.66 9.52687L10.59 16.5969L6.35 12.3569L7.76 10.9469L10.59 13.7769L16.25 8.11687L17.66 9.52687ZM4 11.9969C4 9.66687 5.02 7.57687 6.62 6.11687L9 8.49687V2.49688H3L5.2 4.69687C3.24 6.51687 2 9.10687 2 11.9969C2 17.1869 5.95 21.4469 11 21.9469V19.9269C7.06 19.4369 4 16.0669 4 11.9969ZM22 11.9969C22 6.80687 18.05 2.54688 13 2.04688V4.06688C16.94 4.55688 20 7.92687 20 11.9969C20 14.3269 18.98 16.4169 17.38 17.8769L15 15.4969V21.4969H21L18.8 19.2969C20.76 17.4769 22 14.8869 22 11.9969Z" fill="black"/>
</svg>
