<svg width="24" height="24" viewBox="0 0 24 24" fill="none" xmlns="http://www.w3.org/2000/svg">
<path d="M17.15 14.3225L17.74 11.9625L18.5 15.0025H19.98L21.48 9.0025H19.98L19.24 12.0025L18.5 9.0025H16.98L16.24 12.0025L15.5 9.0025H14L14.72 11.9025L17.15 14.3225ZM1.39001 4.2225L6.17001 9.0025H3.00001V15.0025H4.50001V13.0025H5.60001L6.50001 15.0025H8.00001L7.10001 12.9025C7.60001 12.6025 8.00001 12.1025 8.00001 11.5025V10.8325L9.43001 12.2625L8.75001 15.0025H10.25L10.63 13.5025H10.67L19.78 22.6125L21.19 21.2025L2.81001 2.8125L1.39001 4.2225ZM6.50001 11.5025H4.50001V10.5025H6.50001V11.5025Z" fill="black"/>
</svg>
