<svg width="24" height="24" viewBox="0 0 24 24" fill="none" xmlns="http://www.w3.org/2000/svg">
<path d="M11 6.99875H13V9.91875L19.91 16.8287L21 15.7287V8.26875L15.73 2.99875H8.27L7.18 4.09875L11 7.91875V6.99875ZM22.27 21.7288L2.27 1.71875L1 2.98875L4.64 6.62875L3 8.26875V15.7287L8.27 20.9988H15.73L17.37 19.3688L21 22.9988L22.27 21.7288ZM12 17.2987C11.28 17.2987 10.7 16.7187 10.7 15.9987C10.7 15.2787 11.28 14.6987 12 14.6987C12.72 14.6987 13.3 15.2787 13.3 15.9987C13.3 16.7187 12.72 17.2987 12 17.2987Z" fill="black"/>
</svg>
