<svg width="24" height="24" viewBox="0 0 24 24" fill="none" xmlns="http://www.w3.org/2000/svg">
<path d="M11.99 5V1L6.98999 6L11.99 11V7C15.3 7 17.99 9.69 17.99 13C17.99 16.31 15.3 19 11.99 19C8.67999 19 5.98999 16.31 5.98999 13H3.98999C3.98999 17.42 7.56999 21 11.99 21C16.41 21 19.99 17.42 19.99 13C19.99 8.58 16.41 5 11.99 5Z" fill="black"/>
<path d="M10.89 16.0075H10.04V12.7475L9.03003 13.0575V12.3675L10.8 11.7375H10.89V16.0075ZM15.17 14.2475C15.17 14.5675 15.14 14.8475 15.07 15.0675C15 15.2875 14.9 15.4875 14.78 15.6375C14.66 15.7875 14.5 15.8975 14.33 15.9675C14.16 16.0375 13.96 16.0675 13.74 16.0675C13.52 16.0675 13.33 16.0375 13.15 15.9675C12.97 15.8975 12.82 15.7875 12.69 15.6375C12.56 15.4875 12.46 15.2975 12.39 15.0675C12.32 14.8375 12.28 14.5675 12.28 14.2475V13.5075C12.28 13.1875 12.31 12.9075 12.38 12.6875C12.45 12.4675 12.55 12.2675 12.67 12.1175C12.79 11.9675 12.95 11.8575 13.12 11.7875C13.29 11.7175 13.49 11.6875 13.71 11.6875C13.93 11.6875 14.12 11.7175 14.3 11.7875C14.48 11.8575 14.63 11.9675 14.76 12.1175C14.89 12.2675 14.99 12.4575 15.06 12.6875C15.13 12.9175 15.17 13.1875 15.17 13.5075V14.2475ZM14.32 13.3875C14.32 13.1975 14.31 13.0375 14.28 12.9075C14.25 12.7775 14.21 12.6775 14.16 12.5975C14.11 12.5175 14.05 12.4575 13.97 12.4275C13.89 12.3975 13.81 12.3775 13.72 12.3775C13.63 12.3775 13.54 12.3975 13.47 12.4275C13.4 12.4575 13.33 12.5175 13.28 12.5975C13.23 12.6775 13.19 12.7775 13.16 12.9075C13.13 13.0375 13.12 13.1975 13.12 13.3875V14.3575C13.12 14.5475 13.13 14.7075 13.16 14.8375C13.19 14.9675 13.23 15.0775 13.28 15.1575C13.33 15.2375 13.39 15.2975 13.47 15.3275C13.55 15.3575 13.63 15.3775 13.72 15.3775C13.81 15.3775 13.9 15.3575 13.97 15.3275C14.04 15.2975 14.11 15.2375 14.16 15.1575C14.21 15.0775 14.25 14.9675 14.27 14.8375C14.29 14.7075 14.31 14.5475 14.31 14.3575V13.3875H14.32Z" fill="black"/>
</svg>
