<svg width="24" height="24" viewBox="0 0 24 24" fill="none" xmlns="http://www.w3.org/2000/svg">
<path d="M8.09995 13.3473L10.93 10.5173L3.90995 3.50728C3.1608 4.25859 2.74011 5.27629 2.74011 6.33728C2.74011 7.39827 3.1608 8.41597 3.90995 9.16728L8.09995 13.3473ZM14.88 11.5373C16.41 12.2473 18.5599 11.7473 20.15 10.1573C22.0599 8.24728 22.4299 5.50728 20.9599 4.03728C19.4999 2.57728 16.76 2.93728 14.84 4.84728C13.25 6.43728 12.75 8.58728 13.46 10.1173L3.69995 19.8773L5.10995 21.2873L12 14.4173L18.8799 21.2973L20.29 19.8873L13.41 13.0073L14.88 11.5373Z" fill="black"/>
</svg>
