<svg width="24" height="24" viewBox="0 0 24 24" fill="none" xmlns="http://www.w3.org/2000/svg">
<path d="M12 5V1L7 6L12 11V7C15.31 7 18 9.69 18 13C18 16.31 15.31 19 12 19C8.69 19 6 16.31 6 13H4C4 17.42 7.58 21 12 21C16.42 21 20 17.42 20 13C20 8.58 16.42 5 12 5Z" fill="black"/>
<path d="M10.6899 13.9044L10.9399 11.7344H13.3299V12.4444H11.6299L11.5199 13.3644C11.5499 13.3444 11.5899 13.3344 11.6299 13.3144C11.6699 13.2944 11.7199 13.2744 11.7799 13.2644C11.8399 13.2544 11.8999 13.2344 11.9599 13.2244C12.0199 13.2144 12.0899 13.2044 12.1599 13.2044C12.3699 13.2044 12.5499 13.2344 12.7099 13.3044C12.8699 13.3744 13.0099 13.4644 13.1199 13.5844C13.2299 13.7044 13.3199 13.8544 13.3699 14.0344C13.4199 14.2144 13.4599 14.4144 13.4599 14.6344C13.4599 14.8244 13.4299 15.0044 13.3699 15.1744C13.3099 15.3444 13.2199 15.4944 13.0999 15.6244C12.9799 15.7544 12.8299 15.8644 12.6499 15.9344C12.4699 16.0044 12.2599 16.0544 12.0099 16.0544C11.8299 16.0544 11.6499 16.0244 11.4799 15.9744C11.3099 15.9244 11.1599 15.8344 11.0199 15.7344C10.8799 15.6344 10.7799 15.4944 10.6999 15.3444C10.6199 15.1944 10.5699 15.0144 10.5699 14.8144H11.4099C11.4299 14.9944 11.4899 15.1344 11.5999 15.2244C11.7099 15.3144 11.8499 15.3744 12.0199 15.3744C12.1088 15.3805 12.1976 15.3624 12.2769 15.3219C12.3562 15.2813 12.4229 15.22 12.4699 15.1444C12.5099 15.0744 12.5499 14.9944 12.5799 14.8944C12.6099 14.7944 12.6099 14.6944 12.6099 14.5844C12.6099 14.4744 12.5999 14.3744 12.5699 14.2744C12.5399 14.1744 12.4999 14.1044 12.4399 14.0344C12.3799 13.9644 12.3099 13.9144 12.2299 13.8844C12.1499 13.8544 12.0399 13.8344 11.9299 13.8344C11.8499 13.8344 11.7799 13.8444 11.7299 13.8544C11.6799 13.8644 11.6199 13.8844 11.5799 13.9044C11.5399 13.9244 11.4999 13.9544 11.4599 13.9744C11.4199 13.9944 11.3899 14.0344 11.3599 14.0644L10.6899 13.9044Z" fill="black"/>
</svg>
