<svg width="24" height="24" viewBox="0 0 24 24" fill="none" xmlns="http://www.w3.org/2000/svg">
<path d="M12 5V1L7 6L12 11V7C15.31 7 18 9.69 18 13C18 16.31 15.31 19 12 19C8.69 19 6 16.31 6 13H4C4 17.42 7.58 21 12 21C16.42 21 20 17.42 20 13C20 8.58 16.42 5 12 5Z" fill="black"/>
<path d="M9.55999 13.4975H10.01C10.22 13.4975 10.38 13.4475 10.49 13.3375C10.6 13.2275 10.65 13.0875 10.65 12.9075C10.6523 12.8358 10.6402 12.7643 10.6144 12.6973C10.5886 12.6304 10.5497 12.5692 10.5 12.5175C10.45 12.4675 10.39 12.4275 10.32 12.4075C10.25 12.3875 10.16 12.3675 10.07 12.3675C9.98999 12.3675 9.91999 12.3775 9.84999 12.3975C9.77999 12.4175 9.71999 12.4475 9.66999 12.4975C9.61999 12.5475 9.57999 12.5875 9.54999 12.6475C9.51999 12.7075 9.49999 12.7775 9.49999 12.8475H8.64999C8.64804 12.6838 8.68404 12.5218 8.75517 12.3744C8.82631 12.2269 8.93064 12.0979 9.05999 11.9975C9.18999 11.8975 9.32999 11.8175 9.49999 11.7675C9.66999 11.7175 9.84999 11.6875 10.04 11.6875C10.25 11.6875 10.45 11.7175 10.63 11.7675C10.81 11.8175 10.96 11.8975 11.09 11.9975C11.22 12.0975 11.32 12.2275 11.39 12.3775C11.46 12.5275 11.5 12.7075 11.5 12.9075C11.5028 13.0949 11.443 13.2779 11.33 13.4275C11.2106 13.6007 11.044 13.7361 10.85 13.8175C11.09 13.9075 11.27 14.0275 11.39 14.2075C11.51 14.3875 11.57 14.5875 11.57 14.8175C11.57 15.0175 11.53 15.1975 11.45 15.3475C11.37 15.4975 11.27 15.6375 11.13 15.7375C10.99 15.8375 10.84 15.9275 10.65 15.9775C10.46 16.0275 10.27 16.0575 10.05 16.0575C9.86999 16.0575 9.68999 16.0375 9.51999 15.9875C9.34999 15.9375 9.18999 15.8675 9.05999 15.7575C8.92999 15.6475 8.80999 15.5275 8.72999 15.3775C8.64999 15.2275 8.60999 15.0375 8.60999 14.8275H9.45999C9.45999 14.9075 9.47999 14.9775 9.50999 15.0475C9.53999 15.1175 9.57999 15.1675 9.63999 15.2175C9.69999 15.2675 9.75999 15.3075 9.83999 15.3275C9.91999 15.3475 9.99999 15.3675 10.09 15.3675C10.19 15.3675 10.28 15.3575 10.36 15.3275C10.44 15.2975 10.51 15.2575 10.56 15.2075C10.61 15.1575 10.66 15.0975 10.69 15.0275C10.72 14.9575 10.73 14.8775 10.73 14.7875C10.73 14.6775 10.71 14.5775 10.68 14.4975C10.65 14.4175 10.6 14.3475 10.54 14.2975C10.48 14.2475 10.41 14.2075 10.32 14.1875C10.23 14.1675 10.14 14.1475 10.03 14.1475H9.55999V13.4975ZM15.3 14.2475C15.3 14.5675 15.27 14.8475 15.2 15.0675C15.13 15.2875 15.03 15.4875 14.91 15.6375C14.79 15.7875 14.63 15.8975 14.46 15.9675C14.29 16.0375 14.09 16.0675 13.87 16.0675C13.65 16.0675 13.46 16.0375 13.28 15.9675C13.1 15.8975 12.95 15.7875 12.82 15.6375C12.69 15.4875 12.59 15.2975 12.52 15.0675C12.45 14.8375 12.41 14.5675 12.41 14.2475V13.5075C12.41 13.1875 12.44 12.9075 12.51 12.6875C12.58 12.4675 12.68 12.2675 12.8 12.1175C12.92 11.9675 13.08 11.8575 13.25 11.7875C13.42 11.7175 13.62 11.6875 13.84 11.6875C14.06 11.6875 14.25 11.7175 14.43 11.7875C14.61 11.8575 14.76 11.9675 14.89 12.1175C15.02 12.2675 15.12 12.4575 15.19 12.6875C15.26 12.9175 15.3 13.1875 15.3 13.5075V14.2475ZM14.45 13.3875C14.45 13.1975 14.44 13.0375 14.41 12.9075C14.38 12.7775 14.34 12.6775 14.29 12.5975C14.24 12.5175 14.18 12.4575 14.1 12.4275C14.02 12.3975 13.94 12.3775 13.85 12.3775C13.76 12.3775 13.67 12.3975 13.6 12.4275C13.53 12.4575 13.46 12.5175 13.41 12.5975C13.36 12.6775 13.32 12.7775 13.29 12.9075C13.26 13.0375 13.25 13.1975 13.25 13.3875V14.3575C13.25 14.5475 13.26 14.7075 13.29 14.8375C13.32 14.9675 13.36 15.0775 13.41 15.1575C13.46 15.2375 13.52 15.2975 13.6 15.3275C13.68 15.3575 13.76 15.3775 13.85 15.3775C13.94 15.3775 14.03 15.3575 14.1 15.3275C14.17 15.2975 14.24 15.2375 14.29 15.1575C14.34 15.0775 14.38 14.9675 14.4 14.8375C14.43 14.7075 14.44 14.5475 14.44 14.3575V13.3875H14.45Z" fill="black"/>
</svg>
