<svg width="24" height="24" viewBox="0 0 24 24" fill="none" xmlns="http://www.w3.org/2000/svg">
<path d="M22.73 22.7256L2.77 2.76562L2 1.99563L1.27 1.26562L0 2.53562L4.39 6.92562L6.6 11.5856L5.25 14.0356C5.09 14.3156 5 14.6456 5 14.9956C5 16.0956 5.9 16.9956 7 16.9956H14.46L15.84 18.3756C15.4966 18.6218 15.2402 18.9705 15.1075 19.3717C14.9749 19.7728 14.9729 20.2057 15.1018 20.608C15.2307 21.0104 15.484 21.3615 15.825 21.6108C16.1661 21.8601 16.5775 21.9949 17 21.9956C17.67 21.9956 18.26 21.6656 18.62 21.1556L21.46 23.9956L22.73 22.7256ZM7.42 14.9956C7.28 14.9956 7.17 14.8856 7.17 14.7456L7.2 14.6256L8.1 12.9956H10.46L12.46 14.9956H7.42ZM15.55 12.9956C16.3 12.9956 16.96 12.5856 17.3 11.9656L20.88 5.47563C20.9625 5.32301 21.004 5.15161 21.0005 4.97815C20.9969 4.8047 20.9485 4.63513 20.8598 4.48601C20.7711 4.33689 20.6453 4.21332 20.4946 4.12737C20.3439 4.04142 20.1735 3.99603 20 3.99563H6.54L15.55 12.9956ZM7 17.9956C5.9 17.9956 5.01 18.8956 5.01 19.9956C5.01 21.0956 5.9 21.9956 7 21.9956C8.1 21.9956 9 21.0956 9 19.9956C9 18.8956 8.1 17.9956 7 17.9956Z" fill="black"/>
</svg>
