<svg width="24" height="24" viewBox="0 0 24 24" fill="none" xmlns="http://www.w3.org/2000/svg">
<path d="M7.33999 6.41562L0.859985 12.9056L7.34999 19.3856L13.84 12.9056L7.33999 6.41562ZM3.68999 12.9056L7.34999 9.24562L11 12.9056L7.33999 16.5656L3.68999 12.9056ZM19.36 6.64563C18.5267 5.80743 17.5357 5.14259 16.4441 4.68947C15.3524 4.23635 14.1819 4.00393 13 4.00563V0.765625L8.75999 5.00562L13 9.24562V6.00562C14.79 6.00562 16.58 6.68562 17.95 8.05562C19.2612 9.36931 19.9976 11.1496 19.9976 13.0056C19.9976 14.8617 19.2612 16.6419 17.95 17.9556C16.951 18.9577 15.6707 19.6321 14.2793 19.8893C12.8879 20.1465 11.4512 19.9743 10.16 19.3956L8.66999 20.8856C10.02 21.6256 11.51 22.0056 13 22.0056C15.3 22.0056 17.61 21.1256 19.36 19.3656C20.1969 18.5314 20.861 17.5402 21.314 16.4488C21.7671 15.3574 22.0004 14.1873 22.0004 13.0056C22.0004 11.8239 21.7671 10.6539 21.314 9.56247C20.861 8.47109 20.1969 7.47987 19.36 6.64563Z" fill="black"/>
</svg>
