<svg width="24" height="24" viewBox="0 0 24 24" fill="none" xmlns="http://www.w3.org/2000/svg">
<path d="M6.18 20.0006C7.38398 20.0006 8.36 19.0246 8.36 17.8206C8.36 16.6166 7.38398 15.6406 6.18 15.6406C4.97602 15.6406 4 16.6166 4 17.8206C4 19.0246 4.97602 20.0006 6.18 20.0006Z" fill="black"/>
<path d="M4 4.4375V7.2675C11.03 7.2675 16.73 12.9675 16.73 19.9975H19.56C19.56 11.4075 12.59 4.4375 4 4.4375ZM4 10.0975V12.9275C7.9 12.9275 11.07 16.0975 11.07 19.9975H13.9C13.9 14.5275 9.47 10.0975 4 10.0975Z" fill="black"/>
</svg>
