<svg width="24" height="24" viewBox="0 0 24 24" fill="none" xmlns="http://www.w3.org/2000/svg">
<path d="M11 5H13V19H11V5ZM5 12C6.1 12 7 11.1 7 10C7 8.9 6.1 8 5 8C3.9 8 3 8.9 3 10C3 11.1 3.9 12 5 12ZM7.78 13.58C6.90315 13.1973 5.95673 12.9998 5 12.9998C4.04328 12.9998 3.09685 13.1973 2.22 13.58C1.85771 13.7349 1.54892 13.9928 1.33202 14.3217C1.11511 14.6506 0.999656 15.036 1 15.43V16H9V15.43C9 14.62 8.52 13.9 7.78 13.58ZM19 12C20.1 12 21 11.1 21 10C21 8.9 20.1 8 19 8C17.9 8 17 8.9 17 10C17 11.1 17.9 12 19 12ZM21.78 13.58C20.9031 13.1973 19.9567 12.9998 19 12.9998C18.0433 12.9998 17.0969 13.1973 16.22 13.58C15.8577 13.7349 15.5489 13.9928 15.332 14.3217C15.1151 14.6506 14.9997 15.036 15 15.43V16H23V15.43C23 14.62 22.52 13.9 21.78 13.58Z" fill="black"/>
</svg>
