<svg width="24" height="24" viewBox="0 0 24 24" fill="none" xmlns="http://www.w3.org/2000/svg">
<path d="M23.25 12.77L20.68 10.2L19.27 11.61L21.49 13.83L15.83 19.49L4.51 8.17L10.17 2.51L12.27 4.61L13.68 3.2L11.23 0.75C11.0914 0.60971 10.9264 0.498326 10.7444 0.422305C10.5624 0.346284 10.3672 0.307139 10.17 0.307139C9.9728 0.307139 9.77756 0.346284 9.5956 0.422305C9.41364 0.498326 9.24859 0.60971 9.11 0.75L2.75 7.11C2.60971 7.24859 2.49833 7.41365 2.4223 7.5956C2.34628 7.77756 2.30714 7.9728 2.30714 8.17C2.30714 8.3672 2.34628 8.56244 2.4223 8.7444C2.49833 8.92635 2.60971 9.09141 2.75 9.23L14.77 21.25C15.36 21.84 16.31 21.84 16.89 21.25L23.25 14.89C23.84 14.3 23.84 13.35 23.25 12.77ZM8.47 20.48C6.82518 19.7053 5.41003 18.5163 4.36341 17.0296C3.31678 15.543 2.67464 13.8097 2.5 12H1C1.51 18.16 6.66 23 12.95 23L13.61 22.97L9.8 19.15L8.47 20.48ZM16 9H21C21.55 9 22 8.55 22 8V4C22 3.45 21.55 3 21 3V2.5C21 1.83696 20.7366 1.20107 20.2678 0.732233C19.7989 0.263392 19.163 0 18.5 0C17.837 0 17.2011 0.263392 16.7322 0.732233C16.2634 1.20107 16 1.83696 16 2.5V3C15.45 3 15 3.45 15 4V8C15 8.55 15.45 9 16 9ZM16.8 2.5C16.8 1.56 17.56 0.8 18.5 0.8C19.44 0.8 20.2 1.56 20.2 2.5V3H16.8V2.5Z" fill="black"/>
</svg>
