<svg width="24" height="24" viewBox="0 0 24 24" fill="none" xmlns="http://www.w3.org/2000/svg">
<path d="M20 18C21.1 18 21.99 17.1 21.99 16L22 6C22 5.46957 21.7893 4.96086 21.4142 4.58579C21.0391 4.21071 20.5304 4 20 4H4C2.89 4 2 4.89 2 6V16C2 16.5304 2.21071 17.0391 2.58579 17.4142C2.96086 17.7893 3.46957 18 4 18H0V20H24V18H20ZM4 16V6H20V16.01L4 16ZM9.097 9.953C9.097 8.926 9.933 8.089 10.961 8.089C11.988 8.089 12.825 8.926 12.825 9.953C12.8242 10.4471 12.6276 10.9208 12.2782 11.2702C11.9288 11.6196 11.4551 11.8162 10.961 11.817C10.4669 11.8162 9.99323 11.6196 9.64383 11.2702C9.29443 10.9208 9.09779 10.4471 9.097 9.953ZM16.129 14.189L13.647 11.707C13.9903 11.1864 14.1736 10.5766 14.174 9.953C14.1732 9.10093 13.8343 8.284 13.2317 7.68159C12.6291 7.07918 11.8121 6.74053 10.96 6.74C10.108 6.74079 9.29113 7.07953 8.68859 7.68188C8.08605 8.28424 7.74706 9.10101 7.746 9.953C7.74706 10.8051 8.08602 11.622 8.68853 12.2245C9.29104 12.827 10.1079 13.1659 10.96 13.167C11.5717 13.1658 12.1701 12.9888 12.684 12.657L15.173 15.144L16.129 14.189Z" fill="black"/>
</svg>
