<svg width="24" height="24" viewBox="0 0 24 24" fill="none" xmlns="http://www.w3.org/2000/svg">
<path d="M15.5 14H14.71L14.43 13.73C15.4439 12.554 16.0011 11.0527 16 9.5C16 7.77609 15.3152 6.12279 14.0962 4.90381C12.8772 3.68482 11.2239 3 9.50003 3C6.08003 3 3.28003 5.64 3.03003 9H5.05003C5.30003 6.75 7.18003 5 9.50003 5C11.99 5 14 7.01 14 9.5C14 11.99 11.99 14 9.50003 14C9.33003 14 9.17003 13.97 9.00003 13.95V15.97C9.17003 15.99 9.33003 16 9.50003 16C11.11 16 12.59 15.41 13.73 14.43L14 14.71V15.5L19 20.49L20.49 19L15.5 14Z" fill="black"/>
<path d="M6.46995 10.8125L3.99995 13.2825L1.52995 10.8125L0.819946 11.5225L3.28995 13.9925L0.819946 16.4625L1.52995 17.1725L3.99995 14.7025L6.46995 17.1725L7.17995 16.4625L4.70995 13.9925L7.17995 11.5225L6.46995 10.8125Z" fill="black"/>
</svg>
