<svg width="24" height="24" viewBox="0 0 24 24" fill="none" xmlns="http://www.w3.org/2000/svg">
<path d="M7.76 16.2475C6.67 15.1675 6 13.6675 6 12.0075C6 10.3475 6.67 8.8475 7.76 7.7675L9.18 9.1875C8.45 9.9075 8 10.9075 8 12.0075C8 13.1075 8.45 14.1075 9.17 14.8375L7.76 16.2475ZM16.24 16.2475C17.33 15.1675 18 13.6675 18 12.0075C18 10.3475 17.33 8.8475 16.24 7.7675L14.82 9.1875C15.55 9.9075 16 10.9075 16 12.0075C16 13.1075 15.55 14.1075 14.83 14.8375L16.24 16.2475ZM12 10.0075C10.9 10.0075 10 10.9075 10 12.0075C10 13.1075 10.9 14.0075 12 14.0075C13.1 14.0075 14 13.1075 14 12.0075C14 10.9075 13.1 10.0075 12 10.0075ZM20 12.0075C20 14.2175 19.1 16.2175 17.65 17.6575L19.07 19.0775C20.88 17.2675 22 14.7675 22 12.0075C22 9.2475 20.88 6.7475 19.07 4.9375L17.65 6.3575C18.396 7.09701 18.9878 7.97717 19.3912 8.94702C19.7945 9.91686 20.0015 10.9571 20 12.0075ZM6.35 6.3575L4.93 4.9375C3.12 6.7475 2 9.2475 2 12.0075C2 14.7675 3.12 17.2675 4.93 19.0775L6.35 17.6575C4.9 16.2175 4 14.2175 4 12.0075C4 9.7975 4.9 7.7975 6.35 6.3575Z" fill="black"/>
</svg>
