<svg width="24" height="24" viewBox="0 0 24 24" fill="none" xmlns="http://www.w3.org/2000/svg">
<path d="M19.14 12.9463C19.18 12.6463 19.2 12.3363 19.2 12.0063C19.2 11.6863 19.18 11.3663 19.13 11.0663L21.16 9.48625C21.2474 9.41415 21.3072 9.31395 21.3291 9.20272C21.351 9.09149 21.3336 8.97612 21.28 8.87625L19.36 5.55625C19.3034 5.45582 19.2132 5.37863 19.1052 5.33836C18.9972 5.29809 18.8785 5.29735 18.77 5.33625L16.38 6.29625C15.88 5.91625 15.35 5.59625 14.76 5.35625L14.4 2.81625C14.3823 2.70178 14.3241 2.59746 14.236 2.52223C14.1479 2.447 14.0358 2.40585 13.92 2.40625H10.08C9.83996 2.40625 9.64996 2.57625 9.60996 2.81625L9.24996 5.35625C8.65996 5.59625 8.11996 5.92625 7.62996 6.29625L5.23996 5.33625C5.01996 5.25625 4.76996 5.33625 4.64996 5.55625L2.73996 8.87625C2.61996 9.08625 2.65996 9.34625 2.85996 9.48625L4.88996 11.0663C4.83996 11.3663 4.79996 11.6963 4.79996 12.0063C4.79996 12.3163 4.81996 12.6463 4.86996 12.9463L2.83996 14.5263C2.75249 14.5984 2.69272 14.6986 2.67084 14.8098C2.64896 14.921 2.66632 15.0364 2.71996 15.1363L4.63996 18.4563C4.75996 18.6763 5.00996 18.7463 5.22996 18.6763L7.61996 17.7163C8.11996 18.0963 8.64996 18.4163 9.23996 18.6563L9.59996 21.1963C9.64996 21.4363 9.83996 21.6063 10.08 21.6063H13.92C14.16 21.6063 14.36 21.4363 14.39 21.1963L14.75 18.6563C15.34 18.4163 15.88 18.0963 16.37 17.7163L18.76 18.6763C18.98 18.7563 19.23 18.6763 19.35 18.4563L21.27 15.1363C21.39 14.9163 21.34 14.6663 21.15 14.5263L19.14 12.9463ZM12 15.6063C10.02 15.6063 8.39996 13.9863 8.39996 12.0063C8.39996 10.0263 10.02 8.40625 12 8.40625C13.98 8.40625 15.6 10.0263 15.6 12.0063C15.6 13.9863 13.98 15.6063 12 15.6063Z" fill="black"/>
</svg>
