<svg width="24" height="24" viewBox="0 0 24 24" fill="none" xmlns="http://www.w3.org/2000/svg">
<path d="M9 16H15.5C16.163 16 16.7989 15.7366 17.2678 15.2678C17.7366 14.7989 18 14.163 18 13.5C18 12.837 17.7366 12.2011 17.2678 11.7322C16.7989 11.2634 16.163 11 15.5 11H15.45C15.21 9.31 13.76 8 12 8C10.6 8 9.4 8.83 8.84 10.02H8.68C7.94396 10.0976 7.26275 10.4451 6.76783 10.9954C6.27292 11.5457 5.99938 12.2599 6 13C6 14.66 7.34 16 9 16ZM21 3H3C1.9 3 1 3.9 1 5V19C1 20.1 1.9 21 3 21H21C22.1 21 23 20.1 23 19V5C23 3.9 22.1 3 21 3ZM21 19.01H3V4.99H21V19.01Z" fill="black"/>
</svg>
