<svg width="24" height="24" viewBox="0 0 24 24" fill="none" xmlns="http://www.w3.org/2000/svg">
<path d="M8.14002 10.9625C8.05002 11.2925 8.00001 11.6425 8.00001 12.0025C8.00001 13.1025 8.45001 14.1025 9.17001 14.8325L7.75001 16.2525C6.62737 15.1232 5.99808 13.5949 6.00001 12.0025C6.00001 11.0725 6.21001 10.2025 6.58001 9.4125L5.11001 7.9425C4.37953 9.17049 3.99591 10.5737 4.00001 12.0025C4.00001 14.2125 4.90001 16.2125 6.35001 17.6525L4.93001 19.0725C3.99999 18.1451 3.26237 17.0432 2.75955 15.8299C2.25673 14.6166 1.9986 13.3159 2.00001 12.0025C2.00001 9.9625 2.61001 8.0725 3.66001 6.4925L1.39001 4.2225L2.80001 2.8125L21.18 21.1925L19.77 22.6025L8.14002 10.9625ZM17.42 14.5925C17.79 13.8025 18 12.9325 18 12.0025C18 10.3425 17.33 8.8425 16.24 7.7625L14.82 9.1825C15.321 9.67529 15.6814 10.2928 15.8642 10.9713C16.047 11.6498 16.0456 12.3647 15.86 13.0425L17.42 14.5925ZM20 12.0025C20 13.4825 19.6 14.8725 18.89 16.0625L20.34 17.5125C21.4262 15.8805 22.0039 13.9629 22 12.0025C22 9.2425 20.88 6.7425 19.07 4.9325L17.65 6.3525C18.396 7.09201 18.9878 7.97217 19.3912 8.94202C19.7946 9.91186 20.0015 10.9521 20 12.0025Z" fill="black"/>
</svg>
