<svg width="24" height="24" viewBox="0 0 24 24" fill="none" xmlns="http://www.w3.org/2000/svg">
<path d="M13.02 19.9269V21.9469C15.03 21.7469 16.86 20.9469 18.34 19.7369L16.92 18.3069C15.7901 19.189 14.4424 19.7488 13.02 19.9269ZM4.03003 11.9969C4.03003 7.94687 7.06003 4.58688 10.98 4.06688V2.04688C5.95003 2.57687 2.03003 6.83687 2.03003 11.9969C2.03003 17.1569 5.95003 21.4169 10.98 21.9469V19.9269C7.06003 19.4069 4.03003 16.0469 4.03003 11.9969ZM19.95 10.9969H21.97C21.77 8.98687 20.97 7.15687 19.76 5.67687L18.33 7.10688C19.19 8.20688 19.77 9.53687 19.95 10.9969ZM18.34 4.25688C16.8225 3.01334 14.972 2.24465 13.02 2.04688V4.06688C14.48 4.24688 15.81 4.82688 16.92 5.68688L18.34 4.25688ZM18.33 16.8969L19.76 18.3169C21.0052 16.8003 21.7741 14.9493 21.97 12.9969H19.95C19.7719 14.4193 19.2121 15.7669 18.33 16.8969Z" fill="black"/>
<path d="M16 11.1C16 8.61 14.1 7 12 7C9.9 7 8 8.61 8 11.1C8 12.76 9.33 14.73 12 17C14.67 14.73 16 12.76 16 11.1ZM12 12C11.7242 11.9881 11.4637 11.8701 11.2728 11.6708C11.0818 11.4714 10.9753 11.206 10.9753 10.93C10.9753 10.654 11.0818 10.3886 11.2728 10.1892C11.4637 9.98987 11.7242 9.87193 12 9.86C12.2758 9.87193 12.5363 9.98987 12.7272 10.1892C12.9182 10.3886 13.0247 10.654 13.0247 10.93C13.0247 11.206 12.9182 11.4714 12.7272 11.6708C12.5363 11.8701 12.2758 11.9881 12 12Z" fill="black"/>
</svg>
