<svg width="24" height="24" viewBox="0 0 24 24" fill="none" xmlns="http://www.w3.org/2000/svg">
<path d="M17.21 8.9958L12.83 2.4358C12.7365 2.30335 12.6119 2.19582 12.4672 2.1226C12.3225 2.04939 12.1621 2.01272 12 2.0158C11.68 2.0158 11.36 2.1558 11.17 2.4458L6.79 8.9958H2C1.45 8.9958 1 9.4458 1 9.9958C1 10.0858 1.01 10.1758 1.04 10.2658L3.58 19.5358C3.81 20.3758 4.58 20.9958 5.5 20.9958H18.5C19.42 20.9958 20.19 20.3758 20.43 19.5358L22.97 10.2658L23 9.9958C23 9.4458 22.55 8.9958 22 8.9958H17.21ZM9 8.9958L12 4.5958L15 8.9958H9ZM12 16.9958C10.9 16.9958 10 16.0958 10 14.9958C10 13.8958 10.9 12.9958 12 12.9958C13.1 12.9958 14 13.8958 14 14.9958C14 16.0958 13.1 16.9958 12 16.9958Z" fill="black"/>
</svg>
