<svg width="24" height="24" viewBox="0 0 24 24" fill="none" xmlns="http://www.w3.org/2000/svg">
<path d="M17 14.76V8H22.92C19.97 5.51 16.16 4 12 4C7.31 4 3.07 5.9 0 8.98L6.35 15.34C7.09067 14.5963 7.97127 14.0066 8.941 13.605C9.91073 13.2034 10.9504 12.9978 12 13C13.89 13 15.63 13.66 17 14.76Z" fill="black" fill-opacity="0.3"/>
<path d="M6.34998 15.34L12 21L17 15.99V14.76C15.5832 13.6195 13.8187 12.9985 12 13C9.78998 13 7.79998 13.89 6.34998 15.34ZM19 18H21V20H19V18ZM19 10H21V16H19V10Z" fill="black"/>
</svg>
