<svg width="24" height="24" viewBox="0 0 24 24" fill="none" xmlns="http://www.w3.org/2000/svg">
<path d="M17 11.21V8H22.92C19.97 5.51 16.16 4 12 4C7.31 4 3.07 5.9 0 8.98L4.23 13.22C5.87063 11.5746 7.99176 10.4931 10.2871 10.1318C12.5825 9.77054 14.9332 10.1481 17 11.21Z" fill="black" fill-opacity="0.3"/>
<path d="M4.22998 13.2215L12 21.0015L17 15.9915V11.2115C14.9332 10.1496 12.5824 9.77202 10.2871 10.1333C7.99174 10.4946 5.87061 11.576 4.22998 13.2215ZM19 18.0015H21V20.0015H19V18.0015ZM19 10.0015H21V16.0015H19V10.0015Z" fill="black"/>
</svg>
