<svg width="24" height="24" viewBox="0 0 24 24" fill="none" xmlns="http://www.w3.org/2000/svg">
<path d="M21.18 11.8L24 8.98002C22.4279 7.39843 20.558 6.14402 18.4983 5.28925C16.4386 4.43448 14.23 3.9963 12 4.00002C7.31 4.00002 3.07 5.90002 0 8.98002L2.82 11.8C5.17 9.45002 8.41 8.00002 12 8.00002C15.59 8.00002 18.83 9.45002 21.18 11.8Z" fill="black" fill-opacity="0.3"/>
<path d="M21.1799 11.8C18.8299 9.45 15.5899 8 11.9999 8C8.40995 8 5.16995 9.45 2.81995 11.8L11.9999 21V12H20.9899L21.1799 11.8ZM19.5899 14L17.4999 16.09L15.4099 14L13.9999 15.41L16.0899 17.5L13.9999 19.59L15.4099 21L17.4999 18.92L19.5899 21L20.9999 19.59L18.9199 17.5L20.9999 15.41L19.5899 14Z" fill="black"/>
</svg>
