<svg width="24" height="24" viewBox="0 0 24 24" fill="none" xmlns="http://www.w3.org/2000/svg">
<path d="M12 12H20.99L24 8.98002C22.4279 7.39843 20.558 6.14402 18.4983 5.28925C16.4386 4.43448 14.23 3.9963 12 4.00002C7.31 4.00002 3.07 5.90002 0 8.98002L6.35 15.34C7.09007 14.5955 7.97056 14.0053 8.94042 13.6036C9.91029 13.202 10.9502 12.9968 12 13V12Z" fill="black" fill-opacity="0.3"/>
<path d="M12 21V13C9.78998 13 7.79998 13.89 6.34998 15.34L12 21ZM21 15.41L19.59 14L17.5 16.09L15.41 14L14 15.41L16.09 17.5L14 19.59L15.41 21L17.5 18.92L19.59 21L21 19.59L18.92 17.5L21 15.41Z" fill="black"/>
</svg>
