<svg width="24" height="24" viewBox="0 0 24 24" fill="none" xmlns="http://www.w3.org/2000/svg">
<path d="M18.52 15.16C18.93 14.43 19.7 14 20.15 13.36C20.63 12.68 20.36 11.42 19.01 11.42C18.13 11.42 17.69 12.09 17.51 12.65L16.14 12.08C16.51 10.96 17.52 10 19 10C20.23 10 21.08 10.56 21.51 11.26C21.88 11.86 22.09 12.99 21.52 13.83C20.89 14.76 20.29 15.04 19.96 15.64C19.83 15.88 19.78 16.04 19.78 16.82H18.26C18.26 16.41 18.19 15.74 18.52 15.16ZM17.95 18.95C17.95 18.36 18.42 17.91 19 17.91C19.59 17.91 20.04 18.36 20.04 18.95C20.04 19.53 19.6 20 19 20C18.42 20 17.95 19.53 17.95 18.95Z" fill="black"/>
<path d="M14 13C14 10.24 16.24 8.00002 19 8.00002C20.63 8.00002 22.07 8.79002 22.98 10L24 8.98002C22.4279 7.39843 20.558 6.14402 18.4983 5.28925C16.4386 4.43448 14.23 3.9963 12 4.00002C7.31 4.00002 3.07 5.90002 0 8.98002L12 21L16.01 16.98C14.8 16.07 14 14.63 14 13Z" fill="black" fill-opacity="0.3"/>
</svg>
