<svg width="24" height="24" viewBox="0 0 24 24" fill="none" xmlns="http://www.w3.org/2000/svg">
<path d="M17 9V8H22.92C19.97 5.51 16.16 4 12 4C7.31 4 3.07 5.9 0 8.98L2.82 11.8C4.02401 10.5926 5.45495 9.63524 7.03044 8.98307C8.60594 8.33091 10.2949 7.99681 12 8C13.77 8 15.46 8.36 17 9Z" fill="black" fill-opacity="0.3"/>
<path d="M2.81995 11.8L11.9999 21L16.9999 15.99V9C15.4599 8.36 13.7699 8 11.9999 8C8.40995 8 5.16995 9.45 2.81995 11.8ZM18.9999 18H20.9999V20H18.9999V18ZM18.9999 10H20.9999V16H18.9999V10Z" fill="black"/>
</svg>
