<svg width="24" height="24" viewBox="0 0 24 24" fill="none" xmlns="http://www.w3.org/2000/svg">
<path d="M18.31 12H20.98L24 8.98002C22.4279 7.39843 20.558 6.14402 18.4983 5.28925C16.4386 4.43448 14.23 3.9963 12 4.00002C7.31 4.00002 3.07 5.90002 0 8.98002L4.23 13.22C5.24931 12.1981 6.46043 11.3876 7.79383 10.835C9.12722 10.2824 10.5566 9.99868 12 10C14.35 10 16.52 10.74 18.31 12Z" fill="black" fill-opacity="0.3"/>
<path d="M12 10C8.96998 10 6.21998 11.23 4.22998 13.22L12 21V12H18.32C16.52 10.74 14.35 10 12 10ZM21 15.41L19.59 14L17.5 16.09L15.41 14L14 15.41L16.09 17.5L14 19.59L15.41 21L17.5 18.92L19.59 21L21 19.59L18.92 17.5L21 15.41Z" fill="black"/>
</svg>
