<svg width="24" height="24" viewBox="0 0 24 24" fill="none" xmlns="http://www.w3.org/2000/svg">
<path d="M13.05 9.78687L10 7.49687V16.4969L13.05 14.2069L16 11.9969L13.05 9.78687ZM13.05 9.78687L10 7.49687V16.4969L13.05 14.2069L16 11.9969L13.05 9.78687ZM13.05 9.78687L10 7.49687V16.4969L13.05 14.2069L16 11.9969L13.05 9.78687ZM11 4.06688V2.04688C8.99005 2.24688 7.16005 3.04688 5.68005 4.25688L7.10005 5.68688C8.23 4.80476 9.57766 4.24497 11 4.06688ZM5.69005 7.09688L4.26005 5.67687C3.01486 7.19346 2.24595 9.0444 2.05005 10.9969H4.07005C4.25005 9.53687 4.83005 8.20688 5.69005 7.09688ZM4.07005 12.9969H2.05005C2.25005 15.0069 3.05005 16.8369 4.26005 18.3169L5.69005 16.8869C4.80641 15.7616 4.24632 14.4167 4.07005 12.9969ZM5.68005 19.7369C7.19762 20.9804 9.04805 21.7491 11 21.9469V19.9269C9.57766 19.7488 8.23 19.189 7.10005 18.3069L5.68005 19.7369ZM22 11.9969C22 17.1569 18.08 21.4169 13.05 21.9469V19.9269C16.97 19.4069 20 16.0469 20 11.9969C20 7.94687 16.97 4.58688 13.05 4.06688V2.04688C18.08 2.57687 22 6.83687 22 11.9969Z" fill="black"/>
</svg>
