<svg width="24" height="24" viewBox="0 0 24 24" fill="none" xmlns="http://www.w3.org/2000/svg">
<path d="M4 5C4 3.9 4.9 3 6 3C7.1 3 8 3.9 8 5C8 6.1 7.1 7 6 7C4.9 7 4 6.1 4 5ZM8.78 8.58C7.90315 8.19731 6.95673 7.99978 6 7.99978C5.04328 7.99978 4.09685 8.19731 3.22 8.58C2.85771 8.73485 2.54892 8.99277 2.33202 9.32168C2.11511 9.6506 1.99966 10.036 2 10.43V11H10V10.43C10 9.62 9.52 8.9 8.78 8.58ZM18 7C19.1 7 20 6.1 20 5C20 3.9 19.1 3 18 3C16.9 3 16 3.9 16 5C16 6.1 16.9 7 18 7ZM20.78 8.58C19.9031 8.19731 18.9567 7.99978 18 7.99978C17.0433 7.99978 16.0969 8.19731 15.22 8.58C14.8577 8.73485 14.5489 8.99277 14.332 9.32168C14.1151 9.6506 13.9997 10.036 14 10.43V11H22V10.43C22 9.62 21.52 8.9 20.78 8.58ZM22 17L18 13V16H6V13L2 17L6 21V18H18V21L22 17Z" fill="black"/>
</svg>
