<svg width="24" height="24" viewBox="0 0 24 24" fill="none" xmlns="http://www.w3.org/2000/svg">
<path d="M9.12 5L1.94 11.79C1.34 12.35 1 13.14 1 13.97V20C1 21.66 2.34 23 4 23H17.75C18.0815 23 18.3995 22.8683 18.6339 22.6339C18.8683 22.3995 19 22.0815 19 21.75C19 21.4185 18.8683 21.1005 18.6339 20.8661C18.3995 20.6317 18.0815 20.5 17.75 20.5H12V19.5H19.75C20.0815 19.5 20.3995 19.3683 20.6339 19.1339C20.8683 18.8995 21 18.5815 21 18.25C21 17.9185 20.8683 17.6005 20.6339 17.3661C20.3995 17.1317 20.0815 17 19.75 17H12V16H20.75C21.0815 16 21.3995 15.8683 21.6339 15.6339C21.8683 15.3995 22 15.0815 22 14.75C22 14.4185 21.8683 14.1005 21.6339 13.8661C21.3995 13.6317 21.0815 13.5 20.75 13.5H12V12.5H18.75C19.0815 12.5 19.3995 12.3683 19.6339 12.1339C19.8683 11.8995 20 11.5815 20 11.25C20 10.9185 19.8683 10.6005 19.6339 10.3661C19.3995 10.1317 19.0815 10 18.75 10H8.86C9.5 8.89 10.34 7.42 10.35 7.39C10.4604 7.19796 10.5082 6.97628 10.4867 6.75581C10.4651 6.53535 10.3754 6.32708 10.23 6.16C10.22 6.12 9.12 5 9.12 5ZM14 6.25C14.41 6.25 14.75 6.59 14.75 7C14.75 7.41 14.41 7.75 14 7.75C13.59 7.75 13.25 7.41 13.25 7C13.25 6.59 13.59 6.25 14 6.25ZM14 4.75C12.76 4.75 11.75 5.76 11.75 7C11.75 8.24 12.76 9.25 14 9.25C15.24 9.25 16.25 8.24 16.25 7C16.25 5.76 15.24 4.75 14 4.75ZM19.75 5.5C20.03 5.5 20.25 5.72 20.25 6C20.25 6.28 20.03 6.5 19.75 6.5C19.47 6.5 19.25 6.28 19.25 6C19.25 5.72 19.47 5.5 19.75 5.5ZM19.75 4C18.65 4 17.75 4.9 17.75 6C17.75 7.1 18.65 8 19.75 8C20.85 8 21.75 7.1 21.75 6C21.75 4.9 20.85 4 19.75 4ZM16.5 1C15.67 1 15 1.67 15 2.5C15 3.33 15.67 4 16.5 4C17.33 4 18 3.33 18 2.5C18 1.67 17.33 1 16.5 1Z" fill="black"/>
</svg>
