<svg width="24" height="24" viewBox="0 0 24 24" fill="none" xmlns="http://www.w3.org/2000/svg">
<path d="M3.01997 15.6126C2.93997 18.0326 3.33997 19.9526 3.68997 20.3026C4.03997 20.6526 5.96997 21.0626 8.37997 20.9726L3.01997 15.6126ZM13.08 3.27259C10.75 3.69259 8.28997 4.61259 6.45997 6.45259C4.62997 8.29259 3.69997 10.7426 3.27997 13.0726L10.91 20.7026C13.25 20.2926 15.7 19.3626 17.53 17.5226C19.36 15.6826 20.29 13.2326 20.71 10.9026L13.08 3.27259ZM9.89997 15.4926L8.49997 14.0926L14.1 8.49259L15.5 9.89259L9.89997 15.4926ZM20.98 8.37259C21.06 5.95259 20.66 4.03259 20.31 3.68259C19.96 3.33259 18.03 2.92259 15.62 3.01259L20.98 8.37259Z" fill="black"/>
</svg>
