<svg width="24" height="24" viewBox="0 0 24 24" fill="none" xmlns="http://www.w3.org/2000/svg">
<path d="M20.38 8.56328L19.15 10.4133C19.7432 11.5964 20.0336 12.9081 19.9952 14.231C19.9568 15.5539 19.5908 16.8466 18.93 17.9933H5.07005C4.21122 16.5034 3.85535 14.7764 4.05519 13.0684C4.25504 11.3603 4.99996 9.76211 6.17953 8.51071C7.3591 7.25931 8.91052 6.42133 10.6038 6.12098C12.2971 5.82064 14.042 6.07392 15.5801 6.84329L17.4301 5.61329C15.5465 4.4055 13.3124 3.86429 11.0849 4.07622C8.8575 4.28815 6.76549 5.24098 5.14354 6.7823C3.52159 8.32361 2.46341 10.3644 2.13827 12.5781C1.81312 14.7918 2.2398 17.0507 3.35005 18.9933C3.52456 19.2956 3.77514 19.5469 4.07688 19.7223C4.37862 19.8978 4.72102 19.9912 5.07005 19.9933H18.92C19.2725 19.9947 19.619 19.9029 19.9246 19.7273C20.2301 19.5517 20.4838 19.2985 20.66 18.9933C21.5814 17.3972 22.0438 15.5776 21.9962 13.7352C21.9485 11.8929 21.3927 10.0996 20.39 8.55329L20.38 8.56328ZM10.5901 15.4033C10.7758 15.5892 10.9964 15.7368 11.2392 15.8374C11.482 15.9381 11.7422 15.9899 12.0051 15.9899C12.2679 15.9899 12.5281 15.9381 12.7709 15.8374C13.0137 15.7368 13.2343 15.5892 13.4201 15.4033L19.08 6.91329L10.5901 12.5733C10.4041 12.759 10.2566 12.9796 10.1559 13.2224C10.0553 13.4652 10.0035 13.7255 10.0035 13.9883C10.0035 14.2511 10.0553 14.5114 10.1559 14.7542C10.2566 14.997 10.4041 15.2175 10.5901 15.4033Z" fill="black"/>
</svg>
