<svg width="24" height="24" viewBox="0 0 24 24" fill="none" xmlns="http://www.w3.org/2000/svg">
<path d="M12 11.3869C12 10.7369 11.61 10.1569 11.02 9.90687L5.44001 7.54688C3.96001 9.22687 3.12001 11.2469 2.64001 12.9969H10.39C11.28 12.9969 12 12.2769 12 11.3869Z" fill="black"/>
<path d="M21.96 11.2189C21.55 6.80888 17.4 3.72888 12.98 4.01888C10.47 4.17888 8.54 4.95888 7.05 6.05888L11.79 8.06888C13.12 8.63888 13.99 9.93888 13.99 11.3889C13.99 13.3789 12.37 14.9989 10.38 14.9989H2.21C2 16.3089 2 17.1989 2 17.1989V17.9989C2 19.0989 2.9 19.9989 4 19.9989H14C18.67 19.9989 22.41 15.9889 21.96 11.2189Z" fill="black"/>
</svg>
