<svg width="24" height="24" viewBox="0 0 24 24" fill="none" xmlns="http://www.w3.org/2000/svg">
<path d="M6 4.00688C3.58 5.83688 2 8.72687 2 11.9969C2 13.4569 2.32 14.8469 2.89 16.1069L6 14.3069V4.00688ZM11 11.4169V2.04688C9.94 2.15687 8.93 2.42687 8 2.83687V13.1569L11 11.4169ZM12 13.1469L3.89 17.8269C4.5 18.6669 5.23 19.4169 6.07 20.0269L15 14.8869L12 13.1469ZM13 7.95687V11.4169L21.11 16.0969C21.53 15.1669 21.81 14.1669 21.93 13.1169L13 7.95687ZM8.07 21.1969C9.28 21.7069 10.6 21.9969 12 21.9969C15.34 21.9969 18.29 20.3469 20.11 17.8369L17 16.0369L8.07 21.1969ZM21.92 10.8069C21.37 6.17688 17.66 2.50688 13 2.04688V5.64688L21.92 10.8069Z" fill="black"/>
</svg>
