<svg width="24" height="24" viewBox="0 0 24 24" fill="none" xmlns="http://www.w3.org/2000/svg">
<path d="M3.81 6.28125C2.67 7.90125 2 9.87125 2 12.0012C2 14.1312 2.67 16.1012 3.81 17.7212C6.23 16.9512 8 14.6812 8 12.0012C8 9.32125 6.23 7.05125 3.81 6.28125ZM20.19 6.28125C17.77 7.05125 16 9.32125 16 12.0012C16 14.6812 17.77 16.9512 20.19 17.7212C21.33 16.1012 22 14.1312 22 12.0012C22 9.87125 21.33 7.90125 20.19 6.28125Z" fill="black"/>
<path d="M14 12C14 8.72 15.97 5.91 18.79 4.67C17.01 3.02 14.63 2 12 2C9.36996 2 6.98996 3.02 5.20996 4.67C8.02996 5.91 9.99996 8.72 9.99996 12C9.99996 15.28 8.02996 18.09 5.20996 19.33C6.98996 20.98 9.36996 22 12 22C14.63 22 17.01 20.98 18.79 19.33C17.3657 18.7058 16.1541 17.6801 15.3034 16.3783C14.4527 15.0765 13.9998 13.5551 14 12Z" fill="black"/>
</svg>
