<svg width="24" height="24" viewBox="0 0 24 24" fill="none" xmlns="http://www.w3.org/2000/svg">
<path d="M16.5 4.375C17.6046 4.375 18.5 3.47957 18.5 2.375C18.5 1.27043 17.6046 0.375 16.5 0.375C15.3954 0.375 14.5 1.27043 14.5 2.375C14.5 3.47957 15.3954 4.375 16.5 4.375Z" fill="black"/>
<path d="M24 11.8763V7.17625L18.95 5.03625C17.98 4.62625 16.86 4.97625 16.3 5.87625L15.3 7.47625C14.63 8.65625 13.39 9.53625 11.89 9.79625L11.95 9.85625C12.64 10.5462 13.47 10.9262 14.41 11.0262C15.21 10.6062 15.93 10.0463 16.5 9.38625L17.1 12.3863L15.94 13.4862L15 14.3763V21.8762H17V15.8763L19.1 13.8763L20.9 21.8762H23L20.82 10.8763L20.2 7.77625L22 8.47625V11.8763H24ZM10.29 8.08625C10.51 8.23625 10.76 8.32625 11.01 8.37625C11.14 8.39625 11.26 8.41625 11.39 8.41625C11.52 8.41625 11.65 8.40625 11.77 8.37625C11.9 8.35625 12.02 8.31625 12.14 8.26625C12.38 8.16625 12.61 8.02625 12.8 7.82625C13.29 7.33625 13.47 6.65625 13.35 6.02625C13.28 5.65625 13.1 5.28625 12.8 4.99625C12.61 4.80625 12.38 4.65625 12.14 4.55625C12.02 4.50625 11.9 4.46625 11.77 4.44625C11.64 4.42625 11.52 4.40625 11.39 4.40625C11.27 4.40625 11.16 4.41625 11.04 4.43625C10.9 4.45625 10.76 4.49625 10.63 4.54625C10.4 4.65625 10.17 4.80625 9.97996 4.99625C9.67996 5.28625 9.49996 5.65625 9.42996 6.02625C9.30996 6.65625 9.48996 7.33625 9.97996 7.82625C10.07 7.92625 10.18 8.00625 10.29 8.08625Z" fill="black"/>
<path d="M11.24 10.5644L9.24005 8.56438C9.14005 8.46438 9.04005 8.38438 8.93005 8.30438C8.71137 8.16347 8.46647 8.06823 8.21005 8.02438C8.08005 7.99438 7.96005 7.98438 7.83005 7.98438C7.32005 7.98438 6.81005 8.18437 6.42005 8.57437L3.08005 11.9144C2.67005 12.3244 2.46005 12.8944 2.50005 13.4544C2.50005 13.6344 2.54005 13.8244 2.61005 14.0044L3.68005 16.9544L0.0500488 20.5844L1.46005 22.0044L5.70005 17.7644V15.5444L7.00005 16.7544V21.8844H9.00005V15.8844L6.88005 13.7644L9.24005 11.4044L9.95005 12.1144C11.24 13.3744 12.92 14.1544 14.98 14.1544L14.84 12.0844C13.34 12.0644 12.14 11.4644 11.24 10.5644Z" fill="black"/>
</svg>
