<svg width="24" height="24" viewBox="0 0 24 24" fill="none" xmlns="http://www.w3.org/2000/svg">
<path d="M10.54 11.0044L10 10.4644L7.54 8.00437L6 6.46438L2.38 2.84437L1.27 1.73438L0 3.00437L2.01 5.01438L2 22.0044L6 18.0044H15L20.73 23.7344L22 22.4644L17.54 18.0044L10.54 11.0044ZM8 14.0044H6V12.0044H8V14.0044ZM6 11.0044V9.00437L8 11.0044H6ZM20 2.00437H4.08L10 7.92438V6.00437H18V8.00437H10.08L11.08 9.00437H18V11.0044H13.08L20.07 17.9944C21.14 17.9544 22 17.0844 22 16.0044V4.00437C22 2.90437 21.1 2.00437 20 2.00437Z" fill="black"/>
</svg>
