<svg width="24" height="24" viewBox="0 0 24 24" fill="none" xmlns="http://www.w3.org/2000/svg">
<path d="M15.05 12.8137L6.56003 4.32369C6.46752 4.23099 6.35763 4.15744 6.23666 4.10726C6.11568 4.05708 5.986 4.03125 5.85503 4.03125C5.72406 4.03125 5.59438 4.05708 5.47341 4.10726C5.35243 4.15744 5.24255 4.23099 5.15003 4.32369L2.32003 7.15369C2.22733 7.24621 2.15378 7.3561 2.1036 7.47707C2.05342 7.59804 2.02759 7.72773 2.02759 7.85869C2.02759 7.98966 2.05342 8.11935 2.1036 8.24032C2.15378 8.36129 2.22733 8.47118 2.32003 8.56369L10.81 17.0537C11.2 17.4437 11.83 17.4437 12.22 17.0537L15.05 14.2237C15.1427 14.1312 15.2163 14.0213 15.2665 13.9003C15.3166 13.7793 15.3425 13.6497 15.3425 13.5187C15.3425 13.3877 15.3166 13.258 15.2665 13.1371C15.2163 13.0161 15.1427 12.9062 15.05 12.8137ZM14.341 17.7597L15.755 16.3457L19.998 20.5887L18.584 22.0027L14.341 17.7597Z" fill="black"/>
<path d="M18.5 9C20.433 9 22 7.433 22 5.5C22 3.567 20.433 2 18.5 2C16.567 2 15 3.567 15 5.5C15 7.433 16.567 9 18.5 9Z" fill="black"/>
</svg>
