<svg width="24" height="24" viewBox="0 0 24 24" fill="none" xmlns="http://www.w3.org/2000/svg">
<path d="M17.09 10.9969H21.9501C21.7923 9.42896 21.2645 7.92092 20.41 6.59688C19.5446 7.01067 18.7913 7.62636 18.2136 8.39208C17.6358 9.1578 17.2505 10.0511 17.09 10.9969ZM6.91005 10.9969C6.74962 10.0511 6.3643 9.1578 5.78653 8.39208C5.20875 7.62636 4.45545 7.01067 3.59005 6.59688C2.73557 7.92092 2.20775 9.42896 2.05005 10.9969H6.91005ZM15.07 10.9969C15.2265 9.74773 15.6758 8.5532 16.3814 7.51056C17.0869 6.46792 18.0287 5.60665 19.13 4.99688C17.4958 3.3252 15.3261 2.28103 13 2.04688V10.9969H15.07ZM8.93005 10.9969H11V2.04688C8.67342 2.27886 6.50297 3.32337 4.87005 4.99688C5.97143 5.60665 6.91322 6.46792 7.61874 7.51056C8.32426 8.5532 8.77356 9.74773 8.93005 10.9969ZM15.07 12.9969H13V21.9469C15.3267 21.7149 17.4971 20.6704 19.13 18.9969C18.0287 18.3871 17.0869 17.5258 16.3814 16.4832C15.6758 15.4406 15.2265 14.246 15.07 12.9969ZM3.59005 17.3969C4.45339 16.9802 5.20493 16.3637 5.78232 15.5985C6.35972 14.8333 6.74632 13.9414 6.91005 12.9969H2.05005C2.21005 14.6069 2.76005 16.1069 3.59005 17.3969ZM17.09 12.9969C17.2505 13.9426 17.6358 14.8359 18.2136 15.6017C18.7913 16.3674 19.5446 16.9831 20.41 17.3969C21.2645 16.0728 21.7923 14.5648 21.9501 12.9969H17.09ZM8.93005 12.9969C8.77356 14.246 8.32426 15.4406 7.61874 16.4832C6.91322 17.5258 5.97143 18.3871 4.87005 18.9969C6.50428 20.6685 8.67403 21.7127 11 21.9469V12.9969H8.93005Z" fill="black"/>
</svg>
