<svg width="24" height="24" viewBox="0 0 24 24" fill="none" xmlns="http://www.w3.org/2000/svg">
<path d="M14.27 5.99635C13.72 6.94635 14.05 8.17635 15 8.72635C15.95 9.27635 17.18 8.94635 17.73 7.99635C18.28 7.04635 17.95 5.81635 17 5.26635C16.05 4.71635 14.82 5.04635 14.27 5.99635Z" fill="black"/>
<path d="M15.84 10.4154L13.24 8.91544C10.86 7.53544 10.04 4.47544 11.42 2.09544L9.69001 1.09544C8.10001 3.83544 8.60001 7.21544 10.66 9.40544L5.51001 18.3254L7.24001 19.3254L8.74001 16.7254L10.47 17.7254L7.47001 22.9254L9.20001 23.9254L15.49 13.0354C16.0661 13.8172 16.4022 14.7498 16.4573 15.7193C16.5123 16.6889 16.2839 17.6535 15.8 18.4954L17.53 19.4954C19.13 16.7454 18.81 12.9154 15.84 10.4154ZM12.75 3.80544C13.47 4.21544 14.38 3.97544 14.8 3.25544C15.21 2.53544 14.97 1.62544 14.25 1.20544C13.9056 1.01356 13.4996 0.96485 13.1196 1.06984C12.7397 1.17483 12.4162 1.42508 12.2193 1.76654C12.0223 2.10801 11.9675 2.51326 12.0668 2.89476C12.1661 3.27626 12.4115 3.60338 12.75 3.80544Z" fill="black"/>
</svg>
