<svg width="24" height="24" viewBox="0 0 24 24" fill="none" xmlns="http://www.w3.org/2000/svg">
<path d="M19 8.99563H17.44C17.79 8.40563 18 7.72563 18 6.99563C18 4.78562 16.21 2.99563 14 2.99563C13.66 2.99563 13.34 3.04563 13.02 3.12563C12.175 2.41237 11.1058 2.0194 10 2.01562C8.11 2.01563 6.49 3.12563 5.73 4.72563C4.15 5.25563 3 6.73563 3 8.49563C3 10.3556 4.28 11.9056 6 12.3556V20.9956H17V18.9956H19C20.1 18.9956 21 18.0956 21 16.9956V10.9956C21 9.89562 20.1 8.99563 19 8.99563ZM7 10.4956C5.9 10.4956 5 9.59563 5 8.49563C5 7.64562 5.55 6.89562 6.37 6.61562L7.17 6.34562L7.53 5.58563C8 4.61563 8.94 4.01562 10 4.01562C10.79 4.01562 11.39 4.36563 11.74 4.66563L12.52 5.31563C12.52 5.31563 13.16 4.99563 13.99 4.99563C15.09 4.99563 15.99 5.89562 15.99 6.99563H12.99C9.67 6.99563 9.15 10.4956 7 10.4956ZM19 16.9956H17V10.9956H19V16.9956Z" fill="black"/>
</svg>
