<svg width="24" height="24" viewBox="0 0 24 24" fill="none" xmlns="http://www.w3.org/2000/svg">
<path d="M20.49 3.51688C19.93 2.95688 18.34 2.54688 16.33 2.54688C13.25 2.54688 9.18001 3.50688 6.35001 6.33687C1.66001 11.0369 2.10001 19.0769 3.51001 20.4969C4.07001 21.0569 5.66001 21.4669 7.67001 21.4669C10.75 21.4669 14.82 20.5069 17.65 17.6769C22.34 12.9769 21.9 4.93687 20.49 3.51688ZM7.76001 7.76688C10.4 5.12688 14.11 4.64688 15.79 4.57688C13.74 5.51688 11.33 7.02688 9.18001 9.18688C7.26814 11.113 5.70496 13.3563 4.56001 15.8169C4.66001 13.3369 5.44001 10.0769 7.76001 7.76688ZM16.24 16.2469C13.6 18.8869 9.89001 19.3669 8.21001 19.4369C10.26 18.4969 12.67 16.9869 14.82 14.8269C16.98 12.6669 18.49 10.2469 19.44 8.19687C19.34 10.6769 18.56 13.9369 16.24 16.2469Z" fill="black"/>
</svg>
