<svg width="24" height="24" viewBox="0 0 24 24" fill="none" xmlns="http://www.w3.org/2000/svg">
<path d="M19.52 2.48776C17.18 0.14776 12.9 0.61776 9.96997 3.54776C8.36997 5.14776 7.44997 7.41776 7.42997 9.00776C7.40997 10.5878 7.68997 12.8978 6.07997 14.5078L1.83997 18.7478L3.25997 20.1678L7.49997 15.9278C9.10997 14.3178 11.42 14.5978 13 14.5778C14.58 14.5578 16.86 13.6378 18.46 12.0378C21.38 9.10776 21.86 4.82776 19.52 2.48776ZM10.32 11.6778C8.78997 10.1478 9.26997 7.06776 11.38 4.95776C13.49 2.84776 16.56 2.36776 18.1 3.89776C19.63 5.42776 19.15 8.50776 17.04 10.6178C14.93 12.7278 11.86 13.2078 10.32 11.6778ZM18 16.9978C18.53 16.9978 19.04 17.2078 19.41 17.5878C20.19 18.3678 20.19 19.6378 19.41 20.4178C19.04 20.7878 18.53 20.9978 18 20.9978C17.47 20.9978 16.96 20.7878 16.59 20.4078C15.81 19.6278 15.81 18.3578 16.59 17.5778C16.96 17.2078 17.47 16.9978 18 16.9978ZM18 14.9978C17.208 14.9962 16.4333 15.2299 15.7743 15.6692C15.1153 16.1085 14.6017 16.7337 14.2985 17.4654C13.9953 18.197 13.9163 19.0023 14.0714 19.779C14.2266 20.5556 14.6089 21.2687 15.17 21.8278C15.95 22.6078 16.98 22.9978 18 22.9978C18.792 22.9993 19.5666 22.7657 20.2256 22.3263C20.8846 21.887 21.3983 21.2619 21.7015 20.5302C22.0046 19.7985 22.0836 18.9932 21.9285 18.2166C21.7733 17.4399 21.391 16.7268 20.83 16.1678C20.4583 15.7963 20.017 15.5018 19.5314 15.3011C19.0458 15.1003 18.5254 14.9972 18 14.9978Z" fill="black"/>
</svg>
