<svg width="24" height="24" viewBox="0 0 24 24" fill="none" xmlns="http://www.w3.org/2000/svg">
<path d="M2.52998 19.65L3.86998 20.21V11.18L1.43998 17.04C1.02998 18.06 1.51998 19.23 2.52998 19.65ZM22.03 15.95L17.07 3.98C16.919 3.62226 16.6679 3.3158 16.3467 3.09756C16.0256 2.87932 15.6482 2.75862 15.26 2.75C15 2.75 14.73 2.79 14.47 2.9L7.09998 5.95C6.61342 6.15331 6.22691 6.54064 6.02462 7.02762C5.82234 7.5146 5.82067 8.06179 6.01998 8.55L10.98 20.52C11.1831 21.0067 11.5704 21.3934 12.0574 21.5957C12.5445 21.798 13.0918 21.7996 13.58 21.6L20.94 18.55C21.4292 18.3497 21.8189 17.9632 22.0233 17.4757C22.2277 16.9881 22.2301 16.4393 22.03 15.95ZM7.87998 8.75C7.32998 8.75 6.87998 8.3 6.87998 7.75C6.87998 7.2 7.32998 6.75 7.87998 6.75C8.42998 6.75 8.87998 7.2 8.87998 7.75C8.87998 8.3 8.42998 8.75 7.87998 8.75ZM5.87998 19.75C5.87998 20.85 6.77998 21.75 7.87998 21.75H9.32998L5.87998 13.41V19.75Z" fill="black"/>
</svg>
