<svg width="24" height="24" viewBox="0 0 24 24" fill="none" xmlns="http://www.w3.org/2000/svg">
<path d="M20 14C21.1046 14 22 13.1046 22 12C22 10.8954 21.1046 10 20 10C18.8954 10 18 10.8954 18 12C18 13.1046 18.8954 14 20 14Z" fill="black"/>
<path d="M4 14C5.10457 14 6 13.1046 6 12C6 10.8954 5.10457 10 4 10C2.89543 10 2 10.8954 2 12C2 13.1046 2.89543 14 4 14Z" fill="black"/>
<path d="M12 22C13.1046 22 14 21.1046 14 20C14 18.8954 13.1046 18 12 18C10.8954 18 10 18.8954 10 20C10 21.1046 10.8954 22 12 22Z" fill="black"/>
<path d="M10.05 8.58375L6.02999 4.54375H6.01999L5.70999 4.22375L4.28999 5.63375L8.30999 9.68375L8.31999 9.67375L8.62999 9.99375L10.05 8.58375ZM13.943 8.61075L18.348 4.21875L19.76 5.63375L15.355 10.0268L13.943 8.61075ZM10.01 15.3538L8.58999 13.9438L4.55999 17.9537L4.23999 18.2838L5.64999 19.6938L9.67999 15.6737L10.01 15.3538ZM19.76 18.2937L15.77 14.2838L15.41 13.9338L14 15.3438L17.99 19.3538L18.34 19.7037L19.76 18.2937Z" fill="black"/>
<path d="M12 6C13.1046 6 14 5.10457 14 4C14 2.89543 13.1046 2 12 2C10.8954 2 10 2.89543 10 4C10 5.10457 10.8954 6 12 6Z" fill="black"/>
</svg>
