<svg width="24" height="24" viewBox="0 0 24 24" fill="none" xmlns="http://www.w3.org/2000/svg">
<path d="M21.22 18.0244L23.22 20.0244H24V18.0244H21.22ZM21.99 16.0244L22 6.02437C22 5.49394 21.7893 4.98523 21.4142 4.61016C21.0391 4.23509 20.5304 4.02437 20 4.02437H7.22L12.45 9.25437C12.63 9.21437 12.81 9.18437 13 9.15437V7.02437L17 10.7544L15.42 12.2244L20.96 17.7644C21.57 17.4344 21.99 16.7744 21.99 16.0244ZM2.39 1.73438L1.11 3.00437L2.65 4.54437C2.25 4.90437 2 5.43437 2 6.02437V16.0244C2 16.5548 2.21071 17.0635 2.58579 17.4386C2.96086 17.8137 3.46957 18.0244 4 18.0244H0V20.0244H18.13L20.84 22.7344L22.11 21.4644L2.39 1.73438ZM7 15.0244C7.31 13.5444 7.92 12.0744 9.07 10.9644L10.66 12.5544C9.12 12.9344 7.96 13.7344 7 15.0244Z" fill="black"/>
</svg>
