<svg width="24" height="24" viewBox="0 0 24 24" fill="none" xmlns="http://www.w3.org/2000/svg">
<path d="M20 4.00312H6.83004L14.83 12.0031H20V14.0031H16.83L21.76 18.9331C21.91 18.6531 22 18.3431 22 18.0031V6.00312C22 4.90312 21.1 4.00312 20 4.00312ZM1.04004 3.87312L2.24004 5.07313C2.09004 5.35313 2.00004 5.66312 2.00004 6.00312V18.0031C2.00004 19.1031 2.90004 20.0031 4.00004 20.0031H17.17L20.13 22.9631L21.54 21.5531L2.45004 2.45312L1.04004 3.87312ZM8.00004 12.0031V14.0031H4.00004V12.0031H8.00004ZM14 16.8331V18.0031H4.00004V16.0031H13.17L14 16.8331Z" fill="black"/>
</svg>
