<svg width="24" height="24" viewBox="0 0 24 24" fill="none" xmlns="http://www.w3.org/2000/svg">
<path d="M9.99999 6.35V4.26C9.19999 4.47 8.44999 4.8 7.76999 5.22L9.22999 6.68C9.47999 6.56 9.72999 6.44 9.99999 6.35ZM2.85999 5.41L5.21999 7.77C4.25625 9.29862 3.84387 11.1107 4.05121 12.9058C4.25855 14.701 5.07316 16.3713 6.35999 17.64L3.99999 20H9.99999V14L7.75999 16.24C6.63472 15.1157 6.00171 13.5907 5.99999 12C5.99999 11 6.24999 10.06 6.67999 9.23L14.76 17.31C14.51 17.44 14.26 17.56 13.99 17.65V19.74C14.79 19.53 15.54 19.2 16.22 18.78L18.58 21.14L19.85 19.87L4.13999 4.14L2.85999 5.41ZM20 4H14V10L16.24 7.76C17.3652 8.88433 17.9983 10.4093 18 12C18 13 17.75 13.94 17.32 14.77L18.78 16.23C19.7437 14.7014 20.1561 12.8893 19.9488 11.0942C19.7414 9.29904 18.9268 7.62868 17.64 6.36L20 4Z" fill="black"/>
</svg>
