<svg width="24" height="24" viewBox="0 0 24 24" fill="none" xmlns="http://www.w3.org/2000/svg">
<path d="M23 8.00606C22.9978 6.41846 22.456 4.87875 21.4636 3.63962C20.4711 2.40048 19.0869 1.53552 17.5381 1.18669C15.9893 0.837864 14.3679 1.02588 12.94 1.71989C11.5121 2.4139 10.3626 3.57268 9.68 5.00606H7V7.00606H4.5C4.18761 7.00558 3.88286 7.10265 3.6283 7.28372C3.37373 7.46478 3.18205 7.72081 3.08 8.01606L1 14.0061V22.0061C1 22.2713 1.10536 22.5256 1.29289 22.7132C1.48043 22.9007 1.73478 23.0061 2 23.0061H3C3.26522 23.0061 3.51957 22.9007 3.70711 22.7132C3.89464 22.5256 4 22.2713 4 22.0061V21.0061H16V22.0061C16 22.2713 16.1054 22.5256 16.2929 22.7132C16.4804 22.9007 16.7348 23.0061 17 23.0061H18C18.2652 23.0061 18.5196 22.9007 18.7071 22.7132C18.8946 22.5256 19 22.2713 19 22.0061V14.3261C20.1954 13.7577 21.2055 12.8625 21.9133 11.7441C22.6212 10.6257 22.9979 9.32968 23 8.00606ZM4.5 8.50606H9.03C9.14474 10.2112 9.88551 11.8139 11.11 13.0061H3L4.5 8.50606ZM4.5 18.0061C4.10218 18.0061 3.72064 17.848 3.43934 17.5667C3.15804 17.2854 3 16.9039 3 16.5061C3 16.1082 3.15804 15.7267 3.43934 15.4454C3.72064 15.1641 4.10218 15.0061 4.5 15.0061C4.89782 15.0061 5.27936 15.1641 5.56066 15.4454C5.84196 15.7267 6 16.1082 6 16.5061C6 16.9039 5.84196 17.2854 5.56066 17.5667C5.27936 17.848 4.89782 18.0061 4.5 18.0061ZM15.5 18.0061C15.1022 18.0061 14.7206 17.848 14.4393 17.5667C14.158 17.2854 14 16.9039 14 16.5061C14 16.1082 14.158 15.7267 14.4393 15.4454C14.7206 15.1641 15.1022 15.0061 15.5 15.0061C15.8978 15.0061 16.2794 15.1641 16.5607 15.4454C16.842 15.7267 17 16.1082 17 16.5061C17 16.9039 16.842 17.2854 16.5607 17.5667C16.2794 17.848 15.8978 18.0061 15.5 18.0061ZM18.43 12.3761L18.22 12.4861L18.04 12.5761C17.9025 12.6357 17.7623 12.6891 17.62 12.7361L17.4 12.8061L17.17 12.8661L16.97 12.9161C16.2866 13.0504 15.5826 13.0406 14.9032 12.887C14.2239 12.7335 13.5841 12.4397 13.0248 12.0246C12.4656 11.6094 11.9993 11.0819 11.6558 10.476C11.3122 9.87012 11.0991 9.19913 11.03 8.50606C11.0097 8.34017 10.9997 8.17319 11 8.00606L11.02 7.53606L11.04 7.36606L11.08 7.08606L11.12 6.87606L11.17 6.66606L11.24 6.42606L11.29 6.29606C11.6857 5.18651 12.4612 4.25273 13.4792 3.65998C14.4972 3.06723 15.6921 2.85374 16.8523 3.0573C18.0126 3.26086 19.0635 3.86833 19.8189 4.77221C20.5743 5.67609 20.9856 6.81808 20.98 7.99606C20.988 8.88796 20.7554 9.76553 20.3067 10.5364C19.8579 11.3072 19.2096 11.9427 18.43 12.3761ZM15 4.00606H17V9.00606H15V4.00606ZM15 10.0061H17V12.0061H15V10.0061Z" fill="black"/>
</svg>
