<svg width="24" height="24" viewBox="0 0 24 24" fill="none" xmlns="http://www.w3.org/2000/svg">
<path d="M22 10V1H14V10C14 11.86 15.28 13.41 17 13.86V21H15V23H21V21H19V13.86C20.72 13.41 22 11.86 22 10ZM20 3V6H16V3H20ZM12.5 11.5C12.5 12.163 12.2366 12.7989 11.7678 13.2678C11.2989 13.7366 10.663 14 10 14H8V23H6V14H4C3.33696 14 2.70107 13.7366 2.23223 13.2678C1.76339 12.7989 1.5 12.163 1.5 11.5C1.5 10.837 1.76339 10.2011 2.23223 9.73223C2.70107 9.26339 3.33696 9 4 9H6V8H4C3.33696 8 2.70107 7.73661 2.23223 7.26777C1.76339 6.79893 1.5 6.16304 1.5 5.5C1.5 4.83696 1.76339 4.20107 2.23223 3.73223C2.70107 3.26339 3.33696 3 4 3H6V1H8V3H10C10.663 3 11.2989 3.26339 11.7678 3.73223C12.2366 4.20107 12.5 4.83696 12.5 5.5C12.5 6.16304 12.2366 6.79893 11.7678 7.26777C11.2989 7.73661 10.663 8 10 8H8V9H10C10.663 9 11.2989 9.26339 11.7678 9.73223C12.2366 10.2011 12.5 10.837 12.5 11.5Z" fill="black"/>
</svg>
