<svg width="24" height="24" viewBox="0 0 24 24" fill="none" xmlns="http://www.w3.org/2000/svg">
<path d="M11.6099 12.9763C11.4499 12.7363 11.2499 12.5162 10.9899 12.3262C10.7067 12.1189 10.393 11.957 10.0599 11.8463C10.3599 11.7063 10.6299 11.5463 10.8599 11.3463C11.0899 11.1463 11.2799 10.9362 11.4299 10.7062C11.5799 10.4762 11.6999 10.2462 11.7699 9.99625C11.8499 9.75625 11.8799 9.50625 11.8799 9.26625C11.8799 8.71625 11.7899 8.22625 11.5999 7.80625C11.4199 7.38625 11.1599 7.03625 10.8199 6.74625C10.4899 6.46625 10.0899 6.24625 9.61994 6.10625C9.16994 5.97625 8.64994 5.90625 8.08994 5.90625C7.53994 5.90625 7.02994 5.98625 6.56994 6.14625C6.09994 6.31625 5.69994 6.54625 5.36994 6.83625C5.03994 7.12625 4.76994 7.46625 4.58994 7.86625C4.38994 8.25625 4.29994 8.69625 4.29994 9.15625H6.27994C6.27994 8.89625 6.32994 8.66625 6.41994 8.46625C6.50994 8.26625 6.63994 8.08625 6.79994 7.94625C6.96994 7.80625 7.15994 7.69625 7.37994 7.61625C7.59994 7.53625 7.83994 7.49625 8.10994 7.49625C8.71994 7.49625 9.16994 7.65625 9.46994 7.96625C9.76994 8.27625 9.90994 8.71625 9.90994 9.28625C9.90994 9.55625 9.86994 9.80625 9.78994 10.0263C9.70994 10.2463 9.57994 10.4363 9.40994 10.5963C9.23994 10.7563 9.02994 10.8762 8.77994 10.9662C8.52994 11.0562 8.22994 11.0963 7.88994 11.0963H6.71994V12.6662H7.89994C8.23994 12.6662 8.53994 12.7063 8.80994 12.7763C9.07994 12.8563 9.30994 12.9662 9.49994 13.1262C9.68994 13.2862 9.83994 13.4862 9.93994 13.7362C10.0399 13.9762 10.0999 14.2763 10.0999 14.6063C10.0999 15.2263 9.91994 15.6963 9.56994 16.0263C9.21994 16.3563 8.72994 16.5163 8.11994 16.5163C7.82994 16.5163 7.55994 16.4762 7.31994 16.3862C7.07994 16.3062 6.87994 16.1863 6.70994 16.0263C6.53994 15.8663 6.40994 15.6862 6.31994 15.4662C6.22994 15.2462 6.17994 15.0063 6.17994 14.7463H4.18994C4.18994 15.2963 4.29994 15.7763 4.50994 16.1963C4.71994 16.6163 5.00994 16.9663 5.36994 17.2463C5.72994 17.5263 6.13994 17.7363 6.60994 17.8763C7.07994 18.0163 7.56994 18.0863 8.08994 18.0863C8.65994 18.0863 9.17994 18.0063 9.66994 17.8563C10.1599 17.7063 10.5799 17.4763 10.9299 17.1763C11.2899 16.8763 11.5699 16.5163 11.7699 16.0763C11.9699 15.6463 12.0699 15.1463 12.0699 14.5963C12.0699 14.3063 12.0299 14.0162 11.9599 13.7362C11.8799 13.4862 11.7699 13.2263 11.6099 12.9763ZM20.8699 14.3762C20.7299 14.0962 20.5199 13.8463 20.2399 13.6363C19.9599 13.4263 19.6299 13.2463 19.2299 13.1063C18.8299 12.9663 18.3799 12.8363 17.8799 12.7263C17.5851 12.6693 17.2944 12.5925 17.0099 12.4962C16.8175 12.4345 16.633 12.3506 16.4599 12.2462C16.3394 12.1757 16.2421 12.0714 16.1799 11.9462C16.1299 11.8362 16.0999 11.7063 16.0999 11.5563C16.0988 11.4121 16.1307 11.2695 16.1931 11.1396C16.2555 11.0096 16.3467 10.8956 16.4599 10.8063C16.5799 10.7063 16.7299 10.6263 16.9099 10.5663C17.0899 10.5063 17.3099 10.4763 17.5499 10.4763C17.7999 10.4763 18.0199 10.5162 18.2099 10.5862C18.3999 10.6562 18.5599 10.7562 18.6899 10.8762C18.8199 10.9962 18.9099 11.1362 18.9799 11.2962C19.0399 11.4562 19.0799 11.6162 19.0799 11.7862H21.0299C21.0324 11.4092 20.9501 11.0364 20.7891 10.6954C20.6281 10.3544 20.3926 10.054 20.0999 9.81625C19.7999 9.56625 19.4399 9.37625 19.0099 9.22625C18.5799 9.07625 18.0899 9.00625 17.5499 9.00625C17.0399 9.00625 16.5699 9.07625 16.1599 9.21625C15.7499 9.35625 15.3899 9.54625 15.0999 9.78625C14.8099 10.0262 14.5899 10.3062 14.4299 10.6262C14.2699 10.9462 14.1999 11.2763 14.1999 11.6363C14.1999 11.9963 14.2799 12.3163 14.4299 12.5963C14.5799 12.8763 14.7999 13.1162 15.0699 13.3262C15.3399 13.5362 15.6699 13.7063 16.0499 13.8563C16.4299 13.9963 16.8599 14.1162 17.3199 14.2162C17.7099 14.2962 18.0299 14.3862 18.2699 14.4762C18.5099 14.5662 18.6999 14.6663 18.8399 14.7663C18.9699 14.8663 19.0599 14.9863 19.1099 15.1063C19.1599 15.2263 19.1799 15.3563 19.1799 15.4963C19.1799 15.8163 19.0499 16.0663 18.7799 16.2663C18.5099 16.4663 18.1199 16.5562 17.6099 16.5562C17.3899 16.5562 17.1799 16.5362 16.9699 16.4762C16.7599 16.4262 16.5699 16.3462 16.4099 16.2362C16.2279 16.114 16.0788 15.9488 15.9759 15.7552C15.873 15.5615 15.8194 15.3455 15.8199 15.1262H13.9299C13.9299 15.4862 14.0099 15.8363 14.1699 16.1763C14.3299 16.5163 14.5599 16.8263 14.8699 17.1063C15.1799 17.3763 15.5599 17.5963 16.0199 17.7663C16.4799 17.9363 16.9999 18.0163 17.5999 18.0163C18.1299 18.0163 18.6099 17.9563 19.0399 17.8263C19.4699 17.6963 19.8399 17.5163 20.1499 17.2863C20.4599 17.0563 20.6899 16.7763 20.8599 16.4563C21.0299 16.1363 21.1099 15.7862 21.1099 15.3962C21.0899 14.9962 21.0199 14.6562 20.8699 14.3762Z" fill="black"/>
</svg>
