<svg width="25" height="24" viewBox="0 0 25 24" fill="none" xmlns="http://www.w3.org/2000/svg">
<path d="M0 7.72625V9.40625L3 8.40625V18.0063H5V6.00625H4.75L0 7.72625ZM23.78 14.3762C23.64 14.0962 23.43 13.8463 23.15 13.6363C22.87 13.4263 22.54 13.2463 22.14 13.1063C21.74 12.9663 21.29 12.8363 20.79 12.7263C20.4951 12.6693 20.2045 12.5925 19.92 12.4962C19.7276 12.4345 19.543 12.3506 19.37 12.2462C19.2494 12.1757 19.1521 12.0714 19.09 11.9462C19.0352 11.8197 19.0077 11.6831 19.0095 11.5452C19.0112 11.4073 19.042 11.2714 19.1 11.1463C19.16 11.0163 19.25 10.8963 19.37 10.8063C19.49 10.7063 19.64 10.6263 19.82 10.5663C20 10.5063 20.22 10.4763 20.46 10.4763C20.71 10.4763 20.93 10.5162 21.12 10.5862C21.31 10.6562 21.47 10.7562 21.6 10.8762C21.73 10.9962 21.82 11.1362 21.89 11.2962C21.95 11.4562 21.99 11.6162 21.99 11.7862H23.94C23.9424 11.4092 23.8601 11.0364 23.6992 10.6954C23.5382 10.3544 23.3027 10.054 23.01 9.81625C22.71 9.56625 22.35 9.37625 21.92 9.22625C21.49 9.07625 21 9.00625 20.46 9.00625C19.95 9.00625 19.48 9.07625 19.07 9.21625C18.66 9.35625 18.3 9.54625 18.01 9.78625C17.72 10.0262 17.5 10.3062 17.34 10.6262C17.18 10.9462 17.11 11.2763 17.11 11.6363C17.11 11.9963 17.19 12.3263 17.34 12.5963C17.49 12.8763 17.7 13.1162 17.98 13.3262C18.25 13.5362 18.58 13.7063 18.96 13.8563C19.34 13.9963 19.77 14.1162 20.23 14.2162C20.62 14.2962 20.94 14.3862 21.18 14.4762C21.42 14.5662 21.61 14.6663 21.75 14.7663C21.88 14.8663 21.97 14.9863 22.02 15.1063C22.07 15.2263 22.09 15.3563 22.09 15.4963C22.09 15.8163 21.96 16.0663 21.69 16.2663C21.42 16.4663 21.03 16.5562 20.52 16.5562C20.3 16.5562 20.09 16.5362 19.88 16.4762C19.67 16.4262 19.48 16.3462 19.32 16.2362C19.1379 16.114 18.9889 15.9488 18.8859 15.7552C18.783 15.5615 18.7295 15.3455 18.73 15.1262H16.84C16.84 15.4862 16.92 15.8363 17.08 16.1763C17.24 16.5163 17.47 16.8263 17.78 17.1063C18.09 17.3763 18.47 17.5963 18.93 17.7663C19.39 17.9363 19.91 18.0163 20.51 18.0163C21.04 18.0163 21.52 17.9563 21.95 17.8263C22.38 17.6963 22.75 17.5163 23.06 17.2863C23.37 17.0563 23.6 16.7763 23.77 16.4563C23.94 16.1363 24.02 15.7862 24.02 15.3962C24 14.9962 23.93 14.6562 23.78 14.3762ZM13.82 7.05625C13.48 6.65625 13.07 6.35625 12.59 6.17625C12.12 5.99625 11.58 5.90625 11 5.90625C10.42 5.90625 9.89 5.99625 9.41 6.17625C8.93 6.35625 8.52 6.64625 8.18 7.05625C7.84 7.46625 7.58 7.98625 7.39 8.64625C7.21 9.29625 7.11 10.0962 7.11 11.0362V12.9562C7.11 13.8962 7.2 14.6963 7.39 15.3463C7.58 16.0063 7.84 16.5363 8.19 16.9463C8.53 17.3563 8.94 17.6563 9.42 17.8363C9.9 18.0163 10.43 18.1163 11.01 18.1163C11.6 18.1163 12.13 18.0263 12.6 17.8363C13.08 17.6563 13.48 17.3563 13.82 16.9463C14.16 16.5363 14.42 16.0063 14.6 15.3463C14.78 14.6963 14.88 13.8962 14.88 12.9562V11.0362C14.88 10.0962 14.79 9.29625 14.6 8.64625C14.42 7.98625 14.16 7.45625 13.82 7.05625ZM12.9 13.2263C12.9 13.8263 12.86 14.3363 12.78 14.7563C12.7 15.1763 12.58 15.5163 12.42 15.7763C12.26 16.0363 12.06 16.2263 11.83 16.3463C11.6 16.4663 11.32 16.5263 11.01 16.5263C10.71 16.5263 10.43 16.4663 10.19 16.3463C9.95 16.2263 9.75 16.0363 9.59 15.7763C9.43 15.5163 9.3 15.1763 9.21 14.7563C9.12 14.3363 9.08 13.8263 9.08 13.2263V10.7263C9.08 10.1263 9.12 9.61625 9.21 9.20625C9.3 8.79625 9.42 8.46625 9.59 8.20625C9.75 7.95625 9.95 7.77625 10.19 7.65625C10.43 7.54625 10.7 7.48625 11 7.48625C11.31 7.48625 11.58 7.54625 11.81 7.65625C12.05 7.76625 12.25 7.94625 12.41 8.20625C12.57 8.45625 12.7 8.78625 12.78 9.19625C12.86 9.60625 12.91 10.1162 12.91 10.7162V13.2263H12.9Z" fill="black"/>
</svg>
