<svg width="24" height="24" viewBox="0 0 24 24" fill="none" xmlns="http://www.w3.org/2000/svg">
<path d="M20 10H17V8.86C18.72 8.41 20 6.86 20 5H17V4C17 3.45 16.55 3 16 3H8C7.45 3 7 3.45 7 4V5H4C4 6.86 5.28 8.41 7 8.86V10H4C4 11.86 5.28 13.41 7 13.86V15H4C4 16.86 5.28 18.41 7 18.86V20C7 20.55 7.45 21 8 21H16C16.55 21 17 20.55 17 20V18.86C18.72 18.41 20 16.86 20 15H17V13.86C18.72 13.41 20 11.86 20 10ZM12 19C11.7337 19.006 11.4688 18.9588 11.221 18.861C10.9731 18.7633 10.7473 18.617 10.5568 18.4308C10.3663 18.2446 10.2149 18.0222 10.1115 17.7767C10.0081 17.5311 9.95485 17.2674 9.95478 17.001C9.95472 16.7346 10.0079 16.4709 10.1111 16.2253C10.2144 15.9797 10.3657 15.7572 10.5561 15.5709C10.7465 15.3846 10.9723 15.2382 11.22 15.1404C11.4678 15.0425 11.7327 14.9951 11.999 15.001C12.5216 15.0126 13.0188 15.2282 13.3844 15.6018C13.7499 15.9755 13.9547 16.4773 13.9548 17C13.9549 17.5227 13.7504 18.0247 13.3851 18.3985C13.0197 18.7723 12.5226 18.9882 12 19ZM12 14C11.7337 14.006 11.4688 13.9588 11.221 13.861C10.9731 13.7633 10.7473 13.617 10.5568 13.4308C10.3663 13.2446 10.2149 13.0222 10.1115 12.7767C10.0081 12.5311 9.95485 12.2674 9.95478 12.001C9.95472 11.7346 10.0079 11.4709 10.1111 11.2253C10.2144 10.9797 10.3657 10.7572 10.5561 10.5709C10.7465 10.3846 10.9723 10.2382 11.22 10.1404C11.4678 10.0425 11.7327 9.99511 11.999 10.001C12.5216 10.0126 13.0188 10.2282 13.3844 10.6018C13.7499 10.9755 13.9547 11.4773 13.9548 12C13.9549 12.5227 13.7504 13.0247 13.3851 13.3985C13.0197 13.7723 12.5226 13.9882 12 14ZM12 9C11.4696 9 10.9609 8.78929 10.5858 8.41421C10.2107 8.03914 10 7.53043 10 7C10 5.89 10.89 5 12 5C12.5304 5 13.0391 5.21071 13.4142 5.58579C13.7893 5.96086 14 6.46957 14 7C14 7.53043 13.7893 8.03914 13.4142 8.41421C13.0391 8.78929 12.5304 9 12 9Z" fill="black"/>
</svg>
