<svg width="24" height="24" viewBox="0 0 24 24" fill="none" xmlns="http://www.w3.org/2000/svg">
<path d="M20.55 5.22L19.16 3.54C19.018 3.37056 18.8405 3.23437 18.64 3.14106C18.4396 3.04775 18.2211 2.9996 18 3H6C5.53 3 5.12 3.21 4.85 3.55L3.46 5.22C3.17 5.57 3 6.01 3 6.5V19C3 19.5304 3.21071 20.0391 3.58579 20.4142C3.96086 20.7893 4.46957 21 5 21H19C20.1 21 21 20.1 21 19V6.5C21 6.01 20.83 5.57 20.55 5.22ZM12 9.5L17.5 15H14V17H10V15H6.5L12 9.5ZM5.12 5L5.94 4H17.94L18.87 5H5.12Z" fill="black"/>
</svg>
