<svg width="24" height="24" viewBox="0 0 24 24" fill="none" xmlns="http://www.w3.org/2000/svg">
<path d="M8.67001 5.8425L7.22001 4.3925C8.64777 3.48188 10.3066 2.99951 12 3.0025C14.74 3.0025 17.19 4.2325 18.84 6.1625L21 4.0025V10.0025H15L17.41 7.5925C16.12 6.0225 14.18 5.0025 12 5.0025C10.8 5.0025 9.66001 5.3125 8.67001 5.8425ZM13 7.0025H11V8.1725L13 10.1725V7.0025ZM19.78 22.6125L16.78 19.6125C15.3497 20.5174 13.6926 20.9993 12 21.0025C9.61307 21.0025 7.32388 20.0543 5.63605 18.3665C3.94823 16.6786 3.00001 14.3894 3.00001 12.0025C3.00001 10.2425 3.51001 8.6025 4.39001 7.2225L1.39001 4.2225L2.80001 2.8125L21.18 21.1925L19.78 22.6125ZM15.32 18.1525L5.84001 8.6725C5.29019 9.69644 5.00165 10.8403 5.00001 12.0025C5.00001 15.8625 8.14001 19.0025 12 19.0025C13.2 19.0025 14.34 18.6925 15.32 18.1525ZM20.94 13.0025H18.92C18.8 13.8325 18.53 14.6125 18.15 15.3225L19.62 16.7925C20.32 15.6725 20.79 14.3825 20.94 13.0025Z" fill="black"/>
</svg>
