<svg width="24" height="24" viewBox="0 0 24 24" fill="none" xmlns="http://www.w3.org/2000/svg">
<path d="M15 7V11H16V13H13V5H15L12 1L9.00005 5H11V13H8.00005V10.93C8.70005 10.56 9.20005 9.85 9.20005 9C9.20005 7.79 8.21005 6.8 7.00005 6.8C5.79005 6.8 4.80005 7.79 4.80005 9C4.80005 9.85 5.30005 10.56 6.00005 10.93V13C6.00005 14.11 6.89005 15 8.00005 15H11V18.05C10.29 18.42 9.80005 19.15 9.80005 20C9.80005 20.5835 10.0318 21.1431 10.4444 21.5556C10.857 21.9682 11.4166 22.2 12 22.2C12.5835 22.2 13.1431 21.9682 13.5557 21.5556C13.9683 21.1431 14.2 20.5835 14.2 20C14.2 19.15 13.71 18.42 13 18.05V15H16C17.11 15 18 14.11 18 13V11H19V7H15Z" fill="black"/>
</svg>
