<svg width="24" height="24" viewBox="0 0 24 24" fill="none" xmlns="http://www.w3.org/2000/svg">
<path d="M18 10.48V6C18 4.9 17.1 4 16 4H4C2.9 4 2 4.9 2 6V18C2 19.1 2.9 20 4 20H16C17.1 20 18 19.1 18 18V13.52L22 17.5V6.5L18 10.48ZM10 8C11.1 8 12 8.9 12 10C12 11.1 11.1 12 10 12C8.9 12 8 11.1 8 10C8 8.9 8.9 8 10 8ZM14 16H6V15.43C6 14.62 6.48 13.9 7.22 13.58C8.09685 13.1973 9.04327 12.9998 10 12.9998C10.9567 12.9998 11.9031 13.1973 12.78 13.58C13.1423 13.7349 13.4511 13.9928 13.668 14.3217C13.8849 14.6506 14.0003 15.036 14 15.43V16Z" fill="black"/>
</svg>
