<svg width="24" height="24" viewBox="0 0 24 24" fill="none" xmlns="http://www.w3.org/2000/svg">
<path d="M21.19 21.1925L2.81001 2.8125L1.39001 4.2225L3.30001 6.1325C2.54001 6.4125 2.00001 7.1525 2.00001 8.0025V16.0025C2.00001 17.1025 2.90001 18.0025 4.00001 18.0025H15.17L19.78 22.6125L21.19 21.1925ZM9.00001 13.0025V15.0025H7.00001V13.0025H5.00001V11.0025H7.00001V9.8325L10.17 13.0025H9.00001ZM20.7 17.8725C21.46 17.5925 22 16.8525 22 16.0025V8.0025C22 6.9025 21.1 6.0025 20 6.0025H8.83001L20.7 17.8725ZM17.5 9.0025C18.33 9.0025 19 9.6725 19 10.5025C19 11.3325 18.33 12.0025 17.5 12.0025C16.67 12.0025 16 11.3325 16 10.5025C16 9.6725 16.67 9.0025 17.5 9.0025Z" fill="black"/>
</svg>
