<svg width="24" height="24" viewBox="0 0 24 24" fill="none" xmlns="http://www.w3.org/2000/svg">
<path d="M5.00005 14.4969H19V8.49687H5.00005V14.4969ZM11 0.546875V3.49688H13V0.546875H11ZM19.04 3.04688L17.25 4.83687L18.66 6.24687L20.46 4.45688L19.04 3.04688ZM13 22.4469V19.4969H11V22.4469H13ZM20.4501 18.5369L18.65 16.7469L17.24 18.1569L19.03 19.9569L20.4501 18.5369ZM3.55005 4.45688L5.34005 6.24687L6.75005 4.83687L4.96005 3.04688L3.55005 4.45688ZM4.96005 19.9469L6.75005 18.1469L5.34005 16.7369L3.55005 18.5269L4.96005 19.9469Z" fill="black"/>
</svg>
