<svg width="24" height="24" viewBox="0 0 24 24" fill="none" xmlns="http://www.w3.org/2000/svg">
<path d="M6.76 4.83687L4.96 3.04688L3.55 4.45688L5.34 6.24687L6.76 4.83687ZM4 10.4969H1V12.4969H4V10.4969ZM13 0.546875H11V3.49688H13V0.546875ZM20.45 4.45688L19.04 3.04688L17.25 4.83687L18.66 6.24687L20.45 4.45688ZM17.24 18.1569L19.03 19.9569L20.44 18.5469L18.64 16.7569L17.24 18.1569ZM20 10.4969V12.4969H23V10.4969H20ZM12 5.49687C8.69 5.49687 6 8.18687 6 11.4969C6 14.8069 8.69 17.4969 12 17.4969C15.31 17.4969 18 14.8069 18 11.4969C18 8.18687 15.31 5.49687 12 5.49687ZM11 22.4469H13V19.4969H11V22.4469ZM3.55 18.5369L4.96 19.9469L6.75 18.1469L5.34 16.7369L3.55 18.5369Z" fill="black"/>
</svg>
