<svg width="24" height="24" viewBox="0 0 24 24" fill="none" xmlns="http://www.w3.org/2000/svg">
<path d="M6.82994 3.99375H19.9999C20.5304 3.99375 21.0391 4.20446 21.4142 4.57954C21.7892 4.95461 21.9999 5.46332 21.9999 5.99375V17.9937C21.9999 18.3337 21.9099 18.6538 21.7699 18.9338L19.9999 17.1637V7.99375H10.8299L6.82994 3.99375ZM20.4899 23.3037L17.1699 19.9937H3.99994C3.46951 19.9937 2.9608 19.783 2.58573 19.408C2.21065 19.0329 1.99994 18.5242 1.99994 17.9937V5.99375C1.99994 5.65375 2.07994 5.33375 2.22994 5.05375L0.689941 3.50375L2.09994 2.09375L21.8999 21.8937L20.4899 23.3037ZM15.1699 17.9937L5.16994 7.99375H3.99994V17.9937H15.1699Z" fill="black"/>
</svg>
