<svg width="24" height="24" viewBox="0 0 24 24" fill="none" xmlns="http://www.w3.org/2000/svg">
<path d="M13.5 0.671875C13.5 0.671875 14.24 3.32187 14.24 5.47187C14.24 7.53187 12.89 9.20187 10.83 9.20187C8.76 9.20187 7.2 7.53187 7.2 5.47187L7.23 5.11188C5.21 7.51188 4 10.6219 4 14.0019C4 18.4219 7.58 22.0019 12 22.0019C16.42 22.0019 20 18.4219 20 14.0019C20 8.61188 17.41 3.80188 13.5 0.671875ZM11.71 19.0019C9.93 19.0019 8.49 17.6019 8.49 15.8619C8.49 14.2419 9.54 13.1019 11.3 12.7419C13.07 12.3819 14.9 11.5319 15.92 10.1619C16.31 11.4519 16.51 12.8119 16.51 14.2019C16.51 16.8519 14.36 19.0019 11.71 19.0019Z" fill="black"/>
</svg>
