<svg width="24" height="24" viewBox="0 0 24 24" fill="none" xmlns="http://www.w3.org/2000/svg">
<path d="M16.49 3.00001C14.28 3.00001 12.28 3.90001 10.83 5.34001L11.89 6.40001C12.4913 5.79471 13.2064 5.31432 13.9942 4.9865C14.7819 4.65869 15.6267 4.48993 16.48 4.48993C17.3332 4.48993 18.178 4.65869 18.9657 4.9865C19.7535 5.31432 20.4686 5.79471 21.07 6.40001L22.13 5.34001C21.3911 4.5967 20.5122 4.00719 19.5441 3.60555C18.5761 3.20391 17.538 2.9981 16.49 3.00001Z" fill="black"/>
<path d="M20.03 7.45985C19.0891 6.52481 17.8164 6 16.49 6C15.1635 6 13.8908 6.52481 12.95 7.45985L14.01 8.51985C14.64 7.88985 15.52 7.48985 16.48 7.48985C17.44 7.48985 18.32 7.87985 18.95 8.51985L20.03 7.45985ZM15.08 9.58985L16.49 10.9999L17.9 9.58985C17.54 9.21985 17.04 8.99985 16.49 8.99985C15.94 8.99985 15.44 9.21985 15.08 9.58985Z" fill="black"/>
<path d="M15.63 14.4L13.11 16.9C10.61 15.47 8.54002 13.4 7.11002 10.9L9.61002 8.38C9.84002 8.14 9.94002 7.81 9.88002 7.48L9.13002 3.8C9.04002 3.34 8.63002 3 8.15002 3H4.00002C3.44002 3 2.97002 3.47 3.00002 4.03C3.17002 6.92 4.05002 9.63 5.43002 12C7.01002 14.73 9.28002 16.99 12 18.57C14.37 19.94 17.08 20.83 19.97 21C20.53 21.03 21 20.56 21 20V15.85C21 15.37 20.66 14.96 20.2 14.87L16.53 14.14C16.3702 14.1052 16.2043 14.1108 16.0471 14.1562C15.89 14.2015 15.7467 14.2854 15.63 14.4Z" fill="black"/>
</svg>
