<svg width="24" height="24" viewBox="0 0 24 24" fill="none" xmlns="http://www.w3.org/2000/svg">
<path d="M16.49 4.50001C18.28 4.50001 19.91 5.23001 21.08 6.41001L22.14 5.35001C21.4004 4.60405 20.5203 4.01224 19.5504 3.60885C18.5806 3.20546 17.5403 2.99852 16.49 3.00001C14.28 3.00001 12.28 3.90001 10.83 5.34001L11.89 6.40001C13.1133 5.18565 14.7663 4.5029 16.49 4.50001Z" fill="black" fill-opacity="0.3"/>
<path d="M16.49 6.00002C15.11 6.00002 13.86 6.56002 12.95 7.46002L14.01 8.52002C14.64 7.89002 15.52 7.49002 16.48 7.49002C17.44 7.49002 18.32 7.88002 18.95 8.52002L20.01 7.46002C19.5491 6.99572 19.0007 6.62757 18.3964 6.37694C17.7921 6.12631 17.1441 5.99819 16.49 6.00002Z" fill="black" fill-opacity="0.3"/>
<path d="M16.49 9C15.94 9 15.44 9.22 15.08 9.59L16.49 11L17.9 9.59C17.54 9.22 17.04 9 16.49 9Z" fill="black"/>
<path opacity="0.3" d="M15 17.83C16.29 18.37 17.63 18.72 19 18.9V16.67L16.65 16.2L15 17.83ZM7.32998 5H5.09998C5.27998 6.37 5.62998 7.7 6.16998 9L7.79998 7.35L7.32998 5Z" fill="black"/>
<path d="M20.2 14.87L16.53 14.14C16.03 14.04 15.7 14.34 15.63 14.41L13.11 16.91C10.61 15.48 8.54002 13.41 7.11002 10.91L9.61002 8.39C9.84002 8.15 9.94002 7.82 9.88002 7.49L9.13002 3.8C9.04002 3.34 8.63002 3 8.15002 3H4.00002C3.44002 3 2.97002 3.47 3.00002 4.03C3.17002 6.92 4.05002 9.63 5.43002 12C7.01002 14.73 9.28002 16.99 12 18.57C14.37 19.94 17.08 20.83 19.97 21C20.52 21.03 21 20.57 21 20V15.85C21 15.37 20.66 14.96 20.2 14.87ZM5.10002 5H7.33002L7.80002 7.35L6.17002 9C5.63002 7.7 5.27002 6.37 5.10002 5ZM19 18.9C17.63 18.72 16.3 18.37 15 17.83L16.65 16.2L19 16.67V18.9Z" fill="black"/>
</svg>
