<svg width="24" height="24" viewBox="0 0 24 24" fill="none" xmlns="http://www.w3.org/2000/svg">
<path d="M21.98 11L24 8.98002C22.4279 7.39843 20.558 6.14402 18.4983 5.28925C16.4386 4.43448 14.23 3.9963 12 4.00002C7.31 4.00002 3.07 5.90002 0 8.98002L6.35 15.34L12 21L15.05 17.95V15C15.05 14.55 15.14 14.12 15.28 13.71C15.82 12.14 17.29 11 19.05 11H21.98Z" fill="black"/>
<path d="M22 16V15C22 13.9 21.1 13 20 13C18.9 13 18 13.9 18 15V16C17.45 16 17 16.45 17 17V20C17 20.55 17.45 21 18 21H22C22.55 21 23 20.55 23 20V17C23 16.45 22.55 16 22 16ZM21 16H19V15C19 14.45 19.45 14 20 14C20.55 14 21 14.45 21 15V16Z" fill="black"/>
</svg>
