<svg width="24" height="24" viewBox="0 0 24 24" fill="none" xmlns="http://www.w3.org/2000/svg">
<path d="M2.81001 2.8125L1.39001 4.2225L4.08001 6.9125C2.73176 8.65634 2.00021 10.7982 2.00001 13.0025C2.00001 15.7625 3.12001 18.2625 4.93001 20.0725L6.35001 18.6525C5.00426 17.3161 4.18011 15.5429 4.02609 13.6526C3.87208 11.7623 4.39834 9.87912 5.51002 8.3425L6.94001 9.7725C6.20616 10.9251 5.88744 12.2935 6.03654 13.6517C6.18563 15.0099 6.79361 16.2766 7.76002 17.2425L9.18002 15.8225C8.80511 15.455 8.50756 15.0161 8.3049 14.5318C8.10225 14.0475 7.99858 13.5275 8.00001 13.0025C8.00001 12.3725 8.15001 11.7725 8.41001 11.2425L10.02 12.8525C10.02 12.9025 10 12.9525 10 13.0025C10 13.5525 10.23 14.0525 10.59 14.4125C10.95 14.7725 11.45 15.0025 12 15.0025C12.05 15.0025 12.1 14.9925 12.16 14.9825L19.78 22.6025L21.19 21.1925L2.81001 2.8125ZM17.7 14.8725C17.89 14.2825 18 13.6525 18 13.0025C18 9.6925 15.31 7.0025 12 7.0025C11.35 7.0025 10.72 7.1025 10.13 7.3025L11.84 9.0125C11.89 9.0025 11.95 9.0025 12 9.0025C14.21 9.0025 16 10.7925 16 13.0025C16 13.0525 16 13.1125 15.99 13.1625L17.7 14.8725ZM12 5.0025C16.42 5.0025 20 8.5825 20 13.0025C20 14.2225 19.73 15.3725 19.23 16.4025L20.72 17.8925C21.5604 16.3998 22.0013 14.7155 22 13.0025C22 7.4825 17.52 3.0025 12 3.0025C10.22 3.0025 8.56001 3.4625 7.11001 4.2825L8.59001 5.7625C9.63001 5.2725 10.78 5.0025 12 5.0025Z" fill="black"/>
</svg>
