<svg width="24" height="24" viewBox="0 0 24 24" fill="none" xmlns="http://www.w3.org/2000/svg">
<path d="M22.99 9.00688C19.15 5.16688 13.8 3.76688 8.84 4.78688L11.36 7.30688C14.83 7.13688 18.35 8.35687 20.99 11.0069L22.99 9.00688ZM18.99 13.0069C17.7496 11.7669 16.1989 10.8827 14.5 10.4469L18.03 13.9769L18.99 13.0069ZM2 3.05687L5.07 6.10687C3.6 6.82687 2.22 7.78688 1 9.00688L2.99 11.0069C4.23 9.76688 5.66 8.84687 7.19 8.23687L9.43 10.4769C7.75375 10.9091 6.224 11.7828 5 13.0069V13.0169L6.99 15.0069C8.29644 13.7016 10.0633 12.9619 11.91 12.9469L18.98 20.0069L20.25 18.7469L3.29 1.79688L2 3.05687ZM9 17.0069L12 20.0069L15 17.0069C14.6064 16.6122 14.1388 16.2991 13.624 16.0855C13.1092 15.8719 12.5574 15.7619 12 15.7619C11.4426 15.7619 10.8908 15.8719 10.376 16.0855C9.86117 16.2991 9.39359 16.6122 9 17.0069Z" fill="black"/>
</svg>
