<svg width="24" height="24" viewBox="0 0 24 24" fill="none" xmlns="http://www.w3.org/2000/svg">
<path d="M23 21.7344L21.54 20.2744L7.20999 5.94437L3.24999 1.98438L1.98999 3.24437L4.68999 5.94437H4.04999C2.93999 5.94437 2.05999 6.83438 2.05999 7.94438L2.04999 18.9444C2.04999 20.0544 2.93999 20.9444 4.04999 20.9444H19.69L21.74 22.9944L23 21.7344ZM22 7.94438C22.05 6.83438 21.16 5.94438 20.05 5.99438H16.05V3.94438C16.05 2.83438 15.16 1.94437 14.05 1.99437H10.05C8.93999 1.94437 8.04999 2.83438 8.04999 3.94438V4.26437L22 18.2644V7.94438ZM14.05 5.99438H9.99999V3.94438H14.05V5.99438Z" fill="black"/>
</svg>
