<svg width="24" height="24" viewBox="0 0 24 24" fill="none" xmlns="http://www.w3.org/2000/svg">
<path d="M14 10V3.26C13.35 3.09 12.68 3 12 3C7.8 3 4 6.22 4 11.2C4 14.52 6.67 18.45 12 23C17.33 18.45 20 14.52 20 11.2C20 10.79 19.96 10.39 19.91 10H14ZM12 13C10.9 13 10 12.1 10 11C10 9.9 10.9 9 12 9C13.1 9 14 9.9 14 11C14 12.1 13.1 13 12 13Z" fill="black"/>
<path d="M22.54 2.87313L21.12 1.45312L19 3.58312L16.88 1.45312L15.46 2.87313L17.59 4.99312L15.46 7.11312L16.88 8.53312L19 6.40312L21.12 8.53312L22.54 7.11312L20.41 4.99312L22.54 2.87313Z" fill="black"/>
</svg>
