<svg width="24" height="24" viewBox="0 0 24 24" fill="none" xmlns="http://www.w3.org/2000/svg">
<path d="M20 2H4C2.9 2 2 2.9 2 4V20C2 21.1 2.9 22 4 22H20C21.1 22 22 21.1 22 20V4C22 2.9 21.1 2 20 2ZM8 8.22C8.00092 7.93549 8.07952 7.65664 8.22732 7.41354C8.37513 7.17044 8.58653 6.97233 8.83869 6.84058C9.09086 6.70884 9.37422 6.64847 9.65819 6.66599C9.94215 6.68351 10.2159 6.77826 10.45 6.94L10.44 6.82C10.44 5.96 11.14 5.26 12 5.26C12.86 5.26 13.56 5.96 13.56 6.82L13.55 6.94C13.7841 6.77826 14.0578 6.68351 14.3418 6.66599C14.6258 6.64847 14.9091 6.70884 15.1613 6.84058C15.4135 6.97233 15.6249 7.17044 15.7727 7.41354C15.9205 7.65664 15.9991 7.93549 16 8.22C16 8.84 15.63 9.38 15.11 9.62C15.63 9.87 16 10.41 16 11.03C16 11.89 15.3 12.59 14.44 12.59C14.11 12.59 13.8 12.48 13.55 12.31L13.56 12.43C13.56 13.29 12.86 13.99 12 13.99C11.14 13.99 10.44 13.29 10.44 12.43L10.45 12.31C10.2159 12.4717 9.94215 12.5665 9.65819 12.584C9.37422 12.6015 9.09086 12.5412 8.83869 12.4094C8.58653 12.2777 8.37513 12.0796 8.22732 11.8365C8.07952 11.5934 8.00092 11.3145 8 11.03C8 10.41 8.37 9.87 8.89 9.63C8.37 9.38 8 8.84 8 8.22ZM12 19C8.69 19 6 16.31 6 13C9.31 13 12 15.69 12 19C12 15.69 14.69 13 18 13C18 16.31 15.31 19 12 19Z" fill="black"/>
<path d="M11.9999 11.1825C12.8615 11.1825 13.5599 10.4841 13.5599 9.6225C13.5599 8.76094 12.8615 8.0625 11.9999 8.0625C11.1384 8.0625 10.4399 8.76094 10.4399 9.6225C10.4399 10.4841 11.1384 11.1825 11.9999 11.1825Z" fill="black"/>
</svg>
