<svg width="20" height="20" viewBox="0 0 20 20" fill="none" xmlns="http://www.w3.org/2000/svg">
<path fill-rule="evenodd" clip-rule="evenodd" d="M12.4917 8.33311V9.82478C12.4917 10.1998 12.0417 10.3831 11.7834 10.1248L9.46675 7.79978C9.30841 7.63311 9.30841 7.37478 9.46675 7.20811L11.7834 4.88311C12.0417 4.61645 12.4917 4.79978 12.4917 5.17478V6.66645H17.5001C17.9584 6.66645 18.3334 7.04145 18.3334 7.49978C18.3334 7.95811 17.9584 8.33311 17.5001 8.33311H12.4917ZM2.50008 11.6664H7.50841V10.1664C7.50841 9.79978 7.95841 9.60811 8.21675 9.87478L10.5334 12.1998C10.6917 12.3664 10.6917 12.6248 10.5334 12.7914L8.21675 15.1164C7.95841 15.3831 7.50841 15.1998 7.50841 14.8248V13.3331H2.50008C2.04175 13.3331 1.66675 12.9581 1.66675 12.4998C1.66675 12.0414 2.04175 11.6664 2.50008 11.6664Z" fill="#72787F"/>
</svg>
