<svg width="5" height="16" viewBox="0 0 5 16" fill="none" xmlns="http://www.w3.org/2000/svg">
<path d="M2.28564 4C3.38564 4 4.28564 3.1 4.28564 2C4.28564 0.9 3.38564 0 2.28564 0C1.18564 0 0.285645 0.9 0.285645 2C0.285645 3.1 1.18564 4 2.28564 4ZM2.28564 6C1.18564 6 0.285645 6.9 0.285645 8C0.285645 9.1 1.18564 10 2.28564 10C3.38564 10 4.28564 9.1 4.28564 8C4.28564 6.9 3.38564 6 2.28564 6ZM2.28564 12C1.18564 12 0.285645 12.9 0.285645 14C0.285645 15.1 1.18564 16 2.28564 16C3.38564 16 4.28564 15.1 4.28564 14C4.28564 12.9 3.38564 12 2.28564 12Z" fill="#475569"/>
</svg>
