<svg width="18" height="22" viewBox="0 0 18 22" fill="none" xmlns="http://www.w3.org/2000/svg">
<path d="M8.32498 17.5222L17.189 8.65578C17.2289 8.61594 17.2476 8.56203 17.2429 8.50813L16.6453 1.44406C16.6289 1.26125 16.4859 1.11828 16.3031 1.10188L9.23904 0.506565C9.18513 0.501877 9.12888 0.520627 9.09138 0.560471L0.22732 9.42453C0.192426 9.45977 0.172852 9.50736 0.172852 9.55696C0.172852 9.60655 0.192426 9.65414 0.22732 9.68938L8.06013 17.5222C8.13279 17.5972 8.25232 17.5972 8.32498 17.5222ZM9.79216 2.24797L15.0562 2.69328L15.5015 7.95735L8.19138 15.2652L2.48201 9.55813L9.79216 2.24797ZM11.2022 6.61274C11.3066 6.7172 11.4307 6.80006 11.5672 6.85659C11.7037 6.91312 11.85 6.94221 11.9977 6.9422C12.1455 6.94219 12.2918 6.91307 12.4282 6.85653C12.5647 6.79998 12.6888 6.7171 12.7932 6.61262C12.8977 6.50814 12.9805 6.38411 13.0371 6.24761C13.0936 6.11111 13.1227 5.96481 13.1227 5.81707C13.1227 5.66932 13.0936 5.52303 13.037 5.38654C12.9805 5.25005 12.8976 5.12603 12.7931 5.02156C12.6886 4.9171 12.5646 4.83424 12.4281 4.77771C12.2916 4.72118 12.1453 4.69209 11.9976 4.69211C11.8498 4.69212 11.7035 4.72123 11.567 4.77778C11.4305 4.83432 11.3065 4.9172 11.202 5.02168C11.0976 5.12616 11.0147 5.25019 10.9582 5.38669C10.9017 5.52319 10.8726 5.66949 10.8726 5.81723C10.8726 5.96498 10.9017 6.11127 10.9583 6.24776C11.0148 6.38426 11.0977 6.50827 11.2022 6.61274ZM17.8523 11.6511L16.9242 10.7253C16.889 10.6904 16.8414 10.6708 16.7918 10.6708C16.7422 10.6708 16.6946 10.6904 16.6594 10.7253L8.17498 19.1933L2.60623 13.6386C2.57099 13.6037 2.5234 13.5841 2.47381 13.5841C2.42421 13.5841 2.37662 13.6037 2.34138 13.6386L1.41326 14.5644C1.37836 14.5996 1.35879 14.6472 1.35879 14.6968C1.35879 14.7464 1.37836 14.794 1.41326 14.8292L7.11326 20.5198L8.04138 21.4456C8.11404 21.5183 8.23357 21.5183 8.30623 21.4456L17.8523 11.9159C17.925 11.8433 17.925 11.7238 17.8523 11.6511Z" fill="#26282B"/>
</svg>
