



<svg width="25" height="24" viewBox="0 0 25 24" fill="white" xmlns="http://www.w3.org/2000/svg">
<mask id="mask0_3828_2262" style="mask-type:alpha" maskUnits="userSpaceOnUse" x="0" y="0" width="25" height="24">
<rect x="0.75" width="24" height="24" fill="rgba(255, 255, 255, 1)"/>
</mask>
<g mask="url(#mask0_3828_2262)">
<path d="M7.75 22C7.2 22 6.72917 21.8042 6.3375 21.4125C5.94583 21.0208 5.75 20.55 5.75 20C5.75 19.45 5.94583 18.9792 6.3375 18.5875C6.72917 18.1958 7.2 18 7.75 18C8.3 18 8.77083 18.1958 9.1625 18.5875C9.55417 18.9792 9.75 19.45 9.75 20C9.75 20.55 9.55417 21.0208 9.1625 21.4125C8.77083 21.8042 8.3 22 7.75 22ZM17.75 22C17.2 22 16.7292 21.8042 16.3375 21.4125C15.9458 21.0208 15.75 20.55 15.75 20C15.75 19.45 15.9458 18.9792 16.3375 18.5875C16.7292 18.1958 17.2 18 17.75 18C18.3 18 18.7708 18.1958 19.1625 18.5875C19.5542 18.9792 19.75 19.45 19.75 20C19.75 20.55 19.5542 21.0208 19.1625 21.4125C18.7708 21.8042 18.3 22 17.75 22ZM6.9 6L9.3 11H16.3L19.05 6H6.9ZM5.95 4H20.7C21.0833 4 21.375 4.17083 21.575 4.5125C21.775 4.85417 21.7833 5.2 21.6 5.55L18.05 11.95C17.8667 12.2833 17.6208 12.5417 17.3125 12.725C17.0042 12.9083 16.6667 13 16.3 13H8.85L7.75 15H19.75V17H7.75C7 17 6.43333 16.6708 6.05 16.0125C5.66667 15.3542 5.65 14.7 6 14.05L7.35 11.6L3.75 4H1.75V2H5L5.95 4Z" fill="white"/>
</g>
</svg>
