<svg width="25" height="24" viewBox="0 0 25 24" fill="white" xmlns="http://www.w3.org/2000/svg">
<path fill-rule="evenodd" clip-rule="evenodd" d="M12.7502 5.26717C14.5102 3.20717 17.7702 2.36717 20.4102 4.16717C21.8102 5.12717 22.6902 6.74717 22.7502 8.44717C22.8802 12.3272 19.4502 15.4372 14.2002 20.1972L14.0902 20.2972C13.3302 20.9972 12.1602 20.9972 11.4002 20.3072L11.3002 20.2172L11.2398 20.1623C6.02384 15.4233 2.61075 12.3223 2.75021 8.45717C2.81021 6.74717 3.69021 5.12717 5.09021 4.16717C7.73021 2.35717 10.9902 3.20717 12.7502 5.26717ZM12.7502 18.8272L12.8502 18.7272C17.6102 14.4172 20.7502 11.5672 20.7502 8.67717C20.7502 6.67717 19.2502 5.17717 17.2502 5.17717C15.7102 5.17717 14.2102 6.16717 13.6902 7.53717H11.8202C11.2902 6.16717 9.79021 5.17717 8.25021 5.17717C6.25021 5.17717 4.75021 6.67717 4.75021 8.67717C4.75021 11.5672 7.89021 14.4172 12.6502 18.7272L12.7502 18.8272Z" fill="#fff"/>
</svg>
