    <svg width="16" height="20" viewBox="0 0 16 20" fill="none" xmlns="http://www.w3.org/2000/svg">
      <path fill-rule="evenodd" clip-rule="evenodd" d="M15.2902 15.04L14.0002 13.75V8.75C14.0002 5.68 12.3602 3.11 9.50017 2.43V1.75C9.50017 0.92 8.83017 0.25 8.00017 0.25C7.17017 0.25 6.50017 0.92 6.50017 1.75V2.43C3.63017 3.11 2.00017 5.67 2.00017 8.75V13.75L0.710173 15.04C0.0801735 15.67 0.520173 16.75 1.41017 16.75H14.5802C15.4802 16.75 15.9202 15.67 15.2902 15.04ZM4.00017 14.75V8.75C4.00017 6.27 5.51017 4.25 8.00017 4.25C10.4902 4.25 12.0002 6.27 12.0002 8.75V14.75H4.00017ZM10.0002 17.75C10.0002 18.85 9.10017 19.75 8.00017 19.75C6.89017 19.75 6.00017 18.85 6.00017 17.75H10.0002Z" fill="#0F172A" />
    </svg>