<svg width="16" height="16" viewBox="0 0 16 16" fill="none" xmlns="http://www.w3.org/2000/svg">
<rect width="16" height="16" rx="8" fill="#BFA59A"/>
<mask id="path-2-inside-1_4345_14936" fill="white">
<path d="M6.99975 10.6667L6.29264 11.3738L6.99975 12.081L7.70685 11.3738L6.99975 10.6667ZM3.62598 8.70719L6.29264 11.3738L7.70685 9.95964L5.04019 7.29297L3.62598 8.70719ZM7.70685 11.3738L12.3735 6.70718L10.9593 5.29297L6.29264 9.95964L7.70685 11.3738Z"/>
</mask>
<path d="M6.99975 10.6667L8.41397 9.25253L6.99976 7.83833L5.58555 9.25252L6.99975 10.6667ZM6.99975 12.081L5.58554 13.4952L6.99976 14.9094L8.41398 13.4952L6.99975 12.081ZM3.62598 8.70719L2.21176 7.29298L0.79755 8.70719L2.21176 10.1214L3.62598 8.70719ZM7.70685 9.95964L9.12107 11.3738L10.5353 9.95964L9.12107 8.54542L7.70685 9.95964ZM5.04019 7.29297L6.45441 5.87875L5.04019 4.46453L3.62597 5.87876L5.04019 7.29297ZM12.3735 6.70718L13.7877 8.1214L15.202 6.70719L13.7877 5.29297L12.3735 6.70718ZM10.9593 5.29297L12.3735 3.87876L10.9593 2.46454L9.5451 3.87875L10.9593 5.29297ZM6.29264 9.95964L4.87843 8.54542L3.46422 9.95964L4.87843 11.3738L6.29264 9.95964ZM5.58555 9.25252L4.87844 9.95962L7.70685 12.7881L8.41396 12.081L5.58555 9.25252ZM4.87843 12.7881L5.58554 13.4952L8.41397 10.6667L7.70686 9.95963L4.87843 12.7881ZM8.41398 13.4952L9.12108 12.788L6.29263 9.95964L5.58553 10.6668L8.41398 13.4952ZM9.12107 9.95963L8.41397 9.25253L5.58554 12.081L6.29264 12.7881L9.12107 9.95963ZM2.21176 10.1214L4.87843 12.7881L7.70686 9.95963L5.04019 7.29297L2.21176 10.1214ZM7.70686 12.7881L9.12107 11.3738L6.29264 8.54542L4.87843 9.95963L7.70686 12.7881ZM9.12107 8.54542L6.45441 5.87875L3.62598 8.70718L6.29264 11.3738L9.12107 8.54542ZM3.62597 5.87876L2.21176 7.29298L5.04019 10.1214L6.45441 8.70718L3.62597 5.87876ZM9.12107 12.7881L13.7877 8.1214L10.9593 5.29297L6.29264 9.95963L9.12107 12.7881ZM13.7877 5.29297L12.3735 3.87876L9.5451 6.70718L10.9593 8.12139L13.7877 5.29297ZM9.5451 3.87875L4.87843 8.54542L7.70686 11.3738L12.3735 6.70718L9.5451 3.87875ZM4.87843 11.3738L6.29264 12.7881L9.12107 9.95963L7.70686 8.54542L4.87843 11.3738Z" fill="white" mask="url(#path-2-inside-1_4345_14936)"/>
</svg>
