<svg width="20" height="13" viewBox="0 0 20 13" fill="none" xmlns="http://www.w3.org/2000/svg">
<path fill-rule="evenodd" clip-rule="evenodd" d="M12.99 4.50003V6.29003C12.99 6.74003 12.45 6.96003 12.14 6.65003L9.36 3.86003C9.17 3.66003 9.17 3.35003 9.36 3.15003L12.14 0.360031C12.45 0.0400305 12.99 0.260031 12.99 0.71003V2.50003H19C19.55 2.50003 20 2.95003 20 3.50003C20 4.05003 19.55 4.50003 19 4.50003H12.99ZM1 8.50003H7.01V6.70003C7.01 6.26003 7.55 6.03003 7.86 6.35003L10.64 9.14003C10.83 9.34003 10.83 9.65003 10.64 9.85003L7.86 12.64C7.55 12.96 7.01 12.74 7.01 12.29V10.5H1C0.45 10.5 0 10.05 0 9.50003C0 8.95003 0.45 8.50003 1 8.50003Z" fill="#3F271E"/>
</svg>
