<?xml version="1.0" encoding="UTF-8"?>
<svg version="1.1" xmlns="http://www.w3.org/2000/svg" width="768" height="591">
<path d="M0 0 C253.44 0 506.88 0 768 0 C768 195.03 768 390.06 768 591 C514.56 591 261.12 591 0 591 C0 395.97 0 200.94 0 0 Z " fill="#FEFEFE" transform="translate(0,0)"/>
<path d="M0 0 C5.28 0 10.56 0 16 0 C16.33 0.66 16.66 1.32 17 2 C17.99 1.34 18.98 0.68 20 0 C22.8125 -0.265625 22.8125 -0.265625 26 -0.25 C27.051875 -0.25515625 28.10375 -0.2603125 29.1875 -0.265625 C32 0 32 0 35 2 C35 2.99 35 3.98 35 5 C35.66 5 36.32 5 37 5 C37.28875 4.360625 37.5775 3.72125 37.875 3.0625 C39 1 39 1 41 0 C42.95339423 -0.17369832 44.91442704 -0.26696102 46.875 -0.3125 C48.44894531 -0.36857422 48.44894531 -0.36857422 50.0546875 -0.42578125 C53 0 53 0 55.15966797 1.34594727 C58.09701777 5.58207484 57.49147874 9.86240168 57.390625 14.890625 C57.38496521 15.95037537 57.37930542 17.01012573 57.37347412 18.10198975 C57.3510924 21.48512028 57.30089098 24.86718984 57.25 28.25 C57.2299374 30.54425553 57.21168621 32.83852767 57.1953125 35.1328125 C57.1512218 40.75557003 57.08429136 46.37770921 57 52 C56.01 52 55.02 52 54 52 C54 54.31 54 56.62 54 59 C53.01 58.505 53.01 58.505 52 58 C52 56.35 52 54.7 52 53 C51.01 53 50.02 53 49 53 C48.67 54.98 48.34 56.96 48 59 C47.67 59 47.34 59 47 59 C47 57.02 47 55.04 47 53 C46.01 53 45.02 53 44 53 C44.144375 53.66386719 44.28875 54.32773437 44.4375 55.01171875 C44.623125 55.89472656 44.80875 56.77773438 45 57.6875 C45.185625 58.55761719 45.37125 59.42773438 45.5625 60.32421875 C45.98972047 62.93712964 46.07616201 65.35813038 46 68 C46.99 68 47.98 68 49 68 C49.33 65.36 49.66 62.72 50 60 C50.33 60 50.66 60 51 60 C51.495 63.465 51.495 63.465 52 67 C54.475 66.01 54.475 66.01 57 65 C57 67.31 57 69.62 57 72 C52.38 72 47.76 72 43 72 C42.505 43.29 42.505 43.29 42 14 C40.68 14.33 39.36 14.66 38 15 C37.67 34.14 37.34 53.28 37 73 C31.72 73 26.44 73 21 73 C21 53.53 21 34.06 21 14 C19.68 14.33 18.36 14.66 17 15 C16.67 34.14 16.34 53.28 16 73 C10.72 73 5.44 73 0 73 C0 48.91 0 24.82 0 0 Z " fill="#0C0E0E" transform="translate(448,270)"/>
<path d="M0 0 C11.22 0 22.44 0 34 0 C34 5.28 34 10.56 34 16 C28.39 16 22.78 16 17 16 C17 22.6 17 29.2 17 36 C21.62 36 26.24 36 31 36 C31 40.95 31 45.9 31 51 C26.38 51 21.76 51 17 51 C17 60.57 17 70.14 17 80 C22.94 80 28.88 80 35 80 C35 85.28 35 90.56 35 96 C23.45 96 11.9 96 0 96 C0 64.32 0 32.64 0 0 Z " fill="#070A0A" transform="translate(154,247)"/>
<path d="M0 0 C5.2232279 6.61382754 4.51576382 13.58152018 4.390625 21.68359375 C4.38315444 23.10847679 4.37746536 24.53337018 4.37347412 25.95826721 C4.35828152 29.68867914 4.31905658 33.41845722 4.2746582 37.14862061 C4.23356652 40.9629255 4.21543363 44.77733391 4.1953125 48.59179688 C4.15255434 56.06151883 4.08225875 63.53058946 4 71 C-0.95 71 -5.9 71 -11 71 C-11 70.34 -11 69.68 -11 69 C-11.54785156 69.32226562 -12.09570312 69.64453125 -12.66015625 69.9765625 C-16.93604039 71.84681566 -21.42927876 71.53573736 -26 71 C-29.73259311 69.09561576 -30.68338214 67.87774134 -32.09765625 63.95703125 C-34.75069683 53.97469011 -34.52860981 40.56911289 -30.328125 31.1328125 C-26.66795397 25.25500843 -21.43231554 22.18455999 -15 20 C-13.68 20 -12.36 20 -11 20 C-11.33 17.69 -11.66 15.38 -12 13 C-13.65 13 -15.3 13 -17 13 C-17.33 14.32 -17.66 15.64 -18 17 C-23.15171623 17.09038099 -27.91913204 16.84681133 -33 16 C-32.59355312 10.10652029 -31.76539633 6.76211889 -28 2 C-27.5875 1.4225 -27.175 0.845 -26.75 0.25 C-19.77851442 -4.72963256 -7.15115951 -4.610616 0 0 Z " fill="#0A0D0D" transform="translate(379,272)"/>
<path d="M0 0 C5.28 0 10.56 0 16 0 C16.33 0.66 16.66 1.32 17 2 C17.99 1.34 18.98 0.68 20 0 C22.99609375 -0.37109375 22.99609375 -0.37109375 26.4375 -0.4375 C27.57058594 -0.47746094 28.70367187 -0.51742188 29.87109375 -0.55859375 C33 0 33 0 35.16717529 2.10929871 C37.40507101 5.6388714 37.48494617 7.65350333 37.45410156 11.80981445 C37.45468567 12.47378738 37.45526978 13.13776031 37.45587158 13.82185364 C37.45309867 16.00287302 37.42204805 18.18250253 37.390625 20.36328125 C37.3831597 21.88070428 37.37746813 23.39813698 37.37347412 24.91557312 C37.35824032 28.89916856 37.3189788 32.8821757 37.2746582 36.86553955 C37.23365632 40.9343673 37.21545267 45.0032906 37.1953125 49.07226562 C37.15248144 57.04847644 37.08215088 65.02409714 37 73 C32.05 73 27.1 73 22 73 C21.67 54.19 21.34 35.38 21 16 C19.68 15.67 18.36 15.34 17 15 C16.67 34.14 16.34 53.28 16 73 C10.72 73 5.44 73 0 73 C0 48.91 0 24.82 0 0 Z " fill="#080B0B" transform="translate(191,270)"/>
<path d="M0 0 C4.95 0 9.9 0 15 0 C15 0.99 15 1.98 15 3 C15.78890625 2.27103516 15.78890625 2.27103516 16.59375 1.52734375 C19.70819259 -0.44951835 21.8325331 -0.43329419 25.5 -0.4375 C27.18609375 -0.46650391 27.18609375 -0.46650391 28.90625 -0.49609375 C32.63411519 0.10168261 33.76731016 1.00377236 36 4 C37.18743853 7.45948142 37.12056822 10.78680071 37.11352539 14.42089844 C37.11344986 15.72194519 37.11337433 17.02299194 37.11329651 18.36346436 C37.10819024 19.77876829 37.10297425 21.19407184 37.09765625 22.609375 C37.09579035 24.06097363 37.09436726 25.51257288 37.09336853 26.96417236 C37.08955688 30.77819569 37.07973815 34.59218073 37.06866455 38.40618896 C37.05842135 42.30073529 37.05386468 46.19528783 37.04882812 50.08984375 C37.03811465 57.72658195 37.02052882 65.36328072 37 73 C31.72 73 26.44 73 21 73 C20.505 44.29 20.505 44.29 20 15 C18.68 15.33 17.36 15.66 16 16 C15.67 34.81 15.34 53.62 15 73 C10.05 73 5.1 73 0 73 C0 48.91 0 24.82 0 0 Z " fill="#0A0D0D" transform="translate(550,270)"/>
<path d="M0 0 C1.1127832 -0.01063477 1.1127832 -0.01063477 2.24804688 -0.02148438 C7.66961941 0.04127648 10.89553677 0.90040813 14.83886719 4.83618164 C20.12499383 11.51246686 18.98369745 19.90183525 18.75 27.9375 C18.7248814 29.44267122 18.70207452 30.94788289 18.68164062 32.453125 C18.63120993 36.11641038 18.53334718 39.77400774 18.4375 43.4375 C11.5075 43.4375 4.5775 43.4375 -2.5625 43.4375 C-2.2325 48.3875 -1.9025 53.3375 -1.5625 58.4375 C-0.2425 58.4375 1.0775 58.4375 2.4375 58.4375 C2.7675 55.7975 3.0975 53.1575 3.4375 50.4375 C8.3875 50.4375 13.3375 50.4375 18.4375 50.4375 C18.84979707 57.75577294 18.34949428 63.12223278 14.4375 69.4375 C10.1976089 73.54890955 5.84412834 73.64251885 0.125 73.75 C-1.17050781 73.78738281 -2.46601563 73.82476562 -3.80078125 73.86328125 C-8.15132802 73.37085176 -10.19299547 72.17460486 -13.5625 69.4375 C-18.79689899 62.78839858 -18.73453024 56.79484967 -18.80078125 48.67578125 C-18.808853 47.72994675 -18.81692474 46.78411224 -18.82524109 45.80961609 C-18.83904571 43.81002617 -18.84978399 41.81041305 -18.85766602 39.81079102 C-18.86917171 37.77914457 -18.88960106 35.74752801 -18.91918945 33.71606445 C-18.96213337 30.7649299 -18.97807255 27.81469057 -18.98828125 24.86328125 C-19.00578934 23.96813309 -19.02329742 23.07298492 -19.04133606 22.15071106 C-19.01932363 15.64969441 -17.67810672 10.18230393 -14.5625 4.4375 C-10.02206299 0.09305307 -5.97138458 -0.16167067 0 0 Z " fill="#0C0F0F" transform="translate(275.5625,269.5625)"/>
<path d="M0 0 C4.95 0 9.9 0 15 0 C15 0.99 15 1.98 15 3 C15.69996094 2.51273437 16.39992188 2.02546875 17.12109375 1.5234375 C20.38610317 -0.20431511 22.39558709 -0.40281476 26.0625 -0.375 C27.08472656 -0.38273437 28.10695313 -0.39046875 29.16015625 -0.3984375 C32.35608404 0.04995952 33.71609924 0.75302142 36 3 C37.12659519 6.37978558 37.12020983 8.92816136 37.11352539 12.4909668 C37.11367142 13.1448941 37.11381744 13.79882141 37.1139679 14.4725647 C37.11327188 16.63148326 37.10549408 18.79031528 37.09765625 20.94921875 C37.09579096 22.44708713 37.09436758 23.94495611 37.09336853 25.44282532 C37.08955207 29.38345019 37.0797292 33.32403814 37.06866455 37.26464844 C37.05843172 41.28645325 37.0538669 45.30826404 37.04882812 49.33007812 C37.03810616 57.2200709 37.02051639 65.11002661 37 73 C32.05 73 27.1 73 22 73 C21.67 54.19 21.34 35.38 21 16 C19.68 15.67 18.36 15.34 17 15 C15.28205099 16.71794901 15.83077871 18.99938413 15.79467773 21.34594727 C15.77473251 22.4870546 15.75478729 23.62816193 15.73423767 24.80384827 C15.70916893 26.66631447 15.70916893 26.66631447 15.68359375 28.56640625 C15.66281265 29.83016586 15.64203156 31.09392548 15.62062073 32.39598083 C15.56616286 35.76118633 15.5159572 39.12640173 15.46777344 42.49169922 C15.41760241 45.92355901 15.36189345 49.35532831 15.30664062 52.78710938 C15.19929805 59.52466992 15.09806829 66.26229834 15 73 C10.05 73 5.1 73 0 73 C0 48.91 0 24.82 0 0 Z " fill="#050808" transform="translate(407,270)"/>
<path d="M0 0 C1.1127832 -0.00386719 1.1127832 -0.00386719 2.24804688 -0.0078125 C6.78222615 0.07293869 9.73475345 0.65278639 13.4375 3.5 C17.95550594 8.5200066 18.58460168 12.23563706 18.53515625 18.79296875 C18.5337413 19.49899734 18.53232635 20.20502594 18.53086853 20.93244934 C18.52527764 23.18417626 18.51272688 25.43580321 18.5 27.6875 C18.49498382 29.21549335 18.49042112 30.74348827 18.48632812 32.27148438 C18.4761627 36.01439228 18.45658569 39.75708443 18.4375 43.5 C11.5075 43.5 4.5775 43.5 -2.5625 43.5 C-2.2325 48.45 -1.9025 53.4 -1.5625 58.5 C-0.2425 58.5 1.0775 58.5 2.4375 58.5 C2.7675 55.53 3.0975 52.56 3.4375 49.5 C8.60059352 49.42177131 13.35652274 49.45774825 18.4375 50.5 C18.79513881 56.96399033 18.78071857 62.77820696 15.4375 68.5 C10.75653708 73.06393885 7.01630619 73.66832197 0.625 73.75 C-0.57769531 73.77578125 -1.78039062 73.8015625 -3.01953125 73.828125 C-6.91549948 73.46730766 -9.25271433 72.55302648 -12.5625 70.5 C-16.1006782 65.90993099 -17.67814414 62.41740062 -17.72363281 56.66479492 C-17.73804413 55.19262764 -17.73804413 55.19262764 -17.75274658 53.6907196 C-17.75699646 52.63133682 -17.76124634 51.57195404 -17.765625 50.48046875 C-17.77132507 49.38914139 -17.77702515 48.29781403 -17.78289795 47.17341614 C-17.79234864 44.86260956 -17.7988822 42.55178949 -17.80273438 40.2409668 C-17.81243312 36.71183652 -17.84345372 33.18329028 -17.875 29.65429688 C-17.88153085 27.40885762 -17.886781 25.16341421 -17.890625 22.91796875 C-17.9029718 21.86465866 -17.9153186 20.81134857 -17.92803955 19.72612 C-17.90615046 12.49879171 -16.98184864 8.09394081 -11.91015625 2.65625 C-7.68398379 -0.06585875 -4.90213886 -0.18837914 0 0 Z " fill="#090C0C" transform="translate(527.5625,269.5)"/>
<path d="M0 0 C5.28 0 10.56 0 16 0 C16 5.94 16 11.88 16 18 C17.65 18 19.3 18 21 18 C21 22.95 21 27.9 21 33 C19.35 33 17.7 33 16 33 C16.33 46.86 16.66 60.72 17 75 C18.32 75.33 19.64 75.66 21 76 C21 80.95 21 85.9 21 91 C8.67233662 91.6087735 8.67233662 91.6087735 3 87 C-0.35903711 81.02919732 -0.39830962 75.78358345 -0.29296875 69.03515625 C-0.28872391 68.00184677 -0.28447906 66.96853729 -0.28010559 65.90391541 C-0.26339394 62.62317178 -0.22575511 59.34305608 -0.1875 56.0625 C-0.17244348 53.83008703 -0.15875677 51.59766438 -0.14648438 49.36523438 C-0.1135151 43.90994419 -0.06339087 38.45501698 0 33 C-1.32 33 -2.64 33 -4 33 C-4 28.05 -4 23.1 -4 18 C-2.68 18 -1.36 18 0 18 C0 12.06 0 6.12 0 0 Z " fill="#0E1010" transform="translate(593,252)"/>
<path d="M0 0 C5.28 0 10.56 0 16 0 C16 5.61 16 11.22 16 17 C17.65 17 19.3 17 21 17 C21 21.95 21 26.9 21 32 C19.35 32 17.7 32 16 32 C16.33 45.86 16.66 59.72 17 74 C18.32 74.33 19.64 74.66 21 75 C21 79.95 21 84.9 21 90 C10.06542056 90.48598131 10.06542056 90.48598131 5.4375 88.375 C1.28510749 84.32907909 -0.16629501 80.64914167 -0.34057617 74.91259766 C-0.34010447 72.91302302 -0.32334986 70.91340638 -0.29296875 68.9140625 C-0.28872391 67.85714203 -0.28447906 66.80022156 -0.28010559 65.71127319 C-0.26336702 62.3489186 -0.22572289 58.98717221 -0.1875 55.625 C-0.17244697 53.33985243 -0.15875964 51.05469543 -0.14648438 48.76953125 C-0.1134793 43.1794814 -0.06332772 37.58978416 0 32 C-0.99 32 -1.98 32 -3 32 C-3 27.05 -3 22.1 -3 17 C-2.01 17 -1.02 17 0 17 C0 11.39 0 5.78 0 0 Z " fill="#0B0E0E" transform="translate(324,253)"/>
<path d="M0 0 C4.95 0 9.9 0 15 0 C15 5.61 15 11.22 15 17 C16.98 17 18.96 17 21 17 C21 21.95 21 26.9 21 32 C19.02 32 17.04 32 15 32 C15.33 46.19 15.66 60.38 16 75 C17.65 75 19.3 75 21 75 C21 79.95 21 84.9 21 90 C8.16720257 90.42305926 8.16720257 90.42305926 2.25 85.5625 C-0.21119672 82.48600411 -0.12354781 78.94816953 -0.11352539 75.13964844 C-0.11341209 73.69860748 -0.11341209 73.69860748 -0.11329651 72.22845459 C-0.10813522 71.19915833 -0.10297394 70.16986206 -0.09765625 69.109375 C-0.0962413 68.04962463 -0.09482635 66.98987427 -0.09336853 65.89801025 C-0.08777382 62.51531138 -0.07522225 59.13267885 -0.0625 55.75 C-0.05748432 53.45573012 -0.05292153 51.16145921 -0.04882812 48.8671875 C-0.03780611 43.24476906 -0.02107321 37.62238927 0 32 C-1.32 32 -2.64 32 -4 32 C-4 27.05 -4 22.1 -4 17 C-2.68 17 -1.36 17 0 17 C0 11.39 0 5.78 0 0 Z " fill="#070A0A" transform="translate(235,253)"/>
<path d="M0 0 C5.28 0 10.56 0 16 0 C16.33 0.99 16.66 1.98 17 3 C17.45375 2.505 17.9075 2.01 18.375 1.5 C20 0 20 0 22 0 C22 4.95 22 9.9 22 15 C20.02 15.99 20.02 15.99 18 17 C16.73406561 19.53186878 16.84081806 21.34974791 16.79467773 24.18408203 C16.77473251 25.26505157 16.75478729 26.34602112 16.73423767 27.45974731 C16.70916893 29.21603958 16.70916893 29.21603958 16.68359375 31.0078125 C16.66281265 32.20356903 16.64203156 33.39932556 16.62062073 34.63131714 C16.55507711 38.46248464 16.49621782 42.29372238 16.4375 46.125 C16.39431937 48.71745527 16.35070523 51.30990336 16.30664062 53.90234375 C16.19939077 60.26815663 16.09813688 66.63404037 16 73 C10.72 73 5.44 73 0 73 C0 48.91 0 24.82 0 0 Z " fill="#0D1010" transform="translate(297,270)"/>
<path d="M0 0 C4.95 0 9.9 0 15 0 C15 24.09 15 48.18 15 73 C10.05 73 5.1 73 0 73 C0 48.91 0 24.82 0 0 Z " fill="#050808" transform="translate(387,270)"/>
<path d="M0 0 C5.16309352 -0.07822869 9.91902274 -0.04225175 15 1 C15.35763881 7.46399033 15.34321857 13.27820696 12 19 C7.31903708 23.56393885 3.57880619 24.16832197 -2.8125 24.25 C-4.61654297 24.28867187 -4.61654297 24.28867187 -6.45703125 24.328125 C-10 24 -10 24 -16 21 C-16 15.39 -16 9.78 -16 4 C-13.03 4 -10.06 4 -7 4 C-6.34 5.65 -5.68 7.3 -5 9 C-3.68 9 -2.36 9 -1 9 C-0.67 6.03 -0.34 3.06 0 0 Z " fill="#0C0F0F" transform="translate(531,319)"/>
<path d="M0 0 C0 14.85 0 29.7 0 45 C-1.98 44.67 -3.96 44.34 -6 44 C-7.71802382 40.56395235 -7.1196618 36.61561104 -7.09765625 32.8359375 C-7.0962413 31.92872955 -7.09482635 31.02152161 -7.09336853 30.08682251 C-7.08776096 27.18284845 -7.07520718 24.27895085 -7.0625 21.375 C-7.05748598 19.40885528 -7.0529229 17.44270935 -7.04882812 15.4765625 C-7.03778906 10.6510121 -7.02051935 5.82551903 -7 1 C-1.125 0 -1.125 0 0 0 Z " fill="#F8F8F8" transform="translate(257,284)"/>
<path d="M0 0 C0.33 0 0.66 0 1 0 C1 22.11 1 44.22 1 67 C-4.28 67 -9.56 67 -15 67 C-15 48.19 -15 29.38 -15 10 C-14.67 10 -14.34 10 -14 10 C-14 28.48 -14 46.96 -14 66 C-9.38 66 -4.76 66 0 66 C-0.33 64.02 -0.66 62.04 -1 60 C-2.32 60.66 -3.64 61.32 -5 62 C-5.66 61.01 -6.32 60.02 -7 59 C-7.33 59.99 -7.66 60.98 -8 62 C-8.99 62 -9.98 62 -11 62 C-12.26305335 56.92523206 -13.27036084 52.27203646 -13 47 C-12.01 47 -11.02 47 -10 47 C-9.67 48.32 -9.34 49.64 -9 51 C-8.67 49.68 -8.34 48.36 -8 47 C-7.01 47 -6.02 47 -5 47 C-4.67 48.65 -4.34 50.3 -4 52 C-3.505 49.03 -3.505 49.03 -3 46 C-2.01 46 -1.02 46 0 46 C0 30.82 0 15.64 0 0 Z " fill="#6A6C6C" transform="translate(505,276)"/>
<path d="M0 0 C4.95 0 9.9 0 15 0 C15 4.95 15 9.9 15 15 C10.05 15 5.1 15 0 15 C0 10.05 0 5.1 0 0 Z " fill="#050808" transform="translate(387,253)"/>
<path d="M0 0 C1.32 0 2.64 0 4 0 C4.37634203 6.80203375 3.77471079 11.75690073 1 18 C-1.97 18 -4.94 18 -8 18 C-8 12.72 -8 7.44 -8 2 C-5.36 2 -2.72 2 0 2 C0 1.34 0 0.68 0 0 Z " fill="#1B1D1D" transform="translate(542,320)"/>
<path d="M0 0 C0.05789006 3.45826342 0.09355821 6.91640293 0.125 10.375 C0.14175781 11.35984375 0.15851563 12.3446875 0.17578125 13.359375 C0.18222656 14.30039062 0.18867188 15.24140625 0.1953125 16.2109375 C0.20578613 17.08024902 0.21625977 17.94956055 0.22705078 18.84521484 C0 21 0 21 -2 23 C-5.53571429 22.46428571 -5.53571429 22.46428571 -7 21 C-7.1810363 18.40019999 -7.27813914 15.85226219 -7.3125 13.25 C-7.34150391 12.53328125 -7.37050781 11.8165625 -7.40039062 11.078125 C-7.44489838 7.35316846 -7.1165136 5.19178784 -5.16796875 1.984375 C-3 0 -3 0 0 0 Z " fill="#EEEFEF" transform="translate(368,307)"/>
<path d="M0 0 C0.99 0 1.98 0 3 0 C3.33 1.32 3.66 2.64 4 4 C4.33 2.68 4.66 1.36 5 0 C5.99 0 6.98 0 8 0 C8.33 1.65 8.66 3.3 9 5 C9.33 3.35 9.66 1.7 10 0 C10.99 0.33 11.98 0.66 13 1 C12.34 5.29 11.68 9.58 11 14 C9.68 14 8.36 14 7 14 C6.67 13.34 6.34 12.68 6 12 C5.67 12.99 5.34 13.98 5 15 C4.01 15 3.02 15 2 15 C0.73694665 9.92523206 -0.27036084 5.27203646 0 0 Z " fill="#DFDFDF" transform="translate(492,323)"/>
<path d="M0 0 C4.70588235 0.70588235 4.70588235 0.70588235 6 2 C6.07258946 4.18639453 6.08373783 6.37500389 6.0625 8.5625 C6.05347656 9.76003906 6.04445313 10.95757812 6.03515625 12.19140625 C6.02355469 13.11824219 6.01195312 14.04507812 6 15 C3.69 15 1.38 15 -1 15 C-1.02685412 12.68756208 -1.04632841 10.3750373 -1.0625 8.0625 C-1.07410156 6.77472656 -1.08570313 5.48695313 -1.09765625 4.16015625 C-1 1 -1 1 0 0 Z " fill="#F2F2F2" transform="translate(526,284)"/>
<path d="M0 0 C1.65 0.33 3.3 0.66 5 1 C5 5.62 5 10.24 5 15 C2.69 15 0.38 15 -2 15 C-2.05386629 12.87527424 -2.09273071 10.75016348 -2.125 8.625 C-2.14820313 7.44164062 -2.17140625 6.25828125 -2.1953125 5.0390625 C-2 2 -2 2 0 0 Z " fill="#F2F2F2" transform="translate(274,284)"/>
<path d="M0 0 C2.64 0 5.28 0 8 0 C8 0.66 8 1.32 8 2 C6.35 2 4.7 2 3 2 C3 2.99 3 3.98 3 5 C4.32 5 5.64 5 7 5 C7 5.99 7 6.98 7 8 C5.68 8 4.36 8 3 8 C3 9.32 3 10.64 3 12 C4.65 12 6.3 12 8 12 C8 12.99 8 13.98 8 15 C5.36 15 2.72 15 0 15 C0 10.05 0 5.1 0 0 Z " fill="#CACACA" transform="translate(515,323)"/>
<path d="M0 0 C0.66 0 1.32 0 2 0 C2.33 0.99 2.66 1.98 3 3 C3.33 2.01 3.66 1.02 4 0 C4.99 0 5.98 0 7 0 C6.79375 0.804375 6.5875 1.60875 6.375 2.4375 C5.89918072 6.95778317 6.83064128 10.65114526 8 15 C7.01 15 6.02 15 5 15 C4.34 13.02 3.68 11.04 3 9 C2.67 10.98 2.34 12.96 2 15 C1.34 15 0.68 15 0 15 C0 10.05 0 5.1 0 0 Z " fill="#F1F1F1" transform="translate(554,323)"/>
<path d="M0 0 C2.31 0 4.62 0 7 0 C7 0.66 7 1.32 7 2 C5.68 2 4.36 2 3 2 C3 2.99 3 3.98 3 5 C3.99 5 4.98 5 6 5 C6 5.99 6 6.98 6 8 C5.01 8 4.02 8 3 8 C3 9.65 3 11.3 3 13 C4.32 13 5.64 13 7 13 C7 13.66 7 14.32 7 15 C4.69 15 2.38 15 0 15 C0 10.05 0 5.1 0 0 Z " fill="#CECDCD" transform="translate(534,323)"/>
<path d="M0 0 C0.99 0 1.98 0 3 0 C3.66 1.32 4.32 2.64 5 4 C5.33 2.68 5.66 1.36 6 0 C6.99 0.33 7.98 0.66 9 1 C8.690625 1.825 8.38125 2.65 8.0625 3.5 C6.88122417 7.39126155 6.41775832 10.96166953 6 15 C5.01 15 4.02 15 3 15 C2.86722656 14.16855469 2.73445312 13.33710938 2.59765625 12.48046875 C2.42105469 11.39378906 2.24445312 10.30710937 2.0625 9.1875 C1.88847656 8.10855469 1.71445312 7.02960938 1.53515625 5.91796875 C1.06128079 2.95066644 1.06128079 2.95066644 0 0 Z " fill="#EFEEEE" transform="translate(597,323)"/>
<path d="M0 0 C0.66 0 1.32 0 2 0 C2 5.28 2 10.56 2 16 C-2.95 16 -7.9 16 -13 16 C-13 15.67 -13 15.34 -13 15 C-8.38 15 -3.76 15 1 15 C0.35968044 10.9284911 0.35968044 10.9284911 -0.625 6.9375 C-1.1118389 4.42216567 -0.61560812 2.46243248 0 0 Z " fill="#292B2B" transform="translate(504,327)"/>
<path d="M0 0 C0.66 0 1.32 0 2 0 C2 4.29 2 8.58 2 13 C3.65 13 5.3 13 7 13 C7 13.66 7 14.32 7 15 C4.69 15 2.38 15 0 15 C0 10.05 0 5.1 0 0 Z " fill="#F0F0F0" transform="translate(576,323)"/>
<path d="M0 0 C0.99 0 1.98 0 3 0 C4.42944945 2.35438733 5.08661261 3.48032433 4.625 6.25 C4.41875 6.8275 4.2125 7.405 4 8 C3.34 8 2.68 8 2 8 C1.67 8.66 1.34 9.32 1 10 C0.67 6.7 0.34 3.4 0 0 Z " fill="#C5C5C6" transform="translate(492,323)"/>
<path d="M0 0 C2.31 0 4.62 0 7 0 C7 0.66 7 1.32 7 2 C5.68 2 4.36 2 3 2 C3 2.99 3 3.98 3 5 C3.99 5.33 4.98 5.66 6 6 C4.35 6 2.7 6 1 6 C0.67 4.02 0.34 2.04 0 0 Z " fill="#E6E6E6" transform="translate(534,323)"/>
<path d="M0 0 C0.99 0 1.98 0 3 0 C3 2.31 3 4.62 3 7 C1.68 7.33 0.36 7.66 -1 8 C-0.67 5.36 -0.34 2.72 0 0 Z " fill="#F6F5F5" transform="translate(497,323)"/>
<path d="M0 0 C0.2475 0.639375 0.495 1.27875 0.75 1.9375 C1.81562433 4.18741541 1.81562433 4.18741541 4.125 4.75 C4.74375 4.8325 5.3625 4.915 6 5 C6 5.66 6 6.32 6 7 C3.69 7 1.38 7 -1 7 C-0.67 4.69 -0.34 2.38 0 0 Z " fill="#E3E3E3" transform="translate(535,331)"/>
<path d="M0 0 C0.99 0 1.98 0 3 0 C3 1.98 3 3.96 3 6 C2.01 6 1.02 6 0 6 C0 4.02 0 2.04 0 0 Z " fill="#DADADA" transform="translate(600,332)"/>
<path d="M0 0 C0.99 0.33 1.98 0.66 3 1 C3.33 2.65 3.66 4.3 4 6 C3.01 6 2.02 6 1 6 C0.67 4.02 0.34 2.04 0 0 Z " fill="#DADADA" transform="translate(558,332)"/>
</svg>
