<svg width="24" height="24" viewBox="0 0 24 24" fill="none" xmlns="http://www.w3.org/2000/svg">
<path d="M4.69138 4H10.6706C11.5053 4 12.0244 4.68031 11.8297 5.51773L9.04592 17.4695C8.84947 18.304 8.0138 18.9849 7.17857 18.9849H1.19991C0.366426 18.9849 -0.153863 18.304 0.0408444 17.4695L2.82577 5.51773C3.02048 4.68031 3.85571 4 4.69138 4Z" fill="#94A3B8"/>
<path d="M10.1734 4H17.0494C17.8839 4 17.5076 4.68031 17.3113 5.51773L14.528 17.4695C14.3327 18.304 14.3936 18.9849 13.5573 18.9849H6.68137C5.84512 18.9849 5.3276 18.304 5.52406 17.4695L8.30724 5.51773C8.50486 4.68031 9.33834 4 10.1734 4Z" fill="#64748B"/>
<path d="M16.7767 4H22.7559C23.5917 4 24.1108 4.68031 23.9145 5.51773L21.1312 17.4695C20.9347 18.304 20.0985 18.9849 19.2628 18.9849H13.2864C12.4501 18.9849 11.9314 18.304 12.1273 17.4695L14.9111 5.51773C15.1058 4.68031 15.9404 4 16.7767 4Z" fill="#94A3B8"/>
<path d="M6.25284 7.83018C5.63796 7.83645 5.45637 7.83018 5.39837 7.81649C5.37607 7.92244 4.96115 9.83643 4.95998 9.83803C4.87064 10.2253 4.80564 10.5013 4.58485 10.6795C4.45951 10.7832 4.31319 10.8331 4.14355 10.8331C3.87087 10.8331 3.71202 10.6978 3.68535 10.441L3.68025 10.3528C3.68025 10.3528 3.76332 9.8341 3.76332 9.83118C3.76332 9.83118 4.19879 8.08698 4.27676 7.85642C4.28084 7.8433 4.282 7.83645 4.28302 7.83018C3.43541 7.83762 3.28515 7.83018 3.2748 7.81649C3.26912 7.83529 3.24813 7.94342 3.24813 7.94342L2.80348 9.9093L2.7653 10.076L2.69141 10.6214C2.69141 10.7832 2.72318 10.9152 2.78643 11.0268C2.98901 11.3808 3.56686 11.4339 3.89375 11.4339C4.31494 11.4339 4.71004 11.3444 4.97703 11.181C5.44049 10.9072 5.56174 10.4791 5.66988 10.0988L5.72001 9.90362C5.72001 9.90362 6.1686 8.09208 6.24482 7.85642C6.24773 7.8433 6.2489 7.83645 6.25284 7.83018ZM7.77912 9.29157C7.67098 9.29157 7.47336 9.3178 7.29585 9.40481C7.23143 9.43789 7.17051 9.47608 7.10624 9.51411L7.16424 9.30469L7.13247 9.26942C6.75603 9.34564 6.67179 9.35584 6.32406 9.40481L6.29491 9.42419C6.25454 9.75896 6.21869 10.0106 6.06901 10.6687C6.01203 10.9112 5.95286 11.156 5.89354 11.3979L5.90958 11.4287C6.26591 11.4099 6.37405 11.4099 6.68374 11.415L6.70881 11.3877C6.74816 11.1862 6.75326 11.139 6.84041 10.7307C6.88136 10.5372 6.96677 10.1119 7.00889 9.96051C7.08627 9.92466 7.16264 9.88939 7.23551 9.88939C7.40909 9.88939 7.38795 10.0408 7.38125 10.1012C7.37382 10.2024 7.31057 10.5333 7.24571 10.8173L7.20243 11.0007C7.17226 11.136 7.13918 11.2676 7.10901 11.4019L7.12213 11.4287C7.47336 11.4099 7.58048 11.4099 7.88041 11.415L7.91568 11.3877C7.96989 11.0729 7.98578 10.9887 8.08196 10.5304L8.13035 10.3198C8.22435 9.90761 8.27157 9.69862 8.20045 9.5284C8.12525 9.33762 7.94482 9.29157 7.77912 9.29157ZM9.48415 9.72309C9.29746 9.75894 9.17839 9.78284 9.06005 9.79829C8.94273 9.81709 8.82832 9.83414 8.6479 9.85921L8.63362 9.87218L8.6205 9.88253C8.6017 10.0169 8.58858 10.1331 8.56366 10.2696C8.54253 10.4108 8.51003 10.5713 8.45713 10.8019C8.41617 10.9783 8.39504 11.0398 8.37172 11.1019C8.34899 11.164 8.32392 11.2243 8.27787 11.3979L8.28865 11.414L8.29769 11.4287C8.46631 11.4207 8.57663 11.415 8.69002 11.414C8.80326 11.4099 8.92058 11.414 9.10217 11.415L9.11805 11.402L9.1351 11.3877C9.16134 11.2312 9.16527 11.1891 9.1813 11.1127C9.19719 11.0308 9.22459 10.9174 9.29177 10.6146C9.32355 10.4723 9.35896 10.3305 9.3919 10.1854C9.42615 10.0408 9.462 9.89841 9.4961 9.75617L9.491 9.73898L9.48415 9.72309ZM9.48813 9.14127C9.31849 9.04115 9.02074 9.07292 8.82035 9.21122C8.62054 9.34676 8.59781 9.53914 8.76687 9.64057C8.93359 9.73793 9.2325 9.70892 9.43114 9.56945C9.63052 9.431 9.65544 9.24037 9.48813 9.14127ZM10.5141 11.4601C10.8573 11.4601 11.2091 11.3655 11.4739 11.0848C11.6776 10.8571 11.7711 10.5184 11.8034 10.379C11.9088 9.91668 11.8267 9.70084 11.7237 9.56938C11.5672 9.36899 11.2906 9.30472 11.0036 9.30472C10.831 9.30472 10.4201 9.32177 10.099 9.61776C9.86844 9.83127 9.7619 10.121 9.69763 10.3988C9.63278 10.6818 9.55816 11.1913 10.0267 11.3809C10.1713 11.443 10.3797 11.4601 10.5141 11.4601ZM10.4872 10.4199C10.5664 10.0698 10.6598 9.77604 10.8982 9.77604C11.0851 9.77604 11.0986 9.99465 11.0155 10.3459C11.0007 10.4238 10.9325 10.7137 10.8402 10.8372C10.7758 10.9283 10.6996 10.9835 10.6153 10.9835C10.5903 10.9835 10.4412 10.9835 10.4389 10.7621C10.4377 10.6528 10.46 10.5412 10.4872 10.4199ZM12.6614 11.415L12.6882 11.3878C12.7262 11.1862 12.7325 11.1389 12.8167 10.7308C12.8589 10.5372 12.946 10.112 12.987 9.96056C13.0645 9.92456 13.1396 9.88929 13.2148 9.88929C13.3872 9.88929 13.3662 10.0407 13.3593 10.1011C13.3531 10.2025 13.2898 10.5332 13.2238 10.8172L13.1828 11.0006C13.1515 11.1361 13.1174 11.2675 13.0872 11.4019L13.1003 11.4287C13.4527 11.4099 13.5558 11.4099 13.8575 11.415L13.8939 11.3878C13.9468 11.0728 13.9611 10.9886 14.0602 10.5304L14.1074 10.3197C14.2018 9.90751 14.2496 9.69866 14.1797 9.52844C14.1023 9.33767 13.9207 9.29161 13.7573 9.29161C13.6491 9.29161 13.4504 9.3177 13.2739 9.40485C13.2108 9.43794 13.1476 9.47597 13.0855 9.51416L13.1396 9.30473L13.1106 9.26932C12.7343 9.34568 12.6483 9.35589 12.301 9.40485L12.2743 9.42424C12.2322 9.759 12.1979 10.0105 12.0483 10.6687C11.9913 10.9112 11.9321 11.1561 11.8729 11.398L11.8888 11.4287C12.2457 11.4099 12.3523 11.4099 12.6614 11.415ZM15.2505 11.4287C15.2727 11.3205 15.4043 10.6796 15.4054 10.6796C15.4054 10.6796 15.5175 10.2093 15.5244 10.1922C15.5244 10.1922 15.5596 10.1432 15.5949 10.1239H15.6468C16.1363 10.1239 16.6891 10.1239 17.1224 9.80513C17.4172 9.58652 17.6188 9.26371 17.7087 8.87138C17.732 8.77519 17.7492 8.66078 17.7492 8.54638C17.7492 8.39612 17.719 8.24747 17.6319 8.13131C17.4109 7.8222 16.971 7.81651 16.4631 7.81418C16.4615 7.81418 16.2127 7.81651 16.2127 7.81651C15.5625 7.82453 15.3018 7.8222 15.1947 7.80908C15.1857 7.85645 15.1686 7.94068 15.1686 7.94068C15.1686 7.94068 14.9357 9.02003 14.9357 9.02178C14.9357 9.02178 14.3784 11.3166 14.3522 11.4247C14.9198 11.4179 15.1526 11.4179 15.2505 11.4287ZM15.682 9.51132C15.682 9.51132 15.9297 8.43416 15.9285 8.43824L15.9365 8.383L15.94 8.34088L16.039 8.35109C16.039 8.35109 16.5496 8.39495 16.5616 8.39612C16.7631 8.47409 16.8462 8.67506 16.7882 8.9374C16.7353 9.17714 16.5798 9.37869 16.38 9.47605C16.2155 9.55854 16.0139 9.56539 15.8062 9.56539H15.6718L15.682 9.51132ZM17.2237 10.4399C17.1583 10.7188 17.0831 11.2283 17.5493 11.4099C17.698 11.4732 17.8312 11.492 17.9666 11.4851C18.1095 11.4774 18.242 11.4057 18.3647 11.3025C18.3537 11.3449 18.3426 11.3873 18.3315 11.4299L18.3526 11.4571C18.688 11.443 18.792 11.443 19.1554 11.4458L19.1883 11.4207C19.2413 11.1088 19.2913 10.806 19.4292 10.2093C19.4964 9.92351 19.5634 9.64048 19.6324 9.35586L19.6216 9.32452C19.2464 9.39404 19.1462 9.40891 18.7853 9.46006L18.7579 9.48236C18.7543 9.51136 18.7505 9.5392 18.747 9.56703C18.6909 9.47638 18.6096 9.39899 18.4841 9.35076C18.3236 9.28765 17.9467 9.36897 17.6228 9.66395C17.3951 9.87454 17.2858 10.1631 17.2237 10.4399ZM18.0116 10.4569C18.0919 10.1131 18.1842 9.82222 18.4232 9.82222C18.5743 9.82222 18.6539 9.96169 18.6377 10.1995C18.6249 10.2589 18.611 10.3214 18.5946 10.3921C18.5707 10.4942 18.5447 10.5955 18.5195 10.6969C18.4939 10.7663 18.464 10.8318 18.4312 10.8753C18.3697 10.9625 18.2234 11.0166 18.1391 11.0166C18.1152 11.0166 17.9677 11.0166 17.9626 10.7991C17.9615 10.6908 17.9838 10.5793 18.0116 10.4569ZM22.1259 9.32174L22.0969 9.28866C21.7257 9.36386 21.6585 9.37581 21.3175 9.42186L21.2924 9.44693C21.2912 9.45101 21.2902 9.45728 21.2885 9.46296L21.2873 9.45728C21.0334 10.043 21.0409 9.91665 20.8342 10.3778C20.833 10.3568 20.833 10.3437 20.8319 10.3214L20.7801 9.32174L20.7476 9.28866C20.3588 9.36386 20.3496 9.37581 19.9905 9.42186L19.9625 9.44693C19.9586 9.45888 19.9586 9.472 19.9563 9.48628L19.9586 9.49138C20.0035 9.72077 19.9927 9.66962 20.0377 10.0316C20.0587 10.2093 20.0867 10.388 20.1077 10.5634C20.1431 10.8571 20.1629 11.0017 20.2062 11.4498C19.9637 11.85 19.9063 12.0014 19.6728 12.3527L19.6744 12.3562L19.51 12.6162C19.4912 12.6436 19.4742 12.6624 19.4503 12.6704C19.424 12.6834 19.3899 12.6857 19.3426 12.6857H19.2515L19.1161 13.136L19.5806 13.144C19.8532 13.1429 20.0246 13.0154 20.1169 12.844L20.4089 12.3435H20.4043L20.435 12.3082C20.6315 11.8853 22.1259 9.32174 22.1259 9.32174ZM17.2237 15.2362H17.0267L17.756 12.8241H17.9979L18.0747 12.5756L18.0821 12.8519C18.0731 13.0227 18.2075 13.1741 18.5604 13.1491H18.9687L19.1091 12.6846H18.9555C18.8672 12.6846 18.8263 12.6623 18.8314 12.6145L18.8239 12.3334H18.068V12.3348C17.8236 12.3399 17.0937 12.3583 16.9459 12.3976C16.7671 12.4437 16.5787 12.5792 16.5787 12.5792L16.6527 12.3305H15.9456L15.7982 12.8241L15.0592 15.2731H14.9158L14.7752 15.7342H16.1836L16.1364 15.8879H16.8304L16.8764 15.7342H17.0711L17.2237 15.2362ZM16.6459 13.3142C16.5326 13.3455 16.3219 13.4405 16.3219 13.4405L16.5093 12.8241H17.0711L16.9356 13.2732C16.9356 13.2732 16.762 13.2834 16.6459 13.3142ZM16.6566 14.1949C16.6566 14.1949 16.4802 14.217 16.364 14.2433C16.2496 14.278 16.0351 14.3873 16.0351 14.3873L16.2286 13.7457H16.7934L16.6566 14.1949ZM16.3419 15.2419H15.7783L15.9417 14.7005H16.5035L16.3419 15.2419ZM17.6991 13.7457H18.5114L18.3947 14.1238H17.5715L17.448 14.5371H18.1682L17.6228 15.305C17.5847 15.3614 17.5504 15.3814 17.5124 15.3972C17.4742 15.4166 17.4241 15.4394 17.366 15.4394H17.1662L17.029 15.892H17.5516C17.8232 15.892 17.9837 15.7684 18.1022 15.6062L18.4761 15.0944L18.5564 15.6141C18.5735 15.7115 18.6435 15.7684 18.6908 15.7906C18.7431 15.8168 18.7972 15.8619 18.8736 15.8686C18.9555 15.8721 19.0147 15.8748 19.054 15.8748H19.3108L19.465 15.3682H19.3637C19.3055 15.3682 19.2054 15.3585 19.1884 15.3403C19.1713 15.3181 19.1713 15.284 19.1621 15.2321L19.0807 14.7112H18.7471L18.8934 14.5371H19.7149L19.8413 14.1238H19.0807L19.1992 13.7457H19.9574L20.0981 13.2795H17.8374L17.6991 13.7457ZM10.8379 15.3472L11.0275 14.7164H11.8068L11.9492 14.2473H11.1692L11.2883 13.859H12.0505L12.1917 13.4047H10.2846L10.1462 13.859H10.5795L10.464 14.2473H10.0295L9.88552 14.7244H10.3187L10.0659 15.5589C10.0318 15.6694 10.082 15.7115 10.1137 15.7628C10.1462 15.8128 10.1792 15.8459 10.2532 15.8647C10.3296 15.8817 10.3819 15.8919 10.453 15.8919H11.3315L11.4881 15.3722L11.0986 15.4257C11.0234 15.4257 10.8152 15.4167 10.8379 15.3472ZM10.9273 12.3276L10.7298 12.6845C10.6876 12.7625 10.6495 12.8109 10.6153 12.8332C10.5851 12.852 10.5254 12.8599 10.4388 12.8599H10.3357L10.198 13.3165H10.5402C10.7048 13.3165 10.8311 13.2561 10.8915 13.2259C10.9563 13.1913 10.9734 13.2111 11.0235 13.1627L11.1391 13.0626H12.2076L12.3494 12.5872H11.5672L11.7038 12.3276H10.9273ZM12.5048 15.3563C12.4866 15.3301 12.4997 15.2839 12.5276 15.1877L12.8196 14.221H13.8586C14.01 14.2188 14.1193 14.2171 14.1905 14.212C14.2668 14.204 14.3499 14.1767 14.4404 14.1277C14.5338 14.0764 14.5816 14.0224 14.622 13.9603C14.667 13.8983 14.7393 13.7628 14.8014 13.5538L15.1685 12.3305L14.0903 12.3367C14.0903 12.3367 13.7583 12.3857 13.6122 12.4398C13.4647 12.5001 13.2539 12.6686 13.2539 12.6686L13.3513 12.3333H12.6853L11.7528 15.4257C11.7197 15.5458 11.6976 15.6329 11.6925 15.6853C11.6907 15.7417 11.7636 15.7975 11.8108 15.8396C11.8667 15.8817 11.9491 15.8749 12.0283 15.8817C12.1115 15.888 12.2298 15.8919 12.3932 15.8919H12.905L13.0622 15.3614L12.6039 15.4047C12.555 15.4047 12.5196 15.3785 12.5048 15.3563ZM13.0081 13.5681H14.0994L14.03 13.7855C14.0202 13.7906 13.9969 13.7748 13.8859 13.7879H12.9409L13.0081 13.5681ZM13.2267 12.8388H14.3272L14.248 13.1007C14.248 13.1007 13.7293 13.0956 13.6463 13.1109C13.2808 13.1742 13.0673 13.3695 13.0673 13.3695L13.2267 12.8388ZM14.0544 14.5137C14.0454 14.5462 14.0311 14.566 14.0111 14.5809C13.989 14.5952 13.9531 14.6003 13.8997 14.6003H13.7442L13.7533 14.3355H13.1065L13.0803 15.6301C13.0793 15.7235 13.0883 15.7776 13.1567 15.8208C13.225 15.8749 13.4356 15.8818 13.7191 15.8818H14.1244L14.2707 15.3972L13.9179 15.4166L13.8006 15.4234C13.7845 15.4166 13.7692 15.4103 13.7522 15.3932C13.7373 15.3785 13.7122 15.3876 13.7163 15.2941L13.7191 14.9623L14.0891 14.947C14.2889 14.947 14.3743 14.882 14.4472 14.82C14.5167 14.7607 14.5395 14.6925 14.5657 14.6003L14.6278 14.3065H14.1193L14.0544 14.5137Z" fill="#FEFEFE"/>
</svg>
