<svg width="24" height="24" viewBox="0 0 24 24" fill="none" xmlns="http://www.w3.org/2000/svg">
<path d="M9.26117 20.3898L9.5679 18.4083L8.88465 18.3922H5.62207L7.8894 3.7707C7.89644 3.72656 7.91931 3.6854 7.95274 3.65617C7.98617 3.62694 8.02898 3.61084 8.07355 3.61084H13.5747C15.401 3.61084 16.6614 3.99736 17.3194 4.76026C17.6279 5.11815 17.8244 5.49214 17.9194 5.90371C18.0191 6.33556 18.0208 6.85152 17.9235 7.48081L17.9164 7.52674V7.92996L18.2249 8.10771C18.4847 8.24788 18.6912 8.40833 18.8495 8.59205C19.1134 8.89805 19.2841 9.28695 19.3562 9.74803C19.4307 10.2222 19.4061 10.7865 19.2841 11.4253C19.1433 12.1602 18.9158 12.8002 18.6085 13.3239C18.3258 13.8065 17.9657 14.2067 17.5382 14.5169C17.13 14.8116 16.6449 15.0352 16.0966 15.1784C15.5652 15.3192 14.9594 15.3901 14.2949 15.3901H13.8668C13.5607 15.3901 13.2633 15.5023 13.0299 15.7033C12.7959 15.9085 12.6411 16.1888 12.5935 16.4954L12.5613 16.6738L12.0194 20.1662L11.9948 20.2944C11.9883 20.335 11.9772 20.3552 11.9607 20.369C11.9461 20.3815 11.925 20.3898 11.9044 20.3898H9.26117Z" fill="#253B80"/>
<path d="M18.5168 7.57324C18.5003 7.68001 18.4816 7.78917 18.4604 7.90131C17.735 11.6896 15.253 12.9982 12.0831 12.9982H10.4691C10.0814 12.9982 9.75475 13.2845 9.69434 13.6735L8.86799 19.0036L8.63399 20.5145C8.59469 20.7698 8.78823 21 9.04159 21H11.9042C12.2432 21 12.5311 20.7495 12.5845 20.4095L12.6127 20.2616L13.1516 16.7829L13.1862 16.592C13.239 16.2508 13.5276 16.0003 13.8666 16.0003H14.2947C17.0681 16.0003 19.2393 14.8551 19.8739 11.541C20.139 10.1566 20.0017 9.00062 19.3003 8.18762C19.088 7.94246 18.8247 7.73906 18.5168 7.57324Z" fill="#179BD7"/>
<path d="M17.7578 7.26533C17.647 7.23252 17.5326 7.2027 17.4153 7.17585C17.2975 7.14961 17.1766 7.12635 17.0523 7.10607C16.6171 7.03449 16.1403 7.00049 15.6295 7.00049H11.3177C11.2116 7.00049 11.1107 7.02494 11.0204 7.06908C10.8215 7.16631 10.6738 7.35778 10.638 7.5922L9.72073 13.5009L9.69434 13.6733C9.75474 13.2844 10.0814 12.9981 10.4691 12.9981H12.0831C15.253 12.9981 17.735 11.6888 18.4604 7.90117C18.4821 7.78904 18.5003 7.67988 18.5167 7.57311C18.3332 7.47409 18.1344 7.38939 17.9203 7.31722C17.8675 7.29933 17.813 7.28203 17.7578 7.26533Z" fill="#222D65"/>
<path d="M10.6384 7.59231C10.6742 7.35789 10.822 7.16642 11.0208 7.06979C11.1117 7.02565 11.212 7.00119 11.3181 7.00119H15.6299C16.1408 7.00119 16.6176 7.03519 17.0527 7.10677C17.1771 7.12705 17.2979 7.15031 17.4158 7.17656C17.5331 7.2034 17.6474 7.23322 17.7583 7.26603C17.8134 7.28273 17.8679 7.30003 17.9213 7.31733C18.1354 7.3895 18.3342 7.4748 18.5178 7.57322C18.7336 6.17328 18.516 5.2201 17.7718 4.35699C16.9513 3.4068 15.4704 3 13.5755 3H8.07432C7.68724 3 7.35705 3.28631 7.29723 3.67581L5.00586 18.4477C4.9607 18.7399 5.18239 19.0036 5.47211 19.0036H8.86841L9.72115 13.501L10.6384 7.59231Z" fill="#253B80"/>
</svg>
