<svg width="24" height="25" viewBox="0 0 24 25" fill="none" xmlns="http://www.w3.org/2000/svg">
<path d="M17.6418 6.85146C16.0118 5.22146 13.7018 4.28146 11.1618 4.54146C7.49184 4.91146 4.47184 7.89146 4.06184 11.5615C3.51184 16.4115 7.26184 20.5015 11.9918 20.5015C15.1818 20.5015 17.9218 18.6315 19.2018 15.9415C19.5218 15.2715 19.0418 14.5015 18.3018 14.5015C17.9318 14.5015 17.5818 14.7015 17.4218 15.0315C16.2918 17.4615 13.5818 19.0015 10.6218 18.3415C8.40184 17.8515 6.61184 16.0415 6.14184 13.8215C5.30184 9.94146 8.25184 6.50146 11.9918 6.50146C13.6518 6.50146 15.1318 7.19146 16.2118 8.28146L14.7018 9.79146C14.0718 10.4215 14.5118 11.5015 15.4018 11.5015H18.9918C19.5418 11.5015 19.9918 11.0515 19.9918 10.5015V6.91146C19.9918 6.02146 18.9118 5.57146 18.2818 6.20146L17.6418 6.85146Z" fill="#3F271E"/>
</svg>
