<svg width="18" height="18" viewBox="0 0 18 18" fill="none" xmlns="http://www.w3.org/2000/svg">
<mask id="mask0_3109_52004" style="mask-type:alpha" maskUnits="userSpaceOnUse" x="0" y="0" width="18" height="18">
<rect width="18" height="18" fill="#D9D9D9"/>
</mask>
<g mask="url(#mask0_3109_52004)">
<path d="M4.5 2.25H12.75V12L7.5 17.25L6.5625 16.3125C6.475 16.225 6.40313 16.1062 6.34688 15.9562C6.29063 15.8062 6.2625 15.6625 6.2625 15.525V15.2625L7.0875 12H2.25C1.85 12 1.5 11.85 1.2 11.55C0.9 11.25 0.75 10.9 0.75 10.5V9C0.75 8.9125 0.7625 8.81875 0.7875 8.71875C0.8125 8.61875 0.8375 8.525 0.8625 8.4375L3.1125 3.15C3.225 2.9 3.4125 2.6875 3.675 2.5125C3.9375 2.3375 4.2125 2.25 4.5 2.25ZM11.25 3.75H4.5L2.25 9V10.5H9L7.9875 14.625L11.25 11.3625V3.75ZM12.75 12V10.5H15V3.75H12.75V2.25H16.5V12H12.75Z" fill="#72787F"/>
</g>
</svg>
