<svg width="33" height="32" viewBox="0 0 33 32" fill="none" xmlns="http://www.w3.org/2000/svg">
<path d="M16.5 23.15C15.9333 23.15 15.4587 22.958 15.076 22.574C14.692 22.1913 14.5 21.7167 14.5 21.15V6.85L10.75 10.6C10.35 11 9.88333 11.2 9.35 11.2C8.81667 11.2 8.33333 10.9833 7.9 10.55C7.5 10.15 7.30867 9.67467 7.326 9.124C7.342 8.57467 7.53333 8.11667 7.9 7.75L15.1 0.549999C15.3 0.349999 15.5167 0.208 15.75 0.124C15.9833 0.0413329 16.2333 0 16.5 0C16.7667 0 17.0167 0.0413329 17.25 0.124C17.4833 0.208 17.7 0.349999 17.9 0.549999L25.1 7.75C25.5 8.15 25.6913 8.62467 25.674 9.174C25.658 9.72467 25.4667 10.1833 25.1 10.55C24.7 10.95 24.2253 11.158 23.676 11.174C23.1253 11.1913 22.65 11 22.25 10.6L18.5 6.85V21.15C18.5 21.7167 18.3087 22.1913 17.926 22.574C17.542 22.958 17.0667 23.15 16.5 23.15ZM4.5 31.15C3.4 31.15 2.45867 30.7587 1.676 29.976C0.892 29.192 0.5 28.25 0.5 27.15V23.15C0.5 22.5833 0.691334 22.108 1.074 21.724C1.458 21.3413 1.93333 21.15 2.5 21.15C3.06667 21.15 3.542 21.3413 3.926 21.724C4.30867 22.108 4.5 22.5833 4.5 23.15V27.15H28.5V23.15C28.5 22.5833 28.692 22.108 29.076 21.724C29.4587 21.3413 29.9333 21.15 30.5 21.15C31.0667 21.15 31.5413 21.3413 31.924 21.724C32.308 22.108 32.5 22.5833 32.5 23.15V27.15C32.5 28.25 32.1087 29.192 31.326 29.976C30.542 30.7587 29.6 31.15 28.5 31.15H4.5Z" fill="#9EA4AA"/>
</svg>
