<svg xmlns="http://www.w3.org/2000/svg" width="16" height="16" viewBox="0 0 16 16" fill="none">
<path fill-rule="evenodd" clip-rule="evenodd" d="M10.3332 0.666504H2.99984C2.2665 0.666504 1.6665 1.2665 1.6665 1.99984V10.6665C1.6665 11.0332 1.9665 11.3332 2.33317 11.3332C2.69984 11.3332 2.99984 11.0332 2.99984 10.6665V2.6665C2.99984 2.29984 3.29984 1.99984 3.6665 1.99984H10.3332C10.6998 1.99984 10.9998 1.69984 10.9998 1.33317C10.9998 0.966504 10.6998 0.666504 10.3332 0.666504ZM12.9998 3.33317H5.6665C4.93317 3.33317 4.33317 3.93317 4.33317 4.6665V13.9998C4.33317 14.7332 4.93317 15.3332 5.6665 15.3332H12.9998C13.7332 15.3332 14.3332 14.7332 14.3332 13.9998V4.6665C14.3332 3.93317 13.7332 3.33317 12.9998 3.33317ZM6.33317 13.9998H12.3332C12.6998 13.9998 12.9998 13.6998 12.9998 13.3332V5.33317C12.9998 4.9665 12.6998 4.6665 12.3332 4.6665H6.33317C5.9665 4.6665 5.6665 4.9665 5.6665 5.33317V13.3332C5.6665 13.6998 5.9665 13.9998 6.33317 13.9998Z" fill="#7D5D4F"/>
</svg>