<svg width="20" height="20" viewBox="0 0 20 20" fill="none" xmlns="http://www.w3.org/2000/svg">
<g id="image_">
<path id="icon/action/compare_arrows_24px" fill-rule="evenodd" clip-rule="evenodd" d="M12.492 8.33311V9.82478C12.492 10.1998 12.042 10.3831 11.7837 10.1248L9.46699 7.79978C9.30866 7.63311 9.30866 7.37478 9.46699 7.20811L11.7837 4.88311C12.042 4.61645 12.492 4.79978 12.492 5.17478V6.66645H17.5003C17.9587 6.66645 18.3337 7.04145 18.3337 7.49978C18.3337 7.95811 17.9587 8.33311 17.5003 8.33311H12.492ZM2.50033 11.6664H7.50866V10.1664C7.50866 9.79978 7.95866 9.60811 8.21699 9.87478L10.5337 12.1998C10.692 12.3664 10.692 12.6248 10.5337 12.7914L8.21699 15.1164C7.95866 15.3831 7.50866 15.1998 7.50866 14.8248V13.3331H2.50033C2.04199 13.3331 1.66699 12.9581 1.66699 12.4998C1.66699 12.0414 2.04199 11.6664 2.50033 11.6664Z" fill="#0F172A"/>
</g>
</svg>
