<svg width="12" height="12" viewBox="0 0 12 12" fill="none" xmlns="http://www.w3.org/2000/svg">
<g clip-path="url(#clip0_3825_8808)">
<path d="M6.37954 0.677813L7.64141 3.55594C7.68887 3.66425 7.76454 3.75784 7.86052 3.82694C7.95649 3.89603 8.06926 3.9381 8.18703 3.94875L11.2611 4.22437C11.6089 4.275 11.7477 4.70156 11.4955 4.94719L9.17985 6.8925C8.99235 7.05 8.90703 7.2975 8.9586 7.53656L9.63172 10.6875C9.69078 11.0334 9.32797 11.2978 9.01672 11.1337L6.3336 9.5625C6.2324 9.5031 6.11719 9.47179 5.99985 9.47179C5.88251 9.47179 5.76729 9.5031 5.6661 9.5625L2.98297 11.1328C2.67266 11.2959 2.30891 11.0325 2.36797 10.6866L3.0411 7.53562C3.09172 7.29656 3.00735 7.04906 2.81985 6.89156L0.503286 4.94812C0.252036 4.70344 0.390786 4.27594 0.737661 4.22531L3.81172 3.94969C3.9295 3.93904 4.04226 3.89697 4.13824 3.82788C4.23421 3.75878 4.30988 3.66519 4.35735 3.55687L5.61922 0.67875C5.77579 0.36375 6.22391 0.36375 6.37954 0.677813Z" fill="#FDD835"/>
<path d="M6.28986 3.72836L6.07611 1.60773C6.06768 1.48961 6.0433 1.28711 6.23268 1.28711C6.38268 1.28711 6.46424 1.5993 6.46424 1.5993L7.10549 3.3018C7.34736 3.94961 7.24799 4.1718 7.01455 4.30305C6.74643 4.45305 6.3508 4.33586 6.28986 3.72836Z" fill="#FFFF8D"/>
<path d="M8.93155 6.70395L10.7709 5.26863C10.8619 5.19269 11.0259 5.07176 10.8947 4.93394C10.7906 4.82519 10.5094 4.98176 10.5094 4.98176L8.89968 5.61082C8.41968 5.77676 8.10093 6.02238 8.0728 6.33176C8.03624 6.74426 8.40655 7.06207 8.93155 6.70395Z" fill="#F4B400"/>
</g>
<defs>
<clipPath id="clip0_3825_8808">
<rect width="12" height="12" fill="white"/>
</clipPath>
</defs>
</svg>
