<svg width="316" height="228" viewBox="0 0 316 228" fill="none" xmlns="http://www.w3.org/2000/svg">
<path d="M100.935 16.6443C97.8684 17.4315 94.0737 18.5754 91.8012 20.8805C89.0242 23.6879 88.0043 27.9675 87.0953 32.2341C87.0791 32.3203 87.0332 32.398 86.9657 32.454C86.8982 32.5099 86.8133 32.5406 86.7257 32.5406C86.638 32.5406 86.5531 32.5099 86.4856 32.454C86.4181 32.398 86.3722 32.3203 86.356 32.2341C85.6253 28.8156 84.6815 24.71 82.7004 22.1722C80.1801 18.9429 76.2984 17.6207 72.4798 16.6443C72.3943 16.6258 72.3178 16.5786 72.263 16.5105C72.2081 16.4425 72.1782 16.3577 72.1782 16.2703C72.1782 16.1829 72.2081 16.0981 72.263 16.03C72.3178 15.962 72.3943 15.9148 72.4798 15.8962C75.8134 15.0416 79.6321 13.9087 82.0154 11.2882C84.501 8.55476 85.4948 4.27077 86.3473 0.306449C86.3635 0.220295 86.4094 0.142525 86.4769 0.0865717C86.5444 0.0306189 86.6293 0 86.717 0C86.8046 0 86.8896 0.0306189 86.9571 0.0865717C87.0245 0.142525 87.0704 0.220295 87.0866 0.306449C87.8804 4.03156 89.2308 8.26336 91.4859 10.9186C93.9323 13.8021 97.39 14.9873 100.932 15.8962C101.018 15.9145 101.095 15.9615 101.15 16.0294C101.205 16.0973 101.235 16.182 101.235 16.2694C101.235 16.3568 101.206 16.4417 101.151 16.5099C101.096 16.5781 101.02 16.6255 100.935 16.6443Z" fill="#89D81A"/>
<path d="M315.089 139.792C310.705 140.914 305.284 142.549 302.026 145.844C298.058 149.858 296.59 155.973 295.303 162.071C295.28 162.194 295.215 162.306 295.118 162.387C295.022 162.467 294.9 162.512 294.774 162.512C294.648 162.512 294.527 162.467 294.43 162.387C294.333 162.306 294.268 162.194 294.246 162.071C293.2 157.184 291.854 151.317 289.027 147.69C285.419 143.076 279.878 141.179 274.426 139.792C274.305 139.764 274.197 139.696 274.12 139.598C274.042 139.501 274 139.38 274 139.256C274 139.131 274.042 139.011 274.12 138.913C274.197 138.816 274.305 138.748 274.426 138.72C279.189 137.5 284.647 135.882 288.055 132.135C291.606 128.221 293.032 122.108 294.246 116.441C294.268 116.317 294.333 116.205 294.43 116.125C294.527 116.044 294.648 116 294.774 116C294.9 116 295.022 116.044 295.118 116.125C295.215 116.205 295.28 116.317 295.303 116.441C296.433 121.764 298.367 127.812 301.587 131.607C305.086 135.727 310.027 137.422 315.089 138.72C315.211 138.748 315.319 138.816 315.396 138.913C315.473 139.011 315.516 139.131 315.516 139.256C315.516 139.38 315.473 139.501 315.396 139.598C315.319 139.696 315.211 139.764 315.089 139.792Z" fill="#89D81A"/>
<path d="M41.0894 93.0384C36.7053 94.1605 31.284 95.7958 28.0265 99.0904C24.0578 103.105 22.5899 109.22 21.3026 115.317C21.28 115.441 21.2148 115.553 21.1182 115.634C21.0216 115.714 20.8999 115.758 20.7741 115.758C20.6484 115.758 20.5266 115.714 20.43 115.634C20.3335 115.553 20.2682 115.441 20.2457 115.317C19.1997 110.431 17.8536 104.564 15.0266 100.937C11.4189 96.3221 5.87802 94.4258 0.426267 93.0384C0.305085 93.0104 0.19697 92.9422 0.119557 92.8448C0.0421437 92.7475 0 92.6268 0 92.5024C0 92.378 0.0421437 92.2573 0.119557 92.16C0.19697 92.0626 0.305085 91.9944 0.426267 91.9664C5.18867 90.7464 10.6469 89.1285 14.0546 85.3816C17.6057 81.4673 19.0323 75.3545 20.2457 69.6874C20.2682 69.5637 20.3335 69.4518 20.43 69.3713C20.5266 69.2907 20.6484 69.2466 20.7741 69.2466C20.8999 69.2466 21.0216 69.2907 21.1182 69.3713C21.2148 69.4518 21.28 69.5637 21.3026 69.6874C22.4333 75.0109 24.3666 81.0585 27.5872 84.8532C31.0861 88.9741 36.0269 90.6681 41.0894 91.9664C41.2105 91.9944 41.3187 92.0626 41.3961 92.16C41.4735 92.2573 41.5156 92.378 41.5156 92.5024C41.5156 92.6268 41.4735 92.7475 41.3961 92.8448C41.3187 92.9422 41.2105 93.0104 41.0894 93.0384Z" fill="#89D81A"/>
<path d="M265.853 48.8919C264.366 49.2725 262.526 49.827 261.419 50.9447C260.073 52.3082 259.577 54.3828 259.138 56.453C259.13 56.4948 259.108 56.5324 259.075 56.5595C259.042 56.5865 259.001 56.6013 258.959 56.6013C258.916 56.6013 258.875 56.5865 258.842 56.5595C258.809 56.5324 258.787 56.4948 258.779 56.453C258.422 54.7938 257.966 52.804 257.005 51.571C255.783 50.0053 253.899 49.3638 252.051 48.8919C252.009 48.8828 251.972 48.8597 251.945 48.8265C251.919 48.7932 251.904 48.7519 251.904 48.7092C251.904 48.6666 251.919 48.6253 251.945 48.592C251.972 48.5588 252.009 48.5357 252.051 48.5266C253.667 48.1134 255.53 47.5632 256.676 46.2911C257.883 44.9667 258.366 42.8878 258.779 40.9654C258.787 40.9237 258.809 40.8861 258.842 40.859C258.875 40.8319 258.916 40.8171 258.959 40.8171C259.001 40.8171 259.042 40.8319 259.075 40.859C259.108 40.8861 259.13 40.9237 259.138 40.9654C259.521 42.7725 260.177 44.8254 261.271 46.1128C262.459 47.511 264.135 48.0873 265.853 48.5266C265.895 48.5357 265.932 48.5588 265.959 48.592C265.985 48.6253 266 48.6666 266 48.7092C266 48.7519 265.985 48.7932 265.959 48.8265C265.932 48.8597 265.895 48.8828 265.853 48.8919Z" fill="#89D81A"/>
<path d="M100.761 179.221C99.2732 179.602 97.4335 180.158 96.3266 181.276C94.9805 182.637 94.4847 184.714 94.0454 186.782C94.0374 186.824 94.0151 186.861 93.9824 186.889C93.9496 186.916 93.9085 186.93 93.866 186.93C93.8235 186.93 93.7824 186.916 93.7496 186.889C93.7169 186.861 93.6946 186.824 93.6866 186.782C93.33 185.123 92.8733 183.131 91.9121 181.9C90.69 180.334 88.8068 179.693 86.9584 179.219C86.9178 179.209 86.8817 179.185 86.8559 179.153C86.8301 179.12 86.8161 179.079 86.8161 179.037C86.8161 178.995 86.8301 178.955 86.8559 178.922C86.8817 178.889 86.9178 178.866 86.9584 178.856C88.5763 178.44 90.4269 177.892 91.5838 176.62C92.7907 175.294 93.2734 173.217 93.6866 171.292C93.6946 171.251 93.7169 171.213 93.7496 171.186C93.7824 171.159 93.8235 171.144 93.866 171.144C93.9085 171.144 93.9496 171.159 93.9824 171.186C94.0151 171.213 94.0374 171.251 94.0454 171.292C94.4281 173.099 95.0849 175.152 96.1787 176.442C97.366 177.84 99.0427 178.414 100.761 178.856C100.802 178.865 100.84 178.888 100.866 178.921C100.893 178.954 100.908 178.996 100.908 179.038C100.908 179.081 100.893 179.122 100.866 179.156C100.84 179.189 100.802 179.212 100.761 179.221Z" fill="#89D81A"/>
<path d="M153.573 220.214C152.084 220.597 150.244 221.151 149.139 222.269C147.791 223.633 147.298 225.707 146.856 227.778C146.848 227.819 146.826 227.857 146.793 227.884C146.76 227.911 146.719 227.926 146.677 227.926C146.634 227.926 146.593 227.911 146.56 227.884C146.528 227.857 146.505 227.819 146.497 227.778C146.143 226.118 145.686 224.129 144.725 222.896C143.503 221.33 141.62 220.688 139.771 220.214C139.731 220.204 139.695 220.181 139.669 220.148C139.643 220.115 139.629 220.074 139.629 220.033C139.629 219.991 139.643 219.95 139.669 219.917C139.695 219.884 139.731 219.861 139.771 219.851C141.387 219.438 143.24 218.888 144.397 217.616C145.601 216.291 146.086 214.212 146.497 212.29C146.505 212.248 146.528 212.211 146.56 212.183C146.593 212.156 146.634 212.142 146.677 212.142C146.719 212.142 146.76 212.156 146.793 212.183C146.826 212.211 146.848 212.248 146.856 212.29C147.241 214.097 147.896 216.15 148.989 217.437C150.177 218.836 151.853 219.412 153.573 219.851C153.614 219.861 153.65 219.884 153.676 219.917C153.702 219.95 153.716 219.991 153.716 220.033C153.716 220.074 153.702 220.115 153.676 220.148C153.65 220.181 153.614 220.204 153.573 220.214Z" fill="#89D81A"/>
<path d="M162.518 191.309C114.048 191.309 74.6132 151.874 74.6132 103.404C74.6132 54.9345 114.048 15.5022 162.518 15.5022C210.988 15.5022 250.422 54.9345 250.422 103.404C250.422 151.874 210.988 191.309 162.518 191.309ZM162.518 21.3432C117.268 21.3432 80.4673 58.1572 80.4673 103.404C80.4673 148.652 117.279 185.468 162.528 185.468C207.778 185.468 244.592 148.654 244.592 103.404C244.592 58.1551 207.767 21.3432 162.518 21.3432Z" fill="#49C00F"/>
<path d="M185.967 22.4228C166.743 14.1919 113.878 12.2021 87 64.6277C112.282 34.2897 139.665 18.963 185.967 22.4228Z" fill="#BDDE23"/>
<path d="M148.217 186.865C192.873 183.64 223.757 157.508 245.125 126C241.671 145.641 228.4 163.68 212.319 174.779C196.237 185.878 171.264 192.65 148 186.865" fill="#15A208"/>
<circle cx="162" cy="104" r="83" fill="#49C00F"/>
<path d="M203.477 61.2464C198.41 56.0708 187.761 55.1183 182.818 61.2464L157.334 92.8805C153.289 97.9024 149.243 102.924 145.197 107.946C143.762 109.727 142.051 112.402 140.196 114.883L139.108 113.759L130.856 105.298C117.723 91.804 97.0796 112.474 110.197 125.956C116.971 132.915 123.897 142.649 133.078 146.322C143.151 150.351 152.084 145.504 158.56 137.645C173.733 119.237 188.502 100.483 203.47 81.9074C208.461 75.7228 209.409 67.3114 203.477 61.2464Z" fill="#F7F8F9"/>
</svg>
