<svg width="24" height="24" viewBox="0 0 24 24" fill="none" xmlns="http://www.w3.org/2000/svg">
<path fill-rule="evenodd" clip-rule="evenodd" d="M15.1865 14.4715H15.9765L20.2165 18.7315C20.6265 19.1415 20.6265 19.8115 20.2165 20.2215C19.8065 20.6315 19.1365 20.6315 18.7265 20.2215L14.4765 15.9715V15.1815L14.2065 14.9015C12.8066 16.1015 10.8966 16.7215 8.86657 16.3815C6.08657 15.9115 3.86656 13.5915 3.52656 10.7916C3.00656 6.56158 6.56657 3.00157 10.7966 3.52157C13.5965 3.86157 15.9165 6.08158 16.3865 8.86158C16.7265 10.8916 16.1065 12.8016 14.9065 14.2015L15.1865 14.4715ZM5.47656 9.97157C5.47656 12.4616 7.48656 14.4716 9.97656 14.4716C12.4666 14.4716 14.4766 12.4616 14.4766 9.97157C14.4766 7.48157 12.4666 5.47157 9.97656 5.47157C7.48656 5.47157 5.47656 7.48157 5.47656 9.97157Z" fill="#72787F"/>
</svg>
