<svg width="24" height="24" viewBox="0 0 24 24" fill="none" xmlns="http://www.w3.org/2000/svg">
<g clip-path="url(#clip0_1_2195)">
<path d="M24.0001 12.2756C24.0001 11.4599 23.9326 10.6398 23.7886 9.83728H12.2407V14.4583H18.8537C18.5793 15.9486 17.6975 17.267 16.4064 18.1048V21.1031H20.3517C22.6685 19.0131 24.0001 15.9266 24.0001 12.2756Z" fill="#4285F4"/>
<path d="M12.2406 24C15.5426 24 18.3272 22.9373 20.3561 21.103L16.4108 18.1047C15.3132 18.8366 13.8961 19.2511 12.2451 19.2511C9.05113 19.2511 6.34297 17.139 5.37128 14.2994H1.30005V17.3904C3.3784 21.4426 7.61158 24 12.2406 24Z" fill="#34A853"/>
<path d="M5.36675 14.2995C4.85391 12.8091 4.85391 11.1953 5.36675 9.70496V6.61401H1.30002C-0.436434 10.0048 -0.436434 13.9996 1.30002 17.3904L5.36675 14.2995Z" fill="#FBBC04"/>
<path d="M12.2406 4.74881C13.9861 4.72235 15.6731 5.36611 16.9372 6.54781L20.4326 3.12176C18.2193 1.08465 15.2817 -0.0353205 12.2406 -4.58262e-05C7.61158 -4.58262e-05 3.3784 2.55737 1.30005 6.61395L5.36678 9.7049C6.33398 6.86088 9.04663 4.74881 12.2406 4.74881Z" fill="#EA4335"/>
</g>
<defs>
<clipPath id="clip0_1_2195">
<rect width="24" height="24" fill="white"/>
</clipPath>
</defs>
</svg>
