<svg width="24" height="24" viewBox="0 0 24 24" fill="none" xmlns="http://www.w3.org/2000/svg">
<path d="M6.1347 3.4763C5.53656 3.70891 5.03072 4.01905 4.52489 4.52489C4.01905 5.02703 3.70891 5.53656 3.4763 6.13101C3.25107 6.707 3.09969 7.3679 3.05538 8.33527C3.01108 9.30263 3 9.61278 3 12.0792C3 14.5456 3.01108 14.8557 3.05538 15.8231C3.09969 16.7905 3.25476 17.4514 3.4763 18.0274C3.70891 18.6255 4.01905 19.1313 4.52489 19.6372C5.03072 20.143 5.53656 20.4532 6.1347 20.6858C6.71069 20.911 7.3716 21.0624 8.33896 21.1067C9.30632 21.151 9.61647 21.1621 12.0829 21.1621C14.5493 21.1621 14.8594 21.151 15.8268 21.1067C16.7942 21.0624 17.4551 20.9073 18.0311 20.6858C18.6292 20.4532 19.135 20.143 19.6409 19.6372C20.1467 19.1313 20.4568 18.6255 20.6895 18.0274C20.9147 17.4514 21.0661 16.7905 21.1104 15.8231C21.1547 14.8557 21.1658 14.5456 21.1658 12.0792C21.1658 9.61278 21.1547 9.30263 21.1104 8.33527C21.0661 7.3679 20.911 6.707 20.6895 6.13101C20.4568 5.53656 20.1467 5.02703 19.6446 4.52489C19.1387 4.01905 18.6329 3.70891 18.0347 3.4763C17.4588 3.25107 16.7979 3.09969 15.8305 3.05538C14.8631 3.01108 14.553 3 12.0866 3C9.62016 3 9.31002 3.01108 8.34265 3.05538C7.3716 3.096 6.71069 3.25107 6.1347 3.4763ZM15.7529 4.68735C16.6391 4.72796 17.1191 4.87565 17.4403 5.00119C17.8649 5.16734 18.1677 5.36303 18.4852 5.68056C18.8027 5.99809 18.9984 6.30085 19.1646 6.72546C19.2901 7.04668 19.4378 7.52667 19.4784 8.4128C19.5227 9.36909 19.5301 9.65708 19.5301 12.0829C19.5301 14.5087 19.519 14.7967 19.4784 15.753C19.4378 16.6391 19.2901 17.1191 19.1646 17.4403C18.9984 17.8649 18.8027 18.1677 18.4852 18.4852C18.1677 18.8027 17.8649 18.9984 17.4403 19.1646C17.1191 19.2901 16.6391 19.4378 15.7529 19.4784C14.7967 19.5227 14.5087 19.5301 12.0829 19.5301C9.65708 19.5301 9.36909 19.519 8.4128 19.4784C7.52667 19.4378 7.04668 19.2901 6.72546 19.1646C6.30085 18.9984 5.99809 18.8027 5.68056 18.4852C5.36303 18.1677 5.16734 17.8649 5.00119 17.4403C4.87565 17.1191 4.72796 16.6391 4.68735 15.753C4.64304 14.7967 4.63566 14.5087 4.63566 12.0829C4.63566 9.65708 4.64673 9.36909 4.68735 8.4128C4.72796 7.52667 4.87565 7.04668 5.00119 6.72546C5.16734 6.30085 5.36303 5.99809 5.68056 5.68056C5.99809 5.36303 6.30085 5.16734 6.72546 5.00119C7.04668 4.87565 7.52667 4.72796 8.4128 4.68735C9.36909 4.64304 9.65708 4.63566 12.0829 4.63566C14.5087 4.63566 14.7967 4.64304 15.7529 4.68735Z" fill="url(#paint0_radial_1_2291)"/>
<path d="M7.41956 12.0828C7.41956 14.66 9.50936 16.7461 12.0828 16.7461C14.6563 16.7461 16.7461 14.6563 16.7461 12.0828C16.7461 9.50936 14.66 7.41956 12.0828 7.41956C9.50566 7.41956 7.41956 9.50566 7.41956 12.0828ZM15.1105 12.0828C15.1105 13.7554 13.7554 15.1105 12.0828 15.1105C10.4103 15.1105 9.05521 13.7554 9.05521 12.0828C9.05521 10.4103 10.4103 9.05521 12.0828 9.05521C13.7554 9.05521 15.1105 10.4103 15.1105 12.0828Z" fill="url(#paint1_radial_1_2291)"/>
<path d="M16.9344 8.32429C17.536 8.32429 18.0236 7.83663 18.0236 7.23508C18.0236 6.63353 17.536 6.14587 16.9344 6.14587C16.3329 6.14587 15.8452 6.63353 15.8452 7.23508C15.8452 7.83663 16.3329 8.32429 16.9344 8.32429Z" fill="#654C9F"/>
<defs>
<radialGradient id="paint0_radial_1_2291" cx="0" cy="0" r="1" gradientUnits="userSpaceOnUse" gradientTransform="translate(3.33053 19.4992) rotate(-3.00009) scale(26.2633 22.3236)">
<stop stop-color="#FED576"/>
<stop offset="0.2634" stop-color="#F47133"/>
<stop offset="0.6091" stop-color="#BC3081"/>
<stop offset="1" stop-color="#4C63D2"/>
</radialGradient>
<radialGradient id="paint1_radial_1_2291" cx="0" cy="0" r="1" gradientUnits="userSpaceOnUse" gradientTransform="translate(7.58871 15.8909) rotate(-3.00009) scale(13.4866 11.4635)">
<stop stop-color="#FED576"/>
<stop offset="0.2634" stop-color="#F47133"/>
<stop offset="0.6091" stop-color="#BC3081"/>
<stop offset="1" stop-color="#4C63D2"/>
</radialGradient>
</defs>
</svg>
