<svg width="15" height="16" viewBox="0 0 15 16" fill="none" xmlns="http://www.w3.org/2000/svg">
<path d="M14.6002 2.77434C14.7252 2.65333 14.8249 2.50856 14.8935 2.34847C14.9622 2.18839 14.9984 2.01619 14.9999 1.84193C15.0015 1.66767 14.9685 1.49484 14.9028 1.33352C14.8371 1.1722 14.74 1.02562 14.6172 0.902333C14.4945 0.779049 14.3484 0.68153 14.1877 0.615465C14.0269 0.549399 13.8547 0.516112 13.681 0.517543C13.5072 0.518975 13.3355 0.555097 13.1759 0.623803C13.0162 0.692508 12.8718 0.792421 12.7511 0.917712L7.50741 6.17611L2.26547 0.917712C2.1457 0.788769 2.00126 0.685347 1.84078 0.613615C1.68029 0.541884 1.50705 0.503313 1.33138 0.500204C1.15572 0.497095 0.981226 0.529511 0.818319 0.595519C0.655412 0.661526 0.507428 0.759773 0.383194 0.884397C0.258959 1.00902 0.16102 1.15747 0.0952197 1.32089C0.0294191 1.48431 -0.00289582 1.65935 0.000203607 1.83557C0.00330304 2.01178 0.0417532 2.18557 0.11326 2.34656C0.184766 2.50755 0.287864 2.65244 0.416404 2.77259L5.65485 8.03274L0.412915 13.2911C0.181817 13.5399 0.0560043 13.869 0.0619845 14.209C0.0679647 14.549 0.205271 14.8734 0.444974 15.1139C0.684678 15.3543 1.00806 15.492 1.347 15.498C1.68594 15.504 2.01397 15.3778 2.26198 15.146L7.50741 9.88761L12.7493 15.1478C12.9974 15.3796 13.3254 15.5058 13.6643 15.4998C14.0033 15.4938 14.3266 15.3561 14.5663 15.1156C14.8061 14.8751 14.9434 14.5507 14.9493 14.2107C14.9553 13.8707 14.8295 13.5417 14.5984 13.2929L9.35997 8.03274L14.6002 2.77434Z" fill="#26282B"/>
</svg>
