<svg width="25" height="24" viewBox="0 0 25 24" fill="none" xmlns="http://www.w3.org/2000/svg">
<path fill-rule="evenodd" clip-rule="evenodd" d="M16 1H5C3.9 1 3 1.9 3 3V16C3 16.55 3.45 17 4 17C4.55 17 5 16.55 5 16V4C5 3.45 5.45 3 6 3H16C16.55 3 17 2.55 17 2C17 1.45 16.55 1 16 1ZM20 5H9C7.9 5 7 5.9 7 7V21C7 22.1 7.9 23 9 23H20C21.1 23 22 22.1 22 21V7C22 5.9 21.1 5 20 5ZM10 21H19C19.55 21 20 20.55 20 20V8C20 7.45 19.55 7 19 7H10C9.45 7 9 7.45 9 8V20C9 20.55 9.45 21 10 21Z" fill="#26282B"/>
</svg>
