<svg width="25" height="24" viewBox="0 0 25 24" fill="none" xmlns="http://www.w3.org/2000/svg">
<path fill-rule="evenodd" clip-rule="evenodd" d="M21.5 6.375C20.825 6.7125 20.15 6.825 19.3625 6.9375C20.15 6.4875 20.7125 5.8125 20.9375 4.9125C20.2625 5.3625 19.475 5.5875 18.575 5.8125C17.9 5.1375 16.8875 4.6875 15.875 4.6875C13.9625 4.6875 12.275 6.375 12.275 8.4C12.275 8.7375 12.275 8.9625 12.3875 9.1875C9.35 9.075 6.5375 7.6125 4.7375 5.3625C4.4 5.925 4.2875 6.4875 4.2875 7.275C4.2875 8.5125 4.9625 9.6375 5.975 10.3125C5.4125 10.3125 4.85 10.0875 4.2875 9.8625C4.2875 11.6625 5.525 13.125 7.2125 13.4625C6.875 13.575 6.5375 13.575 6.2 13.575C5.975 13.575 5.75 13.575 5.525 13.4625C5.975 14.925 7.325 16.05 9.0125 16.05C7.775 17.0625 6.2 17.625 4.4 17.625C4.0625 17.625 3.8375 17.625 3.5 17.625C5.1875 18.6375 7.1 19.3125 9.125 19.3125C15.875 19.3125 19.5875 13.6875 19.5875 8.85C19.5875 8.7375 19.5875 8.5125 19.5875 8.4C20.375 7.8375 21.05 7.1625 21.5 6.375Z" fill="#01A7E7"/>
</svg>
