<svg width="25" height="24" viewBox="0 0 25 24" fill="none" xmlns="http://www.w3.org/2000/svg">
<g clip-path="url(#clip0_4288_29135)">
<path fill-rule="evenodd" clip-rule="evenodd" d="M10.0996 3C9.10459 3.00073 8.29931 3.80661 8.30005 4.79963C8.29931 5.79266 9.10533 6.59853 10.1003 6.59927H11.9006V4.80037C11.9014 3.80734 11.0954 3.00147 10.0996 3C10.1003 3 10.1003 3 10.0996 3V3ZM10.0996 7.8H5.3003C4.30528 7.80073 3.49927 8.60661 3.5 9.59963C3.49853 10.5927 4.30455 11.3985 5.29956 11.4H10.0996C11.0946 11.3993 11.9006 10.5934 11.8999 9.60037C11.9006 8.60661 11.0946 7.80073 10.0996 7.8Z" fill="#01A7E7"/>
<path fill-rule="evenodd" clip-rule="evenodd" d="M21.5006 9.59963C21.5013 8.60661 20.6953 7.80073 19.7003 7.8C18.7052 7.80073 17.8992 8.60661 17.9 9.59963V11.4H19.7003C20.6953 11.3993 21.5013 10.5934 21.5006 9.59963ZM16.7005 9.59963V4.79963C16.7012 3.80734 15.8959 3.00147 14.9009 3C13.9059 3.00073 13.0999 3.80661 13.1006 4.79963V9.59963C13.0991 10.5927 13.9051 11.3985 14.9002 11.4C15.8952 11.3993 16.7012 10.5934 16.7005 9.59963Z" fill="#2EB67D"/>
<path fill-rule="evenodd" clip-rule="evenodd" d="M14.8999 21C15.8949 20.9992 16.701 20.1934 16.7002 19.2003C16.701 18.2073 15.8949 17.4014 14.8999 17.4007H13.0996V19.2003C13.0989 20.1926 13.9049 20.9985 14.8999 21ZM14.8999 16.1992H19.7C20.6951 16.1985 21.5011 15.3926 21.5003 14.3996C21.5018 13.4066 20.6958 12.6007 19.7008 12.5992H14.9007C13.9056 12.6 13.0996 13.4058 13.1003 14.3989C13.0996 15.3926 13.9049 16.1985 14.8999 16.1992Z" fill="#ECB22E"/>
<path fill-rule="evenodd" clip-rule="evenodd" d="M3.5 14.3995C3.49927 15.3925 4.30528 16.1984 5.30029 16.1992C6.29531 16.1984 7.10132 15.3925 7.10059 14.3995V12.5999H5.30029C4.30528 12.6006 3.49927 13.4065 3.5 14.3995ZM8.30005 14.3995V19.1996C8.29858 20.1926 9.10459 20.9985 10.0996 20.9999C11.0946 20.9992 11.9006 20.1933 11.8999 19.2003V14.401C11.9014 13.4079 11.0954 12.6021 10.1003 12.6006C9.10459 12.6006 8.29931 13.4065 8.30005 14.3995C8.30005 14.4002 8.30005 14.3995 8.30005 14.3995Z" fill="#E01E5A"/>
</g>
<defs>
<clipPath id="clip0_4288_29135">
<rect width="18" height="18" fill="white" transform="translate(3.5 3)"/>
</clipPath>
</defs>
</svg>
