<svg width="25" height="24" viewBox="0 0 25 24" fill="none" xmlns="http://www.w3.org/2000/svg">
<path d="M17.2223 14.0602C16.9668 13.9289 15.6941 13.3055 15.4574 13.2211C15.2207 13.132 15.0473 13.0898 14.8762 13.3523C14.7027 13.6125 14.2105 14.1914 14.0559 14.3672C13.9059 14.5406 13.7535 14.5617 13.498 14.4328C11.9793 13.6734 10.9832 13.0781 9.98242 11.3602C9.71758 10.9031 10.2473 10.9359 10.7418 9.94922C10.8262 9.77578 10.784 9.62813 10.7184 9.49688C10.6527 9.36563 10.1371 8.09531 9.92148 7.57734C9.71289 7.07344 9.49727 7.14375 9.34023 7.13437C9.19023 7.125 9.01914 7.125 8.8457 7.125C8.67227 7.125 8.39336 7.19063 8.15664 7.44609C7.91992 7.70625 7.25195 8.33203 7.25195 9.60234C7.25195 10.8727 8.17773 12.1031 8.3043 12.2766C8.43555 12.45 10.1254 15.0563 12.7199 16.1789C14.3605 16.8867 15.0027 16.9477 15.823 16.8258C16.3223 16.7508 17.3512 16.2023 17.5645 15.5953C17.7777 14.9906 17.7777 14.4727 17.7145 14.3648C17.6512 14.25 17.4777 14.1844 17.2223 14.0602Z" fill="#1ABB0C"/>
<path d="M22.1845 7.93125C21.6548 6.67266 20.8954 5.54297 19.9275 4.57266C18.9595 3.60469 17.8298 2.84297 16.5689 2.31563C15.2798 1.77422 13.9111 1.5 12.5001 1.5H12.4533C11.0329 1.50703 9.65716 1.78828 8.36341 2.34141C7.1142 2.87578 5.99388 3.63516 5.03529 4.60312C4.0767 5.57109 3.32435 6.69609 2.80404 7.95C2.26498 9.24844 1.9931 10.6289 2.00013 12.0492C2.00716 13.6758 2.39623 15.2906 3.12513 16.7344V20.2969C3.12513 20.8922 3.60795 21.375 4.20326 21.375H7.7681C9.21185 22.1039 10.8267 22.493 12.4533 22.5H12.5025C13.9064 22.5 15.2681 22.2281 16.5501 21.6961C17.804 21.1734 18.9314 20.4234 19.897 19.4648C20.865 18.5063 21.6267 17.3859 22.1587 16.1367C22.7119 14.843 22.9931 13.4672 23.0001 12.0469C23.0072 10.6195 22.7306 9.23438 22.1845 7.93125ZM18.6431 18.1969C17.0001 19.8234 14.8204 20.7188 12.5001 20.7188H12.4603C11.047 20.7117 9.6431 20.3602 8.40326 19.6992L8.20638 19.5938H4.90638V16.2938L4.80091 16.0969C4.13998 14.857 3.78841 13.4531 3.78138 12.0398C3.77201 9.70312 4.66498 7.50937 6.30326 5.85703C7.9392 4.20469 10.1259 3.29062 12.4626 3.28125H12.5025C13.6744 3.28125 14.8111 3.50859 15.8822 3.95859C16.9275 4.39687 17.865 5.02734 18.6712 5.83359C19.4751 6.6375 20.1079 7.57734 20.5462 8.62266C21.0009 9.70547 21.2283 10.8539 21.2236 12.0398C21.2095 14.3742 20.2931 16.5609 18.6431 18.1969Z" fill="#1ABB0C"/>
</svg>
