<svg width="32" height="32" viewBox="0 0 32 32" fill="none" xmlns="http://www.w3.org/2000/svg">
<rect width="32" height="32" rx="12" fill="white" fill-opacity="0.26"/>
<path fill-rule="evenodd" clip-rule="evenodd" d="M19.5 5H8.5C7.4 5 6.5 5.9 6.5 7V20C6.5 20.55 6.95 21 7.5 21C8.05 21 8.5 20.55 8.5 20V8C8.5 7.45 8.95 7 9.5 7H19.5C20.05 7 20.5 6.55 20.5 6C20.5 5.45 20.05 5 19.5 5ZM23.5 9H12.5C11.4 9 10.5 9.9 10.5 11V25C10.5 26.1 11.4 27 12.5 27H23.5C24.6 27 25.5 26.1 25.5 25V11C25.5 9.9 24.6 9 23.5 9ZM13.5 25H22.5C23.05 25 23.5 24.55 23.5 24V12C23.5 11.45 23.05 11 22.5 11H13.5C12.95 11 12.5 11.45 12.5 12V24C12.5 24.55 12.95 25 13.5 25Z" fill="white"/>
</svg>
